<?xml version="1.0" encoding="UTF-8" standalone="no"?>
<!-- Created with Inkscape (http://www.inkscape.org/) -->

<svg
   xmlns:dc="http://purl.org/dc/elements/1.1/"
   xmlns:cc="http://creativecommons.org/ns#"
   xmlns:rdf="http://www.w3.org/1999/02/22-rdf-syntax-ns#"
   xmlns:svg="http://www.w3.org/2000/svg"
   xmlns="http://www.w3.org/2000/svg"
   xmlns:xlink="http://www.w3.org/1999/xlink"
   xmlns:sodipodi="http://sodipodi.sourceforge.net/DTD/sodipodi-0.dtd"
   xmlns:inkscape="http://www.inkscape.org/namespaces/inkscape"
   width="128"
   height="128"
   id="svg1307"
   sodipodi:version="0.32"
   inkscape:version="0.48.1 r9760"
   version="1.0"
   sodipodi:docname="clear.svg"
   inkscape:output_extension="org.inkscape.output.svgz.inkscape">
  <defs
     id="defs1309">
    <linearGradient
       inkscape:collect="always"
       id="linearGradient3685">
      <stop
         style="stop-color:#fcfcfc;stop-opacity:1;"
         offset="0"
         id="stop3687" />
      <stop
         style="stop-color:#fcfcfc;stop-opacity:0;"
         offset="1"
         id="stop3689" />
    </linearGradient>
    <linearGradient
       id="linearGradient3669"
       inkscape:collect="always">
      <stop
         id="stop3671"
         offset="0"
         style="stop-color:#000000;stop-opacity:1" />
      <stop
         id="stop3673"
         offset="1"
         style="stop-color:#f4f0db;stop-opacity:0" />
    </linearGradient>
    <linearGradient
       inkscape:collect="always"
       id="linearGradient3657">
      <stop
         style="stop-color:#f4f0db;stop-opacity:1;"
         offset="0"
         id="stop3659" />
      <stop
         style="stop-color:#f4f0db;stop-opacity:0"
         offset="1"
         id="stop3661" />
    </linearGradient>
    <linearGradient
       inkscape:collect="always"
       id="linearGradient3645">
      <stop
         style="stop-color:#f4f0db;stop-opacity:1;"
         offset="0"
         id="stop3647" />
      <stop
         style="stop-color:#f4f0db;stop-opacity:0;"
         offset="1"
         id="stop3649" />
    </linearGradient>
    <linearGradient
       inkscape:collect="always"
       id="linearGradient3621">
      <stop
         style="stop-color:#ffffff;stop-opacity:1;"
         offset="0"
         id="stop3623" />
      <stop
         style="stop-color:#ffffff;stop-opacity:0;"
         offset="1"
         id="stop3625" />
    </linearGradient>
    <linearGradient
       inkscape:collect="always"
       id="linearGradient3578">
      <stop
         style="stop-color:#af8d5f;stop-opacity:1;"
         offset="0"
         id="stop3580" />
      <stop
         style="stop-color:#af8d5f;stop-opacity:0;"
         offset="1"
         id="stop3582" />
    </linearGradient>
    <linearGradient
       id="linearGradient3396">
      <stop
         style="stop-color:#f0e0c7;stop-opacity:1"
         offset="0"
         id="stop3398" />
      <stop
         id="stop3406"
         offset="0.25"
         style="stop-color:#c5b496;stop-opacity:1" />
      <stop
         id="stop3404"
         offset="0.5"
         style="stop-color:#9b7e56;stop-opacity:1" />
      <stop
         style="stop-color:#c9ad86;stop-opacity:1"
         offset="0.75"
         id="stop3408" />
      <stop
         style="stop-color:#e4ccab;stop-opacity:1"
         offset="1"
         id="stop3400" />
    </linearGradient>
    <linearGradient
       inkscape:collect="always"
       id="linearGradient3264">
      <stop
         style="stop-color:#ffffff;stop-opacity:1;"
         offset="0"
         id="stop3266" />
      <stop
         style="stop-color:#ffffff;stop-opacity:0;"
         offset="1"
         id="stop3268" />
    </linearGradient>
    <linearGradient
       id="linearGradient3196">
      <stop
         style="stop-color:#bea57f;stop-opacity:1;"
         offset="0"
         id="stop3198" />
      <stop
         id="stop3241"
         offset="0.5"
         style="stop-color:#a6865c;stop-opacity:1" />
      <stop
         style="stop-color:#d8ac6e;stop-opacity:1"
         offset="1"
         id="stop3200" />
    </linearGradient>
    <linearGradient
       inkscape:collect="always"
       id="linearGradient3141">
      <stop
         style="stop-color:#c2a27e;stop-opacity:1;"
         offset="0"
         id="stop3144" />
      <stop
         style="stop-color:#c2a27e;stop-opacity:0;"
         offset="1"
         id="stop3146" />
    </linearGradient>
    <linearGradient
       inkscape:collect="always"
       id="linearGradient3111">
      <stop
         style="stop-color:#d8b789;stop-opacity:1;"
         offset="0"
         id="stop3113" />
      <stop
         style="stop-color:#b17f3a;stop-opacity:1"
         offset="1"
         id="stop3115" />
    </linearGradient>
    <linearGradient
       inkscape:collect="always"
       id="linearGradient3092">
      <stop
         style="stop-color:#dcc0a1;stop-opacity:1;"
         offset="0"
         id="stop3094" />
      <stop
         style="stop-color:#dcc0a1;stop-opacity:0;"
         offset="1"
         id="stop3096" />
    </linearGradient>
    <linearGradient
       id="linearGradient3207">
      <stop
         style="stop-color:#ffffff;stop-opacity:1;"
         offset="0"
         id="stop3209" />
      <stop
         style="stop-color:#252525;stop-opacity:0;"
         offset="1"
         id="stop3211" />
    </linearGradient>
    <linearGradient
       inkscape:collect="always"
       xlink:href="#linearGradient3111"
       id="linearGradient3129"
       gradientUnits="userSpaceOnUse"
       x1="108.79048"
       y1="-174.82219"
       x2="-33.218544"
       y2="135.07704" />
    <linearGradient
       inkscape:collect="always"
       xlink:href="#linearGradient3092"
       id="linearGradient3131"
       gradientUnits="userSpaceOnUse"
       gradientTransform="translate(8.6,0)"
       x1="-97.944916"
       y1="-23.21875"
       x2="73.430084"
       y2="-23.21875" />
    <linearGradient
       inkscape:collect="always"
       xlink:href="#linearGradient3141"
       id="linearGradient3154"
       gradientUnits="userSpaceOnUse"
       x1="60.356251"
       y1="-54.913631"
       x2="60.35625"
       y2="33.209375" />
    <radialGradient
       inkscape:collect="always"
       xlink:href="#linearGradient3196"
       id="radialGradient3202"
       cx="-352.85913"
       cy="-29.344431"
       fx="-352.85913"
       fy="-29.344431"
       r="91.927617"
       gradientTransform="matrix(-0.2343078,0.4910111,-0.3835806,-0.1484282,-35.185483,234.29923)"
       gradientUnits="userSpaceOnUse" />
    <linearGradient
       inkscape:collect="always"
       xlink:href="#linearGradient3396"
       id="linearGradient3402"
       x1="-300.78125"
       y1="-178.25"
       x2="-275.78125"
       y2="-178.25"
       gradientUnits="userSpaceOnUse"
       gradientTransform="matrix(0.3354753,0.118362,-0.118362,0.3354753,140.11034,128.53165)" />
    <filter
       inkscape:collect="always"
       id="filter3427">
      <feGaussianBlur
         inkscape:collect="always"
         stdDeviation="0.095096535"
         id="feGaussianBlur3429" />
    </filter>
    <filter
       inkscape:collect="always"
       id="filter3451">
      <feGaussianBlur
         inkscape:collect="always"
         stdDeviation="0.020027675"
         id="feGaussianBlur3453" />
    </filter>
    <filter
       inkscape:collect="always"
       id="filter3473">
      <feGaussianBlur
         inkscape:collect="always"
         stdDeviation="0.14342474"
         id="feGaussianBlur3475" />
    </filter>
    <linearGradient
       inkscape:collect="always"
       xlink:href="#linearGradient3578"
       id="linearGradient3584"
       x1="17.953884"
       y1="121.78519"
       x2="124.22025"
       y2="85.546883"
       gradientUnits="userSpaceOnUse"
       gradientTransform="translate(-14.5,1.1)" />
    <filter
       inkscape:collect="always"
       id="filter3608">
      <feGaussianBlur
         inkscape:collect="always"
         stdDeviation="0.39548387"
         id="feGaussianBlur3610" />
    </filter>
    <linearGradient
       inkscape:collect="always"
       xlink:href="#linearGradient3621"
       id="linearGradient3627"
       x1="45.217752"
       y1="79.261894"
       x2="73.8125"
       y2="79.261894"
       gradientUnits="userSpaceOnUse"
       gradientTransform="translate(-14,3.1)" />
    <linearGradient
       inkscape:collect="always"
       xlink:href="#linearGradient3645"
       id="linearGradient3651"
       x1="57.924255"
       y1="60.871082"
       x2="63.376736"
       y2="67.016869"
       gradientUnits="userSpaceOnUse"
       gradientTransform="translate(-14,1)" />
    <linearGradient
       inkscape:collect="always"
       xlink:href="#linearGradient3657"
       id="linearGradient3663"
       x1="71.54351"
       y1="-57.658264"
       x2="92.716805"
       y2="-12.442841"
       gradientUnits="userSpaceOnUse"
       gradientTransform="matrix(0.9430266,0.3327174,-0.3327174,0.9430266,-16.96131,5.0420749)" />
    <linearGradient
       inkscape:collect="always"
       xlink:href="#linearGradient3669"
       id="linearGradient3667"
       gradientUnits="userSpaceOnUse"
       x1="108.72569"
       y1="34.642288"
       x2="92.849922"
       y2="1.4231867"
       gradientTransform="matrix(0.9430266,0.3327174,-0.3327174,0.9430266,-16.96131,5.0420749)" />
    <linearGradient
       inkscape:collect="always"
       xlink:href="#linearGradient3685"
       id="linearGradient3691"
       x1="62.71875"
       y1="57.441542"
       x2="75.71875"
       y2="57.441542"
       gradientUnits="userSpaceOnUse"
       gradientTransform="translate(-14,3.5)" />
    <linearGradient
       inkscape:collect="always"
       xlink:href="#linearGradient3685"
       id="linearGradient3699"
       gradientUnits="userSpaceOnUse"
       gradientTransform="translate(3.1112698,-3.7049062)"
       x1="62.71875"
       y1="57.441542"
       x2="75.71875"
       y2="57.441542" />
    <linearGradient
       y2="-15.688621"
       x2="58.743717"
       y1="78.411346"
       x1="58.743717"
       gradientTransform="matrix(0.9743255,0,0,0.9743255,5.5404775,5.5404852)"
       gradientUnits="userSpaceOnUse"
       id="linearGradient3208"
       xlink:href="#linearGradient5826"
       inkscape:collect="always" />
    <linearGradient
       y2="36.655769"
       x2="55.007042"
       y1="88.460976"
       x1="55.007042"
       gradientTransform="matrix(0.9743255,0,0,0.9743255,5.5404775,5.5404852)"
       gradientUnits="userSpaceOnUse"
       id="linearGradient3200"
       xlink:href="#linearGradient5433"
       inkscape:collect="always" />
    <linearGradient
       y2="32.750854"
       x2="51.544849"
       y1="109.97649"
       x1="68.313011"
       gradientTransform="matrix(1.381268,0,0,0.6872743,5.5404775,5.5404852)"
       gradientUnits="userSpaceOnUse"
       id="linearGradient3194"
       xlink:href="#linearGradient3397"
       inkscape:collect="always" />
    <linearGradient
       y2="70.357269"
       x2="47.264141"
       y1="21.738457"
       x1="47.264141"
       gradientTransform="matrix(0.9743255,0,0,0.9743255,5.5404775,5.5404852)"
       gradientUnits="userSpaceOnUse"
       id="linearGradient3191"
       xlink:href="#linearGradient3366"
       inkscape:collect="always" />
    <linearGradient
       y2="20.362558"
       x2="56.770992"
       y1="71.824867"
       x1="57.654171"
       gradientTransform="matrix(0.9743255,0,0,0.9743255,5.5526549,6.7583898)"
       gradientUnits="userSpaceOnUse"
       id="linearGradient3188"
       xlink:href="#linearGradient4179"
       inkscape:collect="always" />
    <linearGradient
       y2="13.510336"
       x2="34.875107"
       y1="13.510336"
       x1="31.90625"
       spreadMethod="reflect"
       gradientTransform="translate(56.7,0)"
       gradientUnits="userSpaceOnUse"
       id="linearGradient5275"
       xlink:href="#linearGradient3207"
       inkscape:collect="always" />
    <linearGradient
       y2="13.510336"
       x2="34.875107"
       y1="13.510336"
       x1="31.90625"
       spreadMethod="reflect"
       gradientTransform="translate(-0.3,0)"
       gradientUnits="userSpaceOnUse"
       id="linearGradient5273"
       xlink:href="#linearGradient3207"
       inkscape:collect="always" />
    <radialGradient
       r="25.986174"
       fy="90.072952"
       fx="-36.592777"
       cy="90.072952"
       cx="-36.592777"
       gradientTransform="matrix(0.4576062,0,0,0.782313,-19.847694,18.82067)"
       gradientUnits="userSpaceOnUse"
       id="radialGradient5265"
       xlink:href="#linearGradient3575"
       inkscape:collect="always" />
    <linearGradient
       y2="55.07938"
       x2="57.434441"
       y1="92.973083"
       x1="59.999996"
       gradientUnits="userSpaceOnUse"
       id="linearGradient5263"
       xlink:href="#linearGradient3163"
       inkscape:collect="always" />
    <linearGradient
       y2="13.510336"
       x2="34.875107"
       y1="13.510336"
       x1="31.90625"
       spreadMethod="reflect"
       gradientTransform="translate(56.7,0)"
       gradientUnits="userSpaceOnUse"
       id="linearGradient5261"
       xlink:href="#linearGradient3366"
       inkscape:collect="always" />
    <linearGradient
       y2="384.62384"
       x2="345.62039"
       y1="385.86126"
       x1="304.88664"
       gradientUnits="userSpaceOnUse"
       id="linearGradient5257"
       xlink:href="#linearGradient3489"
       inkscape:collect="always" />
    <linearGradient
       y2="14.856744"
       x2="31.500688"
       y1="14.856744"
       x1="26.091134"
       gradientTransform="scale(1.0975951,0.9110828)"
       gradientUnits="userSpaceOnUse"
       id="linearGradient5255"
       xlink:href="#linearGradient3489"
       inkscape:collect="always" />
    <linearGradient
       y2="14.856744"
       x2="31.500688"
       y1="14.856744"
       x1="26.091134"
       gradientTransform="scale(1.0975951,0.9110828)"
       gradientUnits="userSpaceOnUse"
       id="linearGradient5253"
       xlink:href="#linearGradient3499"
       inkscape:collect="always" />
    <linearGradient
       inkscape:collect="always"
       id="linearGradient3575">
      <stop
         style="stop-color:#000000;stop-opacity:1;"
         offset="0"
         id="stop3577" />
      <stop
         style="stop-color:#000000;stop-opacity:0;"
         offset="1"
         id="stop3579" />
    </linearGradient>
    <linearGradient
       inkscape:collect="always"
       id="linearGradient3366">
      <stop
         style="stop-color:#ff8787;stop-opacity:1;"
         offset="0"
         id="stop3368" />
      <stop
         style="stop-color:#ff8787;stop-opacity:0;"
         offset="1"
         id="stop4472" />
    </linearGradient>
    <linearGradient
       id="linearGradient5826">
      <stop
         style="stop-color:#810000;stop-opacity:1;"
         offset="0"
         id="stop5828" />
      <stop
         style="stop-color:#c50000;stop-opacity:1;"
         offset="1"
         id="stop5830" />
    </linearGradient>
    <linearGradient
       id="linearGradient5433">
      <stop
         id="stop5435"
         offset="0"
         style="stop-color:#ff0000;stop-opacity:1;" />
      <stop
         id="stop5437"
         offset="1"
         style="stop-color:#7f0000;stop-opacity:1;" />
    </linearGradient>
    <filter
       inkscape:collect="always"
       id="filter3354">
      <feGaussianBlur
         inkscape:collect="always"
         stdDeviation="0.45754832"
         id="feGaussianBlur3356" />
    </filter>
    <filter
       inkscape:collect="always"
       x="-0.13991599"
       width="1.279832"
       y="-0.13874065"
       height="1.2774813"
       id="filter3477">
      <feGaussianBlur
         inkscape:collect="always"
         stdDeviation="0.28784801"
         id="feGaussianBlur3479" />
    </filter>
    <filter
       inkscape:collect="always"
       x="-0.11641854"
       width="1.2328371"
       y="-0.14803563"
       height="1.2960713"
       id="filter3549">
      <feGaussianBlur
         inkscape:collect="always"
         stdDeviation="2.5695681"
         id="feGaussianBlur3551" />
    </filter>
    <clipPath
       clipPathUnits="userSpaceOnUse"
       id="clipPath3559">
      <path
         sodipodi:nodetypes="cccccccccccccccccccccccscc"
         id="path3561"
         d="M -64.510272,10.75 C -65.552588,10.758355 -66.55048,11.173209 -67.291522,11.90625 L -84.260272,28.875 C -85.821746,30.437119 -85.821746,32.969131 -84.260272,34.53125 L -58.822772,60 L -84.260272,85.46875 C -85.821746,87.030869 -85.821746,89.562881 -84.260272,91.125 L -67.291522,108.09375 C -65.729403,109.65522 -63.197391,109.65522 -61.635272,108.09375 L -36.166522,82.65625 L -10.697772,108.09375 C -9.1356529,109.65522 -6.6036409,109.65522 -5.0415219,108.09375 L 11.927228,91.125 C 13.488698,89.562881 13.488698,87.030869 11.927228,85.46875 L -13.510272,60 L 11.927228,34.53125 C 13.488698,32.969131 13.488698,30.437119 11.927228,28.875 L -5.0415219,11.90625 C -6.6036409,10.344776 -9.1356529,10.344776 -10.697772,11.90625 L -36.166522,37.34375 L -61.635272,11.90625 C -62.399349,11.150239 -63.435519,10.733519 -64.510272,10.75 z M -33.322772,74.15625 C -34.074181,73.396786 -35.098158,72.96944 -36.166522,72.96944 C -37.234886,72.96944 -38.258863,73.396786 -39.010272,74.15625 L -33.322772,74.15625 z "
         style="fill:url(#linearGradient3563);fill-opacity:1;stroke:none;stroke-width:8;stroke-linecap:round;stroke-linejoin:round;stroke-miterlimit:4;stroke-dashoffset:1.08779998;stroke-opacity:1" />
    </clipPath>
    <linearGradient
       inkscape:collect="always"
       xlink:href="#linearGradient5826"
       id="linearGradient3563"
       gradientUnits="userSpaceOnUse"
       gradientTransform="translate(-96.166522,0)"
       x1="58.743717"
       y1="78.411346"
       x2="58.743717"
       y2="-15.688621" />
    <linearGradient
       id="linearGradient3163">
      <stop
         style="stop-color:#fff5e4;stop-opacity:1;"
         id="stop3165"
         offset="0" />
      <stop
         style="stop-color:#ffecd0;stop-opacity:1;"
         id="stop3173"
         offset="0.25" />
      <stop
         style="stop-color:#ffd390;stop-opacity:1;"
         id="stop3171"
         offset="0.5" />
      <stop
         style="stop-color:#ffc46a;stop-opacity:1;"
         id="stop3167"
         offset="1" />
    </linearGradient>
    <linearGradient
       id="linearGradient3397">
      <stop
         id="stop3399"
         offset="0"
         style="stop-color:#f4f5f8;stop-opacity:1;" />
      <stop
         id="stop3401"
         offset="1"
         style="stop-color:#fdfdfe;stop-opacity:1;" />
    </linearGradient>
    <linearGradient
       id="linearGradient3499"
       inkscape:collect="always">
      <stop
         id="stop3501"
         offset="0"
         style="stop-color:#ffffff;stop-opacity:1;" />
      <stop
         id="stop3503"
         offset="1"
         style="stop-color:#ffffff;stop-opacity:0;" />
    </linearGradient>
    <linearGradient
       id="linearGradient3489"
       inkscape:collect="always">
      <stop
         id="stop3491"
         offset="0"
         style="stop-color:#765c44;stop-opacity:1;" />
      <stop
         id="stop3493"
         offset="1"
         style="stop-color:#765c44;stop-opacity:0;" />
    </linearGradient>
    <linearGradient
       id="linearGradient4179">
      <stop
         style="stop-color:#ffffff;stop-opacity:0"
         offset="0"
         id="stop4181" />
      <stop
         style="stop-color:#ffffff;stop-opacity:1"
         offset="1"
         id="stop4183" />
    </linearGradient>
    <linearGradient
       inkscape:collect="always"
       xlink:href="#linearGradient3264"
       id="linearGradient5670"
       gradientUnits="userSpaceOnUse"
       gradientTransform="matrix(0.3507,3.2833469e-2,4.5062439e-2,0.2589192,305.23165,103.3643)"
       x1="-781.8573"
       y1="20.049321"
       x2="-742.67066"
       y2="20.049321" />
    <filter
       inkscape:collect="always"
       id="filter5696"
       x="-0.060209958"
       width="1.1204199"
       y="-0.15737091"
       height="1.3147418">
      <feGaussianBlur
         inkscape:collect="always"
         stdDeviation="2.6569206"
         id="feGaussianBlur5698" />
    </filter>
  </defs>
  <sodipodi:namedview
     id="base"
     pagecolor="#ffffff"
     bordercolor="#666666"
     borderopacity="1.0"
     inkscape:pageopacity="0.0"
     inkscape:pageshadow="2"
     inkscape:zoom="1.875"
     inkscape:cx="64.799783"
     inkscape:cy="85.466579"
     inkscape:current-layer="layer1"
     showgrid="true"
     inkscape:document-units="px"
     inkscape:grid-bbox="true"
     guidetolerance="0.1px"
     showguides="true"
     inkscape:guide-bbox="true"
     inkscape:window-width="1018"
     inkscape:window-height="689"
     inkscape:window-x="26"
     inkscape:window-y="25"
     inkscape:window-maximized="0">
    <inkscape:grid
       id="GridFromPre046Settings"
       type="xygrid"
       originx="0px"
       originy="0px"
       spacingx="4px"
       spacingy="4px"
       color="#0000ff"
       empcolor="#0000ff"
       opacity="0.2"
       empopacity="0.4"
       empspacing="0" />
  </sodipodi:namedview>
  <metadata
     id="metadata1312">
    <rdf:RDF>
      <cc:Work
         rdf:about="">
        <dc:format>image/svg+xml</dc:format>
        <dc:type
           rdf:resource="http://purl.org/dc/dcmitype/StillImage" />
        <cc:license
           rdf:resource="http://creativecommons.org/licenses/GPL/2.0/" />
        <dc:contributor>
          <cc:Agent>
            <dc:title>Oxygen team</dc:title>
          </cc:Agent>
        </dc:contributor>
        <dc:title></dc:title>
      </cc:Work>
      <cc:License
         rdf:about="http://creativecommons.org/licenses/LGPL/2.1/">
        <cc:permits
           rdf:resource="http://web.resource.org/cc/Reproduction" />
        <cc:permits
           rdf:resource="http://web.resource.org/cc/Distribution" />
        <cc:requires
           rdf:resource="http://web.resource.org/cc/Notice" />
        <cc:permits
           rdf:resource="http://web.resource.org/cc/DerivativeWorks" />
        <cc:requires
           rdf:resource="http://web.resource.org/cc/ShareAlike" />
        <cc:requires
           rdf:resource="http://web.resource.org/cc/SourceCode" />
      </cc:License>
    </rdf:RDF>
  </metadata>
  <g
     id="layer1"
     inkscape:label="Layer 1"
     inkscape:groupmode="layer">
    <g
       id="g5646"
       transform="matrix(0.7564409,0,0,0.7564409,41.737305,27.955804)"
       style="opacity:0.88586957">
      <g
         inkscape:label="Livello 1"
         id="g5648">
        <g
           inkscape:label="fill text"
           id="g3232"
           transform="translate(214.92589,-100.31048)" />
        <g
           inkscape:label="fill text"
           id="g4591"
           transform="translate(214.92589,-100.31048)" />
        <path
           sodipodi:nodetypes="ccc"
           style="fill:#ffffff;fill-opacity:0.75688076000000004;fill-rule:nonzero;stroke:none;stroke-width:0.50000000000000000;stroke-linecap:round;stroke-linejoin:round;stroke-miterlimit:4;stroke-dasharray:none;stroke-dashoffset:4;stroke-opacity:1"
           id="path8227"
           d="M -259.40214,132.75622 L -259.40214,129.96151 L -259.40214,132.75622 z" />
        <path
           style="fill:#ffffff;fill-opacity:0.75688076000000004;fill-rule:nonzero;stroke:none;stroke-width:0.50000000000000000;stroke-linecap:round;stroke-linejoin:round;stroke-miterlimit:4;stroke-dasharray:none;stroke-dashoffset:4;stroke-opacity:1"
           d="M 215.3609,-31.057518 L 215.3609,-33.852227 L 215.3609,-31.057518 z"
           id="path2276"
           sodipodi:nodetypes="ccc" />
        <path
           style="fill:#ffffff;fill-opacity:0.75688076000000004;fill-rule:nonzero;stroke:none;stroke-width:0.50000000000000000;stroke-linecap:round;stroke-linejoin:round;stroke-miterlimit:4;stroke-dasharray:none;stroke-dashoffset:4;stroke-opacity:1"
           d="M 249.73645,22.336162 L 249.73645,20.809426 L 249.73645,22.336162 z"
           id="path1561"
           sodipodi:nodetypes="ccc" />
        <path
           sodipodi:nodetypes="cccccccccccccccccccccccscc"
           id="path3300"
           d="M 36.38397,16.014487 C 35.368416,16.022627 34.396138,16.426825 33.674128,17.14105 L 17.141042,33.674136 C 15.619653,35.196143 15.619658,37.663151 17.141038,39.18516 L 41.925447,64.000017 L 17.141043,88.814869 C 15.619658,90.336872 15.619658,92.803885 17.141043,94.325888 L 33.674129,110.85897 C 35.196133,112.38036 37.663145,112.38036 39.185158,110.85898 L 64.000009,86.074579 L 88.814857,110.85898 C 90.336869,112.38036 92.803876,112.38036 94.325882,110.85897 L 110.85897,94.325889 C 112.38035,92.803884 112.38035,90.336877 110.85897,88.814865 L 86.074572,64.000017 L 110.85898,39.185165 C 112.38035,37.663151 112.38035,35.196143 110.85897,33.674132 L 94.325885,17.141047 C 92.803876,15.619666 90.336868,15.619662 88.814861,17.141051 L 64.000009,41.925455 L 39.185152,17.141046 C 38.440691,16.404445 37.431131,15.998429 36.38397,16.014487 z M 66.770743,77.792808 C 66.038628,77.052845 65.040943,76.636472 64.000009,76.636472 C 62.959075,76.636473 61.961385,77.052844 61.229271,77.792812 L 66.770743,77.792808 z"
           style="fill:url(#linearGradient3208);fill-opacity:1;stroke:none;stroke-width:8;stroke-linecap:round;stroke-linejoin:round;stroke-miterlimit:4;stroke-dashoffset:1.08779998000000000;stroke-opacity:1" />
        <path
           transform="matrix(0.9743255,0,0,0.9743255,99.290143,5.5404808)"
           clip-path="url(#clipPath3559)"
           id="path3507"
           d="M -62.57895,106.7868 L -36.415999,79.916739 L -10.606602,106.43324 L -36.415999,66.128157 L -62.57895,106.7868 z"
           style="fill:#000000;fill-opacity:1;fill-rule:evenodd;stroke:#000000;stroke-width:0.49373052000000001px;stroke-linecap:butt;stroke-linejoin:miter;stroke-opacity:1;filter:url(#filter3549)" />
        <path
           transform="matrix(0,1.8163775,-1.8163775,0,130.55195,34.179955)"
           style="opacity:0.49812736000000002;fill:url(#linearGradient5253);fill-opacity:1;fill-rule:evenodd;stroke:none;stroke-width:1px;stroke-linecap:butt;stroke-linejoin:miter;stroke-opacity:1;filter:url(#filter3477)"
           d="M 31.7,16 L 34.575,12.625 C 33.523795,10.929242 30.639864,10.336982 28.6375,12.3125 L 31.45,15.6875 L 31.7,16 z"
           id="path5159"
           sodipodi:nodetypes="ccccc" />
        <path
           transform="matrix(1.7938181,0,0,-1.7938181,-20.276758,130.94405)"
           style="opacity:0.79026213999999984;fill:url(#linearGradient5255);fill-opacity:1;fill-rule:evenodd;stroke:none;stroke-width:1px;stroke-linecap:butt;stroke-linejoin:miter;stroke-opacity:1;filter:url(#filter3477)"
           d="M 31.7,16 L 34.575,12.625 C 33.523795,10.929242 30.639864,10.336982 28.6375,12.3125 L 31.45,15.6875 L 31.7,16 z"
           id="path3485"
           sodipodi:nodetypes="ccccc" />
        <path
           sodipodi:nodetypes="ccccc"
           id="path3493"
           d="M 31.7,16 L 34.575,12.625 C 33.523795,10.929242 30.639864,10.336982 28.6375,12.3125 L 31.45,15.6875 L 31.7,16 z"
           style="opacity:0.49812736000000002;fill:url(#linearGradient5257);fill-opacity:1;fill-rule:evenodd;stroke:none;stroke-width:1px;stroke-linecap:butt;stroke-linejoin:miter;stroke-opacity:1;filter:url(#filter3477)"
           transform="matrix(0,1.6448195,1.6448195,0,-0.724353,39.584706)" />
        <path
           id="rect2323"
           d="M 91.558091,23.43728 L 64.000006,50.995365 L 36.441924,23.437284 L 23.437276,36.441932 L 50.995358,64.000013 L 23.437269,91.558102 L 36.441924,104.56274 L 64.000004,77.00466 L 91.558088,104.56274 L 104.56273,91.558096 L 77.004652,64.000012 L 104.56273,36.441929 L 91.558091,23.43728 z"
           style="opacity:0.92134835999999998;fill:url(#linearGradient3200);fill-opacity:1;stroke:none;stroke-width:0.69921422000000000;stroke-linecap:round;stroke-linejoin:round;stroke-miterlimit:4;stroke-dasharray:none;stroke-dashoffset:1.08779998000000000;stroke-opacity:0"
           sodipodi:nodetypes="ccccccccccccc" />
        <path
           transform="matrix(1.6448195,0,0,-1.6448195,-53.800876,129.5366)"
           sodipodi:nodetypes="ccccc"
           id="path3487"
           d="M 88.7,16 L 91.575,12.625 C 90.523795,10.929242 87.639864,10.336982 85.6375,12.3125 L 88.45,15.6875 L 88.7,16 z"
           style="opacity:0.79026213999999984;fill:url(#linearGradient5261);fill-opacity:1;fill-rule:evenodd;stroke:none;stroke-width:1px;stroke-linecap:butt;stroke-linejoin:miter;stroke-opacity:1;filter:url(#filter3477)" />
        <path
           style="fill:url(#radialGradient5265);fill-opacity:1;fill-rule:evenodd;stroke:none;stroke-width:1px;stroke-linecap:butt;stroke-linejoin:miter;stroke-opacity:1;filter:url(#filter3549)"
           d="M -62.57895,106.7868 L -36.415999,79.916739 L -10.606602,106.43324 L -36.415999,66.128157 L -62.57895,106.7868 z"
           id="path3565"
           clip-path="url(#clipPath3559)"
           transform="matrix(0.9743255,0,0,-0.9743255,99.290147,122.00005)" />
        <path
           transform="matrix(1.4958209,0,0,1.4958209,-10.888668,0.6143956)"
           sodipodi:nodetypes="ccccc"
           id="path3403"
           d="M 31.7,16 L 34.575,12.625 C 33.523795,10.929242 30.639864,10.336982 28.6375,12.3125 L 31.45,15.6875 L 31.7,16 z"
           style="opacity:0.79026213999999984;fill:url(#linearGradient5273);fill-opacity:1;fill-rule:evenodd;stroke:none;stroke-width:1px;stroke-linecap:butt;stroke-linejoin:miter;stroke-opacity:1;filter:url(#filter3477)" />
        <path
           transform="matrix(1.5356935,0,0,1.5356935,-44.142789,0.2377555)"
           style="opacity:0.79026213999999984;fill:url(#linearGradient5275);fill-opacity:1;fill-rule:evenodd;stroke:none;stroke-width:1px;stroke-linecap:butt;stroke-linejoin:miter;stroke-opacity:1;filter:url(#filter3477)"
           d="M 88.7,16 L 91.575,12.625 C 90.523795,10.929242 87.639864,10.336982 85.6375,12.3125 L 88.45,15.6875 L 88.7,16 z"
           id="path3481"
           sodipodi:nodetypes="ccccc" />
        <path
           transform="matrix(0.9743255,0,0,0.9743255,5.5404775,5.5404852)"
           style="opacity:0.92134835999999998;fill:none;fill-opacity:1;stroke:url(#linearGradient5263);stroke-width:1.53952657999999998;stroke-linecap:round;stroke-linejoin:round;stroke-miterlimit:4;stroke-dasharray:none;stroke-dashoffset:1.08779998000000000;stroke-opacity:1;filter:url(#filter3354)"
           d="M 88.284271,18.368396 L 60,46.652666 L 31.715729,18.368396 L 18.368396,31.715729 L 46.652666,60 L 18.368396,88.284271 L 31.715729,101.63161 L 60,73.347334 L 88.284271,101.63161 L 101.63161,88.284271 L 73.347334,60 L 101.63161,31.715729 L 88.284271,18.368396 z"
           id="path3328"
           sodipodi:nodetypes="ccccccccccccc" />
        <path
           sodipodi:nodetypes="cccccccccccsccsccccc"
           id="path3374"
           d="M 36.427153,23.374602 L 35.696409,24.105346 L 23.424273,36.377482 L 36.183569,24.592505 L 64.001323,50.998249 L 91.293853,24.592506 L 102.2263,35.524947 C 102.13068,36.019464 102.00159,36.499086 101.86092,36.986433 L 90.015918,50.780093 C 79.333103,56.105894 64.437356,61.359223 48.422674,61.375883 L 48.696698,61.649906 C 49.156176,61.655321 49.604872,61.68036 50.06685,61.680362 C 66.129599,61.680361 77.174729,58.372504 87.884581,53.033222 L 103.62689,37.29091 C 103.69171,37.066347 103.75182,36.844556 103.80958,36.621059 C 103.87717,36.35953 103.94071,36.096079 103.99227,35.829425 L 91.537438,23.374602 L 90.806694,24.105347 L 64.001323,50.998249 L 36.427153,23.374602 z"
           style="fill:url(#linearGradient3194);fill-opacity:1;stroke:none;stroke-width:1.01534985999999994;stroke-linecap:round;stroke-linejoin:round;stroke-miterlimit:4;stroke-dasharray:none;stroke-dashoffset:1.08779998000000000;stroke-opacity:1" />
        <path
           id="path5167"
           d="M 36.444861,23.441989 L 23.441982,36.444869 L 48.714415,61.717302 C 49.173883,61.722709 49.622581,61.747747 50.084559,61.747749 C 66.14731,61.747746 77.192437,58.439891 87.90229,53.100609 L 103.64461,37.358305 C 103.78528,36.870954 103.91436,36.391328 104.00998,35.896811 L 91.555147,23.441989 L 64.000005,50.997131 L 36.444861,23.441989 z"
           style="fill:url(#linearGradient3191);fill-opacity:1;stroke:none;stroke-width:1.01534985999999994;stroke-linecap:round;stroke-linejoin:round;stroke-miterlimit:4;stroke-dasharray:none;stroke-dashoffset:1.08779998000000000;stroke-opacity:1"
           sodipodi:nodetypes="cccscccccc" />
        <path
           style="fill:url(#linearGradient3188);fill-opacity:1;stroke:none;stroke-width:1.01534985999999994;stroke-linecap:round;stroke-linejoin:round;stroke-miterlimit:4;stroke-dasharray:none;stroke-dashoffset:1.08779998000000000;stroke-opacity:1"
           d="M 36.427153,23.374602 L 35.696409,24.105346 L 23.424273,36.377482 L 36.183569,24.592505 L 64.007725,52.836415 L 64.001323,50.998249 L 64.011006,52.82226 L 91.293853,24.592506 L 102.2263,35.524947 C 102.13068,36.019464 102.00159,36.499086 101.86092,36.986433 L 90.015918,50.780093 C 79.333103,56.105894 64.437356,61.359223 48.422674,61.375883 L 48.696698,61.649906 C 49.156176,61.655321 49.604872,61.68036 50.06685,61.680362 C 66.129599,61.680361 77.174729,58.372504 87.884581,53.033222 L 103.62689,37.29091 C 103.69171,37.066347 103.75182,36.844556 103.80958,36.621059 C 103.87717,36.35953 103.94071,36.096079 103.99227,35.829425 L 91.537438,23.374602 L 90.806694,24.105347 L 64.001323,50.998249 L 36.427153,23.374602 z"
           id="path3399"
           sodipodi:nodetypes="cccccccccccccsccsccccc" />
      </g>
      <g
         inkscape:label="fill text"
         id="g5368" />
    </g>
    <path
       style="fill:url(#linearGradient3402);fill-opacity:1;stroke:#000000;stroke-width:0.39999998;stroke-linecap:round;stroke-linejoin:round;stroke-miterlimit:4;stroke-dasharray:none;stroke-dashoffset:4.15;stroke-opacity:0.45562128"
       d="M 71.181744,2.3002229 C 74.977355,1.427029 77.399983,3.1070192 79.568647,5.2592791 L 61.477891,56.53421 L 53.090988,53.575154 L 71.181744,2.3002229 z"
       id="rect3386"
       sodipodi:nodetypes="ccccc" />
    <path
       style="fill:url(#linearGradient3667);fill-opacity:1;stroke:none;stroke-width:0.39999998;stroke-linecap:round;stroke-linejoin:round;stroke-miterlimit:4;stroke-dasharray:none;stroke-dashoffset:4.15;stroke-opacity:0.45562128"
       d="M 71.181744,2.3002229 C 74.977355,1.427029 77.399983,3.1070192 79.568647,5.2592791 L 61.477891,56.53421 L 53.090988,53.575154 L 71.181744,2.3002229 z"
       id="path3665"
       sodipodi:nodetypes="ccccc" />
    <path
       sodipodi:nodetypes="ccccc"
       id="path3655"
       d="M 71.181744,2.3002229 C 74.977355,1.427029 77.399983,3.1070192 79.568647,5.2592791 L 61.477891,56.53421 L 53.090988,53.575154 L 71.181744,2.3002229 z"
       style="fill:url(#linearGradient3663);fill-opacity:1;stroke:none;stroke-width:0.39999998;stroke-linecap:round;stroke-linejoin:round;stroke-miterlimit:4;stroke-dasharray:none;stroke-dashoffset:4.15;stroke-opacity:0.45562128" />
    <path
       style="fill:url(#linearGradient3584);fill-opacity:1;fill-rule:evenodd;stroke:none;stroke-width:1px;stroke-linecap:butt;stroke-linejoin:miter;stroke-opacity:1;filter:url(#filter5696)"
       d="M 55.382038,123.29951 L 105.91218,98.95073 C 113.92744,71.773564 49.520845,97.99175 25.55097,98.7165 L 0.691747,111.42233 L 6.768446,110.59369 L 13.338647,108.11072 L 7.368751,112.56696 L 13.851299,112.13165 L 13.95,115.01311 L 16.100783,110.87285 L 12.568932,116.39417 C 12.568932,116.39417 11.543627,118.17372 13.753336,117.34508 C 15.963045,116.51644 21.68398,117.22282 21.68398,117.22282 L 18.124876,118.63851 L 28.036892,118.60388 L 30.445475,121.26511 L 40.19029,121.08981 L 35.220656,122.48414 L 38.809222,123.0233 L 37.980582,124.12816 L 45.438349,121.64223 L 41.23401,126.22369 L 48.200484,125.23301 L 45.162135,127.1665 L 55.382038,123.29951 z"
       id="path3524"
       sodipodi:nodetypes="cccccccccccsccccccccccccc" />
    <path
       style="fill:url(#radialGradient3202);fill-opacity:1;fill-rule:evenodd;stroke:#000000;stroke-width:0.05863914;stroke-linecap:butt;stroke-linejoin:miter;stroke-miterlimit:4;stroke-dasharray:none;stroke-opacity:1;filter:url(#filter3427)"
       d="M 66.64518,50.081027 C 63.070437,49.229866 64.952049,54.279696 63.706549,56.044567 C 62.522716,57.722056 58.420765,57.771107 56.556152,59.228419 C 53.388954,61.703775 50.831816,64.751612 48.611111,67.842575 C 46.096879,71.342099 44.714776,75.413694 42.35135,78.999882 C 39.209662,83.766976 35.750583,88.39366 32.095779,92.902417 L 21.865607,105.52291 L 27.836028,99.843216 L 22.720946,106.15346 L 27.687831,101.84772 L 23.045586,108.01875 L 25.70194,109.0014 L 27.755594,109.37716 L 28.203026,110.51999 L 25.495866,112.10145 L 30.71118,113.50716 C 30.71118,113.50716 33.230614,112.27513 34.046433,111.25056 C 34.862252,110.22599 41.861613,101.89028 41.861613,101.89028 L 32.512193,113.85927 L 36.172081,113.46796 L 36.807234,114.26138 L 39.781161,115.64075 L 46.087504,107.60714 L 41.769896,115.64345 L 44.0762,116.04287 L 44.678896,116.64976 L 46.602702,116.27941 L 48.410774,118.10009 L 48.100254,119.17196 L 52.471508,115.72791 L 51.507495,118.757 L 53.268983,117.45398 L 54.196309,119.92618 L 55.647277,119.69505 L 56.632476,121.0717 L 58.050985,120.65404 L 57.960647,121.56303 L 60.292359,120.6804 L 62.252854,114.80877 L 62.475879,121.80227 L 65.384878,122.80858 L 67.771626,113.67404 L 66.738459,122.01785 L 72.864083,82.957504 C 73.550859,78.578252 75.36266,74.445274 75.579691,70.000465 C 75.707514,67.382612 74.245121,64.478648 73.898638,61.769517 C 73.785922,60.888182 74.081937,60.071059 74.202101,59.229069 C 74.417862,57.71714 75.754292,55.776954 74.906408,54.707757 C 74.214996,53.835876 71.36004,51.203658 66.64518,50.081027 z"
       id="path3194"
       sodipodi:nodetypes="csssssccccccccccsccccccccccccccccccccccccccssssss"
       inkscape:transform-center-x="10.94114"
       inkscape:transform-center-y="-13.173383"
       transform="matrix(1.019354,0,0,1.019354,-14.346842,0.9417934)" />
    <path
       sodipodi:nodetypes="ccc"
       id="path3206"
       d="M -225.6177,-152.98405 L -225.6177,-155.77876 L -225.6177,-152.98405 z "
       style="fill:white;fill-opacity:0.75688076;fill-rule:nonzero;stroke:none;stroke-width:0.5;stroke-linecap:round;stroke-linejoin:round;stroke-miterlimit:4;stroke-dasharray:none;stroke-dashoffset:4;stroke-opacity:1" />
    <g
       id="layer4"
       inkscape:label="box"
       style="display:inline"
       transform="translate(-42.6661,-8.40242)" />
    <g
       id="layer5"
       inkscape:label="zip_app"
       style="display:inline"
       transform="translate(-42.6661,-8.40242)" />
    <rect
       style="opacity:0.57786889;fill:white;fill-opacity:1;fill-rule:nonzero;stroke:none;stroke-width:3.63199997;stroke-linecap:round;stroke-linejoin:round;stroke-miterlimit:4;stroke-dasharray:none;stroke-dashoffset:4;stroke-opacity:1"
       id="rect1327"
       width="1"
       height="0"
       x="-129.13548"
       y="-69.935089" />
    <rect
       style="opacity:0.57786889;fill:white;fill-opacity:1;fill-rule:nonzero;stroke:none;stroke-width:3.63199997;stroke-linecap:round;stroke-linejoin:round;stroke-miterlimit:4;stroke-dasharray:none;stroke-dashoffset:4;stroke-opacity:1"
       id="rect2482"
       width="1"
       height="0"
       x="-164.2623"
       y="-97.4627" />
    <path
       sodipodi:nodetypes="ccc"
       id="path2494"
       d="M -323.19972,-170.67877 L -323.19972,-173.47348 L -323.19972,-170.67877 z "
       style="fill:white;fill-opacity:0.75688076;fill-rule:nonzero;stroke:none;stroke-width:0.5;stroke-linecap:round;stroke-linejoin:round;stroke-miterlimit:4;stroke-dasharray:none;stroke-dashoffset:4;stroke-opacity:1" />
    <g
       style="opacity:0.40163933"
       transform="matrix(-0.782995,0,0,0.650879,-2646.058,515.8389)"
       id="g4640" />
    <g
       id="g4646"
       transform="matrix(-0.782995,0,0,0.650879,-2646.058,515.8389)"
       style="opacity:0.40163933" />
    <g
       id="g4730"
       transform="matrix(1,0,0,0.650879,554.9047,523.1667)"
       style="opacity:0.40163933" />
    <g
       style="opacity:0.40163933"
       transform="matrix(1,0,0,0.650879,554.9047,523.1667)"
       id="g4748" />
    <g
       id="g3260"
       inkscape:label="box"
       style="display:inline"
       transform="translate(198.5654,-43.95872)" />
    <g
       id="g3262"
       inkscape:label="zip_app"
       style="display:inline"
       transform="translate(198.5654,-43.95872)" />
    <rect
       style="opacity:0.57786889;fill:white;fill-opacity:1;fill-rule:nonzero;stroke:none;stroke-width:3.63199997;stroke-linecap:round;stroke-linejoin:round;stroke-miterlimit:4;stroke-dasharray:none;stroke-dashoffset:4;stroke-opacity:1"
       id="rect3286"
       width="1"
       height="0"
       x="112.09598"
       y="-105.49139" />
    <rect
       style="opacity:0.57786889;fill:white;fill-opacity:1;fill-rule:nonzero;stroke:none;stroke-width:3.63199997;stroke-linecap:round;stroke-linejoin:round;stroke-miterlimit:4;stroke-dasharray:none;stroke-dashoffset:4;stroke-opacity:1"
       id="rect3288"
       width="1"
       height="0"
       x="76.96917"
       y="-133.019" />
    <g
       style="opacity:0.40163933"
       transform="matrix(-0.782995,0,0,0.650879,-2404.827,480.2826)"
       id="g3292" />
    <g
       id="g3294"
       transform="matrix(-0.782995,0,0,0.650879,-2404.827,480.2826)"
       style="opacity:0.40163933" />
    <g
       id="g3296"
       transform="matrix(1,0,0,0.650879,796.1362,487.6104)"
       style="opacity:0.40163933" />
    <g
       style="opacity:0.40163933"
       transform="matrix(1,0,0,0.650879,796.1362,487.6104)"
       id="g3298" />
    <g
       id="g3119"
       transform="matrix(0.3507,3.2833482e-2,4.5062428e-2,0.2589192,30.355118,87.355796)"
       inkscape:transform-center-x="17.525071"
       inkscape:transform-center-y="-20.993062">
      <path
         id="path3084"
         d="M 82.010649,-145.59375 C 78.929869,-140.45912 75.152049,-135.5423 72.604399,-129.9375 C 71.182259,-126.8088 70.628509,-123.27206 69.916899,-119.96875 C 69.205289,-116.66544 68.344409,-113.61085 66.510649,-111.4375 C 64.007379,-108.47067 60.111089,-106.4523 56.041899,-104.40625 C 51.972709,-102.3602 47.745679,-100.30451 44.729399,-96.9375 C 35.447439,-86.576238 28.889029,-73.481406 21.760649,-61.46875 C 10.175019,-41.944827 1.3197886,-20.826788 -11.426851,-2.34375 C -35.128971,32.025046 -62.339001,64.142068 -87.833101,97.4375 L -86.395601,98.53125 C -60.937691,65.283071 -33.728101,33.154734 -9.958101,-1.3125 C 2.9306086,-20.001545 11.823279,-41.183091 23.323149,-60.5625 C 30.496689,-72.651245 37.014229,-85.60646 46.073149,-95.71875 C 48.772159,-98.731591 52.750419,-100.76467 56.823149,-102.8125 C 60.895879,-104.86033 65.053239,-106.92431 67.885649,-110.28125 C 70.063059,-112.86188 70.972379,-116.19343 71.698149,-119.5625 C 72.423919,-122.93157 72.981009,-126.37229 74.260649,-129.1875 C 76.694859,-134.54273 80.391439,-139.43673 83.541899,-144.6875 L 82.010649,-145.59375 z"
         style="fill:#926b3f;fill-opacity:1;fill-rule:evenodd;stroke:none;stroke-width:1.79999995;stroke-linecap:butt;stroke-linejoin:miter;stroke-miterlimit:4;stroke-dasharray:none;stroke-opacity:1" />
      <path
         sodipodi:nodetypes="csssssssccssssssscc"
         id="path3086"
         d="M 81.561334,-144.96875 C 78.513493,-139.99416 75.06899,-135.29181 72.748834,-130.1875 C 71.469194,-127.37229 70.912104,-123.93157 70.186334,-120.5625 C 69.460564,-117.19343 68.551244,-113.86188 66.373834,-111.28125 C 63.541424,-107.92431 59.384064,-105.86033 55.311334,-103.8125 C 51.238604,-101.76467 47.260344,-99.731591 44.561334,-96.71875 C 35.502414,-86.60646 28.984874,-73.651245 21.811334,-61.5625 C 10.311463,-42.183091 1.4187886,-21.001545 -11.469916,-2.3125 C -35.239916,32.154734 -62.449506,64.283071 -87.907416,97.53125 L -87.907416,98.53125 C -62.449506,65.283071 -35.239916,33.154734 -11.469916,-1.3125 C 1.4187886,-20.001545 10.311463,-41.183091 21.811334,-60.5625 C 28.984874,-72.651245 35.502414,-85.60646 44.561334,-95.71875 C 47.260344,-98.731591 51.238604,-100.76467 55.311334,-102.8125 C 59.384064,-104.86033 63.541424,-106.92431 66.373834,-110.28125 C 68.551244,-112.86188 69.460564,-116.19343 70.186334,-119.5625 C 70.912104,-122.93157 71.469194,-126.37229 72.748834,-129.1875 C 75.183044,-134.54273 78.879623,-139.43673 82.030084,-144.6875 L 81.561334,-144.96875 z"
         style="fill:url(#linearGradient3131);fill-opacity:1;fill-rule:evenodd;stroke:none;stroke-width:1.79999995;stroke-linecap:butt;stroke-linejoin:miter;stroke-miterlimit:4;stroke-dasharray:none;stroke-opacity:1" />
      <path
         sodipodi:nodetypes="csssssssccssssssscc"
         id="path2497"
         d="M 84.090898,-145.59375 C 81.010118,-140.45912 77.232298,-135.5423 74.684648,-129.9375 C 73.262508,-126.8088 72.708758,-123.27206 71.997148,-119.96875 C 71.285538,-116.66544 70.424658,-113.61085 68.590898,-111.4375 C 66.087628,-108.47067 62.191338,-106.4523 58.122148,-104.40625 C 54.052958,-102.3602 49.825928,-100.30451 46.809648,-96.9375 C 37.527688,-86.576238 30.969278,-73.481406 23.840898,-61.46875 C 12.255268,-41.944827 3.4000377,-20.826788 -9.346602,-2.34375 C -33.048726,32.025046 -60.258752,64.142068 -85.752852,97.4375 L -84.752852,97.4375 C -59.258752,64.142068 -32.048726,32.025046 -8.346602,-2.34375 C 4.4000377,-20.826788 13.255268,-41.944827 24.840898,-61.46875 C 31.969278,-73.481406 38.527688,-86.576238 47.809648,-96.9375 C 50.825928,-100.30451 55.052958,-102.3602 59.122148,-104.40625 C 63.191338,-106.4523 67.087628,-108.47067 69.590898,-111.4375 C 71.424658,-113.61085 72.285538,-116.66544 72.997148,-119.96875 C 73.708758,-123.27206 74.262508,-126.8088 75.684648,-129.9375 C 78.158828,-135.38066 81.780228,-140.18117 84.809648,-145.15625 L 84.090898,-145.59375 z"
         style="fill:#4a341b;fill-opacity:1;fill-rule:evenodd;stroke:none;stroke-width:1.79999995;stroke-linecap:butt;stroke-linejoin:miter;stroke-miterlimit:4;stroke-dasharray:none;stroke-opacity:1" />
    </g>
    <g
       id="g3124"
       transform="matrix(0.3507,3.2833482e-2,4.5062428e-2,0.2589192,28.743696,86.830848)"
       inkscape:transform-center-x="5.1389162"
       inkscape:transform-center-y="-16.541698">
      <path
         id="path3100"
         d="M 102.87208,-134.49784 C 96.567534,-126.44204 91.378544,-117.46424 84.309584,-110.71659 C 76.654354,-103.40931 64.045074,-99.926167 57.153334,-90.841595 C 48.225794,-79.073473 44.465914,-63.486661 38.340834,-50.122845 C 33.091264,-38.6692 28.538984,-26.93513 22.778334,-15.904095 C 12.356744,4.0521332 -0.47605625,22.931452 -10.471666,43.314655 C -18.254686,59.185891 -22.903316,76.412855 -30.221666,92.158405 C -34.200766,100.71954 -39.804996,108.59591 -44.690416,116.97091 L -42.534166,118.25216 C -37.726546,110.01052 -32.050286,102.0634 -27.940416,93.220905 C -20.499906,77.212535 -15.861826,60.019564 -8.2216663,44.439655 C 1.6699037,24.2686 14.485814,5.3801062 24.997084,-14.747845 C 30.844494,-25.945004 35.383514,-37.698882 40.590834,-49.060345 C 46.856694,-62.731321 50.670054,-78.159085 59.153334,-89.341595 C 65.314594,-97.463257 77.708474,-100.99364 86.028334,-108.93534 C 93.448074,-116.01782 98.682904,-125.06688 104.84083,-132.93534 L 102.87208,-134.49784 z"
         style="fill:url(#linearGradient3129);fill-opacity:1;fill-rule:evenodd;stroke:none;stroke-width:2.5;stroke-linecap:butt;stroke-linejoin:miter;stroke-miterlimit:4;stroke-dasharray:none;stroke-opacity:1" />
      <path
         id="path3106"
         d="M 102.80865,-135.075 C 96.698626,-127.23982 91.465066,-118.27118 84.089896,-111.23125 C 75.770036,-103.28955 63.376166,-99.75916 57.214896,-91.6375 C 48.731616,-80.45499 44.918266,-65.027228 38.652396,-51.35625 C 33.445076,-39.994787 28.906066,-28.240909 23.058646,-17.04375 C 12.547376,3.0842012 -0.26852379,21.972693 -10.160104,42.14375 C -17.800264,57.723659 -22.438344,74.916632 -29.878854,90.925 C -33.988724,99.7675 -39.664984,107.71461 -44.472604,115.95625 L -45.347604,115.45625 C -45.408894,115.56078 -45.474034,115.66406 -45.535104,115.76875 L -43.378854,117.05 C -38.571234,108.80836 -32.894974,100.86124 -28.785104,92.01875 C -21.344594,76.010384 -16.706514,58.817409 -9.0663538,43.2375 C 0.82521621,23.066445 13.641126,4.1779512 24.152396,-15.95 C 29.999806,-27.147159 34.538826,-38.901037 39.746146,-50.2625 C 46.012006,-63.933476 49.825366,-79.36124 58.308646,-90.54375 C 64.469906,-98.665408 76.863786,-102.1958 85.183646,-110.1375 C 92.603386,-117.21998 97.838226,-126.26904 103.99615,-134.1375 L 102.80865,-135.075 z"
         style="fill:#ead7bd;fill-opacity:1;fill-rule:evenodd;stroke:none;stroke-width:2.5;stroke-linecap:butt;stroke-linejoin:miter;stroke-miterlimit:4;stroke-dasharray:none;stroke-opacity:1" />
    </g>
    <g
       id="g3150"
       transform="matrix(0.3507,3.2833482e-2,4.5062428e-2,0.2589192,43.05654,78.818788)"
       inkscape:transform-center-x="2.5969676"
       inkscape:transform-center-y="-14.737341">
      <path
         id="path3133"
         d="M 59.28125,-98.375 C 57.791351,-90.925497 57.519298,-83.097929 54.9375,-76.5 C 54.174679,-74.55057 52.375361,-72.845317 50.53125,-71.03125 C 48.687139,-69.217183 46.78569,-67.28562 46.09375,-64.65625 C 42.336059,-50.377024 45.1777,-33.977486 40.21875,-20.6875 C 33.141613,-1.720771 19.520222,15.175525 9.4375,33.53125 C 0.34443437,50.085294 -7.2991956,67.406395 -16.96875,83.4375 C -25.798042,98.075534 -37.548347,111.13696 -46.34375,126.0625 C -53.823781,138.75588 -59.127233,152.61041 -65.46875,165.78125 L -63.78125,166.59375 C -57.393887,153.32769 -52.09083,139.51019 -44.71875,127 C -36.054493,112.29702 -24.299587,99.285333 -15.34375,84.4375 C -5.5909452,68.268375 2.0847365,50.926667 11.125,34.46875 C 21.095584,16.317175 34.773796,-0.63377312 42,-20 C 47.21632,-33.979738 44.304216,-50.468519 47.90625,-64.15625 C 48.430171,-66.14715 50.052367,-67.863311 51.875,-69.65625 C 53.697633,-71.449189 55.708555,-73.310753 56.6875,-75.8125 C 59.434474,-82.832545 59.708719,-90.762339 61.15625,-98 L 59.28125,-98.375 z"
         style="fill:#977248;fill-opacity:1;fill-rule:evenodd;stroke:none;stroke-width:1.89999998;stroke-linecap:butt;stroke-linejoin:miter;stroke-miterlimit:4;stroke-dasharray:none;stroke-opacity:1" />
      <path
         style="fill:url(#linearGradient3154);fill-opacity:1;fill-rule:evenodd;stroke:none;stroke-width:1.89999998;stroke-linecap:butt;stroke-linejoin:miter;stroke-miterlimit:4;stroke-dasharray:none;stroke-opacity:1"
         d="M 58.48125,-99.275 C 56.991351,-91.825497 56.719298,-83.997929 54.1375,-77.4 C 53.374679,-75.45057 51.575361,-73.745317 49.73125,-71.93125 C 47.887139,-70.117183 45.98569,-68.18562 45.29375,-65.55625 C 41.536059,-51.277024 44.3777,-34.877486 39.41875,-21.5875 C 32.341613,-2.620771 18.720222,14.275525 8.6375,32.63125 C -0.45556563,49.185294 -8.0991956,66.506395 -17.76875,82.5375 C -26.598042,97.175534 -38.348347,110.23696 -47.14375,125.1625 C -54.623781,137.85588 -59.927233,151.71041 -66.26875,164.88125 L -64.58125,165.69375 C -58.193887,152.42769 -52.89083,138.61019 -45.51875,126.1 C -36.854493,111.39702 -25.099587,98.385333 -16.14375,83.5375 C -6.3909452,67.368375 1.2847365,50.026667 10.325,33.56875 C 20.295584,15.417175 33.973796,-1.5337731 41.2,-20.9 C 46.41632,-34.879738 43.504216,-51.368519 47.10625,-65.05625 C 47.630171,-67.04715 49.252367,-68.763311 51.075,-70.55625 C 52.897633,-72.349189 54.908555,-74.210753 55.8875,-76.7125 C 58.634474,-83.732545 58.908719,-91.662339 60.35625,-98.9 L 58.48125,-99.275 z"
         id="path3139" />
    </g>
    <g
       id="g3164"
       transform="matrix(0.3507,3.2833482e-2,4.5062428e-2,0.2589192,157.5364,90.284862)"
       inkscape:transform-center-x="-10.844783"
       inkscape:transform-center-y="-10.175411">
      <path
         id="path3156"
         d="M -260.85234,-96.09375 C -261.59956,-90.614175 -261.52723,-85.038824 -263.03984,-80.09375 C -263.79249,-77.63315 -265.34911,-75.285636 -266.88359,-72.84375 C -268.41807,-70.401864 -269.90922,-67.840392 -270.38359,-64.90625 C -272.84178,-49.701869 -270.48056,-33.636886 -272.97734,-18.65625 C -276.67497,3.5295307 -283.89193,25.246902 -289.10234,47.375 C -293.82477,67.430773 -297.61592,87.700941 -302.69609,107.59375 C -309.22702,133.16752 -316.875,158.4671 -323.97734,183.9375 L -322.25859,184.40625 C -315.16331,158.96116 -307.49004,133.65598 -300.94609,108.03125 C -295.84643,88.062116 -292.06189,67.782301 -287.35234,47.78125 C -282.16703,25.759748 -274.92492,4.0292503 -271.19609,-18.34375 C -268.63523,-33.708884 -271.0298,-49.803981 -268.63359,-64.625 C -268.23057,-67.117796 -266.86718,-69.464363 -265.35234,-71.875 C -263.8375,-74.285637 -262.1497,-76.751436 -261.28984,-79.5625 C -259.66303,-84.880915 -259.79259,-90.552735 -259.07109,-95.84375 L -260.85234,-96.09375 z"
         style="fill:#613f23;fill-opacity:1;fill-rule:evenodd;stroke:none;stroke-width:1.79999995;stroke-linecap:butt;stroke-linejoin:miter;stroke-miterlimit:4;stroke-dasharray:none;stroke-opacity:1" />
      <path
         style="fill:#ceb58e;fill-opacity:1;fill-rule:evenodd;stroke:none;stroke-width:1.79999995;stroke-linecap:butt;stroke-linejoin:miter;stroke-miterlimit:4;stroke-dasharray:none;stroke-opacity:1"
         d="M -262.05234,-96.99375 C -262.79956,-91.514175 -262.72723,-85.938824 -264.23984,-80.99375 C -264.99249,-78.53315 -266.54911,-76.185636 -268.08359,-73.74375 C -269.61807,-71.301864 -271.10922,-68.740392 -271.58359,-65.80625 C -274.04178,-50.601869 -271.68056,-34.536886 -274.17734,-19.55625 C -277.87497,2.6295307 -285.09193,24.346902 -290.30234,46.475 C -295.02477,66.530773 -298.81592,86.800941 -303.89609,106.69375 C -310.42702,132.26752 -318.075,157.5671 -325.17734,183.0375 L -323.45859,183.50625 C -316.36331,158.06116 -308.69004,132.75598 -302.14609,107.13125 C -297.04643,87.162116 -293.26189,66.882301 -288.55234,46.88125 C -283.36703,24.859748 -276.12492,3.1292503 -272.39609,-19.24375 C -269.83523,-34.608884 -272.2298,-50.703981 -269.83359,-65.525 C -269.43057,-68.017796 -268.06718,-70.364363 -266.55234,-72.775 C -265.0375,-75.185637 -263.3497,-77.651436 -262.48984,-80.4625 C -260.86303,-85.780915 -260.99259,-91.452735 -260.27109,-96.74375 L -262.05234,-96.99375 z"
         id="path3162" />
    </g>
    <g
       id="g3188"
       transform="matrix(0.3507,3.2833482e-2,4.5062428e-2,0.2589192,169.91267,94.43622)"
       inkscape:transform-center-x="-4.3642633"
       inkscape:transform-center-y="-12.840342">
      <path
         style="fill:#83653d;fill-opacity:1;fill-rule:evenodd;stroke:none;stroke-width:2.29999995;stroke-linecap:butt;stroke-linejoin:miter;stroke-miterlimit:4;stroke-dasharray:none;stroke-opacity:1"
         d="M -299.625,-112.90625 C -301.31367,-110.01137 -303.21954,-107.15465 -304.78125,-104.03125 C -306.35286,-100.88803 -306.71304,-97.260984 -308.28125,-95.46875 C -308.63596,-95.063366 -309.75345,-94.727046 -311.09375,-94.4375 C -312.43405,-94.147954 -314.11157,-93.869473 -315.03125,-92.375 C -317.93761,-87.65217 -319.25261,-81.378703 -320.3125,-75.84375 C -321.51615,-69.558099 -320.31967,-63.124883 -321.75,-57.5625 C -324.6018,-46.472173 -329.70918,-35.747517 -333.5,-24.59375 C -342.46045,1.7706545 -352.13199,27.989381 -359.9375,54.78125 C -370.2737,90.25959 -378.54745,126.31388 -387.84375,162.03125 L -385.625,162.59375 C -376.31756,126.83358 -368.03018,90.799563 -357.71875,55.40625 C -349.94356,28.718423 -340.28601,2.5590977 -331.3125,-23.84375 C -327.57954,-34.827283 -322.45754,-45.588747 -319.53125,-56.96875 C -317.92736,-63.206097 -319.15311,-69.710898 -318.0625,-75.40625 C -317.01047,-80.900183 -315.64693,-86.987817 -313.0625,-91.1875 C -312.81099,-91.596207 -311.89597,-91.90618 -310.59375,-92.1875 C -309.29153,-92.46882 -307.68498,-92.685913 -306.5625,-93.96875 C -304.23107,-96.633238 -303.98709,-100.46332 -302.71875,-103 C -301.24554,-105.94642 -299.3633,-108.77003 -297.625,-111.75 L -299.625,-112.90625 z"
         id="path3186" />
      <path
         id="path3180"
         d="M -300.625,-114.90625 C -302.31367,-112.01137 -304.21954,-109.15465 -305.78125,-106.03125 C -307.35286,-102.88803 -307.71304,-99.260984 -309.28125,-97.46875 C -309.63596,-97.063366 -310.75345,-96.727046 -312.09375,-96.4375 C -313.43405,-96.147954 -315.11157,-95.869473 -316.03125,-94.375 C -318.93761,-89.65217 -320.25261,-83.378703 -321.3125,-77.84375 C -322.51615,-71.558099 -321.31967,-65.124883 -322.75,-59.5625 C -325.6018,-48.472173 -330.70918,-37.747517 -334.5,-26.59375 C -343.46045,-0.22934555 -353.13199,25.989381 -360.9375,52.78125 C -371.2737,88.25959 -379.54745,124.31388 -388.84375,160.03125 L -386.625,160.59375 C -377.31756,124.83358 -369.03018,88.799563 -358.71875,53.40625 C -350.94356,26.718423 -341.28601,0.55909772 -332.3125,-25.84375 C -328.57954,-36.827283 -323.45754,-47.588747 -320.53125,-58.96875 C -318.92736,-65.206097 -320.15311,-71.710898 -319.0625,-77.40625 C -318.01047,-82.900183 -316.64693,-88.987817 -314.0625,-93.1875 C -313.81099,-93.596207 -312.89597,-93.90618 -311.59375,-94.1875 C -310.29153,-94.46882 -308.68498,-94.685913 -307.5625,-95.96875 C -305.23107,-98.633238 -304.98709,-102.46332 -303.71875,-105 C -302.24554,-107.94642 -300.3633,-110.77003 -298.625,-113.75 L -300.625,-114.90625 z"
         style="fill:#ab6c40;fill-opacity:1;fill-rule:evenodd;stroke:none;stroke-width:2.29999995;stroke-linecap:butt;stroke-linejoin:miter;stroke-miterlimit:4;stroke-dasharray:none;stroke-opacity:1" />
    </g>
    <path
       style="fill:#2b2014;fill-opacity:1;fill-rule:evenodd;stroke:none;stroke-width:1px;stroke-linecap:butt;stroke-linejoin:miter;stroke-opacity:1"
       d="M 14.132562,113.00619 C 15.483965,111.54392 12.444914,113.17767 13.587564,111.69588 C 19.927769,103.47392 26.789382,92.26137 32.065296,83.939766 C 25.773713,93.755455 23.487094,104.18829 14.132562,113.00619 z"
       id="path3243"
       sodipodi:nodetypes="cscc"
       inkscape:transform-center-x="23.568807"
       inkscape:transform-center-y="-3.7112005" />
    <path
       style="fill:none;fill-opacity:0.75;fill-rule:evenodd;stroke:#000000;stroke-width:1px;stroke-linecap:butt;stroke-linejoin:miter;stroke-opacity:1"
       d="M -471.49696,121.76876 L -471.49696,121.76876 z"
       id="path3245" />
    <path
       sodipodi:nodetypes="cscc"
       id="path3247"
       d="M 44.702283,124.994 C 46.053684,123.53176 43.70485,125.45199 44.157277,123.68372 C 46.756643,113.52444 49.045206,97.65146 54.321117,89.329866 C 48.029536,99.14556 48.565087,114.47165 44.702283,124.994 z"
       style="fill:#2b2014;fill-opacity:1;fill-rule:evenodd;stroke:none;stroke-width:1px;stroke-linecap:butt;stroke-linejoin:miter;stroke-opacity:1"
       inkscape:transform-center-x="-2.9458383"
       inkscape:transform-center-y="4.9777545" />
    <path
       style="fill:#2b2014;fill-opacity:1;fill-rule:evenodd;stroke:none;stroke-width:1px;stroke-linecap:butt;stroke-linejoin:miter;stroke-opacity:1"
       d="M 33.620147,119.98873 C 34.971544,118.52648 32.480034,120.39952 33.075143,118.67843 C 36.337829,109.24254 46.48652,86.037715 50.370679,76.924525 C 46.423098,86.82741 37.482948,109.46637 33.620147,119.98873 z"
       id="path3249"
       sodipodi:nodetypes="cscc"
       inkscape:transform-center-x="4.5878179"
       inkscape:transform-center-y="-3.727551" />
    <path
       style="fill:url(#linearGradient3651);fill-opacity:1;fill-rule:evenodd;stroke:none;stroke-width:0.29887018px;stroke-linecap:butt;stroke-linejoin:miter;stroke-opacity:1"
       d="M 49.227301,61.871083 C 42.431262,62.107608 40.433289,69.465162 36.67264,74.162656 C 40.496477,69.412142 43.238205,62.685808 49.227301,61.871083 z"
       id="path3251"
       sodipodi:nodetypes="ccc"
       inkscape:transform-center-x="3.313976"
       inkscape:transform-center-y="-34.167309" />
    <path
       style="fill:none;fill-opacity:0.75;fill-rule:evenodd;stroke:url(#linearGradient5670);stroke-width:0.29887018px;stroke-linecap:butt;stroke-linejoin:miter;stroke-opacity:1"
       d="M 43.916834,75.027918 L 40.222092,82.911823 L 33.701614,92.027506"
       id="path3262"
       inkscape:transform-center-x="7.4547222"
       inkscape:transform-center-y="-18.656467" />
    <path
       style="fill:#f4f0db;fill-opacity:1;fill-rule:evenodd;stroke:none;stroke-width:0.29887018px;stroke-linecap:butt;stroke-linejoin:miter;stroke-opacity:1"
       d="M 51.018571,66.340737 C 52.035951,72.972014 49.82295,73.636772 49.074819,77.007152 C 49.794012,73.447727 53.317656,69.732763 51.018571,66.340737 z"
       id="path3276"
       sodipodi:nodetypes="ccc"
       inkscape:transform-center-x="-4.1669665"
       inkscape:transform-center-y="-30.510234" />
    <path
       style="fill:none;fill-opacity:0.75;fill-rule:evenodd;stroke:none;stroke-width:1px;stroke-linecap:butt;stroke-linejoin:miter;stroke-opacity:1"
       d="M 9.763503,111.57679 L 20.349897,96.491175 L 11.351462,111.31212 L 9.763503,111.57679 z"
       id="path3286" />
    <path
       style="fill:#8c8c8c;fill-opacity:1;fill-rule:evenodd;stroke:none;stroke-width:1px;stroke-linecap:round;stroke-linejoin:miter;stroke-opacity:1;filter:url(#filter3451)"
       d="M 62.15625,55.71875 C 61.972681,55.765971 61.83159,55.912922 61.791875,56.098259 C 61.75216,56.283596 61.820648,56.475457 61.96875,56.59375 C 66.017906,60.022597 70.092869,60.998377 74.03125,62.21875 C 74.298763,62.305044 74.585581,62.158138 74.671875,61.890625 C 74.758169,61.623112 74.611263,61.336294 74.34375,61.25 C 70.364007,60.016811 66.493971,59.120015 62.625,55.84375 C 62.500779,55.724004 62.323601,55.676756 62.15625,55.71875 z"
       id="path3410"
       transform="matrix(1.019354,0,0,1.019354,-14.346842,0.9417934)" />
    <path
       sodipodi:nodetypes="cc"
       id="path3455"
       d="M 62.302972,57.218509 C 66.262034,60.571066 70.221095,61.515999 74.180157,62.74278"
       style="fill:none;fill-opacity:0.75;fill-rule:evenodd;stroke:#000000;stroke-width:1px;stroke-linecap:round;stroke-linejoin:miter;stroke-opacity:0.49704141;filter:url(#filter3473)"
       transform="matrix(1.019354,0,0,1.019354,-14.346842,0.9417934)" />
    <path
       style="fill:#000000;fill-opacity:1;fill-rule:evenodd;stroke:none;stroke-width:1px;stroke-linecap:butt;stroke-linejoin:miter;stroke-opacity:1"
       d="M 37.2,72.333333 C 33.718795,76.451299 29.551617,84.207876 24.666667,91.133333 C 29.550117,85.198119 33.724357,77.624839 37.2,72.333333 z"
       id="path3635"
       sodipodi:nodetypes="ccc" />
    <path
       style="fill:#863e3e;fill-opacity:1;fill-rule:evenodd;stroke:none;stroke-width:1px;stroke-linecap:butt;stroke-linejoin:miter;stroke-opacity:1"
       d="M 24.117475,117.12282 C 24.875203,116.21278 24.166883,120.14253 25.457661,117.43104 C 30.584208,106.66187 37.105524,95.588827 41.795145,86.186894 L 24.117475,117.12282 z"
       id="path3586"
       sodipodi:nodetypes="cscc" />
    <path
       sodipodi:nodetypes="cscc"
       id="path3588"
       d="M 15.450808,115.25615 C 16.208536,114.34611 15.500216,118.27586 16.790994,115.56437 C 21.917541,104.7952 24.705524,105.32216 29.395145,95.920227 L 15.450808,115.25615 z"
       style="fill:#863e3e;fill-opacity:1;fill-rule:evenodd;stroke:none;stroke-width:1px;stroke-linecap:butt;stroke-linejoin:miter;stroke-opacity:1" />
    <path
       style="fill:#863e3e;fill-opacity:1;fill-rule:evenodd;stroke:none;stroke-width:1px;stroke-linecap:butt;stroke-linejoin:miter;stroke-opacity:1"
       d="M 49.184141,123.12281 C 49.941869,122.21277 49.336735,127.02861 49.990994,124.0977 C 51.650874,116.66186 52.038857,117.18882 52.328478,111.52023 C 51.102588,115.79242 50.410031,120.1373 49.184141,123.12281 z"
       id="path3590"
       sodipodi:nodetypes="cscc" />
    <path
       style="fill:#808080;fill-opacity:1;fill-rule:evenodd;stroke:none;stroke-width:1px;stroke-linecap:round;stroke-linejoin:round;stroke-opacity:1"
       d="M 31.46875,75.96875 C 31.229955,76.029287 31.070826,76.254721 31.09375,76.5 C 31.139087,77.201206 31.632017,77.784733 32.3125,78.4375 C 32.992983,79.090267 33.923674,79.777325 35,80.5 C 37.152652,81.94535 39.914731,83.465911 42.5,84.6875 C 45.167747,85.948062 48.981048,87.253068 52.375,88.09375 C 54.071976,88.514091 55.678682,88.812789 56.96875,88.9375 C 57.613784,88.999855 58.168952,89.010411 58.65625,88.96875 C 59.143548,88.927089 59.567968,88.844636 59.90625,88.59375 C 60.087662,88.504881 60.197785,88.315589 60.185372,88.113961 C 60.172959,87.912333 60.040449,87.737977 59.849506,87.672032 C 59.658563,87.606087 59.446697,87.661506 59.3125,87.8125 C 59.24083,87.865654 58.956901,87.935031 58.5625,87.96875 C 58.168099,88.002469 57.668273,87.99606 57.0625,87.9375 C 55.850953,87.82038 54.290237,87.537479 52.625,87.125 C 49.294527,86.300042 45.509895,84.996756 42.9375,83.78125 C 40.393345,82.579089 37.655303,81.092667 35.5625,79.6875 C 34.516098,78.984917 33.611806,78.305637 33,77.71875 C 32.388194,77.131863 32.103964,76.595481 32.09375,76.4375 C 32.089076,76.28558 32.01556,76.144032 31.893966,76.052836 C 31.772373,75.961641 31.615902,75.930699 31.46875,75.96875 L 31.46875,75.96875 z"
       id="path3592" />
    <path
       sodipodi:nodetypes="cscc"
       id="path3594"
       d="M 31.6,77.466667 C 31.711102,79.185042 37.581748,82.815014 42.711172,85.238764 C 47.951313,87.71483 57.960191,90.41616 59.6,89.2 L 59.6,89.2"
       style="fill:none;fill-opacity:0.75;fill-rule:evenodd;stroke:#000000;stroke-width:1px;stroke-linecap:butt;stroke-linejoin:miter;stroke-opacity:0.45562128;filter:url(#filter3608)" />
    <path
       style="fill:url(#linearGradient3627);fill-opacity:1;fill-rule:evenodd;stroke:none;stroke-width:1px;stroke-linecap:round;stroke-linejoin:round;stroke-opacity:1"
       d="M 31.5625,76.2875 C 31.43076,76.2947 31.306975,76.346399 31.21875,76.44375 C 31.222031,76.452085 31.21534,76.466694 31.21875,76.475 C 31.412415,76.946788 31.810968,77.368895 32.3125,77.85 C 32.992983,78.502767 33.923674,79.221075 35,79.94375 C 37.152652,81.3891 39.914731,82.909661 42.5,84.13125 C 45.167747,85.39181 48.981048,86.696817 52.375,87.5375 C 54.071976,87.957841 55.678682,88.256539 56.96875,88.38125 C 57.613784,88.443606 58.168952,88.454161 58.65625,88.4125 C 59.106771,88.373983 59.487851,88.277868 59.8125,88.06875 C 59.65463,88.001375 59.461142,88.022626 59.3125,88.13125 C 59.24083,88.184402 58.956901,88.285031 58.5625,88.31875 C 58.168099,88.352467 57.668273,88.34606 57.0625,88.2875 C 55.850953,88.170378 54.290237,87.85623 52.625,87.44375 C 49.294527,86.618789 45.509896,85.346755 42.9375,84.13125 C 40.393345,82.929087 37.655303,81.411416 35.5625,80.00625 C 34.516098,79.303665 33.611806,78.624387 33,78.0375 C 32.388194,77.450611 32.103964,76.94548 32.09375,76.7875 C 32.094005,76.649298 32.038138,76.507218 31.9375,76.4125 C 31.836863,76.317779 31.700431,76.278877 31.5625,76.2875 z"
       id="path3612" />
    <path
       style="fill:#2b2014;fill-opacity:1;fill-rule:evenodd;stroke:none;stroke-width:1px;stroke-linecap:butt;stroke-linejoin:miter;stroke-opacity:1"
       d="M 57.2,79.933333 C 56.390118,84.111136 54.451543,93.368054 50.8,110.33333 C 54.828153,99.72629 55.931,89.850582 57.2,79.933333 z"
       id="path3633"
       sodipodi:nodetypes="ccc" />
    <path
       sodipodi:nodetypes="ccc"
       id="path3637"
       d="M 51.466667,63.266666 C 47.985462,67.384632 46.218284,70.607876 43.333334,77.8 C 46.616784,70.664786 47.991024,68.558172 51.466667,63.266666 z"
       style="fill:#000000;fill-opacity:1;fill-rule:evenodd;stroke:none;stroke-width:1px;stroke-linecap:butt;stroke-linejoin:miter;stroke-opacity:1" />
    <path
       style="fill:#000000;fill-opacity:1;fill-rule:evenodd;stroke:none;stroke-width:1px;stroke-linecap:butt;stroke-linejoin:miter;stroke-opacity:1"
       d="M 38.133334,88.599999 C 34.652129,92.717965 28.351618,106.20788 24.400001,113.53333 C 28.350118,106.26479 34.657691,93.891505 38.133334,88.599999 z"
       id="path3639"
       sodipodi:nodetypes="ccc" />
    <path
       sodipodi:nodetypes="ccc"
       id="path3641"
       d="M 51.466667,89.666666 C 48.918795,94.584632 41.951618,112.20788 38.000001,119.53333 C 41.950118,112.26479 48.791024,95.358172 51.466667,89.666666 z"
       style="fill:#ddd298;fill-opacity:1;fill-rule:evenodd;stroke:none;stroke-width:1px;stroke-linecap:butt;stroke-linejoin:miter;stroke-opacity:1" />
    <path
       style="fill:#bb7c3e;fill-opacity:1;fill-rule:evenodd;stroke:none;stroke-width:1px;stroke-linecap:butt;stroke-linejoin:miter;stroke-opacity:1"
       d="M 59.466667,67 C 59.052129,70.451299 59.418285,76.874547 54.933335,84.599997 C 58.216785,76.26479 59.457691,71.224839 59.466667,67 z"
       id="path3643"
       sodipodi:nodetypes="ccc" />
    <path
       style="fill:url(#linearGradient3691);fill-opacity:1;fill-rule:evenodd;stroke:none;stroke-width:1px;stroke-linecap:round;stroke-linejoin:miter;stroke-opacity:1;filter:url(#filter3451)"
       d="M 49,57.875 C 48.859659,57.911101 48.78505,58.000911 48.71875,58.125 C 48.748197,58.170693 48.768638,58.214966 48.8125,58.25 C 52.940023,61.74521 57.110396,62.756008 61.125,64 C 61.363602,64.076969 61.600131,63.960142 61.71875,63.75 C 61.656209,63.649609 61.558881,63.539155 61.4375,63.5 C 57.380737,62.242944 53.443851,61.339674 49.5,58 C 49.373377,57.877937 49.17059,57.832193 49,57.875 z"
       id="path3679" />
    <path
       transform="matrix(0.9025936,0,0,0.9025936,-4.3815144,1.4103977)"
       id="path3693"
       d="M 62.15625,55.71875 C 61.972681,55.765971 61.83159,55.912922 61.791875,56.098259 C 61.75216,56.283596 61.820648,56.475457 61.96875,56.59375 C 66.017906,60.022597 70.092869,60.998377 74.03125,62.21875 C 74.298763,62.305044 74.585581,62.158138 74.671875,61.890625 C 74.758169,61.623112 74.611263,61.336294 74.34375,61.25 C 70.364007,60.016811 66.493971,59.120015 62.625,55.84375 C 62.500779,55.724004 62.323601,55.676756 62.15625,55.71875 z"
       style="fill:#8c8c8c;fill-opacity:1;fill-rule:evenodd;stroke:none;stroke-width:1px;stroke-linecap:round;stroke-linejoin:miter;stroke-opacity:1;filter:url(#filter3451)" />
    <path
       transform="matrix(0.9025936,0,0,0.9025936,-4.3815144,1.4103977)"
       style="fill:none;fill-opacity:0.75;fill-rule:evenodd;stroke:#000000;stroke-width:1px;stroke-linecap:round;stroke-linejoin:miter;stroke-opacity:0.49704141;filter:url(#filter3473)"
       d="M 62.302972,57.218509 C 66.262034,60.571066 70.221095,61.515999 74.180157,62.74278"
       id="path3695"
       sodipodi:nodetypes="cc" />
    <path
       id="path3697"
       d="M 66.11127,50.670094 C 65.970929,50.706195 65.89632,50.796005 65.83002,50.920094 C 65.859467,50.965787 65.879908,51.01006 65.92377,51.045094 C 70.051293,54.540304 74.221666,55.551102 78.23627,56.795094 C 78.474872,56.872063 78.711401,56.755236 78.83002,56.545094 C 78.767479,56.444703 78.670151,56.334249 78.54877,56.295094 C 74.492007,55.038038 70.555121,54.134768 66.61127,50.795094 C 66.484647,50.673031 66.28186,50.627287 66.11127,50.670094 z"
       style="fill:url(#linearGradient3699);fill-opacity:1;fill-rule:evenodd;stroke:none;stroke-width:1px;stroke-linecap:round;stroke-linejoin:miter;stroke-opacity:1;filter:url(#filter3451)"
       transform="matrix(0.8854565,0,0,0.8854565,-6.829295,6.9561112)" />
  </g>
</svg>
