<?xml version="1.0" encoding="UTF-8" standalone="no"?>
<!-- Created with Inkscape (http://www.inkscape.org/) -->

<svg
   xmlns:dc="http://purl.org/dc/elements/1.1/"
   xmlns:cc="http://creativecommons.org/ns#"
   xmlns:rdf="http://www.w3.org/1999/02/22-rdf-syntax-ns#"
   xmlns:svg="http://www.w3.org/2000/svg"
   xmlns="http://www.w3.org/2000/svg"
   xmlns:sodipodi="http://sodipodi.sourceforge.net/DTD/sodipodi-0.dtd"
   xmlns:inkscape="http://www.inkscape.org/namespaces/inkscape"
   width="32"
   height="32"
   id="svg2"
   version="1.1"
   inkscape:version="0.48.1 r9760"
   sodipodi:docname="dock-peer.svg">
  <defs
     id="defs4" />
  <sodipodi:namedview
     id="base"
     pagecolor="#ffffff"
     bordercolor="#666666"
     borderopacity="1.0"
     inkscape:pageopacity="0.0"
     inkscape:pageshadow="2"
     inkscape:zoom="8"
     inkscape:cx="66.383742"
     inkscape:cy="18.13189"
     inkscape:document-units="px"
     inkscape:current-layer="layer1"
     showgrid="false"
     inkscape:window-width="1366"
     inkscape:window-height="692"
     inkscape:window-x="0"
     inkscape:window-y="25"
     inkscape:window-maximized="1" />
  <metadata
     id="metadata7">
    <rdf:RDF>
      <cc:Work
         rdf:about="">
        <dc:format>image/svg+xml</dc:format>
        <dc:type
           rdf:resource="http://purl.org/dc/dcmitype/StillImage" />
        <dc:title />
      </cc:Work>
    </rdf:RDF>
  </metadata>
  <g
     inkscape:label="Layer 1"
     inkscape:groupmode="layer"
     id="layer1"
     transform="translate(0,-1020.3622)"
     style="display:inline">
    <path
       style="fill:#ffffff;fill-opacity:1;stroke:#597fbe;stroke-opacity:1"
       d="m 12.53125,1031.956 c -4.4178339,1.2476 -7.625,4.7817 -7.625,8.9687 0,2.7309 1.3935262,5.1788 3.5625,6.9063 0.025109,0.01 0.037308,0.024 0.0625,0.031 2.226774,0.6733 4.756436,1.0625 7.46875,1.0625 2.712314,0 5.273227,-0.3892 7.5,-1.0625 0.02519,-0.01 0.03739,-0.024 0.0625,-0.031 2.168974,-1.7275 3.53125,-4.1754 3.53125,-6.9063 0,-4.187 -3.175916,-7.7211 -7.59375,-8.9687 z"
       id="path3601"
       inkscape:connector-curvature="0"
       sodipodi:nodetypes="csccsccscc" />
    <path
       sodipodi:type="arc"
       style="fill:#ffffff;fill-opacity:1;stroke:#597fbe;stroke-width:1;stroke-linecap:butt;stroke-linejoin:bevel;stroke-miterlimit:4;stroke-opacity:1;stroke-dasharray:none;stroke-dashoffset:0"
       id="path2985"
       sodipodi:cx="16.882174"
       sodipodi:cy="7.6932044"
       sodipodi:rx="5.7452426"
       sodipodi:ry="5.7452426"
       d="m 22.627416,7.6932044 a 5.7452426,5.7452426 0 1 1 -11.490485,0 5.7452426,5.7452426 0 1 1 11.490485,0 z"
       transform="matrix(1.031844,0,0,1.031844,-1.3993832,1019.1228)" />
  </g>
</svg>
