<?xml version="1.0" encoding="UTF-8" standalone="no"?>
<!-- Created with Inkscape (http://www.inkscape.org/) -->

<svg
   xmlns:dc="http://purl.org/dc/elements/1.1/"
   xmlns:cc="http://creativecommons.org/ns#"
   xmlns:rdf="http://www.w3.org/1999/02/22-rdf-syntax-ns#"
   xmlns:svg="http://www.w3.org/2000/svg"
   xmlns="http://www.w3.org/2000/svg"
   xmlns:xlink="http://www.w3.org/1999/xlink"
   xmlns:sodipodi="http://sodipodi.sourceforge.net/DTD/sodipodi-0.dtd"
   xmlns:inkscape="http://www.inkscape.org/namespaces/inkscape"
   sodipodi:docname="diagnostics.svg"
   inkscape:version="0.48.1 r9760"
   version="1.1"
   id="svg2"
   height="22"
   width="22"
   style="display:inline">
  <defs
     id="defs4">
    <linearGradient
       id="linearGradient3832">
      <stop
         style="stop-color:#ffffff;stop-opacity:0.78431374;"
         offset="0"
         id="stop3834" />
      <stop
         style="stop-color:#ffffff;stop-opacity:0;"
         offset="1"
         id="stop3836" />
    </linearGradient>
    <linearGradient
       id="linearGradient3821">
      <stop
         id="stop3823"
         offset="0"
         style="stop-color:#646464;stop-opacity:0.19607843;" />
      <stop
         id="stop3825"
         offset="1"
         style="stop-color:#646464;stop-opacity:0;" />
    </linearGradient>
    <linearGradient
       id="linearGradient3809">
      <stop
         style="stop-color:#646464;stop-opacity:0.58823532;"
         offset="0"
         id="stop3811" />
      <stop
         style="stop-color:#646464;stop-opacity:0;"
         offset="1"
         id="stop3813" />
    </linearGradient>
    <linearGradient
       id="linearGradient3772">
      <stop
         style="stop-color:#0096ff;stop-opacity:1;"
         offset="0"
         id="stop3774" />
      <stop
         id="stop3840"
         offset="0.5"
         style="stop-color:#00e4ff;stop-opacity:1;" />
      <stop
         style="stop-color:#009dff;stop-opacity:1;"
         offset="1"
         id="stop3776" />
    </linearGradient>
    <linearGradient
       inkscape:collect="always"
       xlink:href="#linearGradient3772"
       id="linearGradient3790"
       gradientUnits="userSpaceOnUse"
       x1="11.798559"
       y1="6.4798164"
       x2="11.798559"
       y2="16.102093" />
    <radialGradient
       inkscape:collect="always"
       xlink:href="#linearGradient3809"
       id="radialGradient3815"
       cx="15.755223"
       cy="20.121748"
       fx="15.755223"
       fy="20.121748"
       r="2.3201942"
       gradientTransform="matrix(1,0,0,0.23809523,0,15.330856)"
       gradientUnits="userSpaceOnUse" />
    <radialGradient
       inkscape:collect="always"
       xlink:href="#linearGradient3821"
       id="radialGradient3819"
       gradientUnits="userSpaceOnUse"
       gradientTransform="matrix(1,0,0,0.23809523,0,15.330856)"
       cx="15.755223"
       cy="20.121748"
       fx="15.755223"
       fy="20.121748"
       r="2.3201942" />
    <linearGradient
       inkscape:collect="always"
       xlink:href="#linearGradient3832"
       id="linearGradient3838"
       x1="13.723081"
       y1="1.4094702"
       x2="13.723081"
       y2="11.6703"
       gradientUnits="userSpaceOnUse" />
  </defs>
  <sodipodi:namedview
     id="base"
     pagecolor="#ffffff"
     bordercolor="#666666"
     borderopacity="1.0"
     inkscape:pageopacity="0.0"
     inkscape:pageshadow="2"
     inkscape:zoom="14.029641"
     inkscape:cx="8.2117953"
     inkscape:cy="11.230497"
     inkscape:document-units="px"
     inkscape:current-layer="layer3"
     showgrid="false"
     inkscape:window-width="1366"
     inkscape:window-height="692"
     inkscape:window-x="0"
     inkscape:window-y="25"
     inkscape:window-maximized="1"
     inkscape:snap-global="false"
     showguides="true"
     inkscape:guide-bbox="true" />
  <metadata
     id="metadata7">
    <rdf:RDF>
      <cc:Work
         rdf:about="">
        <dc:format>image/svg+xml</dc:format>
        <dc:type
           rdf:resource="http://purl.org/dc/dcmitype/StillImage" />
        <dc:title></dc:title>
      </cc:Work>
    </rdf:RDF>
  </metadata>
  <g
     inkscape:groupmode="layer"
     id="layer3"
     inkscape:label="phone"
     style="display:inline">
    <path
       sodipodi:type="arc"
       style="fill:url(#radialGradient3815);fill-opacity:1;stroke:none"
       id="path3807"
       sodipodi:cx="15.755223"
       sodipodi:cy="20.121748"
       sodipodi:rx="2.3201942"
       sodipodi:ry="0.55242717"
       d="m 18.075418,20.121748 a 2.3201942,0.55242717 0 1 1 -4.640389,0 2.3201942,0.55242717 0 1 1 4.640389,0 z"
       transform="matrix(1.9714286,0,0,1,-16.763482,-0.17677671)" />
    <path
       sodipodi:type="inkscape:offset"
       inkscape:radius="0.25"
       inkscape:original="M 11 1.8125 L 8.125 10 L 6.0625 6.1875 L 4.5625 8.5625 L 1.125 8.5625 L 1.125 11.1875 L 4.5625 11.1875 L 6.0625 10.09375 L 8.125 13.84375 L 11 9.1875 L 14.3125 19.5625 L 17.21875 11.1875 L 20.90625 11.1875 L 20.90625 8.5625 L 15.5625 8.5625 L 14.3125 12.03125 L 11 1.8125 z "
       style="fill:url(#linearGradient3790);fill-opacity:1;stroke:none"
       id="path3788"
       d="M 10.90625,1.5625 A 0.250025,0.250025 0 0 0 10.84375,1.625 0.250025,0.250025 0 0 0 10.8125,1.65625 0.250025,0.250025 0 0 0 10.75,1.71875 L 8.0625,9.375 6.28125,6.0625 A 0.250025,0.250025 0 0 0 6.1875,5.96875 0.250025,0.250025 0 0 0 6.09375,5.9375 0.250025,0.250025 0 0 0 5.90625,6 0.250025,0.250025 0 0 0 5.875,6.03125 0.250025,0.250025 0 0 0 5.84375,6.0625 l -1.40625,2.25 -3.3125,0 a 0.250025,0.250025 0 0 0 -0.0625,0 0.250025,0.250025 0 0 0 -0.15625,0.125 0.250025,0.250025 0 0 0 -0.03125,0.09375 0.250025,0.250025 0 0 0 0,0.03125 l 0,2.625 a 0.250025,0.250025 0 0 0 0,0.0625 0.250025,0.250025 0 0 0 0.125,0.15625 0.250025,0.250025 0 0 0 0.09375,0.03125 0.250025,0.250025 0 0 0 0.03125,0 l 3.4375,0 a 0.250025,0.250025 0 0 0 0.0625,0 0.250025,0.250025 0 0 0 0.09375,-0.0625 l 1.25,-0.90625 1.9375,3.5 A 0.250025,0.250025 0 0 0 8,14.0625 0.250025,0.250025 0 0 0 8.09375,14.09375 0.250025,0.250025 0 0 0 8.28125,14.03125 0.250025,0.250025 0 0 0 8.3125,14 0.250025,0.250025 0 0 0 8.34375,13.96875 l 2.59375,-4.1875 3.125,9.84375 a 0.250025,0.250025 0 0 0 0.125,0.15625 0.250025,0.250025 0 0 0 0.125,0.03125 0.250025,0.250025 0 0 0 0.15625,-0.0625 0.250025,0.250025 0 0 0 0.03125,-0.03125 0.250025,0.250025 0 0 0 0.0625,-0.0625 l 2.84375,-8.21875 3.5,0 a 0.250025,0.250025 0 0 0 0.0625,0 0.250025,0.250025 0 0 0 0.15625,-0.125 0.250025,0.250025 0 0 0 0.03125,-0.09375 0.250025,0.250025 0 0 0 0,-0.03125 l 0,-2.625 a 0.250025,0.250025 0 0 0 0,-0.0625 0.250025,0.250025 0 0 0 -0.125,-0.15625 0.250025,0.250025 0 0 0 -0.09375,-0.03125 0.250025,0.250025 0 0 0 -0.03125,0 l -5.34375,0 a 0.250025,0.250025 0 0 0 -0.0625,0 0.250025,0.250025 0 0 0 -0.15625,0.125 0.250025,0.250025 0 0 0 -0.03125,0.03125 l -1,2.75 L 11.25,1.75 A 0.250025,0.250025 0 0 0 11.15625,1.625 0.250025,0.250025 0 0 0 11.125,1.59375 0.250025,0.250025 0 0 0 11,1.5625 a 0.250025,0.250025 0 0 0 -0.09375,0 z" />
    <path
       style="fill:url(#linearGradient3838);fill-opacity:1;stroke:none"
       d="M 10.875,1.5625 A 0.250025,0.250025 0 0 0 10.84375,1.625 0.250025,0.250025 0 0 0 10.8125,1.65625 0.250025,0.250025 0 0 0 10.75,1.71875 L 8.8125,7.25 C 9.5283359,7.1746984 10.263218,7.125 11,7.125 c 0.681401,0 1.367629,0.029214 2.03125,0.09375 L 11.25,1.75 A 0.250025,0.250025 0 0 0 11.1875,1.65625 0.250025,0.250025 0 0 0 11.15625,1.625 0.250025,0.250025 0 0 0 11.125,1.59375 0.250025,0.250025 0 0 0 11,1.5625 a 0.250025,0.250025 0 0 0 -0.0625,0 0.250025,0.250025 0 0 0 -0.03125,0 0.250025,0.250025 0 0 0 -0.03125,0 z M 6,5.9375 A 0.250025,0.250025 0 0 0 5.9375,5.96875 0.250025,0.250025 0 0 0 5.90625,6 0.250025,0.250025 0 0 0 5.875,6.03125 0.250025,0.250025 0 0 0 5.84375,6.0625 l -1.3125,2.125 C 5.3416802,7.918029 6.1767026,7.6674483 7.03125,7.5 l -0.75,-1.4375 A 0.250025,0.250025 0 0 0 6.1875,5.96875 0.250025,0.250025 0 0 0 6.09375,5.9375 a 0.250025,0.250025 0 0 0 -0.0625,0 A 0.250025,0.250025 0 0 0 6,5.9375 z M 1.03125,8.3125 A 0.250025,0.250025 0 0 0 0.9375,8.40625 0.250025,0.250025 0 0 0 0.90625,8.4375 0.250025,0.250025 0 0 0 0.875,8.53125 a 0.250025,0.250025 0 0 0 0,0.03125 l 0,1.25 c 1.0287302,-0.5907812 2.1107173,-1.0942498 3.25,-1.5 l -3,0 a 0.250025,0.250025 0 0 0 -0.0625,0 0.250025,0.250025 0 0 0 -0.03125,0 z m 16.84375,0 c 1.153008,0.4106386 2.241611,0.9312268 3.28125,1.53125 l 0,-1.28125 a 0.250025,0.250025 0 0 0 0,-0.0625 A 0.250025,0.250025 0 0 0 21.0625,8.375 0.250025,0.250025 0 0 0 21.03125,8.34375 0.250025,0.250025 0 0 0 20.9375,8.3125 a 0.250025,0.250025 0 0 0 -0.03125,0 l -3.03125,0 z"
       id="path3827"
       inkscape:connector-curvature="0" />
    <path
       style="fill:#000000;fill-opacity:0.58823529;stroke:none"
       d="m 10.859375,1.5625 a 0.250025,0.250025 0 0 0 -0.03125,0.0625 0.250025,0.250025 0 0 0 -0.03125,0.03125 0.250025,0.250025 0 0 0 -0.0625,0.0625 L 8.046875,9.375 6.265625,6.0625 A 0.250025,0.250025 0 0 0 6.171875,5.96875 0.250025,0.250025 0 0 0 6.078125,5.9375 a 0.250025,0.250025 0 0 0 -0.0625,0 A 0.250025,0.250025 0 0 0 5.921875,5.96875 0.250025,0.250025 0 0 0 5.890625,6 0.250025,0.250025 0 0 0 5.859375,6.03125 0.250025,0.250025 0 0 0 5.828125,6.0625 l -1.40625,2.25 -3.3125,0 a 0.250025,0.250025 0 0 0 -0.0625,0 0.250025,0.250025 0 0 0 -0.125,0.09375 0.250025,0.250025 0 0 0 -0.03125,0.03125 0.250025,0.250025 0 0 0 -0.03125,0.09375 0.250025,0.250025 0 0 0 0,0.03125 l 0,2.625 a 0.250025,0.250025 0 0 0 0,0.0625 0.250025,0.250025 0 0 0 0.09375,0.125 0.250025,0.250025 0 0 0 0.03125,0.03125 0.250025,0.250025 0 0 0 0.09375,0.03125 0.250025,0.250025 0 0 0 0.03125,0 l 3.4375,0 a 0.250025,0.250025 0 0 0 0.0625,0 0.250025,0.250025 0 0 0 0.09375,-0.0625 l 1.25,-0.90625 1.9375,3.5 a 0.250025,0.250025 0 0 0 0.09375,0.09375 0.250025,0.250025 0 0 0 0.09375,0.03125 0.250025,0.250025 0 0 0 0.0625,0 0.250025,0.250025 0 0 0 0.09375,-0.03125 0.250025,0.250025 0 0 0 0.03125,-0.03125 A 0.250025,0.250025 0 0 0 8.296875,14 0.250025,0.250025 0 0 0 8.328125,13.96875 l 2.59375,-4.1875 3.125,9.84375 a 0.250025,0.250025 0 0 0 0.09375,0.125 0.250025,0.250025 0 0 0 0.03125,0.03125 0.250025,0.250025 0 0 0 0.125,0.03125 0.250025,0.250025 0 0 0 0.0625,0 0.250025,0.250025 0 0 0 0.09375,-0.0625 0.250025,0.250025 0 0 0 0.03125,-0.03125 0.250025,0.250025 0 0 0 0.0625,-0.0625 l 2.84375,-8.21875 3.5,0 a 0.250025,0.250025 0 0 0 0.0625,0 0.250025,0.250025 0 0 0 0.125,-0.09375 0.250025,0.250025 0 0 0 0.03125,-0.03125 0.250025,0.250025 0 0 0 0.03125,-0.09375 0.250025,0.250025 0 0 0 0,-0.03125 l 0,-2.625 a 0.250025,0.250025 0 0 0 0,-0.0625 0.250025,0.250025 0 0 0 -0.09375,-0.125 0.250025,0.250025 0 0 0 -0.03125,-0.03125 0.250025,0.250025 0 0 0 -0.09375,-0.03125 0.250025,0.250025 0 0 0 -0.03125,0 l -5.34375,0 a 0.250025,0.250025 0 0 0 -0.0625,0 0.250025,0.250025 0 0 0 -0.125,0.09375 0.250025,0.250025 0 0 0 -0.03125,0.03125 0.250025,0.250025 0 0 0 -0.03125,0.03125 l -1,2.75 -3.0625,-9.46875 a 0.250025,0.250025 0 0 0 -0.0625,-0.09375 0.250025,0.250025 0 0 0 -0.03125,-0.03125 0.250025,0.250025 0 0 0 -0.03125,-0.03125 0.250025,0.250025 0 0 0 -0.125,-0.03125 0.250025,0.250025 0 0 0 -0.0625,0 0.250025,0.250025 0 0 0 -0.03125,0 0.250025,0.250025 0 0 0 -0.03125,0 z m 0.125,0.65625 2.9375,9.125 a 0.4084476,0.4084476 0 0 0 0.75,0 L 15.609375,8.75 a 0.4084476,0.4084476 0 0 0 0,-0.03125 l 0.03125,0 5.09375,0 0,2.3125 -3.34375,0 a 0.4084476,0.4084476 0 0 0 -0.28125,0.125 0.4084476,0.4084476 0 0 0 -0.09375,0.15625 l -2.71875,7.8125 -3,-9.46875 A 0.4084476,0.4084476 0 0 0 10.578125,9.5625 l -2.46875,4 -1.8125,-3.28125 A 0.4084476,0.4084476 0 0 0 5.703125,10.125 l -1.25,0.90625 -3.1875,0 0,-2.3125 3.15625,0 a 0.4084476,0.4084476 0 0 0 0.34375,-0.1875 L 6.015625,6.5 7.671875,9.5625 A 0.4084476,0.4084476 0 0 0 8.328125,9.65625 0.4084476,0.4084476 0 0 0 8.421875,9.5 l 2.5625,-7.28125 z"
       id="path3792"
       inkscape:connector-curvature="0" />
    <path
       transform="matrix(3.1695303,0,0,1,-41.117085,-0.10549905)"
       d="m 18.075418,20.121748 a 2.3201942,0.55242717 0 1 1 -4.640389,0 2.3201942,0.55242717 0 1 1 4.640389,0 z"
       sodipodi:ry="0.55242717"
       sodipodi:rx="2.3201942"
       sodipodi:cy="20.121748"
       sodipodi:cx="15.755223"
       id="path3817"
       style="fill:url(#radialGradient3819);fill-opacity:1;stroke:none"
       sodipodi:type="arc" />
  </g>
</svg>
