<?xml version="1.0" encoding="UTF-8" standalone="no"?>
<!-- Generator: Adobe Illustrator 12.0.0, SVG Export Plug-In . SVG Version: 6.00 Build 51448)  -->

<svg
   xmlns:ns="http://ns.adobe.com/SaveForWeb/1.0/"
   xmlns:dc="http://purl.org/dc/elements/1.1/"
   xmlns:cc="http://creativecommons.org/ns#"
   xmlns:rdf="http://www.w3.org/1999/02/22-rdf-syntax-ns#"
   xmlns:svg="http://www.w3.org/2000/svg"
   xmlns="http://www.w3.org/2000/svg"
   xmlns:xlink="http://www.w3.org/1999/xlink"
   xmlns:sodipodi="http://sodipodi.sourceforge.net/DTD/sodipodi-0.dtd"
   xmlns:inkscape="http://www.inkscape.org/namespaces/inkscape"
   version="1.1"
   width="128"
   height="128"
   viewBox="0 0 128 128"
   overflow="visible"
   enable-background="new 0 0 128 128"
   xml:space="preserve"
   sodipodi:version="0.32"
   inkscape:version="0.48.1 r9760"
   sodipodi:docname="paste.svg"><defs
   id="defs105"><linearGradient
     inkscape:collect="always"
     id="linearGradient3400"><stop
       style="stop-color:#ffffff;stop-opacity:1;"
       offset="0"
       id="stop3402" /><stop
       style="stop-color:#ffffff;stop-opacity:0;"
       offset="1"
       id="stop3404" /></linearGradient><linearGradient
     y2="0"
     x2="28"
     y1="57.5"
     x1="28"
     gradientUnits="userSpaceOnUse"
     id="linearGradient3368">
			<stop
   id="stop3370"
   style="stop-color:#595959;stop-opacity:1;"
   offset="0" />
			<stop
   id="stop3372"
   style="stop-color:#222222;stop-opacity:1;"
   offset="1" />
		</linearGradient><linearGradient
     inkscape:collect="always"
     id="linearGradient4811"><stop
       style="stop-color:#000000;stop-opacity:1;"
       offset="0"
       id="stop4813" /><stop
       style="stop-color:#000000;stop-opacity:0;"
       offset="1"
       id="stop4815" /></linearGradient><linearGradient
     inkscape:collect="always"
     id="linearGradient4077"><stop
       style="stop-color:#000000;stop-opacity:1;"
       offset="0"
       id="stop4079" /><stop
       style="stop-color:#000000;stop-opacity:0;"
       offset="1"
       id="stop4081" /></linearGradient><linearGradient
     inkscape:collect="always"
     id="linearGradient4005"><stop
       style="stop-color:#000000;stop-opacity:1;"
       offset="0"
       id="stop4007" /><stop
       style="stop-color:#000000;stop-opacity:0;"
       offset="1"
       id="stop4009" /></linearGradient><linearGradient
     inkscape:collect="always"
     xlink:href="#linearGradient3368"
     id="linearGradient3816"
     x1="28.364862"
     y1="12"
     x2="77.328758"
     y2="122.48434"
     gradientUnits="userSpaceOnUse"
     gradientTransform="translate(-8.000004,0)" /><linearGradient
     id="linearGradient3638"><stop
       style="stop-color:#ffffff;stop-opacity:0;"
       offset="0"
       id="stop3640" /><stop
       id="stop3661"
       offset="0.06868132"
       style="stop-color:#ffffff;stop-opacity:1;" /><stop
       id="stop3659"
       offset="0.5"
       style="stop-color:#ffffff;stop-opacity:1;" /><stop
       style="stop-color:#ffffff;stop-opacity:0;"
       offset="1"
       id="stop3642" /></linearGradient><linearGradient
     id="linearGradient2575"
     gradientUnits="userSpaceOnUse"
     x1="28"
     y1="57.5"
     x2="28"
     y2="0">
			<stop
   offset="0"
   style="stop-color:#474747;stop-opacity:1;"
   id="stop2577" />
			<stop
   offset="1"
   style="stop-color:#000000;stop-opacity:1;"
   id="stop2579" />
		</linearGradient><linearGradient
     id="linearGradient3149"><stop
       id="stop3151"
       offset="0"
       style="stop-color:#454545;stop-opacity:1;" /><stop
       style="stop-color:#cacaca;stop-opacity:1;"
       offset="0.48275861"
       id="stop3920" /><stop
       id="stop3153"
       offset="1"
       style="stop-color:#f8f8f8;stop-opacity:1;" /></linearGradient><linearGradient
     id="linearGradient3235"
     inkscape:collect="always"><stop
       id="stop3237"
       offset="0"
       style="stop-color:#ffffff;stop-opacity:1;" /><stop
       id="stop3239"
       offset="1"
       style="stop-color:#ffffff;stop-opacity:0;" /></linearGradient><linearGradient
     inkscape:collect="always"
     xlink:href="#linearGradient3149"
     id="linearGradient3884"
     gradientUnits="userSpaceOnUse"
     gradientTransform="matrix(1.1111117,0,0,1.6,-12.8889,-0.81587)"
     spreadMethod="reflect"
     x1="58.073513"
     y1="5.5073318"
     x2="58.073513"
     y2="12.044647" /><linearGradient
     inkscape:collect="always"
     xlink:href="#linearGradient3149"
     id="linearGradient3891"
     gradientUnits="userSpaceOnUse"
     gradientTransform="matrix(1.227818,0,0,1.286432,98.3596,13.42714)"
     x1="-34.499901"
     y1="-1.3553318"
     x2="-34.499901"
     y2="-11.966981" /><linearGradient
     inkscape:collect="always"
     xlink:href="#linearGradient3235"
     id="linearGradient3931"
     x1="48.61359"
     y1="10.752187"
     x2="84"
     y2="10.752187"
     gradientUnits="userSpaceOnUse"
     gradientTransform="matrix(1.1303775,0,0,1,-18.951707,-0.5)" /><filter
     inkscape:collect="always"
     x="-0.018968365"
     width="1.0379367"
     y="-0.34415792"
     height="1.6883158"
     id="filter3999"><feGaussianBlur
       inkscape:collect="always"
       stdDeviation="0.31613941"
       id="feGaussianBlur4001" /></filter><filter
     inkscape:collect="always"
     x="-0.035955056"
     width="1.0719101"
     y="-0.25168539"
     height="1.5033708"
     id="filter4033"><feGaussianBlur
       inkscape:collect="always"
       stdDeviation="0.6349485"
       id="feGaussianBlur4035" /></filter><linearGradient
     inkscape:collect="always"
     xlink:href="#linearGradient3235"
     id="linearGradient4135"
     gradientUnits="userSpaceOnUse"
     gradientTransform="matrix(1,0,0,1.1489125,-138.10679,0)"
     x1="56.623783"
     y1="21.105345"
     x2="101.6466"
     y2="21.381557" /><mask
     maskUnits="userSpaceOnUse"
     id="mask4131"><rect
       style="opacity:1;fill:url(#linearGradient4135);fill-opacity:1;stroke:none;stroke-width:2;stroke-linecap:round;stroke-linejoin:round;stroke-miterlimit:4;stroke-dasharray:none;stroke-dashoffset:1.08779998;stroke-opacity:1"
       id="rect4133"
       width="65.186401"
       height="28.561073"
       x="-101.64659"
       y="10.285005"
       transform="matrix(-1,0,-0.3481553,0.9374369,0,0)" /></mask><linearGradient
     inkscape:collect="always"
     xlink:href="#linearGradient3235"
     id="linearGradient4147"
     x1="48.461166"
     y1="1.3560734"
     x2="75.130096"
     y2="1.3560734"
     gradientUnits="userSpaceOnUse"
     gradientTransform="translate(-7.8,1.3)" /><filter
     inkscape:collect="always"
     x="-0.014460673"
     width="1.0289213"
     y="-0.19945781"
     height="1.3989156"
     id="filter4177"><feGaussianBlur
       inkscape:collect="always"
       stdDeviation="0.16068779"
       id="feGaussianBlur4179" /></filter><linearGradient
     inkscape:collect="always"
     xlink:href="#linearGradient2575"
     id="linearGradient4190"
     gradientUnits="userSpaceOnUse"
     gradientTransform="translate(-7.9976205,0)"
     x1="79.587105"
     y1="-25.960203"
     x2="110.8327"
     y2="90.649948" /><linearGradient
     inkscape:collect="always"
     xlink:href="#linearGradient2575"
     id="linearGradient4194"
     gradientUnits="userSpaceOnUse"
     gradientTransform="matrix(-1,0,0,1,119.99651,0)"
     x1="79.587105"
     y1="-25.960203"
     x2="110.8327"
     y2="90.649948" /><linearGradient
     inkscape:collect="always"
     xlink:href="#linearGradient3638"
     id="linearGradient4215"
     gradientUnits="userSpaceOnUse"
     gradientTransform="translate(-8.000004,-0.9999969)"
     x1="73.615906"
     y1="97.608109"
     x2="73.943695"
     y2="138.20813" /><filter
     inkscape:collect="always"
     x="-0.023605747"
     width="1.0472115"
     y="-0.46785067"
     height="1.9357013"
     id="filter4253"><feGaussianBlur
       inkscape:collect="always"
       stdDeviation="0.94422987"
       id="feGaussianBlur4255" /></filter><linearGradient
     inkscape:collect="always"
     xlink:href="#linearGradient4077"
     id="linearGradient4590"
     gradientUnits="userSpaceOnUse"
     x1="56.827953"
     y1="-34.582161"
     x2="76.486145"
     y2="38.820595" /><linearGradient
     inkscape:collect="always"
     xlink:href="#linearGradient4005"
     id="linearGradient4648"
     gradientUnits="userSpaceOnUse"
     gradientTransform="translate(-8,5.6)"
     x1="63.085938"
     y1="19.992191"
     x2="63.085938"
     y2="13.937426" /><filter
     inkscape:collect="always"
     id="filter4787"><feGaussianBlur
       inkscape:collect="always"
       stdDeviation="2.2677902"
       id="feGaussianBlur4789" /></filter><linearGradient
     inkscape:collect="always"
     xlink:href="#linearGradient4811"
     id="linearGradient4817"
     x1="50.759903"
     y1="-2.1362097"
     x2="50.759903"
     y2="1.3951097"
     gradientUnits="userSpaceOnUse" /><linearGradient
     inkscape:collect="always"
     xlink:href="#XMLID_12_"
     id="linearGradient4840"
     gradientUnits="userSpaceOnUse"
     gradientTransform="translate(8.0000028,3.9999997)"
     x1="96"
     y1="104"
     x2="88.0002"
     y2="96.0002" /><linearGradient
     inkscape:collect="always"
     xlink:href="#XMLID_11_"
     id="linearGradient4843"
     gradientUnits="userSpaceOnUse"
     gradientTransform="translate(8.0000028,3.9999997)"
     x1="95"
     y1="103"
     x2="87.293"
     y2="95.293" /><linearGradient
     inkscape:collect="always"
     xlink:href="#XMLID_10_"
     id="linearGradient4846"
     gradientUnits="userSpaceOnUse"
     gradientTransform="translate(8.0000028,3.9999997)"
     x1="95"
     y1="103"
     x2="86.5865"
     y2="94.5865" /><linearGradient
     inkscape:collect="always"
     xlink:href="#XMLID_9_"
     id="linearGradient4849"
     gradientUnits="userSpaceOnUse"
     gradientTransform="translate(8.0000028,3.9999997)"
     x1="94.3438"
     y1="102.3447"
     x2="86.5356"
     y2="94.5366" /><radialGradient
     inkscape:collect="always"
     xlink:href="#XMLID_8_"
     id="radialGradient4852"
     gradientUnits="userSpaceOnUse"
     gradientTransform="translate(8.0000028,3.9999997)"
     cx="102"
     cy="112.3047"
     r="139.55859" /><radialGradient
     inkscape:collect="always"
     xlink:href="#XMLID_7_"
     id="radialGradient4855"
     gradientUnits="userSpaceOnUse"
     gradientTransform="translate(8.0000028,3.9999997)"
     cx="102"
     cy="112.3047"
     r="139.5585" /><filter
     inkscape:collect="always"
     x="-0.040822664"
     width="1.0816453"
     y="-0.11777063"
     height="1.2355413"
     id="filter3346"><feGaussianBlur
       inkscape:collect="always"
       stdDeviation="0.90509031"
       id="feGaussianBlur3348" /></filter><filter
     inkscape:collect="always"
     id="filter3396"><feGaussianBlur
       inkscape:collect="always"
       stdDeviation="0.19500234"
       id="feGaussianBlur3398" /></filter><linearGradient
     inkscape:collect="always"
     xlink:href="#linearGradient3400"
     id="linearGradient3406"
     x1="88.966972"
     y1="5.7464399"
     x2="-36.418835"
     y2="5.7464399"
     gradientUnits="userSpaceOnUse" /></defs><sodipodi:namedview
   inkscape:window-height="670"
   inkscape:window-width="1049"
   inkscape:pageshadow="2"
   inkscape:pageopacity="0.0"
   guidetolerance="10.0"
   gridtolerance="10.0"
   objecttolerance="10.0"
   borderopacity="1.0"
   bordercolor="#666666"
   pagecolor="#ffffff"
   id="base"
   inkscape:zoom="1.7773438"
   inkscape:cx="16.160555"
   inkscape:cy="66.304631"
   inkscape:window-x="309"
   inkscape:window-y="44"
   inkscape:current-layer="Layer_1"
   showgrid="false"
   showguides="true"
   inkscape:guide-bbox="true"
   inkscape:window-maximized="0"><inkscape:grid
     type="xygrid"
     id="grid3408" /><inkscape:grid
     id="GridFromPre046Settings"
     type="xygrid"
     originx="0px"
     originy="0px"
     spacingx="4px"
     spacingy="4px"
     color="#0000ff"
     empcolor="#0000ff"
     opacity="0.2"
     empopacity="0.4"
     empspacing="2" /></sodipodi:namedview>
<metadata
   id="metadata3">
	<ns:sfw>
		<ns:slices>
			<ns:slice
   y="0"
   x="0"
   height="128"
   width="128"
   sliceID="1316743234" />
		</ns:slices>
		<ns:sliceSourceBounds
   y="0"
   x="0"
   height="128"
   width="128"
   bottomLeftOrigin="true" />
		<ns:optimizationSettings>
			<ns:targetSettings
   targetSettingsID="0"
   fileFormat="PNG24Format">
				<ns:PNG24Format
   transparency="true"
   filtered="false"
   matteColor="#FFFFFF"
   noMatteColor="false"
   interlaced="false">
					</ns:PNG24Format>
			</ns:targetSettings>
			<ns:targetSettings
   targetSettingsID="1696735251"
   fileFormat="PNG24Format">
				<ns:PNG24Format
   transparency="true"
   filtered="false"
   matteColor="#FFFFFF"
   noMatteColor="false"
   interlaced="false">
					</ns:PNG24Format>
			</ns:targetSettings>
		</ns:optimizationSettings>
	</ns:sfw>
<rdf:RDF><cc:Work
     rdf:about=""><dc:format>image/svg+xml</dc:format><dc:type
       rdf:resource="http://purl.org/dc/dcmitype/StillImage" /><dc:title></dc:title></cc:Work></rdf:RDF></metadata>

<radialGradient
   id="XMLID_7_"
   cx="102"
   cy="112.3047"
   r="139.5585"
   gradientUnits="userSpaceOnUse">
	<stop
   offset="0"
   style="stop-color:#3e3e3e;stop-opacity:1;"
   id="stop16" />
	
	
	
	
	<stop
   offset="0.1737"
   style="stop-color:#dfdfdf;stop-opacity:1;"
   id="stop26" />
	<stop
   offset="0.2099"
   style="stop-color:#ECF2F5"
   id="stop28" />
	<stop
   offset="0.2435"
   style="stop-color:#FAFCFD"
   id="stop30" />
	<stop
   offset="0.2722"
   style="stop-color:#FFFFFF"
   id="stop32" />
</radialGradient>

<radialGradient
   id="XMLID_8_"
   cx="102"
   cy="112.3047"
   r="139.55859"
   gradientUnits="userSpaceOnUse">
	<stop
   offset="0"
   style="stop-color:#535557"
   id="stop37" />
	
	<stop
   offset="0.11366145"
   style="stop-color:#898A8C"
   id="stop41" />
	
	
	<stop
   offset="0.20296688"
   style="stop-color:#ECECEC"
   id="stop47" />
	<stop
   offset="0.2363"
   style="stop-color:#FAFAFA"
   id="stop49" />
	<stop
   offset="0.2722"
   style="stop-color:#FFFFFF"
   id="stop51" />
	<stop
   offset="0.5313"
   style="stop-color:#FAFAFA"
   id="stop53" />
	<stop
   offset="0.8449"
   style="stop-color:#EBECEC"
   id="stop55" />
	<stop
   offset="1"
   style="stop-color:#E1E2E3"
   id="stop57" />
</radialGradient>

<linearGradient
   id="XMLID_9_"
   gradientUnits="userSpaceOnUse"
   x1="94.3438"
   y1="102.3447"
   x2="86.5356"
   y2="94.5366">
	<stop
   offset="0"
   style="stop-color:#FFFFFF"
   id="stop62" />
	<stop
   offset="1"
   style="stop-color:#555753"
   id="stop64" />
</linearGradient>

<linearGradient
   id="XMLID_10_"
   gradientUnits="userSpaceOnUse"
   x1="95"
   y1="103"
   x2="86.5865"
   y2="94.5865">
	<stop
   offset="0"
   style="stop-color:#FFFFFF"
   id="stop69" />
	<stop
   offset="1"
   style="stop-color:#555753"
   id="stop71" />
</linearGradient>

<linearGradient
   id="XMLID_11_"
   gradientUnits="userSpaceOnUse"
   x1="95"
   y1="103"
   x2="87.293"
   y2="95.293">
	<stop
   offset="0"
   style="stop-color:#FFFFFF"
   id="stop76" />
	<stop
   offset="1"
   style="stop-color:#393B38"
   id="stop78" />
</linearGradient>

<linearGradient
   id="XMLID_12_"
   gradientUnits="userSpaceOnUse"
   x1="96"
   y1="104"
   x2="88.0002"
   y2="96.0002">
	<stop
   offset="0"
   style="stop-color:#888A85"
   id="stop83" />
	<stop
   offset="0.0072"
   style="stop-color:#8C8E89"
   id="stop85" />
	<stop
   offset="0.0673"
   style="stop-color:#ABACA9"
   id="stop87" />
	<stop
   offset="0.1347"
   style="stop-color:#C5C6C4"
   id="stop89" />
	<stop
   offset="0.2115"
   style="stop-color:#DBDBDA"
   id="stop91" />
	<stop
   offset="0.3012"
   style="stop-color:#EBEBEB"
   id="stop93" />
	<stop
   offset="0.4122"
   style="stop-color:#F7F7F6"
   id="stop95" />
	<stop
   offset="0.5679"
   style="stop-color:#FDFDFD"
   id="stop97" />
	<stop
   offset="1"
   style="stop-color:#FFFFFF"
   id="stop99" />
</linearGradient>


<path
   style="opacity:0.7715356;fill:none;stroke:#000000;stroke-width:1;stroke-linejoin:round;stroke-miterlimit:4;stroke-dasharray:none;stroke-opacity:1;filter:url(#filter4787)"
   d="M 41.000003,32 L 41.000003,122 C 41.000003,123.104 41.896003,124 43.000003,124 L 85.187503,124 C 85.717503,124 86.218753,123.78125 86.593753,123.40625 C 86.593753,123.40625 98.500003,113.5 104,108 C 109.5,102.5 119.40625,90.59375 119.40625,90.59375 C 119.78125,90.218751 120,89.7175 120,89.1875 L 120,32 L 41.000003,32 z "
   id="path4749"
   sodipodi:nodetypes="cccccscccc" /><path
   id="path4213"
   d="M 8,114.15625 L 8,115.15625 C 8,117.28318 9.71681,119 11.84375,119 L 100.15625,119 C 102.28318,119 104,117.28318 104,115.15625 L 104,114.15625 C 104,116.28318 102.28318,118 100.15625,118 L 11.84375,118 C 9.71681,118 8,116.28318 8,114.15625 z "
   style="opacity:1;fill:url(#linearGradient4215);fill-opacity:1;stroke:none;stroke-width:2;stroke-linecap:round;stroke-linejoin:round;stroke-miterlimit:4;stroke-dasharray:none;stroke-dashoffset:1.08779998;stroke-opacity:1;filter:url(#filter4253)" /><rect
   style="opacity:0.57786889;fill:#ffffff;fill-opacity:1;fill-rule:nonzero;stroke:none;stroke-width:3.63199997;stroke-linecap:round;stroke-linejoin:round;stroke-miterlimit:4;stroke-dasharray:none;stroke-dashoffset:4;stroke-opacity:1"
   id="rect1327"
   width="1"
   height="0"
   x="60.000023"
   y="-83" /><path
   style="opacity:1;fill:url(#linearGradient3816);fill-opacity:1;stroke:none;stroke-width:2;stroke-linecap:round;stroke-linejoin:round;stroke-miterlimit:4;stroke-dasharray:none;stroke-dashoffset:1.08779998000000000;stroke-opacity:1"
   d="M 16.53125,12 C 11.80293,12 8,15.802937 8,20.53125 L 8,116.15625 C 8,118.28318 9.71681,120 11.84375,120 L 100.15625,120 C 102.28318,120 104,118.28318 104,116.15625 L 104,20.53125 C 104,15.802937 100.19706,12 95.46875,12 L 16.53125,12 z "
   id="rect2834"
   sodipodi:nodetypes="ccccccccc" /><path
   style="fill:url(#linearGradient3891);fill-opacity:1;fill-rule:nonzero;stroke:none;stroke-width:8;stroke-linecap:round;stroke-linejoin:round;stroke-miterlimit:4;stroke-dasharray:none;stroke-dashoffset:4;stroke-opacity:0.19512191"
   d="M 40,0 L 43.760192,16 L 49.822542,16 L 62.177458,16 L 68.239808,16 L 72,0 L 58.417266,0 L 53.582734,0 L 40,0 z "
   id="rect3276" /><path
   style="opacity:1;fill:url(#linearGradient4190);fill-opacity:1;stroke:none;stroke-width:2;stroke-linecap:round;stroke-linejoin:round;stroke-miterlimit:4;stroke-dasharray:none;stroke-dashoffset:1.08779998;stroke-opacity:1"
   d="M 94.47112,12 C 99.19943,12 103.00238,15.802937 103.00237,20.53125 L 103.00237,116.15625 C 103.00237,118.28318 101.28556,120 99.15862,120 L 100.15862,120 C 102.28556,120 104.00237,118.28318 104.00237,116.15625 L 104.00237,20.53125 C 104.00238,15.802937 100.19943,12 95.47112,12 L 94.47112,12 z "
   id="path4181" /><rect
   style="opacity:0.47191013;fill:url(#linearGradient4648);fill-opacity:1;stroke:none;stroke-width:2;stroke-linecap:round;stroke-linejoin:round;stroke-miterlimit:4;stroke-dasharray:none;stroke-dashoffset:1.08779998;stroke-opacity:1;filter:url(#filter4033)"
   id="rect4003"
   width="42.382812"
   height="6.0546875"
   x="34.96875"
   y="19.537506"
   rx="1.5625"
   ry="1.5625" /><path
   transform="matrix(1,0,0.3713907,0.9284767,-8,0)"
   style="opacity:0.54681648000000005;fill:url(#linearGradient4590);fill-opacity:1;stroke:none;stroke-width:2;stroke-linecap:round;stroke-linejoin:round;stroke-miterlimit:4;stroke-dashoffset:1.08779998000000000;stroke-opacity:1;filter:url(#filter3346)"
   mask="url(#mask4131)"
   d="M 36.111931,14.503877 L 83.012997,13.908895 C 83.727578,15.756474 84.556527,18.968682 79.20125,30.865909 L 36.111931,32.353364 L 36.111931,14.503877 z "
   id="rect4075"
   sodipodi:nodetypes="ccccc" /><path
   sodipodi:nodetypes="ccccccccc"
   style="opacity:0.59550559999999997;fill:#000000;fill-opacity:1;stroke:none;stroke-width:2;stroke-linecap:round;stroke-linejoin:round;stroke-miterlimit:4;stroke-dasharray:none;stroke-dashoffset:1.08779998000000000;stroke-opacity:1;filter:url(#filter3396)"
   d="M 16.656253,12.1 C 11.927923,12.1 8.093753,15.902937 8.093753,20.63125 L 8.093753,21.63125 C 8.093753,16.902937 11.927923,13.1 16.656253,13.1 L 95.3625,13.1 C 100.09081,13.1 103.89375,16.902937 103.89375,21.63125 L 103.89375,20.63125 C 103.89375,15.902937 100.09081,12.1 95.3625,12.1 L 16.656253,12.1 z"
   id="path3374" /><path
   id="path4192"
   d="M 17.527763,12 C 12.799453,12 8.996503,15.802937 8.996513,20.53125 L 8.996513,116.15625 C 8.996513,118.28318 10.713323,120 12.840263,120 L 11.840263,120 C 9.713323,120 7.996513,118.28318 7.996513,116.15625 L 7.996513,20.53125 C 7.996503,15.802937 11.799453,12 16.527763,12 L 17.527763,12 z "
   style="opacity:1;fill:url(#linearGradient4194);fill-opacity:1;stroke:none;stroke-width:2;stroke-linecap:round;stroke-linejoin:round;stroke-miterlimit:4;stroke-dasharray:none;stroke-dashoffset:1.08779998;stroke-opacity:1" /><path
   id="path4819"
   d="M 17.256253,13.1 C 12.527923,13.1 8.693753,16.902937 8.693753,21.63125 L 8.693753,22.63125 C 8.693753,17.902937 12.527923,14.1 17.256253,14.1 L 94.7625,14.1 C 99.49081,14.1 103.29375,17.902937 103.29375,22.63125 L 103.29375,21.63125 C 103.29375,16.902937 99.49081,13.1 94.7625,13.1 L 17.256253,13.1 z"
   style="opacity:0.78277154000000004;fill:url(#linearGradient3406);fill-opacity:1;stroke:none;stroke-width:2;stroke-linecap:round;stroke-linejoin:round;stroke-miterlimit:4;stroke-dasharray:none;stroke-dashoffset:1.08779998000000000;stroke-opacity:1;"
   sodipodi:nodetypes="ccccccccc" /><rect
   style="fill:url(#linearGradient3884);fill-opacity:1;fill-rule:nonzero;stroke:none;stroke-width:8;stroke-linecap:round;stroke-linejoin:round;stroke-miterlimit:4;stroke-dasharray:none;stroke-dashoffset:4;stroke-opacity:0.19512191"
   id="rect3259"
   width="40"
   height="16"
   x="36"
   y="8" /><rect
   style="opacity:1;fill:url(#linearGradient3931);fill-opacity:1;stroke:none;stroke-width:2;stroke-linecap:round;stroke-linejoin:round;stroke-miterlimit:4;stroke-dasharray:none;stroke-dashoffset:1.08779998;stroke-opacity:1;filter:url(#filter3999)"
   id="rect3922"
   width="40"
   height="2.2046118"
   x="36"
   y="9.2953863"
   rx="0"
   ry="0" /><path
   style="opacity:0.77902623;fill:url(#linearGradient4147);fill-opacity:1;stroke:none;stroke-width:2;stroke-linecap:round;stroke-linejoin:round;stroke-miterlimit:4;stroke-dashoffset:1.08779998;stroke-opacity:1;filter:url(#filter4177)"
   d="M 40.661165,1.6893259 L 67.330096,1.6893259 L 67.330096,3.6228209 L 41.198274,3.6228209 L 40.661165,1.6893259 z "
   id="rect4138"
   sodipodi:nodetypes="ccccc" /><path
   style="opacity:1;fill:#000000;fill-opacity:1;stroke:none;stroke-width:2;stroke-linecap:round;stroke-linejoin:round;stroke-miterlimit:4;stroke-dasharray:none;stroke-dashoffset:1.08779998000000000;stroke-opacity:1"
   d="M 8,115.15625 L 8,116.15625 C 8,118.28318 9.71681,120 11.84375,120 L 100.15625,120 C 102.28318,120 104,118.28318 104,116.15625 L 104,115.15625 C 104,117.28318 102.28318,119 100.15625,119 L 11.84375,119 C 9.71681,119 8,117.28318 8,115.15625 z "
   id="path4196" /><path
   sodipodi:nodetypes="cccccscccc"
   id="path2260"
   d="M 40.200003,32.3 L 40.200003,122 C 40.200003,123.104 41.096003,124 42.200003,124 L 85.187503,124 C 85.717503,124 86.218753,123.78125 86.593753,123.40625 C 86.593753,123.40625 98.500003,113.5 104,108 C 109.5,102.5 119.40625,90.59375 119.40625,90.59375 C 119.78125,90.218751 120,89.7175 120,89.1875 L 120,32.3 L 40.200003,32.3 z "
   style="opacity:0.55805209;fill:none;stroke:#000000;stroke-width:1;stroke-linejoin:round;stroke-miterlimit:4;stroke-dasharray:none;stroke-opacity:1" /><path
   sodipodi:nodetypes="ccccccccc"
   id="path2262"
   d="M 40.000003,32 L 40.000003,122 C 40.000003,123.104 40.896003,124 42.000003,124 L 85.172003,124 C 85.702003,124 86.211003,123.789 86.586003,123.414 L 119.414,90.586 C 119.789,90.211 120,89.702 120,89.172 L 120,32 L 40.000003,32 z "
   style="fill:url(#radialGradient4855)" /><path
   sodipodi:nodetypes="ccccccccccc"
   id="path2264"
   d="M 42.000003,33 C 41.449003,33 41.000003,33.449 41.000003,34 L 41.000003,122 C 41.000003,122.552 41.449003,123 42.000003,123 L 86.172003,123 C 86.435003,123 86.693003,122.894 86.879003,122.707 L 118.707,90.879 C 118.894,90.692 119,90.435 119,90.172 L 119,34 C 119,33.449 118.552,33 118,33 L 42.000003,33 z "
   style="fill:url(#radialGradient4852);fill-opacity:1" /><path
   style="opacity:0.15;fill:url(#linearGradient4849)"
   id="path2266"
   d="M 119.414,90.586 C 119.664,90.336 101.035,97 96.000003,97 C 94.346003,97 93.000003,98.346 93.000003,100 C 93.000003,105.035 86.336003,123.664 86.586003,123.414 L 119.414,90.586 z " /><path
   style="opacity:0.2;fill:url(#linearGradient4846)"
   id="path2268"
   d="M 119.414,90.586 C 119.789,90.211 105.444,98 96.000003,98 C 94.897003,98 94.000003,98.897 94.000003,100 C 94.000003,109.444 86.211003,123.789 86.586003,123.414 L 119.414,90.586 z " /><path
   style="opacity:0.25;fill:url(#linearGradient4843)"
   id="path2270"
   d="M 119.414,90.586 C 119.653,90.347 105.807,99 96.000003,99 C 95.447003,99 95.000003,99.447 95.000003,100 C 95.000003,109.807 86.347003,123.653 86.586003,123.414 L 119.414,90.586 z " /><path
   sodipodi:nodetypes="csccc"
   style="fill:url(#linearGradient4840)"
   id="path2272"
   d="M 86.586003,123.414 C 86.586003,123.414 98.500003,113.5 104,108 C 109.5,102.5 119.414,90.586 119.414,90.586 C 119.414,90.586 106.25,99.95312 96.000003,99.95312 C 96.000003,110.20313 86.586003,123.414 86.586003,123.414 z " /><path
   id="path4809"
   d="M 40,0 L 43.760192,16 L 49.822542,16 L 62.177458,16 L 68.239808,16 L 72,0 L 58.417266,0 L 53.582734,0 L 40,0 z "
   style="fill:url(#linearGradient4817);fill-opacity:1.0;fill-rule:nonzero;stroke:none;stroke-width:8;stroke-linecap:round;stroke-linejoin:round;stroke-miterlimit:4;stroke-dasharray:none;stroke-dashoffset:4;stroke-opacity:0.19512191" /></svg>
