<?xml version="1.0" encoding="UTF-8" standalone="no"?>
<!-- Created with Inkscape (http://www.inkscape.org/) -->

<svg
   xmlns:dc="http://purl.org/dc/elements/1.1/"
   xmlns:cc="http://creativecommons.org/ns#"
   xmlns:rdf="http://www.w3.org/1999/02/22-rdf-syntax-ns#"
   xmlns:svg="http://www.w3.org/2000/svg"
   xmlns="http://www.w3.org/2000/svg"
   xmlns:xlink="http://www.w3.org/1999/xlink"
   xmlns:sodipodi="http://sodipodi.sourceforge.net/DTD/sodipodi-0.dtd"
   xmlns:inkscape="http://www.inkscape.org/namespaces/inkscape"
   sodipodi:docname="photos.svg"
   inkscape:version="0.48.1 r9760"
   version="1.1"
   id="svg2"
   height="22"
   width="22"
   style="display:inline"
   inkscape:export-filename="photos.png"
   inkscape:export-xdpi="130.90909"
   inkscape:export-ydpi="130.90909">
  <defs
     id="defs4">
    <linearGradient
       id="linearGradient3868">
      <stop
         style="stop-color:#ffffff;stop-opacity:0;"
         offset="0"
         id="stop3870" />
      <stop
         style="stop-color:#ffffff;stop-opacity:0.52631581;"
         offset="1"
         id="stop3873" />
    </linearGradient>
    <linearGradient
       id="linearGradient3837">
      <stop
         id="stop3839"
         offset="0"
         style="stop-color:#ffffff;stop-opacity:0;" />
      <stop
         id="stop3843"
         offset="1"
         style="stop-color:#ffffff;stop-opacity:0.47058824;" />
    </linearGradient>
    <linearGradient
       id="linearGradient3997">
      <stop
         style="stop-color:#ffffff;stop-opacity:1;"
         offset="0"
         id="stop3999" />
      <stop
         id="stop4005"
         offset="0.5"
         style="stop-color:#bababa;stop-opacity:1;" />
      <stop
         style="stop-color:#ffffff;stop-opacity:1;"
         offset="1"
         id="stop4001" />
    </linearGradient>
    <linearGradient
       id="linearGradient3884">
      <stop
         style="stop-color:#ffffff;stop-opacity:1;"
         offset="0"
         id="stop3886" />
      <stop
         id="stop3888"
         offset="1"
         style="stop-color:#ffffff;stop-opacity:0;" />
    </linearGradient>
    <linearGradient
       id="linearGradient3864">
      <stop
         id="stop3872"
         offset="0"
         style="stop-color:#ffffff;stop-opacity:0.42857143;" />
      <stop
         style="stop-color:#ffffff;stop-opacity:0;"
         offset="1"
         id="stop3868" />
    </linearGradient>
    <linearGradient
       id="linearGradient3799">
      <stop
         style="stop-color:#ff4500;stop-opacity:1;"
         offset="0"
         id="stop3801" />
      <stop
         id="stop3060"
         offset="0.1"
         style="stop-color:#ff8e00;stop-opacity:1;" />
      <stop
         style="stop-color:#ff6800;stop-opacity:1;"
         offset="0.38387764"
         id="stop3895" />
      <stop
         style="stop-color:#ff8e00;stop-opacity:1;"
         offset="0.71791452"
         id="stop3072" />
      <stop
         style="stop-color:#ff4500;stop-opacity:1;"
         offset="1"
         id="stop3803" />
    </linearGradient>
    <linearGradient
       inkscape:collect="always"
       xlink:href="#linearGradient3799"
       id="linearGradient3805"
       x1="12.072827"
       y1="18.778175"
       x2="12.072827"
       y2="3.8258126"
       gradientUnits="userSpaceOnUse"
       gradientTransform="translate(-2.3618627e-8,-0.2220187)" />
    <linearGradient
       inkscape:collect="always"
       xlink:href="#linearGradient3799"
       id="linearGradient3854"
       x1="-3.8890872"
       y1="9.4174318"
       x2="-3.8890872"
       y2="14.553282"
       gradientUnits="userSpaceOnUse" />
    <radialGradient
       inkscape:collect="always"
       xlink:href="#linearGradient3864"
       id="radialGradient3880"
       gradientUnits="userSpaceOnUse"
       gradientTransform="matrix(0.77414284,0.44695158,-0.29498423,0.51092767,2.6501673,5.9666978)"
       cx="-1.9147764"
       cy="10.450163"
       fx="-1.9147764"
       fy="10.450163"
       r="2.5853591" />
    <radialGradient
       inkscape:collect="always"
       xlink:href="#linearGradient3884"
       id="radialGradient3890"
       gradientUnits="userSpaceOnUse"
       gradientTransform="matrix(0.31938189,0.31938189,-0.17635189,0.17635188,-0.46386477,11.555168)"
       cx="-2.7971506"
       cy="16.246754"
       fx="-2.7971506"
       fy="16.246754"
       r="2.5853591" />
    <linearGradient
       inkscape:collect="always"
       xlink:href="#linearGradient3868"
       id="linearGradient3875"
       gradientUnits="userSpaceOnUse"
       x1="12.072827"
       y1="11.392964"
       x2="12.072827"
       y2="6.7940564"
       gradientTransform="matrix(0.94904459,0,0,0.94904459,0.5604353,0.46576433)" />
    <linearGradient
       inkscape:collect="always"
       xlink:href="#linearGradient3997"
       id="linearGradient3812"
       gradientUnits="userSpaceOnUse"
       gradientTransform="matrix(0.92349424,0,0,0.83152895,0.63800615,0.92300139)"
       x1="7.5572033"
       y1="6.0238061"
       x2="7.5572033"
       y2="4.519743" />
    <linearGradient
       inkscape:collect="always"
       xlink:href="#linearGradient3837"
       id="linearGradient6192"
       gradientUnits="userSpaceOnUse"
       gradientTransform="matrix(0.87243126,0,0,0.87243126,1.0046038,0.66561594)"
       x1="12.072827"
       y1="7.0105915"
       x2="12.072827"
       y2="3.7183542" />
    <filter
       inkscape:collect="always"
       id="filter6196"
       x="-0.068571429"
       width="1.1371429"
       y="-0.48"
       height="1.96">
      <feGaussianBlur
         inkscape:collect="always"
         stdDeviation="0.35"
         id="feGaussianBlur6198" />
    </filter>
  </defs>
  <sodipodi:namedview
     id="base"
     pagecolor="#ffffff"
     bordercolor="#666666"
     borderopacity="1.0"
     inkscape:pageopacity="0.0"
     inkscape:pageshadow="2"
     inkscape:zoom="5.6568543"
     inkscape:cx="15.590755"
     inkscape:cy="28.647212"
     inkscape:document-units="px"
     inkscape:current-layer="layer1"
     showgrid="false"
     inkscape:window-width="1366"
     inkscape:window-height="692"
     inkscape:window-x="0"
     inkscape:window-y="25"
     inkscape:window-maximized="1"
     inkscape:snap-global="false"
     showguides="true"
     inkscape:guide-bbox="true" />
  <metadata
     id="metadata7">
    <rdf:RDF>
      <cc:Work
         rdf:about="">
        <dc:format>image/svg+xml</dc:format>
        <dc:type
           rdf:resource="http://purl.org/dc/dcmitype/StillImage" />
        <dc:title />
      </cc:Work>
    </rdf:RDF>
  </metadata>
  <g
     inkscape:groupmode="layer"
     id="layer1"
     inkscape:label="Calque 1"
     style="display:inline">
    <path
       style="fill:url(#linearGradient3805);fill-opacity:1;stroke:none;display:inline"
       d="m 3.017512,6.4816015 0,9.7885915 c -0.1042594,1.086447 1.6320712,2.211592 2.6229977,2.211592 l 10.6849093,0 c 0.944564,0.06519 2.659713,-1.451769 2.659713,-2.340884 l 0,-7.213847 C 19.045364,8.0032525 17.617613,6.4816015 16.744697,6.4816015 l -4.870651,0 C 11.123886,4.9881003 10.535951,3.5161804 8.8679962,3.5161804 l -2.7255607,0 c -1.4827585,0 -1.9260286,1.3655085 -2.2297148,2.9654211 z"
       id="path5763-4"
       inkscape:connector-curvature="0"
       sodipodi:nodetypes="cccccccccccc" />
    <path
       style="fill:url(#linearGradient3875);fill-opacity:1;stroke:none;display:inline"
       d="m 3.0309767,6.717158 0,3.968949 c 1.744414,-0.7206284 5.96393,-1.281648 8.2625403,-1.281648 3.780019,0 5.76862,2.397841 7.673766,4.126791 l 0,-4.3757958 c 0.05716,-0.8767292 -1.306915,-2.4382966 -2.135351,-2.4382966 -4.351656,-0.035008 -9.8968128,-0.00337 -13.8009553,4e-7 z"
       id="path3830"
       inkscape:connector-curvature="0"
       sodipodi:nodetypes="ccscccc" />
    <g
       id="g3971"
       transform="matrix(0.90685449,0,0,0.90685449,1.0246006,1.1744473)">
      <path
         transform="matrix(1.2735043,0,0,1.2735043,14.798999,-2.6043218)"
         d="m -0.39774752,11.945826 c 0,1.427854 -1.15750468,2.585359 -2.58535908,2.585359 -1.4278544,0 -2.5853591,-1.157505 -2.5853591,-2.585359 0,-1.427855 1.1575047,-2.5853595 2.5853591,-2.5853595 1.4278544,0 2.58535908,1.1575045 2.58535908,2.5853595 z"
         sodipodi:ry="2.5853591"
         sodipodi:rx="2.5853591"
         sodipodi:cy="11.945826"
         sodipodi:cx="-2.9831066"
         id="path3846"
         style="fill:url(#linearGradient3854);fill-opacity:1;stroke:#000000;stroke-width:0.08658885;stroke-miterlimit:4;stroke-opacity:1;stroke-dasharray:none"
         sodipodi:type="arc" />
      <path
         sodipodi:type="arc"
         style="fill:#000000;fill-opacity:1;stroke:none"
         id="path3860"
         sodipodi:cx="-2.9831066"
         sodipodi:cy="11.945826"
         sodipodi:rx="2.5853591"
         sodipodi:ry="2.5853591"
         d="m -0.39774752,11.945826 c 0,1.427854 -1.15750468,2.585359 -2.58535908,2.585359 -1.4278544,0 -2.5853591,-1.157505 -2.5853591,-2.585359 0,-1.427855 1.1575047,-2.5853595 2.5853591,-2.5853595 1.4278544,0 2.58535908,1.1575045 2.58535908,2.5853595 z"
         transform="matrix(1.0341881,0,0,1.0341881,14.085093,0.25450833)" />
      <path
         transform="matrix(1.0341881,0,0,1.0341881,14.085093,0.25450833)"
         d="m -0.39774752,11.945826 c 0,1.427854 -1.15750468,2.585359 -2.58535908,2.585359 -1.4278544,0 -2.5853591,-1.157505 -2.5853591,-2.585359 0,-1.427855 1.1575047,-2.5853595 2.5853591,-2.5853595 1.4278544,0 2.58535908,1.1575045 2.58535908,2.5853595 z"
         sodipodi:ry="2.5853591"
         sodipodi:rx="2.5853591"
         sodipodi:cy="11.945826"
         sodipodi:cx="-2.9831066"
         id="path3874"
         style="fill:url(#radialGradient3880);fill-opacity:1;stroke:none"
         sodipodi:type="arc" />
      <path
         sodipodi:type="arc"
         style="fill:url(#radialGradient3890);fill-opacity:1;stroke:none"
         id="path3882"
         sodipodi:cx="-2.9831066"
         sodipodi:cy="11.945826"
         sodipodi:rx="2.5853591"
         sodipodi:ry="2.5853591"
         d="m -0.39774752,11.945826 c 0,1.427854 -1.15750468,2.585359 -2.58535908,2.585359 -1.4278544,0 -2.5853591,-1.157505 -2.5853591,-2.585359 0,-1.427855 1.1575047,-2.5853595 2.5853591,-2.5853595 1.4278544,0 2.58535908,1.1575045 2.58535908,2.5853595 z"
         transform="matrix(1.0341881,0,0,1.0341881,14.085093,0.25450833)" />
    </g>
    <path
       style="fill:url(#linearGradient6192);fill-opacity:1;stroke:none;display:inline"
       d="M 6.375 3.75 C 4.7375382 3.6776263 3.90625 5.2918213 3.90625 6.6875 L 4.40625 6.6875 C 4.5289181 5.482261 6.0141778 4.53125 7.84375 4.53125 C 9.6733222 4.53125 11.127332 5.482261 11.25 6.6875 L 11.875 6.6875 C 11.353545 5.3022808 10.567728 3.75 8.75 3.75 L 6.375 3.75 z "
       id="path3853" />
    <rect
       style="fill:url(#linearGradient3812);fill-opacity:1;stroke:#500000;stroke-width:0.29999999999999999;stroke-miterlimit:4;stroke-opacity:1;stroke-dasharray:none"
       id="rect3995"
       width="3.8160214"
       height="1.3597032"
       x="5.7396402"
       y="4.6273909" />
    <path
       style="fill:#3f0600;fill-opacity:1;stroke:none;display:inline"
       d="m 6.1419895,3.5156551 c -1.4571955,-0.064406 -1.9463138,1.3688374 -2.25,2.96875 -0.2916667,0 -0.5833333,0 -0.875,0 l 0,9.7812499 c -0.1042594,1.086447 1.6028235,2.21875 2.59375,2.21875 l 10.6875005,0 c 0.944564,0.06519 2.6875,-1.454635 2.6875,-2.34375 l 0,-7.2187499 c 0.06023,-0.9238015 -1.377084,-2.4375 -2.25,-2.4375 -1.625,0 -3.25,0 -4.875,0 -0.75016,-1.4935012 -1.332045,-2.96875 -3.0000005,-2.96875 z m -0.03125,0.4375 c 0.010412,3.721e-4 0.020838,3.721e-4 0.03125,0 l 2.71875,0 c 0.704993,0 1.105233,0.2602181 1.5000005,0.75 0.36074,0.4475649 0.661036,1.0958391 1,1.78125 l -7.0000005,0 c 0.1453464,-0.7419477 0.3191881,-1.433756 0.59375,-1.875 0.2871483,-0.4614714 0.5728264,-0.6820366 1.15625,-0.65625 z m -2.65625,2.96875 c 4.5992695,0 9.3340525,0 13.2812505,0 0.183573,0 0.743663,0.2766361 1.15625,0.71875 0.412587,0.4421139 0.670657,1.0290391 0.65625,1.25 -3.72e-4,0.010412 -3.72e-4,0.020838 0,0.03125 l 0,7.2187499 c 0,0.15868 -0.340056,0.748252 -0.84375,1.1875 -0.503694,0.439248 -1.154141,0.733993 -1.375,0.71875 -0.01041,-3.72e-4 -0.02084,-3.72e-4 -0.03125,0 l -10.6875005,0 c -0.3288237,0 -0.9644647,-0.256428 -1.4375,-0.625 -0.4730353,-0.368572 -0.7478102,-0.822175 -0.71875,-1.125 3.721e-4,-0.01041 3.721e-4,-0.02084 0,-0.03125 z"
       id="path3904"
       inkscape:connector-curvature="0"
       sodipodi:nodetypes="ccccscscccscccssccscccsccssccssccc" />
    <rect
       style="fill:#ffffff;fill-opacity:0.33333333;stroke:none;filter:url(#filter6196)"
       id="rect6194"
       width="12.25"
       height="1.75"
       x="4.875"
       y="15.75"
       transform="matrix(1,0,0,0.74489796,0,4.6785715)" />
  </g>
</svg>
