/* XPM */
static const char *wDesktop_xpm[] = {
/* width height ncolors chars_per_pixel */
"32 32 3 1",
/* colors */
"  c #000000",
". c #FFFFFF",
"X c None",
/* pixels */
"XXXXXXXXXXXXXXXXXXXXXXXXXXXXXXXX",
"XXXXXXXXXXXXXXXXXXXXXXXXXXXXXXXX",
"XXXXXXXXXXXXXXXXXXXXXXXXXXXXXXXX",
"XXXXXXXXXXXXXXXXXXXXXXXXXXXXXXXX",
"XXXXXXXXXXX         XXXXXXXXXXXX",
"XXXXXXXXX            XXXXXXXXXXX",
"XXXXXXXXX XXXXXXXX    XXXXXXXXXX",
"XXXXXXXXXXXXXXXXXXXX   XXXXXXXXX",
"XXXXXXXXXXXXXXXXXXXX    XXXXXXXX",
"XXXXXXXXXXX     XXXXX   XXXXXXXX",
"XXXXXXXXXX       XXXX   XXXXXXXX",
"XXXXXXXXX    X    XXX   XXXXXXXX",
"XXXXXXXX   XXXXX  XXX   XXXXXXXX",
"XXXXXXXX  XXXXXX  XXX   XXXXXXXX",
"XXXXXXXX  XXXXX   XXX   XXXX XXX",
"XXXXXXXX  XXXXX  XXXX  XXXXX XXX",
"XXX XXXX  XXXXXXXXXX   XXXXX XXX",
"XX  XXXX  XXXXXXXXXX  XXXXX  XXX",
"XX  XXXXX  XXXXXXXX  XXXXXX  XXX",
"XX  XXXXXX XXXXXXX  XXXXXXX XXXX",
"XXX  XXXXXXXXXXXXX XXXXXXX  XXXX",
"XXX  XXXXXXXXXXXXXXXXXXXX   XXXX",
"XXX   XXXXXXXXXXXXXXXXXXX  XXXXX",
"XXXX   XXXXXXXXXXXXXXXXX   XXXXX",
"XXXX    XXXXXXXXXXXXXXX   XXXXXX",
"XXXXX     XXXXXXXXXXX    XXXXXXX",
"XXXXXX      XXXXXX      XXXXXXXX",
"XXXXXXX                XXXXXXXXX",
"XXXXXXXXX            XXXXXXXXXXX",
"XXXXXXXXXXX        XXXXXXXXXXXXX",
"XXXXXXXXXXXXXXXXXXXXXXXXXXXXXXXX",
"XXXXXXXXXXXXXXXXXXXXXXXXXXXXXXXX"
};
