/* XPM */
static const char *wDesktop_xpm[] = {
/* width height ncolors chars_per_pixel */
"32 32 78 1",
/* colors */
"  c #000000",
". c #ADADAD",
"X c #ABABAB",
"o c #A7A7A7",
"O c #999999",
"+ c #959595",
"@ c #8F8F8F",
"# c #7F7F7F",
"$ c #7D7D7D",
"% c #777777",
"& c #737373",
"* c #6D6D6D",
"= c #6B6B6B",
"- c #676767",
"; c #5D5D5D",
": c #FEFEFE",
"> c #FCFCFC",
", c #FAFAFA",
"< c #474747",
"1 c #3F3F3F",
"2 c #3D3D3D",
"3 c #EEEEEE",
"4 c #E2E2E2",
"5 c #2F2F2F",
"6 c #E0E0E0",
"7 c #2D2D2D",
"8 c #2B2B2B",
"9 c #252525",
"0 c #D6D6D6",
"q c #191919",
"w c #151515",
"e c #C6C6C6",
"r c #C4C4C4",
"t c #111111",
"y c #C2C2C2",
"u c #090909",
"i c #050505",
"p c #030303",
"a c #010101",
"s c #B2B2B2",
"d c #B0B0B0",
"f c #989898",
"g c #969696",
"h c #909090",
"j c #808080",
"k c #7E7E7E",
"l c #787878",
"z c #727272",
"x c #5C5C5C",
"c c #585858",
"v c #FFFFFF",
"b c #4A4A4A",
"n c #FBFBFB",
"m c #F7F7F7",
"M c #F3F3F3",
"N c #404040",
"B c #F1F1F1",
"V c #EFEFEF",
"C c #3A3A3A",
"Z c #E9E9E9",
"A c #E5E5E5",
"S c #303030",
"D c #2E2E2E",
"F c #2C2C2C",
"G c #2A2A2A",
"H c #202020",
"J c #D1D1D1",
"K c #1C1C1C",
"L c #181818",
"P c #C9C9C9",
"I c #161616",
"U c #C7C7C7",
"Y c #101010",
"T c #BFBFBF",
"R c #060606",
"E c #040404",
"W c #020202",
"Q c None",
/* pixels */
"QQQQQvvvvvvvvvvvvvvvvvvvvvvQQQQQ",
"QQQvV.oooooooooooooooooooo.VvQQQ",
"QQvZI                      IZvQQ",
"QQvf looooooooooooooooooool fvQQ",
"QQv@ U3$;;;;;;;;;;;;;;;;$3U @vQQ",
"QQv@ U-R                R-U @vQQ",
"QQv@ UN       aRRa       NU @vQQ",
"QQv@ UN     pW<kk<Wp     NU @vQQ",
"QQv@ UN    iHPvvvvPHi    NU @vQQ",
"QQv@ UN    i0vvvvvv0i    NU @vQQ",
"QQv@ UN   R&vvvvvvvv&R   NU @vQQ",
"QQv@ UN   aXvvvvvvvvXa   NU @vQQ",
"QQv@ UN    TvvvvvvvvT    NU @vQQ",
"QQv@ UN   ihvvvvvvvvhi   NU @vQQ",
"QQv@ UN   p5nvvvvvvn5p   NU @vQQ",
"QQv@ UN    pz:vvvv:zp    NU @vQQ",
"QQv@ UN     a1yMMy1a     NU @vQQ",
"QQv@ UN    p2G WW 8=     NU @vQQ",
"QQv@ UN   Ec>v4ss4vv%W   NU @vQQ",
"QQv@ UN   u3vvvvvvvvmt   NU @vQQ",
"QQv@ UN  ilvvvvvvvvvvjE  NU @vQQ",
"QQv@ UN  RFSSSSSSSSSSFR  NU @vQQ",
"QQv@ U&u                u&U @vQQ",
"QQv@ UmO################OmU @vQQ",
"QQv@ UBg0vvvv,6rr6,vvvv0gBU @vQQ",
"QQv@ UCpLAve7KqYYqK7evALpCU @vQQ",
"QQv@ U9 te>xw      wx>et 9U @vQQ",
"QQv@ UdD-vvvJ+*bb*+Jvvv-DdU @vQQ",
"QQvf looooooooooooooooooool fvQQ",
"QQvZI                      IZvQQ",
"QQQvV.oooooooooooooooooooo.VvQQQ",
"QQQQQvvvvvvvvvvvvvvvvvvvvvvQQQQQ"
};
