<?xml version="1.0" encoding="UTF-8" standalone="no"?>
<!-- Created with Inkscape (http://www.inkscape.org/) -->

<svg
   xmlns:dc="http://purl.org/dc/elements/1.1/"
   xmlns:cc="http://creativecommons.org/ns#"
   xmlns:rdf="http://www.w3.org/1999/02/22-rdf-syntax-ns#"
   xmlns:svg="http://www.w3.org/2000/svg"
   xmlns="http://www.w3.org/2000/svg"
   xmlns:xlink="http://www.w3.org/1999/xlink"
   xmlns:sodipodi="http://sodipodi.sourceforge.net/DTD/sodipodi-0.dtd"
   xmlns:inkscape="http://www.inkscape.org/namespaces/inkscape"
   width="22"
   height="22"
   id="svg2"
   version="1.1"
   inkscape:version="0.47 r22583"
   sodipodi:docname="call.svg">
  <defs
     id="defs4">
    <linearGradient
       id="linearGradient3664">
      <stop
         style="stop-color:#ffffff;stop-opacity:0.39215687;"
         offset="0"
         id="stop3666" />
      <stop
         id="stop3668"
         offset="0.26867411"
         style="stop-color:#ffffff;stop-opacity:0;" />
      <stop
         style="stop-color:#ffffff;stop-opacity:0;"
         offset="0.66935003"
         id="stop3670" />
      <stop
         style="stop-color:#ffffff;stop-opacity:0.70588237;"
         offset="1"
         id="stop3672" />
    </linearGradient>
    <linearGradient
       id="linearGradient3862-8-0">
      <stop
         style="stop-color:#009fc7;stop-opacity:1;"
         offset="0"
         id="stop3864-8-4" />
      <stop
         style="stop-color:#00c4f2;stop-opacity:1;"
         offset="1"
         id="stop3866-4-8" />
    </linearGradient>
    <linearGradient
       inkscape:collect="always"
       xlink:href="#linearGradient3862-8-0"
       id="linearGradient3638"
       gradientUnits="userSpaceOnUse"
       gradientTransform="matrix(-0.08364872,0,0,0.08364872,18.097616,1030.4796)"
       x1="26.419516"
       y1="148.0623"
       x2="73.755318"
       y2="130.09906" />
    <linearGradient
       inkscape:collect="always"
       xlink:href="#linearGradient3664"
       id="linearGradient3662"
       gradientUnits="userSpaceOnUse"
       gradientTransform="matrix(-0.08364872,0,0,0.08364872,18.097616,1030.4796)"
       x1="33.144066"
       y1="155.53403"
       x2="99.159172"
       y2="114.40844" />
    <filter
       inkscape:collect="always"
       id="filter3706"
       x="-0.14668906"
       width="1.2933781"
       y="-0.10152773"
       height="1.2030555">
      <feGaussianBlur
         inkscape:collect="always"
         stdDeviation="0.84446539"
         id="feGaussianBlur3708" />
    </filter>
  </defs>
  <sodipodi:namedview
     id="base"
     pagecolor="#ffffff"
     bordercolor="#666666"
     borderopacity="1.0"
     inkscape:pageopacity="0.0"
     inkscape:pageshadow="2"
     inkscape:zoom="11.313709"
     inkscape:cx="9.9237942"
     inkscape:cy="3.6793171"
     inkscape:document-units="px"
     inkscape:current-layer="layer1"
     showgrid="false"
     inkscape:window-width="749"
     inkscape:window-height="720"
     inkscape:window-x="1"
     inkscape:window-y="24"
     inkscape:window-maximized="0"
     inkscape:snap-global="false" />
  <metadata
     id="metadata7">
    <rdf:RDF>
      <cc:Work
         rdf:about="">
        <dc:format>image/svg+xml</dc:format>
        <dc:type
           rdf:resource="http://purl.org/dc/dcmitype/StillImage" />
        <dc:title />
      </cc:Work>
    </rdf:RDF>
  </metadata>
  <g
     inkscape:label="Calque 1"
     inkscape:groupmode="layer"
     id="layer1"
     transform="translate(0,-1030.3622)">
    <path
       style="fill:#323232;fill-opacity:1;stroke:none;display:block;filter:url(#filter3706)"
       d="M 16.34375 3.71875 C 15.46358 6.0596006 14.089123 8.8805783 12.3125 11.78125 C 11.681681 12.811181 11.072363 13.749059 10.4375 14.65625 C 10.41197 14.692731 10.369264 14.71374 10.34375 14.75 C 10.338951 14.754195 10.346218 14.759997 10.3125 14.78125 C 8.8554688 16.848195 7.4539585 18.575403 6.21875 19.75 C 6.6193815 20.015191 7.1001604 20.312932 7.75 20.6875 A 0.34958732 0.34958732 0 0 0 8.09375 20.6875 C 13.882787 17.229169 16.387506 10.553152 17.5 4.65625 A 0.34958732 0.34958732 0 0 0 17.3125 4.3125 L 16.34375 3.71875 z "
       transform="translate(0,1030.3622)"
       id="path3696" />
    <path
       sodipodi:type="inkscape:offset"
       inkscape:radius="0.375"
       inkscape:original="M 13.8125 1031.75 L 11.8125 1036.9062 L 12.9375 1037.5938 C 12.9375 1037.5938 13.61534 1037.9447 13.5625 1039.125 L 10.53125 1045.1562 C 10.53125 1045.1562 9.816274 1045.981 7.90625 1044.9375 C 7.90625 1044.9375 7.4578401 1044.5755 4.5 1048.5312 C 4.5 1048.5313 3.9914309 1048.8743 7.625 1050.9688 C 13.693411 1047.3435 16.347224 1040.3073 17.53125 1034.0312 L 13.8125 1031.75 z "
       style="fill:url(#linearGradient3638);fill-opacity:1;fill-rule:evenodd;stroke:none;display:block"
       id="path3636"
       d="m 13.71875,1031.375 a 0.3750375,0.3750375 0 0 0 -0.25,0.25 l -2,5.1562 a 0.3750375,0.3750375 0 0 0 0.15625,0.4376 l 1.125,0.6874 a 0.3750375,0.3750375 0 0 0 0,0.031 c 0,0 0.100355,0.016 0.21875,0.1875 0.112232,0.1621 0.22589,0.4384 0.21875,0.9062 l -2.9375,5.875 c 0,0 -0.02782,-0 -0.03125,0 -0.0051,0 0.0049,0.01 -0.03125,0.031 -0.06029,0.038 -0.153309,0.096 -0.3125,0.125 -0.3183822,0.058 -0.8799962,0.024 -1.78125,-0.4687 l 0,0.031 c -0.019335,-0.012 -0.043953,-0.023 -0.0625,-0.031 -0.037094,-0.016 -0.052095,-0.026 -0.09375,-0.031 -0.08331,-0.01 -0.1672168,0.01 -0.25,0.031 -0.1655665,0.052 -0.3625463,0.1549 -0.625,0.375 -0.5249074,0.44 -1.3873522,1.3542 -2.875,3.3437 a 0.3750375,0.3750375 0 0 0 -0.0625,0.2187 c -0.00552,0.045 -0.037362,0.081 -0.03125,0.125 0.027342,0.1951 0.1530535,0.3599 0.34375,0.5626 0.3813929,0.4053 1.168984,1.007 3,2.0624 a 0.3750375,0.3750375 0 0 0 0.375,0 c 6.210482,-3.7101 8.900266,-10.8612 10.09375,-17.1874 a 0.3750375,0.3750375 0 0 0 -0.1875,-0.375 L 14,1031.4375 a 0.3750375,0.3750375 0 0 0 -0.28125,-0.062 z"
       transform="matrix(0.93213965,0,0,0.93213965,0.74654405,70.666398)" />
    <path
       d="m 13.71875,1031.375 a 0.3750375,0.3750375 0 0 0 -0.25,0.25 l -2,5.1562 a 0.3750375,0.3750375 0 0 0 0.15625,0.4376 l 1.125,0.6874 a 0.3750375,0.3750375 0 0 0 0,0.031 c 0,0 0.100355,0.016 0.21875,0.1875 0.112232,0.1621 0.22589,0.4384 0.21875,0.9062 l -2.9375,5.875 c 0,0 -0.02782,-0 -0.03125,0 -0.0051,0 0.0049,0.01 -0.03125,0.031 -0.06029,0.038 -0.153309,0.096 -0.3125,0.125 -0.3183822,0.058 -0.8799962,0.024 -1.78125,-0.4687 l 0,0.031 c -0.019335,-0.012 -0.043953,-0.023 -0.0625,-0.031 -0.037094,-0.016 -0.052095,-0.026 -0.09375,-0.031 -0.08331,-0.01 -0.1672168,0.01 -0.25,0.031 -0.1655665,0.052 -0.3625463,0.1549 -0.625,0.375 -0.5249074,0.44 -1.3873522,1.3542 -2.875,3.3437 a 0.3750375,0.3750375 0 0 0 -0.0625,0.2187 c -0.00552,0.045 -0.037362,0.081 -0.03125,0.125 0.027342,0.1951 0.1530535,0.3599 0.34375,0.5626 0.3813929,0.4053 1.168984,1.007 3,2.0624 a 0.3750375,0.3750375 0 0 0 0.375,0 c 6.210482,-3.7101 8.900266,-10.8612 10.09375,-17.1874 a 0.3750375,0.3750375 0 0 0 -0.1875,-0.375 L 14,1031.4375 a 0.3750375,0.3750375 0 0 0 -0.28125,-0.062 z"
       id="path3660"
       style="fill:url(#linearGradient3662);fill-opacity:1;fill-rule:evenodd;stroke:none;display:block"
       inkscape:original="M 13.8125 1031.75 L 11.8125 1036.9062 L 12.9375 1037.5938 C 12.9375 1037.5938 13.61534 1037.9447 13.5625 1039.125 L 10.53125 1045.1562 C 10.53125 1045.1562 9.816274 1045.981 7.90625 1044.9375 C 7.90625 1044.9375 7.4578401 1044.5755 4.5 1048.5312 C 4.5 1048.5313 3.9914309 1048.8743 7.625 1050.9688 C 13.693411 1047.3435 16.347224 1040.3073 17.53125 1034.0312 L 13.8125 1031.75 z "
       inkscape:radius="0.375"
       sodipodi:type="inkscape:offset"
       transform="matrix(0.93213965,0,0,0.93213965,0.74654405,70.666398)" />
    <path
       sodipodi:type="inkscape:offset"
       inkscape:radius="0.375"
       inkscape:original="M 13.8125 1031.75 L 11.8125 1036.9062 L 12.9375 1037.5938 C 12.9375 1037.5938 13.61534 1037.9447 13.5625 1039.125 L 10.53125 1045.1562 C 10.53125 1045.1562 9.816274 1045.981 7.90625 1044.9375 C 7.90625 1044.9375 7.4578401 1044.5755 4.5 1048.5312 C 4.5 1048.5313 3.9914309 1048.8743 7.625 1050.9688 C 13.693411 1047.3435 16.347224 1040.3073 17.53125 1034.0312 L 13.8125 1031.75 z "
       style="fill:none;stroke:#007794;stroke-width:0.30000000999999998;stroke-miterlimit:4;stroke-opacity:1;stroke-dasharray:none;display:block"
       id="path3682"
       d="m 13.71875,1031.375 a 0.3750375,0.3750375 0 0 0 -0.25,0.25 l -2,5.1562 a 0.3750375,0.3750375 0 0 0 0.15625,0.4376 l 1.125,0.6874 a 0.3750375,0.3750375 0 0 0 0,0.031 c 0,0 0.100355,0.016 0.21875,0.1875 0.112232,0.1621 0.22589,0.4384 0.21875,0.9062 l -2.9375,5.875 c 0,0 -0.02782,-0 -0.03125,0 -0.0051,0 0.0049,0.01 -0.03125,0.031 -0.06029,0.038 -0.153309,0.096 -0.3125,0.125 -0.3183822,0.058 -0.8799962,0.024 -1.78125,-0.4687 l 0,0.031 c -0.019335,-0.012 -0.043953,-0.023 -0.0625,-0.031 -0.037094,-0.016 -0.052095,-0.026 -0.09375,-0.031 -0.08331,-0.01 -0.1672168,0.01 -0.25,0.031 -0.1655665,0.052 -0.3625463,0.1549 -0.625,0.375 -0.5249074,0.44 -1.3873522,1.3542 -2.875,3.3437 a 0.3750375,0.3750375 0 0 0 -0.0625,0.2187 c -0.00552,0.045 -0.037362,0.081 -0.03125,0.125 0.027342,0.1951 0.1530535,0.3599 0.34375,0.5626 0.3813929,0.4053 1.168984,1.007 3,2.0624 a 0.3750375,0.3750375 0 0 0 0.375,0 c 6.210482,-3.7101 8.900266,-10.8612 10.09375,-17.1874 a 0.3750375,0.3750375 0 0 0 -0.1875,-0.375 L 14,1031.4375 a 0.3750375,0.3750375 0 0 0 -0.28125,-0.062 z"
       transform="matrix(0.93213965,0,0,0.93213965,0.74654405,70.666398)" />
  </g>
</svg>
