<?xml version="1.0" encoding="UTF-8" standalone="no"?>
<!-- Created with Inkscape (http://www.inkscape.org/) -->

<svg
   xmlns:dc="http://purl.org/dc/elements/1.1/"
   xmlns:cc="http://creativecommons.org/ns#"
   xmlns:rdf="http://www.w3.org/1999/02/22-rdf-syntax-ns#"
   xmlns:svg="http://www.w3.org/2000/svg"
   xmlns="http://www.w3.org/2000/svg"
   xmlns:xlink="http://www.w3.org/1999/xlink"
   xmlns:sodipodi="http://sodipodi.sourceforge.net/DTD/sodipodi-0.dtd"
   xmlns:inkscape="http://www.inkscape.org/namespaces/inkscape"
   width="22"
   height="22"
   id="svg2"
   sodipodi:version="0.32"
   inkscape:version="0.48.1 r9760"
   sodipodi:docname="chat.svg"
   inkscape:output_extension="org.inkscape.output.svg.inkscape"
   version="1.0">
  <defs
     id="defs4">
    <linearGradient
       id="linearGradient3633">
      <stop
         style="stop-color:#ffffff;stop-opacity:1;"
         offset="0"
         id="stop3635" />
      <stop
         style="stop-color:#ffffff;stop-opacity:0;"
         offset="1"
         id="stop3637" />
    </linearGradient>
    <filter
       inkscape:collect="always"
       id="filter3680"
       x="-0.14526316"
       width="1.2905263"
       y="-0.68999999"
       height="2.38">
      <feGaussianBlur
         inkscape:collect="always"
         stdDeviation="0.37589521"
         id="feGaussianBlur3682" />
    </filter>
    <filter
       inkscape:collect="always"
       id="filter3776"
       x="-0.11405846"
       width="1.2281169"
       y="-0.12659457"
       height="1.2531891">
      <feGaussianBlur
         inkscape:collect="always"
         stdDeviation="0.73200735"
         id="feGaussianBlur3778" />
    </filter>
    <linearGradient
       inkscape:collect="always"
       xlink:href="#linearGradient3633"
       id="linearGradient3788"
       x1="10.65625"
       y1="3.3930266"
       x2="10.65625"
       y2="10.186907"
       gradientUnits="userSpaceOnUse" />
  </defs>
  <sodipodi:namedview
     id="base"
     pagecolor="#ffffff"
     bordercolor="#666666"
     borderopacity="1.0"
     gridtolerance="10000"
     guidetolerance="10"
     objecttolerance="10"
     inkscape:pageopacity="0.0"
     inkscape:pageshadow="2"
     inkscape:zoom="8"
     inkscape:cx="9.7005298"
     inkscape:cy="6.0716097"
     inkscape:document-units="px"
     inkscape:current-layer="layer1"
     showgrid="false"
     inkscape:window-width="1366"
     inkscape:window-height="692"
     inkscape:window-x="0"
     inkscape:window-y="25"
     inkscape:window-maximized="1" />
  <metadata
     id="metadata7">
    <rdf:RDF>
      <cc:Work
         rdf:about="">
        <dc:format>image/svg+xml</dc:format>
        <dc:type
           rdf:resource="http://purl.org/dc/dcmitype/StillImage" />
        <dc:title />
      </cc:Work>
    </rdf:RDF>
  </metadata>
  <g
     inkscape:label="Layer 1"
     inkscape:groupmode="layer"
     id="layer1"
     transform="translate(0,2)">
    <path
       style="fill:#aaaaaa;fill-opacity:1;stroke:none;filter:url(#filter3776)"
       id="path3758"
       d="m 10.682589,2.0701176 c -3.6670977,0.299651 -6.5486889,2.8170348 -6.5486889,5.846705 0,1.9706342 1.2183141,3.6969594 3.0738749,4.7572554 -0.00458,0.02989 -0.029457,0.04137 -0.033411,0.07264 -0.3883265,3.069596 -3.8757552,3.086771 -3.8757552,3.086771 4.6795957,0.555392 6.6793273,-1.225495 7.3839802,-2.106266 0.0078,-0.0098 0.02593,0.0095 0.03341,0 0.233692,0.01822 0.462009,0.03631 0.701646,0.03631 4.016377,0 7.283746,-2.615058 7.283746,-5.8467056 0,-3.2316482 -3.267369,-5.8467051 -7.283746,-5.8467051 -0.251025,0 -0.490584,-0.019976 -0.735057,0 z"
       inkscape:connector-curvature="0"
       transform="matrix(0.95374388,0,0,0.97124974,0.07131727,0.00875234)" />
    <path
       d="M 11.166629,3.0689914 C 7.734117,3.2985733 5.036863,5.2273029 5.036863,7.548528 c 0,1.5098295 1.1403778,2.832479 2.8772373,3.64484 -0.00429,0.0229 -0.027573,0.0317 -0.031274,0.05565 -0.363485,2.351815 -3.6278209,2.364974 -3.6278209,2.364974 4.3802392,0.425521 6.2520466,-0.938931 6.9116236,-1.613746 0.0073,-0.0075 0.02427,0.0073 0.03127,0 0.218743,0.01396 0.432454,0.02782 0.656761,0.02782 3.759447,0 6.817801,-2.003564 6.817801,-4.4795374 0,-2.4759734 -3.058354,-4.4795366 -6.817801,-4.4795366 -0.234966,0 -0.459201,-0.015305 -0.688035,0 z"
       id="path2829"
       style="stroke:none;stroke-opacity:1;stroke-width:0.42342423000000001;stroke-miterlimit:4;stroke-dasharray:none;fill:#00beea;fill-opacity:1"
       transform="matrix(1.0683425,0,0,1.3052031,-1.4438275,-2.8873031)" />
    <path
       sodipodi:type="arc"
       style="fill:#5be0f4;fill-opacity:1;stroke:none;filter:url(#filter3680)"
       id="path3646"
       sodipodi:cx="10.856601"
       sodipodi:cy="13.501499"
       sodipodi:rx="3.1052213"
       sodipodi:ry="0.65373081"
       d="m 13.961822,13.501499 c 0,0.361046 -1.390255,0.653731 -3.105221,0.653731 -1.7149666,0 -3.1052215,-0.292685 -3.1052215,-0.653731 0,-0.361045 1.3902549,-0.653731 3.1052215,-0.653731 1.714966,0 3.105221,0.292686 3.105221,0.653731 z"
       transform="matrix(1.0869613,0,0,1.0869613,-0.79234447,-3.9423281)" />
    <path
       transform="matrix(1.0298246,0,0,1.2581454,-1.0103499,-2.4955263)"
       style="opacity:0.69999999999999996;fill:none;stroke:#000000;stroke-width:0.42344790999999998;stroke-miterlimit:20;stroke-opacity:0.58823532;stroke-dasharray:none"
       id="path3728"
       d="M 11.166625,3.068992 C 7.734113,3.2985739 5.036863,5.2273029 5.036863,7.548528 c 0,1.5098295 1.1403778,2.832479 2.8772373,3.64484 -0.00429,0.0229 -0.032051,0.03152 -0.031274,0.05565 0.070403,2.186141 -2.4988666,2.5101 -2.5188038,2.508468 3.0140685,0.09677 4.6492265,-1.153724 5.8026065,-1.75724 0.0099,-0.0052 0.02427,0.0073 0.03127,0 0.218743,0.01396 0.432454,0.02782 0.656761,0.02782 3.759447,0 6.817801,-2.003564 6.817801,-4.4795374 0,-2.4759734 -3.058354,-4.4795366 -6.817801,-4.4795366 -0.234966,0 -0.459201,-0.015305 -0.688035,0 z"
       sodipodi:nodetypes="cscscsssssc"
       inkscape:connector-curvature="0" />
    <path
       sodipodi:type="arc"
       style="fill:url(#linearGradient3788);fill-opacity:1;stroke:none;stroke-width:0.50000000000000000;stroke-linecap:butt;stroke-linejoin:miter;stroke-miterlimit:4;stroke-opacity:1;stroke-dasharray:none"
       id="path3780"
       sodipodi:cx="10.65625"
       sodipodi:cy="8.171875"
       sodipodi:rx="6.71875"
       sodipodi:ry="4.203125"
       d="m 17.375,8.171875 c 0,2.321322 -3.008087,4.203125 -6.71875,4.203125 -3.7106632,0 -6.71875,-1.881803 -6.71875,-4.203125 0,-2.3213218 3.0080868,-4.203125 6.71875,-4.203125 3.710663,0 6.71875,1.8818032 6.71875,4.203125 z"
       transform="matrix(0.80703234,0,0,1.0855908,2.6813116,-2.3556868)" />
  </g>
</svg>
