<?xml version="1.0" encoding="UTF-8" standalone="no"?>
<!-- Created with Inkscape (http://www.inkscape.org/) -->

<svg
   xmlns:dc="http://purl.org/dc/elements/1.1/"
   xmlns:cc="http://creativecommons.org/ns#"
   xmlns:rdf="http://www.w3.org/1999/02/22-rdf-syntax-ns#"
   xmlns:svg="http://www.w3.org/2000/svg"
   xmlns="http://www.w3.org/2000/svg"
   xmlns:xlink="http://www.w3.org/1999/xlink"
   xmlns:sodipodi="http://sodipodi.sourceforge.net/DTD/sodipodi-0.dtd"
   xmlns:inkscape="http://www.inkscape.org/namespaces/inkscape"
   width="22"
   height="22"
   id="svg2"
   sodipodi:version="0.32"
   inkscape:version="0.47pre4 r22446"
   sodipodi:docname="close.svg"
   inkscape:output_extension="org.inkscape.output.svg.inkscape"
   version="1.0">
  <defs
     id="defs4">
    <linearGradient
       inkscape:collect="always"
       id="linearGradient3761">
      <stop
         style="stop-color:#ffffff;stop-opacity:1;"
         offset="0"
         id="stop3763" />
      <stop
         style="stop-color:#ffffff;stop-opacity:0;"
         offset="1"
         id="stop3765" />
    </linearGradient>
    <linearGradient
       id="linearGradient3645">
      <stop
         style="stop-color:#ffffff;stop-opacity:1;"
         offset="0"
         id="stop3647" />
      <stop
         style="stop-color:#ffffff;stop-opacity:0;"
         offset="1"
         id="stop3649" />
    </linearGradient>
    <linearGradient
       id="linearGradient5475">
      <stop
         style="stop-color:#bb1b1b;stop-opacity:1;"
         offset="0"
         id="stop5477" />
      <stop
         style="stop-color:#f3aea7;stop-opacity:1;"
         offset="1"
         id="stop5479" />
    </linearGradient>
    <inkscape:perspective
       sodipodi:type="inkscape:persp3d"
       inkscape:vp_x="0 : 526.18109 : 1"
       inkscape:vp_y="0 : 1000 : 0"
       inkscape:vp_z="744.09448 : 526.18109 : 1"
       inkscape:persp3d-origin="372.04724 : 350.78739 : 1"
       id="perspective10" />
    <inkscape:perspective
       id="perspective2464"
       inkscape:persp3d-origin="372.04724 : 350.78739 : 1"
       inkscape:vp_z="744.09448 : 526.18109 : 1"
       inkscape:vp_y="0 : 1000 : 0"
       inkscape:vp_x="0 : 526.18109 : 1"
       sodipodi:type="inkscape:persp3d" />
    <inkscape:perspective
       id="perspective2517"
       inkscape:persp3d-origin="372.04724 : 350.78739 : 1"
       inkscape:vp_z="744.09448 : 526.18109 : 1"
       inkscape:vp_y="0 : 1000 : 0"
       inkscape:vp_x="0 : 526.18109 : 1"
       sodipodi:type="inkscape:persp3d" />
    <inkscape:perspective
       id="perspective3306"
       inkscape:persp3d-origin="372.04724 : 350.78739 : 1"
       inkscape:vp_z="744.09448 : 526.18109 : 1"
       inkscape:vp_y="0 : 1000 : 0"
       inkscape:vp_x="0 : 526.18109 : 1"
       sodipodi:type="inkscape:persp3d" />
    <filter
       id="filter2819"
       inkscape:label="Drop shadow"
       width="1.5"
       height="1.5"
       x="-.25"
       y="-.25">
      <feGaussianBlur
         id="feGaussianBlur2821"
         in="SourceAlpha"
         stdDeviation="0.500000"
         result="blur" />
      <feColorMatrix
         id="feColorMatrix2823"
         result="bluralpha"
         type="matrix"
         values="1 0 0 0 0 0 1 0 0 0 0 0 1 0 0 0 0 0 0.750000 0 " />
      <feOffset
         id="feOffset2825"
         in="bluralpha"
         dx="1.000000"
         dy="1.000000"
         result="offsetBlur" />
      <feMerge
         id="feMerge2827">
        <feMergeNode
           id="feMergeNode2829"
           in="offsetBlur" />
        <feMergeNode
           id="feMergeNode2831"
           in="SourceGraphic" />
      </feMerge>
    </filter>
    <filter
       id="filter4337"
       inkscape:label="Drop shadow"
       width="1.5"
       height="1.5"
       x="-.25"
       y="-.25">
      <feGaussianBlur
         id="feGaussianBlur4339"
         in="SourceAlpha"
         stdDeviation="0.500000"
         result="blur" />
      <feColorMatrix
         id="feColorMatrix4341"
         result="bluralpha"
         type="matrix"
         values="1 0 0 0 0 0 1 0 0 0 0 0 1 0 0 0 0 0 0.750000 0 " />
      <feOffset
         id="feOffset4343"
         in="bluralpha"
         dx="1.000000"
         dy="1.000000"
         result="offsetBlur" />
      <feMerge
         id="feMerge4345">
        <feMergeNode
           id="feMergeNode4347"
           in="offsetBlur" />
        <feMergeNode
           id="feMergeNode4349"
           in="SourceGraphic" />
      </feMerge>
    </filter>
    <linearGradient
       inkscape:collect="always"
       xlink:href="#linearGradient3645"
       id="linearGradient3667"
       gradientUnits="userSpaceOnUse"
       gradientTransform="matrix(1.9751993,0,0,1.9751993,-8.2937652,-11.104051)"
       x1="9.7750864"
       y1="5.9944525"
       x2="9.7750864"
       y2="11.716711" />
    <filter
       inkscape:collect="always"
       id="filter3675"
       x="-0.44761905"
       width="1.8952381"
       y="-0.9096774"
       height="2.8193548">
      <feGaussianBlur
         inkscape:collect="always"
         stdDeviation="0.30128205"
         id="feGaussianBlur3677" />
    </filter>
    <inkscape:perspective
       id="perspective3702"
       inkscape:persp3d-origin="0.5 : 0.33333333 : 1"
       inkscape:vp_z="1 : 0.5 : 1"
       inkscape:vp_y="0 : 1000 : 0"
       inkscape:vp_x="0 : 0.5 : 1"
       sodipodi:type="inkscape:persp3d" />
    <filter
       color-interpolation-filters="sRGB"
       inkscape:collect="always"
       id="filter3675-0"
       x="-0.44761905"
       width="1.895238"
       y="-0.90967739"
       height="2.8193548">
      <feGaussianBlur
         inkscape:collect="always"
         stdDeviation="0.30128205"
         id="feGaussianBlur3677-7" />
    </filter>
    <filter
       inkscape:collect="always"
       id="filter3724"
       x="-0.11976552"
       width="1.239531"
       y="-0.1202354"
       height="1.2404708">
      <feGaussianBlur
         inkscape:collect="always"
         stdDeviation="0.60265549"
         id="feGaussianBlur3726" />
    </filter>
    <linearGradient
       inkscape:collect="always"
       xlink:href="#linearGradient3645"
       id="linearGradient3736"
       gradientUnits="userSpaceOnUse"
       gradientTransform="matrix(1.9751993,0,0,1.9751993,-8.2937652,-11.104051)"
       x1="9.7750864"
       y1="5.9944525"
       x2="9.7750864"
       y2="11.716711" />
    <linearGradient
       inkscape:collect="always"
       xlink:href="#linearGradient3645"
       id="linearGradient3742"
       gradientUnits="userSpaceOnUse"
       gradientTransform="matrix(2.0102709,0,0,2.0102709,-8.6162091,-12.257559)"
       x1="9.7750864"
       y1="6.625792"
       x2="9.7750864"
       y2="12.654704" />
    <linearGradient
       inkscape:collect="always"
       xlink:href="#linearGradient3645"
       id="linearGradient3748"
       gradientUnits="userSpaceOnUse"
       gradientTransform="matrix(2.0102709,0,0,2.0102709,-8.6162091,-12.257559)"
       x1="9.7750864"
       y1="6.625792"
       x2="9.7750864"
       y2="12.654704" />
    <linearGradient
       inkscape:collect="always"
       xlink:href="#linearGradient3761"
       id="linearGradient3767"
       x1="10.560554"
       y1="2.9012423"
       x2="10.560554"
       y2="14.212453"
       gradientUnits="userSpaceOnUse" />
    <filter
       inkscape:collect="always"
       id="filter3773">
      <feGaussianBlur
         inkscape:collect="always"
         stdDeviation="0.12970895"
         id="feGaussianBlur3775" />
    </filter>
  </defs>
  <sodipodi:namedview
     id="base"
     pagecolor="#ffffff"
     bordercolor="#666666"
     borderopacity="1.0"
     gridtolerance="10000"
     guidetolerance="10"
     objecttolerance="10"
     inkscape:pageopacity="0.0"
     inkscape:pageshadow="2"
     inkscape:zoom="16"
     inkscape:cx="2.5465479"
     inkscape:cy="4.2956086"
     inkscape:document-units="px"
     inkscape:current-layer="layer1"
     showgrid="false"
     inkscape:window-width="1440"
     inkscape:window-height="827"
     inkscape:window-x="0"
     inkscape:window-y="25"
     inkscape:window-maximized="1" />
  <metadata
     id="metadata7">
    <rdf:RDF>
      <cc:Work
         rdf:about="">
        <dc:format>image/svg+xml</dc:format>
        <dc:type
           rdf:resource="http://purl.org/dc/dcmitype/StillImage" />
        <dc:title />
      </cc:Work>
    </rdf:RDF>
  </metadata>
  <g
     inkscape:label="Layer 1"
     inkscape:groupmode="layer"
     id="layer1"
     transform="translate(0,2)">
    <path
       style="fill:#aaaaaa;fill-opacity:1;stroke:none;filter:url(#filter3724)"
       id="path3722"
       d="M 6.67696,3.86965 C 6.2615662,3.914764 5.8444365,4.1407559 5.505085,4.479025 c -0.6782445,0.6760807 -0.7478529,1.6472914 -0.1875,2.25 l 3.1875,3.140625 -3.140625,3.140624 c -0.5631642,0.602364 -0.5386467,1.619771 0.140625,2.296875 0.6922772,0.690069 1.7913476,0.737991 2.390625,0.140625 l 3.09375,-3.09375 3.140625,3.140625 c 0.60429,0.561368 1.617603,0.53648 2.296875,-0.140625 0.692277,-0.690069 0.786779,-1.793259 0.1875,-2.390625 L 13.473835,9.86965 16.661335,6.729025 C 17.22294,6.1264697 17.105662,5.1086873 16.42696,4.43215 16.087839,4.0941097 15.660583,3.9047638 15.255085,3.86965 14.849587,3.834536 14.479279,3.965367 14.17696,4.24465 L 10.98946,7.385275 7.80196,4.24465 C 7.4997201,3.9647411 7.0923538,3.8245355 6.67696,3.86965 z"
       transform="matrix(1.3401807,0,0,1.3401807,-3.7154714,-4.1105093)" />
    <path
       d="M 5.267225,-0.19593271 C 4.7105223,-0.1354712 4.151493,0.16739829 3.6967008,0.6207399 2.7877306,1.5268102 2.6944427,2.828408 3.4454169,3.6361464 L 7.7172427,7.8451513 3.5082378,12.054157 c -0.7547417,0.807276 -0.7218838,2.170784 0.188463,3.078227 0.9277764,0.924816 2.4007292,0.989041 3.2038693,0.188463 l 4.1461839,-4.146184 4.209005,4.209005 c 0.809859,0.752333 2.16788,0.718979 3.078227,-0.188463 0.927777,-0.924818 1.054426,-2.403292 0.251284,-3.203869 L 14.376266,7.8451513 18.648091,3.6361464 c 0.752651,-0.807533 0.595478,-2.1715452 -0.314105,-3.0782275 -0.454483,-0.45303505 -1.027083,-0.70679277 -1.570524,-0.75385161 -0.54344,-0.0470589 -1.039721,0.1282784 -1.444882,0.50256776 L 11.046754,4.5156399 6.7749282,0.30663505 C 6.3698721,-0.06849339 5.8239277,-0.25639422 5.267225,-0.19593271 z"
       id="rect3293"
       style="fill:#fa2924;fill-opacity:1;stroke:none" />
    <path
       style="opacity:0.4;fill:none;stroke:#000000;stroke-width:0.33333333999999998;stroke-miterlimit:4;stroke-opacity:1;stroke-dasharray:none;filter:url(#filter3773)"
       id="path3605"
       transform="matrix(1.7580292,0,0,1.7580292,-6.1500183,-9.733825)"
       d="M 5.7860616,5.9676239 C 4.9477096,6.7135333 5.6264314,7.5044443 6,7.90625 L 8.125,10 6.03125,12.09375 c -0.3754428,0.401576 -0.9132104,1.231979 -0.225684,1.922632 0.6873836,0.69051 1.5136657,0.100612 1.913184,-0.297632 L 9.78125,11.65625 11.875,13.75 c 0.40286,0.374245 1.214496,0.913291 1.920899,0.228284 0.706402,-0.685006 0.13487,-1.51754 -0.264649,-1.915784 L 11.4375,10 13.5625,7.90625 C 13.936903,7.5045465 14.547766,6.809941 13.773361,6.0360616 13.011529,5.2747472 12.459369,5.8354111 11.90625,6.25 L 9.78125,8.34375 7.65625,6.25 C 7.0108526,5.815998 6.6244136,5.2217145 5.7860616,5.9676239 z"
       sodipodi:nodetypes="cccczccczccczcccz" />
    <path
       sodipodi:type="arc"
       style="fill:#ff5100;fill-opacity:1;stroke:none;filter:url(#filter3675)"
       id="path3669"
       sodipodi:cx="7.1153846"
       sodipodi:cy="15.217949"
       sodipodi:rx="0.80769229"
       sodipodi:ry="0.3974359"
       d="m 7.9230769,15.217949 a 0.80769229,0.3974359 0 1 1 -1.6153846,0 0.80769229,0.3974359 0 1 1 1.6153846,0 z"
       transform="matrix(1.3401807,0,0,1.3401807,-4.0615496,-5.8297012)" />
    <path
       sodipodi:type="arc"
       style="fill:#ff5100;fill-opacity:1;stroke:none;filter:url(#filter3675-0)"
       id="path3669-3"
       sodipodi:cx="7.1153846"
       sodipodi:cy="15.217949"
       sodipodi:rx="0.80769229"
       sodipodi:ry="0.3974359"
       d="m 7.9230769,15.217949 a 0.80769229,0.3974359 0 1 1 -1.6153846,0 0.80769229,0.3974359 0 1 1 1.6153846,0 z"
       transform="matrix(1.3401807,0,0,1.3401807,7.091883,-5.8802352)" />
    <path
       style="fill:url(#linearGradient3767);fill-opacity:1;stroke:none"
       d="M 5.40625 2.90625 C 5.1554308 2.9334906 4.7615817 3.1143523 4.46875 3.40625 C 3.9195414 3.9537065 3.9224629 4.4954395 4.21875 4.84375 L 4.25 4.875 L 8.5 9.0625 A 1.104169 1.104169 0 0 1 8.8125 9.75 C 9.5291269 9.9803078 10.300587 10.125 11.09375 10.125 C 11.852162 10.125 12.592076 9.9925572 13.28125 9.78125 A 1.104169 1.104169 0 0 1 13.59375 9.0625 L 17.84375 4.875 C 18.126757 4.5713569 18.129071 3.9085145 17.5625 3.34375 C 17.305941 3.0880088 16.934091 2.9303094 16.65625 2.90625 C 16.417097 2.8855406 16.277457 2.9337852 16.09375 3.09375 L 16.0625 3.125 L 11.8125 7.3125 A 1.104169 1.104169 0 0 1 10.25 7.3125 L 6.03125 3.125 L 6 3.09375 C 5.827134 2.9475937 5.6318167 2.881752 5.40625 2.90625 z "
       transform="translate(0,-2)"
       id="path3756" />
  </g>
</svg>
