<?xml version="1.0" encoding="UTF-8" standalone="no"?>
<!-- Created with Inkscape (http://www.inkscape.org/) -->

<svg
   xmlns:dc="http://purl.org/dc/elements/1.1/"
   xmlns:cc="http://creativecommons.org/ns#"
   xmlns:rdf="http://www.w3.org/1999/02/22-rdf-syntax-ns#"
   xmlns:svg="http://www.w3.org/2000/svg"
   xmlns="http://www.w3.org/2000/svg"
   xmlns:sodipodi="http://sodipodi.sourceforge.net/DTD/sodipodi-0.dtd"
   xmlns:inkscape="http://www.inkscape.org/namespaces/inkscape"
   width="22"
   height="22"
   id="svg7658"
   sodipodi:version="0.32"
   inkscape:version="0.48.1 r9760"
   version="1.0"
   sodipodi:docname="dock-debug.svg">
  <defs
     id="defs7660" />
  <sodipodi:namedview
     id="base"
     pagecolor="#ffffff"
     bordercolor="#666666"
     borderopacity="1.0"
     gridtolerance="10000"
     guidetolerance="10"
     objecttolerance="10"
     inkscape:pageopacity="0.0"
     inkscape:pageshadow="2"
     inkscape:zoom="8"
     inkscape:cx="-6.4114284"
     inkscape:cy="3.1408808"
     inkscape:document-units="px"
     inkscape:current-layer="layer1"
     width="128px"
     height="128px"
     inkscape:window-width="1366"
     inkscape:window-height="692"
     inkscape:window-x="0"
     inkscape:window-y="25"
     showgrid="false"
     inkscape:window-maximized="1"
     inkscape:snap-global="false" />
  <metadata
     id="metadata7663">
    <rdf:RDF>
      <cc:Work
         rdf:about="">
        <dc:format>image/svg+xml</dc:format>
        <dc:type
           rdf:resource="http://purl.org/dc/dcmitype/StillImage" />
        <dc:title />
      </cc:Work>
    </rdf:RDF>
  </metadata>
  <g
     inkscape:groupmode="layer"
     id="layer2"
     inkscape:label="background"
     sodipodi:insensitive="true"
     style="display:none">
    <rect
       style="fill:#000000;fill-opacity:1;stroke:none"
       id="rect6212"
       width="22"
       height="22"
       x="0"
       y="-6.9388939e-18" />
  </g>
  <g
     inkscape:label="Layer 1"
     inkscape:groupmode="layer"
     id="layer1"
     transform="translate(0,-106)">
    <path
       sodipodi:type="inkscape:offset"
       inkscape:radius="0.82289696"
       inkscape:original="M 6.4375 107.125 C 6.304217 107.133 6.176016 107.25118 6.03125 107.53125 C 6.03125 107.53125 6.157682 107.37271 6.25 107.40625 C 6.25 107.40625 6.483231 108.10577 6.5 108.15625 C 6.472728 108.24125 6.47213 108.38015 6.59375 108.53125 C 6.837167 108.83345 7.080701 109.252 7.15625 109.5625 L 7.25 109.59375 C 7.081959 109.58575 7.03125 109.71875 7.03125 109.71875 C 6.653502 110.667 6.661401 112.34375 6.8125 112.34375 C 6.963598 112.34375 6.96875 112.40625 6.96875 112.40625 L 7.0625 112.34375 C 6.958887 112.47006 6.886924 112.6048 6.9375 112.625 C 7.042022 112.6669 7.142901 112.98466 7.15625 113.03125 L 7.15625 113.0625 C 7.124037 113.1611 7.105096 113.25362 7.09375 113.34375 C 7.08743 113.33345 7.06676 113.323 7.0625 113.3125 C 7.0544 113.3676 7.0625 113.41739 7.0625 113.46875 C 7.0625 113.60597 7.209272 113.74575 7.4375 113.84375 C 7.4375 113.84375 6.48741 113.96368 6.21875 114.1875 C 5.950267 114.41132 5.46875 115.15625 5.46875 115.15625 C 5.46875 115.15625 5.053667 115.50851 5.03125 115.6875 L 5.1875 115.59375 L 5.03125 115.75 C 5.03125 115.75 4.194365 115.8277 4.09375 116.0625 C 4.09375 116.0625 4.131604 116.1006 4.15625 116.125 C 4.15625 116.125 3.215888 116.2824 3.03125 116.71875 C 3.03125 116.71875 2.996281 116.59003 2.9375 116.53125 C 2.9375 116.53125 2.844086 116.84341 2.78125 116.90625 C 2.71841 116.96925 2.837279 117.41702 3.15625 117.375 C 3.15625 117.375 2.99886 116.8829 3.46875 116.65625 C 3.46875 116.65625 3.71875 116.67975 3.71875 116.90625 C 3.71875 116.90625 3.96875 116.68253 3.96875 116.53125 L 4.46875 116.3125 C 4.517249 116.3256 4.5693 116.34375 4.625 116.34375 L 5.21875 116.09375 C 5.330662 116.13825 5.87007 115.85716 5.9375 115.8125 C 5.913813 115.8629 5.897549 115.91732 5.875 115.96875 C 5.805559 116.12706 5.745823 116.30097 5.6875 116.46875 C 5.673366 116.50975 5.669704 116.55225 5.65625 116.59375 C 5.64909 116.61565 5.63197 116.63425 5.625 116.65625 C 5.56897 116.83489 5.511927 117.03033 5.46875 117.21875 C 5.441524 117.33877 5.428078 117.4699 5.40625 117.59375 C 5.388959 117.69185 5.357569 117.77451 5.34375 117.875 C 5.33811 117.9152 5.34883 117.9594 5.34375 118 C 5.319933 118.19466 5.291771 118.39075 5.28125 118.59375 C 5.27895 118.63645 5.28294 118.67565 5.28125 118.71875 C 5.27362 118.91655 5.27588 119.13852 5.28125 119.34375 C 5.281521 119.35415 5.280945 119.3647 5.28125 119.375 C 5.28239 119.4145 5.27958 119.4602 5.28125 119.5 C 5.318272 120.37923 5.465775 121.22985 5.71875 122.03125 C 5.731434 122.07145 5.73683 122.11635 5.75 122.15625 C 5.887917 122.57405 6.062243 122.96265 6.25 123.34375 C 6.437757 123.72485 6.643668 124.07171 6.875 124.40625 C 7.106332 124.7408 7.35636 125.06561 7.625 125.34375 C 8.027961 125.76097 8.468216 126.11239 8.9375 126.375 C 9.043117 126.4341 9.141679 126.48101 9.25 126.53125 L 9.375 126.59375 C 9.707732 126.73553 10.085139 126.82379 10.4375 126.875 C 10.46038 126.878 10.47706 126.879 10.5 126.875 C 10.52294 126.871 10.5395 126.8851 10.5625 126.875 C 10.703654 126.8506 10.825176 126.69562 10.96875 126.65625 C 10.98428 126.65625 11.01554 126.65325 11.03125 126.65625 C 11.05993 126.66325 11.0964 126.6731 11.125 126.6875 C 11.21794 126.7345 11.314196 126.8347 11.40625 126.875 C 11.45228 126.8952 11.48544 126.882 11.53125 126.875 C 12.56017 126.72547 13.506569 126.17818 14.3125 125.34375 C 14.586962 125.06147 14.857976 124.74721 15.09375 124.40625 C 15.556424 123.73716 15.911642 122.99185 16.1875 122.15625 L 16.15625 122.3125 C 16.950578 123.40126 16.25 125.5625 16.25 125.5625 L 16.46875 125.34375 L 16.59375 125.59375 L 16.5625 125.15625 C 16.57529 125.15625 16.666871 125.1429 16.75 125.125 L 16.84375 125.5 C 16.84375 125.5 17.095716 125.3354 17.21875 125.90625 C 17.21875 125.90625 17.707132 125.6569 17.875 126.25 C 17.875 126.25 18.3125 126.15125 18.3125 126.21875 C 18.3125 126.28565 18.616983 126.72089 18.28125 126.84375 C 18.28125 126.84375 18.596679 126.8467 18.78125 126.625 C 18.78125 126.625 18.167 125.51234 17.125 125.03125 C 17.595244 123.08426 16.375 121.5 16.375 121.5 C 16.540424 120.85246 16.658365 120.19114 16.6875 119.5 C 16.69 119.4578 16.6855 119.4174 16.6875 119.375 C 16.687805 119.3646 16.687229 119.35405 16.6875 119.34375 C 16.6929 119.13852 16.6951 118.91655 16.6875 118.71875 C 16.6858 118.67565 16.6898 118.63645 16.6875 118.59375 C 16.66322 118.1256 16.59318 117.70388 16.5 117.28125 C 16.4954 117.26015 16.5047 117.23975 16.5 117.21875 C 16.45681 117.03033 16.399789 116.83489 16.34375 116.65625 C 16.33385 116.62485 16.32282 116.5936 16.3125 116.5625 C 16.25197 116.37833 16.198708 116.20435 16.125 116.03125 C 16.03221 115.81327 15.925028 115.60593 15.8125 115.40625 C 15.7681 115.32725 15.70359 115.26353 15.65625 115.1875 C 16.118196 115.38079 16.354373 115.85455 16.5 116 C 16.645274 116.14544 16.96875 116.15625 16.96875 116.15625 L 16.9375 116.09375 C 16.9375 116.09375 17.483805 116.44826 17.71875 116.40625 C 17.71875 116.40625 17.875 116.50978 17.875 116.59375 C 17.875 116.61475 17.88827 116.62985 17.9375 116.65625 C 18.02719 116.71465 18.221873 116.77261 18.375 116.78125 C 18.42996 116.78132 18.498713 116.7702 18.53125 116.75 C 18.53125 116.75 18.8125 116.8025 18.8125 117.0625 C 18.8125 117.0625 18.613146 117.19206 18.5 117.125 C 18.5 117.125 18.5033 117.13005 18.53125 117.15625 C 18.55921 117.18295 18.60053 117.20155 18.65625 117.21875 C 18.767699 117.25315 18.934986 117.25255 19.15625 117.03125 C 19.376544 116.8106 19.125 116.5625 19.125 116.5625 C 19.125 116.5625 19.20017 116.85398 19 116.78125 C 19 116.78125 17.76306 115.72072 16.875 115.875 L 16.75 115.5 L 16.40625 115.125 C 15.802031 114.09537 14.65625 113.96875 14.65625 113.96875 C 14.60642 113.92415 14.551289 113.88625 14.5 113.84375 C 14.735148 113.74475 14.90625 113.60832 14.90625 113.46875 C 14.90625 113.41725 14.91435 113.36757 14.90625 113.3125 C 14.90195 113.3231 14.88132 113.33355 14.875 113.34375 C 14.85818 113.21007 14.84283 113.05736 14.78125 112.90625 C 14.8227 112.78359 14.894142 112.62352 14.96875 112.59375 C 15.00534 112.57905 14.96115 112.49017 14.90625 112.40625 C 14.90625 112.40625 14.94265 112.3125 15.09375 112.3125 C 15.244495 112.3125 15.252747 110.63593 14.875 109.6875 C 14.875 109.6875 14.82897 109.57304 14.6875 109.5625 L 14.75 109.5625 C 14.82555 109.25201 15.037656 108.8022 15.28125 108.5 C 15.421212 108.32634 15.423375 108.21153 15.375 108.125 C 15.39195 108.0747 15.65625 107.375 15.65625 107.375 C 15.342874 107.11756 15.0625 107.34375 15.0625 107.34375 C 15.171587 107.32705 15.26838 107.24313 15.34375 107.34375 C 15.41912 107.44454 15.21875 108 15.21875 108 C 15.042585 107.958 14.84375 108.21875 14.84375 108.21875 C 14.600331 108.57125 14.5 109.59375 14.5 109.59375 C 14.37128 109.62585 14.24387 109.68685 14.25 109.875 C 14.2583 110.13519 14.1875 110.375 14.1875 110.375 L 14.78125 111.53125 C 14.78125 111.53125 14.80192 111.94512 14.84375 112.0625 C 14.87768 112.1574 14.7659 112.17349 14.71875 112.1875 C 14.614129 112.0869 14.483851 112 14.40625 112 L 14.3125 112.09375 C 14.21797 111.96664 14.110713 111.84447 14 111.71875 C 13.97154 111.68655 13.93564 111.6569 13.90625 111.625 C 13.709232 111.41037 13.478987 111.22436 13.25 111.03125 C 13.134121 111.09825 13.014394 111.13173 12.875 111.1875 C 12.875 111.1875 12.677849 110.92115 12.96875 110.40625 C 13.187058 110.0202 12.551334 110.23147 12.21875 110.5 C 12.20196 110.4858 12.17325 110.48245 12.15625 110.46875 C 12.14455 110.45975 12.13679 110.4467 12.125 110.4375 C 12.08459 110.4057 12.04123 110.37295 12 110.34375 C 11.999984 110.34375 11.97262 110.37 11.96875 110.375 C 11.89337 110.3221 11.826094 110.26244 11.75 110.21875 C 11.471494 110.05885 11.180855 109.9375 10.96875 109.9375 C 10.67783 109.9375 10.280329 110.12536 9.90625 110.40625 C 9.87495 110.42975 9.84321 110.44385 9.8125 110.46875 L 9.71875 110.5625 C 9.412954 110.26956 8.673671 109.99447 8.90625 110.40625 C 9.197151 110.92115 9.03125 111.1875 9.03125 111.1875 C 8.912573 111.1378 8.788158 111.0894 8.6875 111.03125 C 8.472679 111.21245 8.280947 111.39307 8.09375 111.59375 C 7.915548 111.78528 7.765503 111.99191 7.625 112.1875 L 7.59375 112.125 L 7.46875 112.03125 C 7.395296 112.03125 7.31862 112.12585 7.21875 112.21875 C 7.21875 112.21875 7.02067 112.18005 7.0625 112.0625 C 7.10451 111.94489 7.09375 111.53125 7.09375 111.53125 L 7.71875 110.375 C 7.71875 110.375 7.6165 110.16644 7.625 109.90625 C 7.63122 109.71126 7.509175 109.65485 7.375 109.625 C 7.375 109.625 7.305746 108.57125 7.0625 108.21875 C 7.0625 108.21875 6.863841 107.95799 6.6875 108 C 6.6875 108 6.455877 107.47579 6.53125 107.375 C 6.60715 107.27438 6.734839 107.32695 6.84375 107.34375 C 6.84375 107.34375 6.659638 107.11229 6.4375 107.125 z M 9.90625 110.40625 L 10.125 110.25 C 10.125 110.25 10 109.96588 10 109.78125 L 9.71875 109.875 C 9.608195 109.8105 9.135472 109.50766 8.625 109.3125 C 8.306033 109.12786 8.096214 108.7923 8.0625 108.40625 C 8.02896 108.02021 7.620424 108.29864 7.6875 108.5 C 7.75458 108.70158 7.943623 109.26506 8.53125 109.5 C 9.073674 109.71703 9.575189 109.79448 9.6875 110.03125 L 9.6875 110.1875 C 9.6875 110.1875 9.90625 110.2451 9.90625 110.40625 z M 11.75 110.21875 L 12 110.34375 C 12 110.19792 12.282283 110.25085 12.15625 110.125 L 12.09375 110.0625 C 12.198009 109.82807 12.645076 109.74828 13.1875 109.53125 C 13.77495 109.2963 13.96435 108.73283 14.03125 108.53125 C 14.0985 108.32984 13.72104 108.05141 13.6875 108.4375 C 13.65396 108.82355 13.44379 109.19036 13.125 109.375 C 12.58241 109.5826 12.025328 109.90415 11.96875 109.9375 L 11.90625 109.875 L 11.84375 109.875 C 11.9223 109.9534 11.75 110.21875 11.75 110.21875 z M 5.71875 122.03125 L 5.53125 121.375 C 5.53125 121.375 4.519455 122.64711 4.6875 123.6875 C 4.813269 124.46806 4.716056 124.821 4.65625 124.9375 L 4.8125 124.71875 L 4.75 125.03125 C 3.67854 125.50097 3.0625 126.625 3.0625 126.625 C 3.247071 126.8467 3.5625 126.84375 3.5625 126.84375 C 3.226939 126.72089 3.53125 126.28565 3.53125 126.21875 C 3.53125 126.15125 3.96875 126.25 3.96875 126.25 C 4.136442 125.65691 4.59375 125.90625 4.59375 125.90625 C 4.716782 125.33539 5 125.5 5 125.5 L 5.0625 124.96875 L 5.15625 125.34375 L 5.25 125.125 C 5.25 125.125 5.399208 125.34375 5.5 125.34375 C 5.5 125.34375 4.672885 122.61147 5.71875 122.03125 z "
       style="fill:#597fbe;fill-opacity:1;stroke:none"
       id="path6216"
       d="m 6.375,106.3125 c -0.2927986,0.0176 -0.5545957,0.15142 -0.71875,0.3125 -0.1641543,0.16108 -0.2475483,0.34513 -0.34375,0.53125 a 0.82297925,0.82297925 0 0 0 0.375,1.125 c 0.01203,0.0361 0.028955,0.11809 0.03125,0.125 L 5.8125,108.375 c 0.023651,0.23696 -0.03942,0.48323 0.125,0.6875 0.1379793,0.1713 0.2404475,0.37457 0.3125,0.53125 -0.1990143,0.58112 -0.3172164,1.20866 -0.34375,1.75 -0.01468,0.29951 -0.021687,0.5806 0,0.8125 0.010844,0.11595 0.021831,0.20457 0.0625,0.34375 0.020335,0.0696 0.040057,0.15267 0.125,0.28125 0.00732,0.0111 0.052902,0.0185 0.0625,0.0312 0.011802,0.0543 0.00237,0.0928 0.03125,0.15625 0.01511,0.0332 0.071704,0.0296 0.09375,0.0625 0.00843,0.0126 -0.00929,0.0501 0,0.0625 A 0.82297925,0.82297925 0 0 0 6.25,113.1875 c -0.016642,0.11321 -0.00253,0.11047 0,0.15625 -0.1786304,0.0512 -0.3286458,0.0239 -0.5625,0.21875 -0.2932832,0.24449 -0.4577999,0.48609 -0.625,0.71875 -0.1225329,0.17051 -0.1727099,0.24257 -0.21875,0.3125 -0.046795,0.0411 -0.088925,0.0854 -0.1875,0.1875 -0.052819,0.0547 -0.098298,0.14588 -0.15625,0.21875 -0.031584,0.006 -0.029654,-0.007 -0.0625,0 -0.1415276,0.0311 -0.294363,0.0804 -0.46875,0.15625 -0.071496,0.0311 -0.1608061,0.19429 -0.25,0.25 -0.1184147,0.0272 -0.1664931,0.0293 -0.34375,0.0937 -0.1505286,0.0547 -0.3212071,0.11423 -0.5,0.21875 -0.00936,0.005 -0.021912,-0.006 -0.03125,0 a 0.82297925,0.82297925 0 0 0 -0.6875,0.5625 c 0,0 -0.00968,0.0656 -0.03125,0.125 -0.010787,0.0297 -0.02943,0.0586 -0.03125,0.0625 -0.078423,0.13579 -0.1466444,0.29337 -0.15625,0.375 -0.013897,0.11809 0.019803,0.20247 0.03125,0.28125 0.022894,0.15757 0.045899,0.2907 0.125,0.4375 0.079101,0.1468 0.2079867,0.30397 0.40625,0.4375 0.1982633,0.13353 0.4760712,0.22359 0.75,0.1875 a 0.82297925,0.82297925 0 0 0 0.65625,-0.46875 0.82297925,0.82297925 0 0 0 0.375,-0.1875 c 0,0 0.081286,-0.0916 0.1875,-0.21875 0.01758,-0.0211 0.040653,-0.10266 0.0625,-0.125 l 0.0625,-0.0312 c 0.017621,7e-4 0.01224,0 0.03125,0 -0.018746,0.1091 -0.021193,0.22419 -0.03125,0.28125 -0.00146,0.008 -0.034066,0.10573 -0.0625,0.3125 -0.037104,0.26446 -0.021762,0.33017 0,0.15625 -0.022411,0.18317 -0.049468,0.4048 -0.0625,0.65625 -0.0065,0.12075 -0.00106,0.15209 0,0.125 -0.00879,0.22775 -0.00562,0.4728 0,0.6875 -8.974e-4,-0.0344 -0.0017,-0.0263 0,0.0312 -5.13e-4,-0.0178 -0.0044,0.0202 0,0.125 0.022734,0.5399 0.1817532,1.04387 0.28125,1.5625 -0.095579,0.12784 -0.2319354,0.25913 -0.4375,0.65625 -0.2711496,0.52382 -0.5713956,1.23353 -0.4375,2.0625 0.1089783,0.67635 -0.020615,0.9119 0.0625,0.75 a 0.82297925,0.82297925 0 0 0 -0.0625,0.125 0.82297925,0.82297925 0 0 0 0,0.0312 c -0.9535005,0.66474 -1.53125,1.5 -1.53125,1.5 a 0.82297925,0.82297925 0 0 0 0.09375,0.9375 c 0.4818283,0.57875 1.125,0.5 1.125,0.5 a 0.82297925,0.82297925 0 0 0 0.8125,-0.6875 0.82297925,0.82297925 0 0 0 0,-0.0312 0.82297925,0.82297925 0 0 0 0.28125,-0.21875 0.82297925,0.82297925 0 0 0 0.65625,-0.4375 0.82297925,0.82297925 0 0 0 0.0625,-0.0625 0.82297925,0.82297925 0 0 0 0.125,-0.0625 0.82297925,0.82297925 0 0 0 0.78125,-1.0625 c 0,0 -0.027937,-0.11341 -0.03125,-0.125 0.230717,0.32754 0.4938682,0.63996 0.78125,0.9375 0.4506213,0.46657 0.9491024,0.87922 1.5,1.1875 0.1251309,0.07 0.2373719,0.13798 0.34375,0.1875 0.0076,0.004 0.023727,-0.003 0.03125,0 L 9,127.34375 a 0.82297925,0.82297925 0 0 0 0.0625,0 c 0.4258743,0.18147 0.8472279,0.28521 1.25,0.34375 a 0.82297925,0.82297925 0 0 0 0.03125,0 c 0.0051,6.6e-4 0.02437,-6.6e-4 0.03125,0 0.02955,0.005 0.194648,-0.0203 0.3125,-0.0312 l 0,0.0312 c 0.0725,-0.0125 0.06931,-0.0436 0.125,-0.0625 0.03733,-0.01 0.05769,0.0158 0.09375,0 l 0,-0.0312 c 0.02266,-0.0105 0.04316,-0.0205 0.0625,-0.0312 0.06012,0.0352 -0.01198,0.0162 0.09375,0.0625 0.299996,0.13165 0.642022,0.0551 0.59375,0.0625 1.240648,-0.1803 2.345341,-0.8446 3.25,-1.78125 0.200499,-0.20621 0.401584,-0.44458 0.59375,-0.6875 -0.0023,0.007 -0.03125,0.0937 -0.03125,0.0937 a 0.82297925,0.82297925 0 0 0 0.875,1.0625 0.82297925,0.82297925 0 0 0 0.21875,0.0312 0.82297925,0.82297925 0 0 0 0.03125,0 0.82297925,0.82297925 0 0 0 0.59375,0.3125 0.82297925,0.82297925 0 0 0 0.28125,0.25 0.82297925,0.82297925 0 0 0 0.8125,0.6875 c 0,0 0.643172,0.0787 1.125,-0.5 A 0.82297925,0.82297925 0 0 0 19.5,126.21875 c 0,0 -0.580923,-0.86158 -1.53125,-1.53125 0.202953,-1.73469 -0.433264,-2.8921 -0.71875,-3.3125 0.132255,-0.57752 0.221133,-1.18219 0.25,-1.8125 4.88e-4,-0.0107 -4.5e-4,-0.0206 0,-0.0312 0.0026,-0.0772 0.0015,-0.15716 0,-0.125 0.0017,-0.057 9.24e-4,-0.0664 0,-0.0312 0.0057,-0.21495 0.0087,-0.46001 0,-0.6875 0.0011,0.0273 0.0065,-0.004 0,-0.125 -0.02549,-0.49143 -0.09692,-0.95023 -0.1875,-1.375 0.09408,0.0964 0.137029,0.1294 0.1875,0.15625 0.0052,0.003 0.02638,-0.003 0.03125,0 0.01444,0.009 0.01735,0.0229 0.03125,0.0312 0.06751,0.0406 0.129256,0.006 0.1875,0.0312 a 0.82297925,0.82297925 0 0 0 0,0.0312 0.82297925,0.82297925 0 0 0 0.0625,0.125 c 0,0 0.07296,0.10316 0.09375,0.125 0.02079,0.0218 0.04107,0.0424 0.0625,0.0625 0.182767,0.17453 0.331576,0.2173 0.4375,0.25 0.335763,0.10364 0.976381,-0.008 1.34375,-0.375 0.32975,-0.33028 0.360039,-0.93981 0.25,-1.21875 -0.110039,-0.27894 -0.3125,-0.4375 -0.3125,-0.4375 A 0.82297925,0.82297925 0 0 0 18.96875,115.75 c -0.0094,-0.007 -0.02159,0.007 -0.03125,0 -0.118099,-0.0818 -0.101364,-0.10055 -0.25,-0.1875 -0.320527,-0.18751 -0.731029,-0.35068 -1.1875,-0.4375 a 0.82297925,0.82297925 0 0 0 -0.15625,-0.1875 L 17.125,114.71875 17,114.5625 l -0.03125,0.0312 c -0.374048,-0.53775 -0.827731,-0.92681 -1.25,-1.125 0,0.0348 0.02996,-0.0776 0,-0.28125 a 0.82297925,0.82297925 0 0 0 -0.125,-0.28125 c -0.002,-0.0102 0.0022,-0.0207 0,-0.0312 0.0068,-0.0145 0.02518,-0.0169 0.03125,-0.0312 0.04239,-0.0441 0.16559,-0.0605 0.1875,-0.0937 0.08474,-0.12853 0.104722,-0.21174 0.125,-0.28125 0.04055,-0.13901 0.05167,-0.22786 0.0625,-0.34375 0.02166,-0.23178 0.01466,-0.51302 0,-0.8125 -0.02649,-0.54128 -0.144755,-1.1688 -0.34375,-1.75 0.07739,-0.18764 0.177681,-0.40276 0.28125,-0.53125 0.124281,-0.1542 0.233758,-0.35122 0.28125,-0.59375 0.01037,-0.053 -0.03219,-0.10046 -0.03125,-0.15625 0.01993,-0.0524 0.04414,-0.11818 0.09375,-0.25 0.06796,-0.1806 0.15625,-0.375 0.15625,-0.375 a 0.82297925,0.82297925 0 0 0 -0.25,-0.90625 c -0.341039,-0.28017 -0.82473,-0.34821 -1.125,-0.28125 -0.30027,0.067 -0.53125,0.25 -0.53125,0.25 a 0.82297925,0.82297925 0 0 0 -0.28125,0.8125 c -0.219991,-0.10498 -0.609172,-0.1793 -0.9375,0.0312 -0.339261,0.21756 -0.41686,0.5749 -0.4375,0.8125 -0.01177,0.13552 -0.110743,0.25489 -0.15625,0.28125 -0.390064,0.16198 -0.613945,0.29547 -0.8125,0.40625 -0.01228,0.007 -0.05134,-0.006 -0.0625,0 A 0.82297925,0.82297925 0 0 0 11.3125,109.25 c -0.125483,-0.0289 -0.189404,-0.125 -0.34375,-0.125 -0.140159,0 -0.219615,0.10002 -0.34375,0.125 a 0.82297925,0.82297925 0 0 0 -0.84375,-0.28125 c -0.1816056,-0.10872 -0.3807834,-0.21685 -0.75,-0.375 -0.08026,-0.0465 -0.1446843,-0.11756 -0.15625,-0.25 -0.021592,-0.24852 -0.1287675,-0.60967 -0.46875,-0.8125 -0.2720615,-0.16231 -0.5367102,-0.094 -0.75,-0.0312 A 0.82297925,0.82297925 0 0 0 7.5,106.84375 c 0,0 -0.3081492,-0.57799 -1.125,-0.53125 z m 8.9375,6.96875 0.0625,0 c -0.0283,0.0203 -0.01427,0.008 -0.0625,0.0312 0.0088,-0.004 -0.0086,-0.0264 0,-0.0312 z" />
    <path
       inkscape:connector-curvature="0"
       id="path6214"
       d="m 6.4316449,107.12109 c -0.133283,0.008 -0.261484,0.12618 -0.40625,0.40625 0,0 0.126432,-0.15854 0.21875,-0.125 0,0 0.233231,0.69952 0.25,0.75 -0.027272,0.085 -0.02787,0.2239 0.09375,0.375 0.243417,0.3022 0.486951,0.72075 0.5625,1.03125 l 0.09375,0.0312 c -0.168041,-0.008 -0.21875,0.125 -0.21875,0.125 -0.377748,0.94825 -0.369849,2.625 -0.21875,2.625 0.151098,0 0.15625,0.0625 0.15625,0.0625 l 0.09375,-0.0624 c -0.103613,0.12631 -0.175576,0.26105 -0.125,0.28125 0.104522,0.0419 0.205401,0.35966 0.21875,0.40625 l 0,0.0312 c -0.032213,0.0986 -0.051154,0.19112 -0.0625,0.28125 -0.00632,-0.0103 -0.02699,-0.0207 -0.03125,-0.0312 -0.0081,0.0551 0,0.10489 0,0.15625 0,0.13722 0.146772,0.277 0.375,0.375 0,0 -0.95009,0.11993 -1.21875,0.34375 -0.268483,0.22382 -0.75,0.96875 -0.75,0.96875 0,0 -0.415083,0.35226 -0.4375,0.53125 l 0.15625,-0.0937 -0.15625,0.15625 c 0,0 -0.836885,0.0777 -0.9375,0.3125 0,0 0.037854,0.0381 0.0625,0.0625 0,0 -0.940362,0.1574 -1.125,0.59375 0,0 -0.034969,-0.12872 -0.09375,-0.1875 0,0 -0.093414,0.31216 -0.15625,0.375 -0.06284,0.063 0.056029,0.51077 0.375,0.46875 0,0 -0.15739,-0.4921 0.3125,-0.71875 0,0 0.25,0.0235 0.25,0.25 0,0 0.25,-0.22372 0.25,-0.375 l 0.5,-0.21875 c 0.048499,0.0131 0.10055,0.0312 0.15625,0.0312 l 0.59375,-0.25 c 0.111912,0.0445 0.65132,-0.23659 0.71875,-0.28125 -0.023687,0.0504 -0.039951,0.10482 -0.0625,0.15625 -0.069441,0.15831 -0.129177,0.33222 -0.1875,0.5 -0.014134,0.041 -0.017796,0.0835 -0.03125,0.125 -0.00716,0.0219 -0.02428,0.0405 -0.03125,0.0625 -0.05603,0.17864 -0.113073,0.37408 -0.15625,0.5625 -0.027226,0.12002 -0.040672,0.25115 -0.0625,0.375 -0.017291,0.0981 -0.048681,0.18076 -0.0625,0.28125 -0.00564,0.0402 0.00508,0.0844 0,0.125 -0.023817,0.19466 -0.051979,0.39075 -0.0625,0.59375 -0.0023,0.0427 0.00169,0.0819 0,0.125 -0.00763,0.1978 -0.00537,0.41977 0,0.625 2.71e-4,0.0104 -3.05e-4,0.0209 0,0.0312 0.00114,0.0395 -0.00167,0.0852 0,0.125 0.037022,0.87923 0.184525,1.72985 0.4375,2.53125 0.012684,0.0402 0.01808,0.0851 0.03125,0.125 0.137917,0.4178 0.312243,0.8064 0.5,1.1875 0.187757,0.3811 0.393668,0.72796 0.625,1.0625 0.231332,0.33455 0.48136,0.65936 0.75,0.9375 0.402961,0.41722 0.843216,0.76864 1.3125,1.03125 0.105617,0.0591 0.204179,0.10601 0.3125,0.15625 l 0.125,0.0625 c 0.332732,0.14178 0.7101391,0.23004 1.0625001,0.28125 0.02288,0.003 0.03956,0.004 0.0625,0 0.02294,-0.004 0.0395,0.0101 0.0625,0 0.141154,-0.0244 0.262676,-0.17938 0.40625,-0.21875 0.01553,0 0.04679,-0.003 0.0625,0 0.02868,0.007 0.06515,0.0168 0.09375,0.0312 0.09294,0.047 0.189196,0.1472 0.28125,0.1875 0.04603,0.0202 0.07919,0.007 0.125,0 1.02892,-0.14953 1.975319,-0.69682 2.78125,-1.53125 0.274462,-0.28228 0.545476,-0.59654 0.78125,-0.9375 0.462674,-0.66909 0.817892,-1.4144 1.09375,-2.25 l -0.03125,0.15625 c 0.794328,1.08876 0.09375,3.25 0.09375,3.25 l 0.21875,-0.21875 0.125,0.25 -0.03125,-0.4375 c 0.01279,0 0.104371,-0.0133 0.1875,-0.0312 l 0.09375,0.375 c 0,0 0.251966,-0.1646 0.375,0.40625 0,0 0.488382,-0.24935 0.65625,0.34375 0,0 0.4375,-0.0987 0.4375,-0.0312 0,0.0669 0.304483,0.50214 -0.03125,0.625 0,0 0.801524,0.26801 0.65625,-0.59375 -3.53e-4,-1.8e-4 -0.05546,0.375 -0.15625,0.375 0,0 -0.61425,-1.11266 -1.65625,-1.59375 0.470244,-1.94699 -0.75,-3.53125 -0.75,-3.53125 0.165424,-0.64754 0.283365,-1.30886 0.3125,-2 0.0025,-0.0422 -0.002,-0.0826 0,-0.125 3.05e-4,-0.0104 -2.71e-4,-0.0209 0,-0.0312 0.0054,-0.20523 0.0076,-0.4272 0,-0.625 -0.0017,-0.0431 0.0023,-0.0823 0,-0.125 -0.02428,-0.46815 -0.09432,-0.88987 -0.1875,-1.3125 -0.0046,-0.0211 0.0047,-0.0415 0,-0.0625 -0.04319,-0.18842 -0.100211,-0.38386 -0.15625,-0.5625 -0.0099,-0.0314 -0.02093,-0.0626 -0.03125,-0.0937 -0.06053,-0.18417 -0.113792,-0.35815 -0.1875,-0.53125 -0.09279,-0.21798 -0.199972,-0.42532 -0.3125,-0.625 -0.0444,-0.079 -0.10891,-0.14272 -0.15625,-0.21875 0.461946,0.19329 0.698123,0.66705 0.84375,0.8125 0.145274,0.14544 0.46875,0.15625 0.46875,0.15625 l -0.03125,-0.0626 c 0,0 0.546305,0.35451 0.78125,0.3125 0,0 0.15625,0.10353 0.15625,0.1875 0,0.021 0.01327,0.0361 0.0625,0.0625 0.08969,0.0584 0.284373,0.11636 0.4375,0.125 0.05496,7e-5 0.123713,-0.011 0.15625,-0.0312 0,0 0.28125,0.0525 0.28125,0.3125 0,0 -0.199354,0.12956 -0.3125,0.0625 0,0 0.0033,0.005 0.03125,0.0312 0.02796,0.0267 0.06928,0.0453 0.125,0.0625 0.111449,0.0344 0.278736,0.0338 0.5,-0.1875 0.220294,-0.22065 -0.03125,-0.46875 -0.03125,-0.46875 0,0 0.07517,0.29148 -0.125,0.21875 0,0 -1.23694,-1.06053 -2.125,-0.90625 l -0.125,-0.375 -0.34375,-0.375 c -0.604219,-1.02963 -1.75,-1.15625 -1.75,-1.15625 -0.04983,-0.0446 -0.104961,-0.0825 -0.15625,-0.125 0.235148,-0.099 0.40625,-0.23543 0.40625,-0.375 0,-0.0515 0.0081,-0.10118 0,-0.15625 -0.0043,0.0106 -0.02493,0.021 -0.03125,0.0312 -0.01682,-0.13368 -0.03217,-0.28639 -0.09375,-0.4375 0.04145,-0.12266 0.112892,-0.28273 0.1875,-0.3125 0.03659,-0.0147 -0.0076,-0.10358 -0.0625,-0.1875 0,0 0.0364,-0.0937 0.1875,-0.0937 0.150745,0 0.158997,-1.67657 -0.21875,-2.625 0,0 -0.04603,-0.11446 -0.1875,-0.125 l 0.0625,0 c 0.07555,-0.31049 0.287656,-0.7603 0.53125,-1.0625 0.139962,-0.17366 0.142125,-0.28847 0.09375,-0.375 0.01695,-0.0503 0.28125,-0.75 0.28125,-0.75 0.09232,-0.0335 0.21875,0.125 0.21875,0.125 -0.386043,-0.74685 -0.8125,-0.15625 -0.8125,-0.15625 0.109087,-0.0167 0.20588,-0.10062 0.28125,0 0.07537,0.10079 -0.125,0.65625 -0.125,0.65625 -0.176165,-0.042 -0.375,0.21875 -0.375,0.21875 -0.243419,0.3525 -0.34375,1.375 -0.34375,1.375 -0.12872,0.0321 -0.25613,0.0931 -0.25,0.28125 0.0083,0.26019 -0.0625,0.5 -0.0625,0.5 l 0.59375,1.1562 c 0,0 0.02067,0.41387 0.0625,0.53125 0.03393,0.0949 -0.07785,0.11099 -0.125,0.125 -0.104621,-0.1006 -0.234899,-0.1875 -0.3125,-0.1875 l -0.09375,0.0937 c -0.09453,-0.12711 -0.201787,-0.24928 -0.3125,-0.375 -0.02846,-0.0322 -0.06436,-0.0618 -0.09375,-0.0937 -0.197018,-0.21463 -0.427263,-0.40064 -0.65625,-0.59375 -0.115879,0.067 -0.235606,0.10048 -0.375,0.15625 0,0 -0.197151,-0.26635 0.09375,-0.78125 0.218308,-0.38605 -0.417416,-0.17483 -0.75,0.0937 -0.01679,-0.0142 -0.0455,-0.0175 -0.0625,-0.0312 -0.0117,-0.009 -0.01946,-0.022 -0.03125,-0.0312 -0.04041,-0.0318 -0.08377,-0.0645 -0.125,-0.0937 -1.6e-5,0 -0.02738,0.0262 -0.03125,0.0312 -0.07538,-0.0529 -0.142656,-0.11256 -0.21875,-0.15625 -0.278506,-0.1599 -0.569145,-0.28125 -0.78125,-0.28125 -0.29092,0 -0.688421,0.18786 -1.0625001,0.46875 -0.0313,0.0235 -0.06304,0.0376 -0.09375,0.0625 l -0.09375,0.0937 c -0.305796,-0.29294 -1.045079,-0.56803 -0.8125,-0.15625 0.290901,0.5149 0.125,0.78125 0.125,0.78125 -0.118677,-0.0497 -0.243092,-0.0981 -0.34375,-0.15625 -0.214821,0.1812 -0.406553,0.36182 -0.59375,0.5625 -0.178202,0.19153 -0.328247,0.39816 -0.46875,0.59375 l -0.03125,-0.0625 -0.125,-0.0937 c -0.073454,0 -0.15013,0.0946 -0.25,0.1875 0,0 -0.19808,-0.0387 -0.15625,-0.15625 0.04201,-0.11761 0.03125,-0.5313 0.03125,-0.5313 l 0.625,-1.15625 c 0,0 -0.10225,-0.20856 -0.09375,-0.46875 0.00622,-0.19499 -0.115825,-0.2514 -0.25,-0.28125 0,0 -0.069254,-1.05375 -0.3125,-1.40625 0,0 -0.198659,-0.26076 -0.375,-0.21875 0,0 -0.231623,-0.52421 -0.15625,-0.625 0.0759,-0.10062 0.203589,-0.048 0.3125,-0.0312 0,0 -0.184112,-0.23146 -0.40625,-0.21875 z m 3.46875,3.28125 0.2187501,-0.15625 c 0,0 -0.1250001,-0.28412 -0.1250001,-0.46875 l -0.28125,0.0937 c -0.110555,-0.0645 -0.583278,-0.36729 -1.09375,-0.56245 -0.318967,-0.18464 -0.528786,-0.5202 -0.5625,-0.90625 -0.03354,-0.38604 -0.442076,-0.10766 -0.375,0.0937 0.06708,0.20158 0.256123,0.76506 0.84375,1 0.542424,0.21703 1.043939,0.29448 1.15625,0.53125 l 0,0.15625 c 0,0 0.21875,0.0576 0.21875,0.21875 z m 1.8437501,-0.1875 0.25,0.125 c 0,-0.14583 0.282283,-0.0929 0.15625,-0.21875 l -0.0625,-0.0625 c 0.104259,-0.23443 0.551326,-0.31422 1.09375,-0.53125 0.58745,-0.23495 0.77685,-0.79842 0.84375,-1 0.06725,-0.20141 -0.31021,-0.47979 -0.34375,-0.0937 -0.03354,0.38605 -0.24371,0.75286 -0.5625,0.9375 -0.54259,0.2076 -1.099672,0.52915 -1.15625,0.5625 l -0.0625,-0.0625 -0.0625,0 c 0.07855,0.0784 -0.09375,0.34375 -0.09375,0.34375 z m -6.0312501,11.8125 -0.1875,-0.65625 c 0,0 -1.011795,1.27211 -0.84375,2.3125 0.125769,0.78056 0.028556,1.1335 -0.03125,1.25 l 0.15625,-0.21875 -0.0625,0.3125 c -1.07146,0.46972 -1.6875,1.59375 -1.6875,1.59375 -0.100795,0 -0.156073,-0.375 -0.15625,-0.375 -0.145273,0.86176 0.65625,0.59375 0.65625,0.59375 -0.335561,-0.12286 -0.03125,-0.5581 -0.03125,-0.625 0,-0.0675 0.4375,0.0312 0.4375,0.0312 0.167692,-0.59309 0.625,-0.34375 0.625,-0.34375 0.123032,-0.57086 0.40625,-0.40625 0.40625,-0.40625 l 0.0625,-0.53125 0.09375,0.375 0.09375,-0.21875 c 0,0 0.149208,0.21875 0.25,0.21875 0,0 -0.827115,-2.73228 0.21875,-3.3125 z"
       style="fill:#ffffff;fill-opacity:1;stroke:none;stroke-width:0.29999999999999999;stroke-linejoin:round;stroke-miterlimit:4;stroke-opacity:1;stroke-dasharray:none"
       inkscape:export-filename="./path6214.png"
       inkscape:export-xdpi="130"
       inkscape:export-ydpi="130" />
    <path
       d="m 5.1823382,119.47823 c 0.1585547,3.76555 2.4542674,7.13695 5.2517418,7.5435 0.18663,0.0274 0.375241,-0.23272 0.565829,-0.23272 0.190411,0 0.379019,0.2599 0.56583,0.23272 2.797474,-0.40655 5.093187,-3.77795 5.251922,-7.5435 0.179791,-4.26478 -2.420254,-7.03057 -5.817571,-7.03057 -3.3974981,0 -5.9975434,2.76579 -5.8177518,7.03057 z"
       id="path188-2"
       style="fill:#ffffff;fill-opacity:1;stroke:#597fbe;stroke-width:0.51049238;stroke-miterlimit:4;stroke-opacity:1;stroke-dasharray:none"
       inkscape:connector-curvature="0" />
    <path
       style="fill:#597fbe;fill-opacity:1"
       d="m 11,109.57622 c -0.581251,0 -1.5680228,0.63767 -1.9976996,1.42843 -0.00283,0.005 -0.031661,-0.005 -0.034442,0 -0.1850327,-0.0686 -0.332349,-0.15258 -0.4822034,-0.23807 -1.0093446,0.84048 -1.8254839,1.95161 -1.8254839,2.68681 0,0.78901 4.3398289,0.91829 4.3398289,0.91829 0,0 4.33983,-0.1293 4.33983,-0.91829 0,-0.7352 -0.815945,-1.84614 -1.825484,-2.68681 -0.149806,0.0854 -0.331641,0.16956 -0.516645,0.23807 C 12.568046,110.21389 11.58125,109.57622 11,109.57622 z"
       id="path171-2"
       inkscape:connector-curvature="0" />
    <path
       sodipodi:type="inkscape:offset"
       inkscape:radius="0.26064676"
       inkscape:original="M 9.15625 111.375 C 8.8132002 111.68234 8.4824105 112.02722 8.25 112.375 L 8.1875 112.5 C 8.1875 112.5 8.1919081 112.84375 8.5 112.84375 C 8.5 112.84375 8.6872804 112.87881 8.75 112.59375 L 9.34375 112.375 C 9.34375 112.375 9.875 112.11502 9.875 111.65625 C 9.5900176 111.58135 9.358922 111.49946 9.15625 111.375 z M 12.78125 111.375 C 12.57886 111.49932 12.346917 111.58136 12.0625 111.65625 C 12.0625 111.65625 12.226952 112.46875 13.21875 112.46875 C 13.21875 112.46875 13.495102 113.20813 13.8125 112.59375 C 13.572902 112.17557 13.199984 111.7502 12.78125 111.375 z "
       style="fill:#ffffff;fill-opacity:1"
       id="path6218"
       d="m 9.03125,111.125 a 0.26067283,0.26067283 0 0 0 -0.0625,0.0625 c -0.3532051,0.31644 -0.6858379,0.65466 -0.9375,1.03125 a 0.26067283,0.26067283 0 0 0 0,0.0312 l -0.0625,0.125 a 0.26067283,0.26067283 0 0 0 -0.03125,0.0937 0.26067283,0.26067283 0 0 0 0,0.0312 c 0,0 -0.004,0.13699 0.0625,0.28125 0.059483,0.12904 0.2249584,0.24957 0.4375,0.28125 0.00327,4.9e-4 -0.00329,0.0308 0,0.0312 0,0 0.050864,-0.001 0.0625,0 0.041371,0.004 0.119096,0.0177 0.21875,-0.0312 0.064862,-0.0319 0.073912,-0.14721 0.125,-0.21875 0.00362,-0.005 0.027743,0.005 0.03125,0 L 9.4375,112.625 a 0.26067283,0.26067283 0 0 0 0.03125,-0.0312 c 0,0 0.65625,-0.27751 0.65625,-0.9375 a 0.26067283,0.26067283 0 0 0 0,-0.0625 0.26067283,0.26067283 0 0 0 -0.09375,-0.15625 0.26067283,0.26067283 0 0 0 -0.09375,-0.0312 c -0.2733144,-0.0718 -0.4854232,-0.1451 -0.65625,-0.25 a 0.26067283,0.26067283 0 0 0 -0.125,-0.0312 0.26067283,0.26067283 0 0 0 -0.125,0 z m 3.65625,0 a 0.26067283,0.26067283 0 0 0 -0.03125,0.0312 c -0.170291,0.1046 -0.383417,0.17816 -0.65625,0.25 a 0.26067283,0.26067283 0 0 0 -0.0625,0.0312 0.26067283,0.26067283 0 0 0 -0.125,0.125 0.26067283,0.26067283 0 0 0 0,0.15625 c 0,0 0.04463,0.24731 0.25,0.5 0.183127,0.22532 0.530366,0.42308 1,0.46875 0.03243,0.0766 0.04179,0.13629 0.15625,0.25 0.08753,0.087 0.252993,0.20092 0.4375,0.15625 0.184507,-0.0447 0.278786,-0.18876 0.375,-0.375 a 0.26067283,0.26067283 0 0 0 0.03125,-0.0937 0.26067283,0.26067283 0 0 0 0,-0.125 0.26067283,0.26067283 0 0 0 -0.03125,-0.0312 c -0.259691,-0.45325 -0.628128,-0.89204 -1.0625,-1.28125 a 0.26067283,0.26067283 0 0 0 -0.09375,-0.0625 0.26067283,0.26067283 0 0 0 -0.125,0 0.26067283,0.26067283 0 0 0 -0.0625,0 z" />
    <path
       style="fill:none;stroke:#597fbe;stroke-width:0.5;stroke-linecap:butt;stroke-linejoin:miter;stroke-miterlimit:4;stroke-opacity:1;stroke-dasharray:none"
       d="m 11,126.49309 0,-7.91937"
       id="path5967"
       inkscape:connector-curvature="0" />
    <path
       style="fill:#597fbe;fill-opacity:1;stroke:none"
       d="m 10.314528,115.25826 0,0.39573 c 0,0 -0.8101327,0.54433 -0.857449,0.98937 -0.047131,0.44485 0.2638304,0.89043 0.2638304,0.89043 l -0.098936,0.0329 0.2638298,0.23085 c 0.3541218,0.49459 1.0883018,0.26385 1.0883018,0.26385 0.566857,0.44519 1.484046,-0.36278 1.484046,-0.36278 0.448566,-0.59332 -0.131916,-1.64894 -0.131916,-1.64894 -0.670618,-0.38746 -0.735966,-0.67599 -0.725533,-0.79149 -0.385231,0.0249 -0.626597,0.0329 -0.626597,0.0329 0,0 -0.261304,-0.008 -0.659577,-0.0329 z m -1.9457495,4.41916 c -0.065481,0.002 -0.1251294,-0.001 -0.1978728,0.0329 -0.2702965,0.12744 -1.0587084,0.54682 -1.2202159,0.6266 -0.018479,0.01 -0.032978,0 -0.032978,0 l 0.1648941,0.89043 c -0.2570702,0.64659 0.1978729,0.98936 0.1978729,0.98936 0,0 0.1220689,-0.0553 0.2638303,0.0329 0.1417613,0.0886 0.4287245,0.52763 0.4287245,0.52763 0.1328186,-0.0624 0.1592819,-0.14324 0.9563854,-0.099 0.011736,7e-4 0.054223,0 0.065957,0 0.7706519,0.008 1.055322,-1.15424 1.055322,-1.15424 0.177337,-0.2569 -0.065965,-0.65957 -0.065965,-0.65957 0.115305,-0.21257 -0.1978732,-0.4617 -0.1978732,-0.4617 l -0.2638305,-0.39577 -0.3957456,0 c -0.014902,-0.01 -0.018636,-0.0235 -0.032978,-0.0329 -0.3156095,-0.19884 -0.5290899,-0.3039 -0.7255336,-0.29683 z m 4.5180965,0 c -0.661303,0 -0.852616,0.84761 -0.923406,0.98936 -0.07078,0.14172 -0.155051,-0.0617 -0.29681,0.0329 -0.141574,0.0946 0.131915,0.51178 0.131915,1.2202 0,0.53149 0.249809,0.61331 0.362767,0.6266 -0.09401,0.0231 -0.27754,0.0853 0.06594,0.0661 0.425093,-0.0239 0.329265,0.47533 0.494684,0.59361 0,0 0.192144,-0.28213 0.428723,-0.49468 0.236022,-0.21219 0.362768,0.69254 0.362768,0.69254 l 0.362767,-0.85745 c 0,0 0.659052,0.53133 0.824471,-0.79148 0.165047,-1.32285 -0.112753,-0.88436 -0.230852,-1.28616 -0.118108,-0.40128 -0.347567,-0.56064 -0.725535,-0.56064 -0.37778,0 -0.196145,-0.23086 -0.857448,-0.23086 z"
       id="path465-5"
       inkscape:connector-curvature="0"
       sodipodi:nodetypes="ccccccccccccccccccccccccccccccccccsccccccccscc" />
  </g>
</svg>
