<?xml version="1.0" encoding="UTF-8" standalone="no"?>
<!-- Created with Inkscape (http://www.inkscape.org/) -->

<svg
   xmlns:dc="http://purl.org/dc/elements/1.1/"
   xmlns:cc="http://creativecommons.org/ns#"
   xmlns:rdf="http://www.w3.org/1999/02/22-rdf-syntax-ns#"
   xmlns:svg="http://www.w3.org/2000/svg"
   xmlns="http://www.w3.org/2000/svg"
   xmlns:sodipodi="http://sodipodi.sourceforge.net/DTD/sodipodi-0.dtd"
   xmlns:inkscape="http://www.inkscape.org/namespaces/inkscape"
   width="22"
   height="22"
   id="svg2"
   sodipodi:version="0.32"
   inkscape:version="0.48.1 r9760"
   version="1.0"
   sodipodi:docname="dock-rss.svg"
   inkscape:output_extension="org.inkscape.output.svgz.inkscape"
   inkscape:export-filename="/home/david/Oxygen/kdelibs/scalable/actions/rss.png"
   inkscape:export-xdpi="90"
   inkscape:export-ydpi="90">
  <defs
     id="defs4" />
  <sodipodi:namedview
     id="base"
     pagecolor="#ffffff"
     bordercolor="#666666"
     borderopacity="1.0"
     gridtolerance="10000"
     guidetolerance="10"
     objecttolerance="10"
     inkscape:pageopacity="0.0"
     inkscape:pageshadow="2"
     inkscape:zoom="11.777747"
     inkscape:cx="-9.6742148"
     inkscape:cy="7.1618611"
     inkscape:document-units="px"
     inkscape:current-layer="layer1"
     width="128px"
     height="128px"
     showgrid="false"
     borderlayer="true"
     inkscape:showpageshadow="false"
     showborder="true"
     inkscape:window-width="1366"
     inkscape:window-height="692"
     inkscape:window-x="0"
     inkscape:window-y="25"
     inkscape:window-maximized="1">
    <inkscape:grid
       type="xygrid"
       id="grid3285"
       spacingx="4px"
       spacingy="4px"
       empspacing="2"
       visible="true"
       enabled="true"
       snapvisiblegridlinesonly="true" />
    <inkscape:grid
       id="GridFromPre046Settings"
       type="xygrid"
       originx="0px"
       originy="0px"
       spacingx="4px"
       spacingy="4px"
       color="#0000ff"
       empcolor="#0000ff"
       opacity="0.2"
       empopacity="0.4"
       empspacing="2"
       visible="true"
       enabled="true"
       snapvisiblegridlinesonly="true" />
  </sodipodi:namedview>
  <metadata
     id="metadata7">
    <rdf:RDF>
      <cc:Work
         rdf:about="">
        <dc:format>image/svg+xml</dc:format>
        <dc:type
           rdf:resource="http://purl.org/dc/dcmitype/StillImage" />
        <dc:title />
      </cc:Work>
    </rdf:RDF>
  </metadata>
  <g
     inkscape:label="Layer 1"
     inkscape:groupmode="layer"
     id="layer1"
     transform="translate(0,-106)">
    <path
       sodipodi:type="inkscape:offset"
       inkscape:radius="0.85323036"
       inkscape:original="M 6.25 110.46875 C 5.6440207 110.46875 5.0489144 110.53282 4.46875 110.625 L 4.46875 113.03125 C 5.0452377 112.91381 5.6389906 112.84375 6.25 112.84375 C 11.163276 112.84375 15.15625 116.83672 15.15625 121.75 C 15.15625 122.36101 15.086196 122.95476 14.96875 123.53125 L 17.40625 123.53125 C 17.49844 122.95109 17.53125 122.35598 17.53125 121.75 C 17.53125 115.52651 12.473484 110.46875 6.25 110.46875 z M 6.25 115.21875 C 5.6260333 115.21875 5.0403374 115.3051 4.46875 115.46875 C 4.4779 115.53925 4.46875 115.61449 4.46875 115.6875 L 4.46875 118 C 5.010162 117.74134 5.6103084 117.59375 6.25 117.59375 C 8.5428613 117.59375 10.40625 119.45713 10.40625 121.75 C 10.40625 122.38969 10.258657 122.98983 10 123.53125 L 12.53125 123.53125 C 12.691834 122.96476 12.78125 122.36772 12.78125 121.75 C 12.78125 118.14692 9.8530689 115.21875 6.25 115.21875 z M 6.25 119.96875 C 5.2673435 119.96875 4.46875 120.76734 4.46875 121.75 C 4.46875 122.73265 5.2673435 123.53125 6.25 123.53125 C 7.2326547 123.53125 8.03125 122.73265 8.03125 121.75 C 8.03125 120.76734 7.2326547 119.96875 6.25 119.96875 z "
       style="fill:#597fbe;fill-opacity:1;stroke:none"
       id="path3796"
       d="m 6.25,109.625 c -0.6661205,0 -1.2972947,0.0595 -1.90625,0.15625 A 0.85331568,0.85331568 0 0 0 3.625,110.625 l 0,2.40625 a 0.85331568,0.85331568 0 0 0 1,0.84375 c 0.529239,-0.10781 1.0792131,-0.1875 1.625,-0.1875 4.451002,0 8.0625,3.61149 8.0625,8.0625 0,0.54579 -0.07968,1.09577 -0.1875,1.625 a 0.85331568,0.85331568 0 0 0 0.84375,1 l 2.4375,0 A 0.85331568,0.85331568 0 0 0 18.25,123.65625 c 0.101458,-0.63849 0.125,-1.26947 0.125,-1.90625 0,-6.68576 -5.439242,-12.125 -12.125,-12.125 z m 0,4.75 c -0.702685,0 -1.3877394,0.097 -2.03125,0.28125 a 0.85331568,0.85331568 0 0 0 -0.59375,0.9375 c -0.010167,-0.0783 0,-0.0506 0,0.0937 l 0,2.3125 a 0.85331568,0.85331568 0 0 0 1.21875,0.78125 c 0.4340276,-0.20736 0.8977969,-0.34375 1.40625,-0.34375 1.8305881,0 3.3125,1.4819 3.3125,3.3125 0,0.50845 -0.1363896,0.9722 -0.34375,1.40625 A 0.85331568,0.85331568 0 0 0 10,124.375 l 2.53125,0 a 0.85331568,0.85331568 0 0 0 0.8125,-0.625 c 0.180819,-0.63787 0.28125,-1.29994 0.28125,-2 0,-4.06535 -3.309658,-7.375 -7.375,-7.375 z m 0,4.75 c -1.4449281,0 -2.625,1.18007 -2.625,2.625 0,1.44493 1.1800662,2.625 2.625,2.625 1.4449329,0 2.625,-1.18007 2.625,-2.625 0,-1.44493 -1.1800729,-2.625 -2.625,-2.625 z" />
    <path
       style="fill:#ffffff;fill-opacity:1;stroke:none;stroke-width:1.01221931000000009;stroke-miterlimit:4;stroke-opacity:1;stroke-dasharray:none"
       d="m 6.2621435,110.4727 c -0.6059793,0 -1.2000093,0.0469 -1.7801737,0.13908 l 0,2.41991 c 0.5764877,-0.11744 1.1691643,-0.18543 1.7801737,-0.18543 4.9132765,0 8.9008655,3.98759 8.9008655,8.90087 0,0.61101 -0.06799,1.20368 -0.185436,1.78017 l 2.419925,0 c 0.09219,-0.58016 0.139076,-1.17419 0.139076,-1.78017 0,-6.22349 -5.050946,-11.27443 -11.2744305,-11.27443 z m 0,4.74712 c -0.6239667,0 -1.22713,0.0867 -1.7987174,0.25035 0.00915,0.0705 0.018547,0.14023 0.018547,0.21324 l 0,2.31793 c 0.541412,-0.25866 1.1404822,-0.40795 1.7801738,-0.40795 2.2928613,0 4.1537361,1.86087 4.1537361,4.15374 0,0.63969 -0.149298,1.23875 -0.407955,1.78017 l 2.531182,0 c 0.160584,-0.56649 0.250337,-1.16245 0.250337,-1.78017 0,-3.60308 -2.9242312,-6.52731 -6.5273001,-6.52731 z m 0,4.74713 c -0.9826565,0 -1.7801737,0.79752 -1.7801737,1.78018 0,0.98265 0.7975172,1.78017 1.7801737,1.78017 0.9826547,0 1.7801719,-0.79752 1.7801719,-1.78017 0,-0.98266 -0.7975172,-1.78018 -1.7801719,-1.78018 z"
       id="path9653"
       inkscape:connector-curvature="0" />
  </g>
</svg>
