<?xml version="1.0" encoding="UTF-8" standalone="no"?>
<!-- Created with Inkscape (http://www.inkscape.org/) -->

<svg
   xmlns:dc="http://purl.org/dc/elements/1.1/"
   xmlns:cc="http://creativecommons.org/ns#"
   xmlns:rdf="http://www.w3.org/1999/02/22-rdf-syntax-ns#"
   xmlns:svg="http://www.w3.org/2000/svg"
   xmlns="http://www.w3.org/2000/svg"
   xmlns:xlink="http://www.w3.org/1999/xlink"
   xmlns:sodipodi="http://sodipodi.sourceforge.net/DTD/sodipodi-0.dtd"
   xmlns:inkscape="http://www.inkscape.org/namespaces/inkscape"
   width="32"
   height="32"
   id="svg2"
   version="1.1"
   inkscape:version="0.48.1 r9760"
   sodipodi:docname="peer.svg">
  <defs
     id="defs4">
    <linearGradient
       id="linearGradient3965">
      <stop
         style="stop-color:#000000;stop-opacity:1;"
         offset="0"
         id="stop3967" />
      <stop
         id="stop3973"
         offset="0.69539171"
         style="stop-color:#000000;stop-opacity:0.58823532;" />
      <stop
         style="stop-color:#000000;stop-opacity:0;"
         offset="1"
         id="stop3969" />
    </linearGradient>
    <linearGradient
       id="linearGradient3925">
      <stop
         style="stop-color:#0ece17;stop-opacity:1;"
         offset="0"
         id="stop3927" />
      <stop
         id="stop3933"
         offset="0.57826179"
         style="stop-color:#0ece17;stop-opacity:1;" />
      <stop
         style="stop-color:#4cff06;stop-opacity:1;"
         offset="1"
         id="stop3929" />
    </linearGradient>
    <linearGradient
       id="linearGradient3740">
      <stop
         style="stop-color:#000000;stop-opacity:0.58823532;"
         offset="0"
         id="stop3742" />
      <stop
         style="stop-color:#000000;stop-opacity:0;"
         offset="1"
         id="stop3744" />
    </linearGradient>
    <linearGradient
       id="linearGradient3726">
      <stop
         id="stop3728"
         offset="0"
         style="stop-color:#008dff;stop-opacity:0;" />
      <stop
         id="stop3730"
         offset="1"
         style="stop-color:#1cb8ff;stop-opacity:1;" />
    </linearGradient>
    <linearGradient
       inkscape:collect="always"
       id="linearGradient3712">
      <stop
         style="stop-color:#ffffff;stop-opacity:1;"
         offset="0"
         id="stop3714" />
      <stop
         style="stop-color:#ffffff;stop-opacity:0;"
         offset="1"
         id="stop3716" />
    </linearGradient>
    <linearGradient
       id="linearGradient3679">
      <stop
         style="stop-color:#005aff;stop-opacity:1;"
         offset="0"
         id="stop3681" />
      <stop
         style="stop-color:#008dff;stop-opacity:1;"
         offset="1"
         id="stop3683" />
    </linearGradient>
    <linearGradient
       id="linearGradient3660">
      <stop
         id="stop3662"
         offset="0"
         style="stop-color:#ffffff;stop-opacity:0.502" />
      <stop
         id="stop3664"
         offset="1"
         style="stop-color:#ffffff;stop-opacity:0;" />
    </linearGradient>
    <linearGradient
       id="linearGradient3623">
      <stop
         style="stop-color:#000000;stop-opacity:0.58823532;"
         offset="0"
         id="stop3625" />
      <stop
         style="stop-color:#000000;stop-opacity:0;"
         offset="1"
         id="stop3627" />
    </linearGradient>
    <filter
       inkscape:collect="always"
       id="filter3769"
       x="-0.16363636"
       width="1.3272727"
       y="-0.45"
       height="1.9">
      <feGaussianBlur
         inkscape:collect="always"
         stdDeviation="0.65625"
         id="feGaussianBlur3771" />
    </filter>
    <filter
       inkscape:collect="always"
       id="filter3797"
       x="-0.12"
       width="1.24"
       y="-0.12"
       height="1.24">
      <feGaussianBlur
         inkscape:collect="always"
         stdDeviation="0.759375"
         id="feGaussianBlur3799" />
    </filter>
    <filter
       inkscape:collect="always"
       id="filter3817">
      <feGaussianBlur
         inkscape:collect="always"
         stdDeviation="0.43710938"
         id="feGaussianBlur3819" />
    </filter>
    <linearGradient
       y2="11.91689"
       x2="10.953125"
       y1="0.36992913"
       x1="10.953125"
       gradientTransform="matrix(0.97813736,0,0,0.97813736,-0.04015889,0.33100298)"
       gradientUnits="userSpaceOnUse"
       id="linearGradient3694"
       xlink:href="#linearGradient3645"
       inkscape:collect="always" />
    <filter
       color-interpolation-filters="sRGB"
       id="filter3690"
       inkscape:collect="always">
      <feGaussianBlur
         id="feGaussianBlur3692"
         stdDeviation="0.118125"
         inkscape:collect="always" />
    </filter>
    <filter
       color-interpolation-filters="sRGB"
       height="1.5132259"
       y="-0.25661296"
       width="1.4754887"
       x="-0.23774435"
       id="filter3670"
       inkscape:collect="always">
      <feGaussianBlur
         id="feGaussianBlur3672"
         stdDeviation="0.22241486"
         inkscape:collect="always" />
    </filter>
    <linearGradient
       gradientTransform="translate(0,2)"
       gradientUnits="userSpaceOnUse"
       y2="13.706005"
       x2="10.953125"
       y1="2.03125"
       x1="10.953125"
       id="linearGradient3651"
       xlink:href="#linearGradient3645"
       inkscape:collect="always" />
    <filter
       color-interpolation-filters="sRGB"
       y="-0.25"
       x="-0.25"
       height="1.5"
       width="1.5"
       inkscape:label="Drop shadow"
       id="filter4864">
      <feGaussianBlur
         result="blur"
         stdDeviation="0.500000"
         in="SourceAlpha"
         id="feGaussianBlur4866" />
      <feColorMatrix
         values="1 0 0 0 0 0 1 0 0 0 0 0 1 0 0 0 0 0 0.750000 0 "
         type="matrix"
         result="bluralpha"
         id="feColorMatrix4868" />
      <feOffset
         result="offsetBlur"
         dy="1.000000"
         dx="1.000000"
         in="bluralpha"
         id="feOffset4870" />
      <feMerge
         id="feMerge4872">
        <feMergeNode
           in="offsetBlur"
           id="feMergeNode4874" />
        <feMergeNode
           in="SourceGraphic"
           id="feMergeNode4876" />
      </feMerge>
    </filter>
    <filter
       color-interpolation-filters="sRGB"
       y="-0.25"
       x="-0.25"
       height="1.5"
       width="1.5"
       inkscape:label="Drop shadow"
       id="filter3718">
      <feGaussianBlur
         result="blur"
         stdDeviation="0.500000"
         in="SourceAlpha"
         id="feGaussianBlur3720" />
      <feColorMatrix
         values="1 0 0 0 0 0 1 0 0 0 0 0 1 0 0 0 0 0 0.750000 0 "
         type="matrix"
         result="bluralpha"
         id="feColorMatrix3722" />
      <feOffset
         result="offsetBlur"
         dy="1.000000"
         dx="1.000000"
         in="bluralpha"
         id="feOffset3724" />
      <feMerge
         id="feMerge3726">
        <feMergeNode
           in="offsetBlur"
           id="feMergeNode3728" />
        <feMergeNode
           in="SourceGraphic"
           id="feMergeNode3730" />
      </feMerge>
    </filter>
    <filter
       color-interpolation-filters="sRGB"
       y="-0.25"
       x="-0.25"
       height="1.5"
       width="1.5"
       inkscape:label="Drop shadow"
       id="filter4280">
      <feGaussianBlur
         result="blur"
         stdDeviation="0.500000"
         in="SourceAlpha"
         id="feGaussianBlur4282" />
      <feColorMatrix
         values="1 0 0 0 0 0 1 0 0 0 0 0 1 0 0 0 0 0 0.750000 0 "
         type="matrix"
         result="bluralpha"
         id="feColorMatrix4284" />
      <feOffset
         result="offsetBlur"
         dy="1.000000"
         dx="1.000000"
         in="bluralpha"
         id="feOffset4286" />
      <feMerge
         id="feMerge4288">
        <feMergeNode
           in="offsetBlur"
           id="feMergeNode4290" />
        <feMergeNode
           in="SourceGraphic"
           id="feMergeNode4292" />
      </feMerge>
    </filter>
    <inkscape:perspective
       sodipodi:type="inkscape:persp3d"
       inkscape:vp_x="0 : 526.18109 : 1"
       inkscape:vp_y="0 : 1000 : 0"
       inkscape:vp_z="744.09448 : 526.18109 : 1"
       inkscape:persp3d-origin="372.04724 : 350.78739 : 1"
       id="perspective2517" />
    <inkscape:perspective
       sodipodi:type="inkscape:persp3d"
       inkscape:vp_x="0 : 526.18109 : 1"
       inkscape:vp_y="0 : 1000 : 0"
       inkscape:vp_z="744.09448 : 526.18109 : 1"
       inkscape:persp3d-origin="372.04724 : 350.78739 : 1"
       id="perspective2464" />
    <inkscape:perspective
       id="perspective10"
       inkscape:persp3d-origin="372.04724 : 350.78739 : 1"
       inkscape:vp_z="744.09448 : 526.18109 : 1"
       inkscape:vp_y="0 : 1000 : 0"
       inkscape:vp_x="0 : 526.18109 : 1"
       sodipodi:type="inkscape:persp3d" />
    <linearGradient
       id="linearGradient4223">
      <stop
         id="stop4225"
         offset="0"
         style="stop-color:#106a15;stop-opacity:1;" />
      <stop
         id="stop4227"
         offset="1"
         style="stop-color:#ccf1d2;stop-opacity:1;" />
    </linearGradient>
    <linearGradient
       id="linearGradient3645">
      <stop
         id="stop3647"
         offset="0"
         style="stop-color:#ffffff;stop-opacity:0.58823532;" />
      <stop
         id="stop3649"
         offset="1"
         style="stop-color:#ffffff;stop-opacity:0;" />
    </linearGradient>
    <linearGradient
       inkscape:collect="always"
       xlink:href="#linearGradient3679"
       id="linearGradient3141"
       gradientUnits="userSpaceOnUse"
       gradientTransform="matrix(1.1342904,0,0,1.1342904,-6.2049837,1020.0252)"
       x1="6.21875"
       y1="18.828125"
       x2="25.78125"
       y2="18.828125" />
    <linearGradient
       inkscape:collect="always"
       xlink:href="#linearGradient3726"
       id="linearGradient3143"
       gradientUnits="userSpaceOnUse"
       gradientTransform="matrix(1.1342904,0,0,1.1342904,-6.2049837,1020.0252)"
       x1="16"
       y1="18.828125"
       x2="16"
       y2="26.53125" />
    <radialGradient
       inkscape:collect="always"
       xlink:href="#linearGradient3740"
       id="radialGradient3145"
       gradientUnits="userSpaceOnUse"
       gradientTransform="matrix(1.1513049,0.45102401,-0.48660788,1.2421378,1.336908,-6.5994276)"
       cx="17.09375"
       cy="8.0625"
       fx="17.09375"
       fy="8.0625"
       r="4.8125" />
    <linearGradient
       inkscape:collect="always"
       xlink:href="#linearGradient3679"
       id="linearGradient3147"
       gradientUnits="userSpaceOnUse"
       x1="9.1875"
       y1="10.736831"
       x2="24.375"
       y2="11.106878" />
    <linearGradient
       inkscape:collect="always"
       xlink:href="#linearGradient3660"
       id="linearGradient3149"
       gradientUnits="userSpaceOnUse"
       gradientTransform="matrix(0.72818641,0,0,0.72818641,-0.27621597,1018.6585)"
       x1="9.1875"
       y1="5.6249657"
       x2="13.893667"
       y2="16.488956" />
    <linearGradient
       inkscape:collect="always"
       xlink:href="#linearGradient3726"
       id="linearGradient3151"
       gradientUnits="userSpaceOnUse"
       x1="16.78125"
       y1="13.21875"
       x2="16.78125"
       y2="20.8125" />
    <linearGradient
       inkscape:collect="always"
       xlink:href="#linearGradient3712"
       id="linearGradient3153"
       gradientUnits="userSpaceOnUse"
       gradientTransform="matrix(1.1342904,0,0,1.1342904,-6.2049837,1020.0252)"
       x1="6.625"
       y1="16.566784"
       x2="11.03125"
       y2="18.828125" />
    <linearGradient
       inkscape:collect="always"
       xlink:href="#linearGradient3712"
       id="linearGradient3155"
       gradientUnits="userSpaceOnUse"
       gradientTransform="matrix(-1.1342904,0,0,1.1342904,30.127754,1020.0252)"
       x1="6.625"
       y1="16.566784"
       x2="11.03125"
       y2="18.828125" />
    <linearGradient
       inkscape:collect="always"
       xlink:href="#linearGradient3925"
       id="linearGradient3931"
       x1="10.763651"
       y1="2.0522003"
       x2="10.763651"
       y2="16.734306"
       gradientUnits="userSpaceOnUse" />
    <filter
       inkscape:collect="always"
       id="filter3951">
      <feGaussianBlur
         inkscape:collect="always"
         stdDeviation="0.39574732"
         id="feGaussianBlur3953" />
    </filter>
    <radialGradient
       inkscape:collect="always"
       xlink:href="#linearGradient3965"
       id="radialGradient3971"
       cx="15.625"
       cy="30.125"
       fx="15.625"
       fy="30.125"
       r="9.375"
       gradientTransform="matrix(1,0,0,0.04,0,28.92)"
       gradientUnits="userSpaceOnUse" />
    <linearGradient
       inkscape:collect="always"
       xlink:href="#linearGradient3726-9"
       id="linearGradient3143-1"
       gradientUnits="userSpaceOnUse"
       gradientTransform="matrix(1.1342904,0,0,1.1342904,-6.2049837,1020.0252)"
       x1="16"
       y1="18.828125"
       x2="16"
       y2="26.53125" />
    <linearGradient
       id="linearGradient3726-9">
      <stop
         id="stop3728-3"
         offset="0"
         style="stop-color:#008dff;stop-opacity:0;" />
      <stop
         id="stop3730-8"
         offset="1"
         style="stop-color:#1cb8ff;stop-opacity:1;" />
    </linearGradient>
  </defs>
  <sodipodi:namedview
     id="base"
     pagecolor="#ffffff"
     bordercolor="#666666"
     borderopacity="1.0"
     inkscape:pageopacity="0.0"
     inkscape:pageshadow="2"
     inkscape:zoom="1.4142136"
     inkscape:cx="248.60135"
     inkscape:cy="-126.92965"
     inkscape:document-units="px"
     inkscape:current-layer="layer1-0"
     showgrid="false"
     inkscape:window-width="1366"
     inkscape:window-height="693"
     inkscape:window-x="0"
     inkscape:window-y="25"
     inkscape:window-maximized="1" />
  <metadata
     id="metadata7">
    <rdf:RDF>
      <cc:Work
         rdf:about="">
        <dc:format>image/svg+xml</dc:format>
        <dc:type
           rdf:resource="http://purl.org/dc/dcmitype/StillImage" />
        <dc:title />
      </cc:Work>
    </rdf:RDF>
  </metadata>
  <g
     inkscape:label="Layer 1"
     inkscape:groupmode="layer"
     id="layer1"
     transform="translate(0,-1020.3622)"
     style="display:inline">
    <g
       id="g2852">
      <g
         transform="translate(0.62178193,-0.21923911)"
         id="g3725">
        <g
           id="g3123"
           transform="translate(2.4748738,-0.16161164)">
          <path
             inkscape:connector-curvature="0"
             id="path3601"
             d="m 11.943662,1032.6441 c -6.1274761,0 -11.09477737,4.2373 -11.09477737,9.4643 0,2.7309 1.37568347,5.1846 3.54465727,6.9121 0.025109,0.01 0.045701,0.028 0.070893,0.035 2.2267735,0.6733 4.7669135,1.0634 7.4792271,1.0634 2.712314,0 5.252454,-0.3901 7.479227,-1.0634 0.02519,-0.01 0.04578,-0.028 0.07089,-0.035 2.168974,-1.7275 3.544657,-4.1812 3.544657,-6.9121 0,-5.227 -4.967301,-9.4643 -11.094777,-9.4643 z"
             style="fill:url(#linearGradient3141);fill-opacity:1;stroke:none" />
          <path
             inkscape:connector-curvature="0"
             style="fill:url(#linearGradient3143);fill-opacity:1;stroke:none"
             d="m 11.943662,1032.6441 c -6.1274761,0 -11.09477737,4.2373 -11.09477737,9.4643 0,2.7309 1.37568347,5.1846 3.54465727,6.9121 0.025109,0.01 0.045701,0.028 0.070893,0.035 2.2267735,0.6733 4.7669135,1.0634 7.4792271,1.0634 2.712314,0 5.252454,-0.3901 7.479227,-1.0634 0.02519,-0.01 0.04578,-0.028 0.07089,-0.035 2.168974,-1.7275 3.544657,-4.1812 3.544657,-6.9121 0,-5.227 -4.967301,-9.4643 -11.094777,-9.4643 z"
             id="path3724" />
          <path
             inkscape:connector-curvature="0"
             style="fill:none;stroke:#000000;stroke-width:0.21708502;stroke-miterlimit:4;stroke-opacity:1;stroke-dasharray:none;filter:url(#filter3817)"
             d="m 16,11.125 c -5.402035,0 -9.78125,3.735624 -9.78125,8.34375 0,2.407641 1.2128143,4.570823 3.125,6.09375 0.022136,0.0068 0.04029,0.02453 0.0625,0.03125 1.963142,0.593602 4.202551,0.9375 6.59375,0.9375 2.391199,0 4.630608,-0.343898 6.59375,-0.9375 0.02221,-0.0067 0.04036,-0.02447 0.0625,-0.03125 1.912186,-1.522927 3.125,-3.686109 3.125,-6.09375 C 25.78125,14.860624 21.402035,11.125 16,11.125 z"
             id="path3807"
             transform="matrix(1.0627941,0,0,1.0627941,-5.1673834,1021.4574)" />
          <path
             inkscape:connector-curvature="0"
             id="path3738"
             transform="matrix(1.1342904,0,0,1.1342904,-6.2049837,1020.0252)"
             d="m 16,11.125 c -1.315355,0 -2.573132,0.223373 -3.71875,0.625 1.106191,1.720303 3.021525,2.875 5.21875,2.875 1.71726,0 3.280878,-0.687128 4.40625,-1.8125 C 20.265436,11.751193 18.21797,11.125 16,11.125 z"
             style="fill:url(#radialGradient3145);fill-opacity:1;stroke:none;filter:url(#filter3769)" />
          <path
             transform="matrix(0.78886861,0,0,0.78886861,-1.2945391,1017.8564)"
             d="m 24.375,13.21875 c 0,4.193912 -3.399838,7.59375 -7.59375,7.59375 -4.193912,0 -7.59375,-3.399838 -7.59375,-7.59375 0,-4.1939123 3.399838,-7.59375 7.59375,-7.59375 4.193912,0 7.59375,3.3998377 7.59375,7.59375 z"
             sodipodi:ry="7.59375"
             sodipodi:rx="7.59375"
             sodipodi:cy="13.21875"
             sodipodi:cx="16.78125"
             id="path2827"
             style="fill:url(#linearGradient3147);fill-opacity:1;stroke:none"
             sodipodi:type="arc" />
          <path
             transform="matrix(0.72733365,0,0,0.72733365,-0.26190567,1018.6698)"
             d="m 24.375,13.21875 c 0,4.193912 -3.399838,7.59375 -7.59375,7.59375 -4.193912,0 -7.59375,-3.399838 -7.59375,-7.59375 0,-4.1939123 3.399838,-7.59375 7.59375,-7.59375 4.193912,0 7.59375,3.3998377 7.59375,7.59375 z"
             sodipodi:ry="7.59375"
             sodipodi:rx="7.59375"
             sodipodi:cy="13.21875"
             sodipodi:cx="16.78125"
             id="path3783"
             style="fill:none;stroke:#000000;stroke-width:0.31190372;stroke-miterlimit:4;stroke-opacity:1;stroke-dasharray:none;filter:url(#filter3797)"
             sodipodi:type="arc" />
          <path
             inkscape:connector-curvature="0"
             sodipodi:nodetypes="ccc"
             id="path3615"
             d="m 4.1215956,1047.7504 c -1.2250545,-3.8693 0.686532,-8.5323 2.1806133,-10.6524 -2.631278,2.8388 -4.1934792,7.3559 -2.1806133,10.6524 z"
             style="fill:#ffffff;fill-opacity:1;stroke:none" />
          <path
             inkscape:connector-curvature="0"
             style="fill:#ffffff;fill-opacity:1;stroke:none"
             d="m 19.772939,1047.7504 c 1.225055,-3.8693 -0.686532,-8.5323 -2.180613,-10.6525 2.631278,2.8389 4.193479,7.356 2.180613,10.6525 z"
             id="path3619"
             sodipodi:nodetypes="ccc" />
          <path
             inkscape:connector-curvature="0"
             id="path3645"
             d="m 11.943662,1022.7545 c -3.0539496,0 -5.5296653,2.4758 -5.5296653,5.5297 0,1.6171 0.7012547,3.0652 1.8077757,4.0764 -0.151705,-0.5218 -0.21268,-1.0993 -0.21268,-1.666 0,-3.4357 2.9578966,-6.2032 6.6285086,-6.2032 0.483117,0 0.964025,0.05 1.417863,0.1418 -1.012914,-1.14 -2.466872,-1.8787 -4.111802,-1.8787 z"
             style="fill:url(#linearGradient3149);fill-opacity:1;stroke:none" />
          <path
             sodipodi:type="arc"
             style="fill:url(#linearGradient3151);fill-opacity:1;stroke:none"
             id="path3779"
             sodipodi:cx="16.78125"
             sodipodi:cy="13.21875"
             sodipodi:rx="7.59375"
             sodipodi:ry="7.59375"
             d="m 24.375,13.21875 c 0,4.193912 -3.399838,7.59375 -7.59375,7.59375 -4.193912,0 -7.59375,-3.399838 -7.59375,-7.59375 0,-4.1939123 3.399838,-7.59375 7.59375,-7.59375 4.193912,0 7.59375,3.3998377 7.59375,7.59375 z"
             transform="matrix(0.78886861,0,0,0.78886861,-1.2945391,1017.8564)" />
          <path
             inkscape:connector-curvature="0"
             id="path3801"
             d="m 11.943662,1032.6441 c -6.1274761,0 -11.09477737,4.2373 -11.09477737,9.4643 0,2.7309 1.37568347,5.1846 3.54465727,6.9121 0.025109,0.01 0.045701,0.028 0.070893,0.035 2.2267735,0.6733 4.7669135,1.0634 7.4792271,1.0634 2.712314,0 5.252454,-0.3901 7.479227,-1.0634 0.02519,-0.01 0.04578,-0.028 0.07089,-0.035 2.168974,-1.7275 3.544657,-4.1812 3.544657,-6.9121 0,-5.227 -4.967301,-9.4643 -11.094777,-9.4643 z"
             style="fill:none;stroke:#000000;stroke-width:0;stroke-miterlimit:4;stroke-opacity:1;stroke-dasharray:none" />
          <path
             inkscape:connector-curvature="0"
             sodipodi:nodetypes="csccc"
             id="path3697"
             d="m 5.7759583,1034.8064 c -2.6855465,1.5914 -4.4662683,4.2658 -4.4662683,7.2665 0,2.2752 1.0617386,4.3252 2.7293862,5.8842 l 2.2685807,0 c -6.09196577,-5.8858 -2.4605373,-9.302 -0.5316986,-13.1507 z"
             style="opacity:0.5;fill:url(#linearGradient3153);fill-opacity:1;stroke:none" />
          <path
             inkscape:connector-curvature="0"
             style="opacity:0.5;fill:url(#linearGradient3155);fill-opacity:1;stroke:none"
             d="m 18.146812,1034.8064 c 2.685547,1.5914 4.466268,4.2658 4.466268,7.2665 0,2.2752 -1.061738,4.3252 -2.729386,5.8842 l -2.26858,0 c 6.091966,-5.8858 2.460537,-9.302 0.531698,-13.1507 z"
             id="path3720"
             sodipodi:nodetypes="csccc" />
        </g>
        <g
           transform="translate(12.088179,1033.8062)"
           id="layer1-0"
           inkscape:label="Layer 1">
          <path
             style="fill:#ffffff;fill-opacity:1;stroke:none;"
             d="M 21.15625 13.84375 A 0.59878537 0.59878537 0 0 0 20.96875 13.96875 C 20.974164 13.964689 20.901137 14.004434 20.90625 14 C 20.911363 13.995566 20.838964 14.036035 20.84375 14.03125 C 20.845664 14.029336 20.853005 14.052535 20.84375 14.0625 C 20.848849 14.058076 20.807727 14.098523 20.8125 14.09375 C 20.815827 14.09049 20.778086 14.128419 20.78125 14.125 C 20.782832 14.123291 20.789372 14.147031 20.78125 14.15625 C 20.773128 14.165469 20.748503 14.158035 20.75 14.15625 C 20.752993 14.152681 20.715935 14.222461 20.71875 14.21875 C 20.721565 14.215039 20.684869 14.253844 20.6875 14.25 C 20.690131 14.246156 20.65381 14.285218 20.65625 14.28125 C 20.65869 14.277282 20.622757 14.316582 20.625 14.3125 C 20.627243 14.308418 20.622958 14.347937 20.625 14.34375 C 20.627042 14.339563 20.591915 14.410531 20.59375 14.40625 C 20.595585 14.401969 20.592126 14.441866 20.59375 14.4375 C 20.595374 14.433134 20.561091 14.47319 20.5625 14.46875 C 20.563909 14.46431 20.56131 14.535753 20.5625 14.53125 C 20.56369 14.526747 20.530281 14.567056 20.53125 14.5625 C 20.532219 14.557944 20.530504 14.598348 20.53125 14.59375 C 20.531996 14.589152 20.53073 14.660879 20.53125 14.65625 C 20.53177 14.651621 20.530956 14.692149 20.53125 14.6875 C 20.531544 14.682851 20.531184 14.754657 20.53125 14.75 L 20.53125 19.53125 L 15.78125 19.53125 C 15.785086 19.53125 15.746167 19.531404 15.75 19.53125 C 15.753833 19.531096 15.714926 19.531558 15.71875 19.53125 C 15.722574 19.530942 15.652442 19.531712 15.65625 19.53125 C 15.660058 19.530788 15.621213 19.531865 15.625 19.53125 C 15.628787 19.530635 15.589991 19.532016 15.59375 19.53125 C 15.597509 19.530484 15.558775 19.563417 15.5625 19.5625 C 15.566225 19.561583 15.527565 19.563566 15.53125 19.5625 C 15.534935 19.561434 15.496361 19.563713 15.5 19.5625 C 15.50364 19.561287 15.465162 19.595109 15.46875 19.59375 C 15.472338 19.592391 15.43397 19.595252 15.4375 19.59375 C 15.44103 19.592248 15.402783 19.626642 15.40625 19.625 C 15.409717 19.623358 15.340352 19.62678 15.34375 19.625 C 15.347148 19.62322 15.309176 19.658166 15.3125 19.65625 C 15.315824 19.654334 15.278006 19.658298 15.28125 19.65625 C 15.284494 19.654202 15.246841 19.689677 15.25 19.6875 C 15.253159 19.685323 15.246931 19.721052 15.25 19.71875 A 0.59878537 0.59878537 0 0 0 15.1875 19.75 C 15.192599 19.745576 15.151477 19.786023 15.15625 19.78125 C 15.161023 19.776477 15.120576 19.817599 15.125 19.8125 C 15.128164 19.809081 15.090757 19.847319 15.09375 19.84375 C 15.096743 19.840181 15.059685 19.909961 15.0625 19.90625 C 15.065315 19.902539 15.028619 19.941344 15.03125 19.9375 C 15.033881 19.933656 14.99756 19.972718 15 19.96875 C 15.00244 19.964782 14.966507 20.004082 14.96875 20 C 14.970994 19.995918 14.966708 20.035437 14.96875 20.03125 C 14.970792 20.027063 14.935665 20.098031 14.9375 20.09375 C 14.939335 20.089469 14.935876 20.129366 14.9375 20.125 C 14.939124 20.120634 14.904841 20.16069 14.90625 20.15625 C 14.907659 20.15181 14.90506 20.223253 14.90625 20.21875 C 14.90744 20.214247 14.874031 20.254556 14.875 20.25 C 14.875969 20.245444 14.874254 20.285848 14.875 20.28125 C 14.875746 20.276652 14.87448 20.348379 14.875 20.34375 C 14.87552 20.339121 14.874706 20.379649 14.875 20.375 C 14.875294 20.370351 14.874934 20.442157 14.875 20.4375 L 14.875 24.25 C 14.875 24.246164 14.875154 24.285083 14.875 24.28125 C 14.874846 24.277417 14.875308 24.316324 14.875 24.3125 C 14.874692 24.308676 14.875462 24.378808 14.875 24.375 C 14.874538 24.371192 14.875615 24.410037 14.875 24.40625 C 14.874385 24.402463 14.875766 24.441259 14.875 24.4375 C 14.874234 24.433741 14.907167 24.472475 14.90625 24.46875 C 14.905333 24.465025 14.907316 24.503685 14.90625 24.5 C 14.905184 24.496315 14.907463 24.53489 14.90625 24.53125 C 14.905037 24.52761 14.938858 24.566088 14.9375 24.5625 C 14.936141 24.558912 14.939002 24.59728 14.9375 24.59375 C 14.935998 24.59022 14.970392 24.628467 14.96875 24.625 C 14.967108 24.621533 14.97053 24.690898 14.96875 24.6875 C 14.96697 24.684102 15.001916 24.722074 15 24.71875 C 14.998084 24.715426 15.002048 24.753244 15 24.75 C 14.997952 24.746756 15.033426 24.784409 15.03125 24.78125 C 15.029073 24.778091 15.064802 24.784319 15.0625 24.78125 A 0.59878537 0.59878537 0 0 0 15.09375 24.84375 C 15.089326 24.838651 15.129773 24.879773 15.125 24.875 C 15.12174 24.871673 15.159669 24.909414 15.15625 24.90625 C 15.152831 24.903086 15.191069 24.940493 15.1875 24.9375 C 15.183931 24.934507 15.253711 24.971565 15.25 24.96875 C 15.246289 24.965935 15.285094 25.002631 15.28125 25 C 15.277406 24.997369 15.316468 25.03369 15.3125 25.03125 C 15.308532 25.02881 15.347832 25.064744 15.34375 25.0625 C 15.339668 25.060256 15.379187 25.064542 15.375 25.0625 C 15.370813 25.060458 15.441781 25.095585 15.4375 25.09375 C 15.433219 25.091915 15.473116 25.095374 15.46875 25.09375 C 15.464384 25.092126 15.50444 25.126409 15.5 25.125 C 15.49556 25.123591 15.567003 25.12619 15.5625 25.125 C 15.557997 25.12381 15.598306 25.157219 15.59375 25.15625 C 15.589194 25.155281 15.629598 25.156996 15.625 25.15625 C 15.620402 25.155504 15.692129 25.15677 15.6875 25.15625 C 15.682871 25.15573 15.723399 25.156544 15.71875 25.15625 C 15.714101 25.155956 15.785907 25.156317 15.78125 25.15625 L 20.53125 25.15625 L 20.53125 28.84375 C 21.222364 28.699223 21.8889 28.506725 22.53125 28.3125 C 22.55644 28.3025 22.56864 28.28825 22.59375 28.28125 C 24.762725 26.55375 26.15625 24.1059 26.15625 21.375 C 26.15625 18.301313 24.411162 15.572613 21.75 13.84375 L 21.53125 13.84375 L 21.46875 13.84375 C 21.47233 13.84402 21.456426 13.844463 21.4375 13.84375 C 21.418574 13.843037 21.402659 13.84375 21.40625 13.84375 C 21.408644 13.84375 21.385948 13.843308 21.375 13.84375 C 21.364052 13.844192 21.354701 13.843368 21.34375 13.84375 C 21.346136 13.84375 21.325082 13.843435 21.3125 13.84375 C 21.31608 13.84348 21.300068 13.841616 21.28125 13.84375 A 0.59878537 0.59878537 0 0 0 21.25 13.84375 A 0.59878537 0.59878537 0 0 0 21.15625 13.84375 z "
             transform="translate(-12.709961,-13.224761)"
             id="path3975" />
          <path
             style="fill:url(#linearGradient3931);fill-opacity:1;stroke:none"
             id="rect2425"
             d="m 8.7161371,1.5210486 0,5.7016645 -5.6422722,0 0,3.8011099 5.6422722,0 0,5.701664 3.8011089,0 0,-5.701664 5.761057,0 0,-3.8011099 -5.761057,0 0,-5.7016645 -3.8011089,0 z"
             inkscape:connector-curvature="0" />
          <path
             transform="matrix(1.9005548,0,0,1.9005548,-8.3888565,-6.1405633)"
             d="m 9.0625,4.09375 0,2.9375 a 0.06713731,0.06713731 0 0 1 0,0.03125 0.06713731,0.06713731 0 0 1 -0.03125,0.03125 0.06713731,0.06713731 0 0 1 -0.03125,0 l -2.90625,0 0,1.875 2.90625,0 a 0.06713731,0.06713731 0 0 1 0.03125,0 A 0.06713731,0.06713731 0 0 1 9.0625,9 a 0.06713731,0.06713731 0 0 1 0,0.03125 l 0,2.9375 1.875,0 0,-2.9375 a 0.06713731,0.06713731 0 0 1 0,-0.03125 0.06713731,0.06713731 0 0 1 0.03125,-0.03125 0.06713731,0.06713731 0 0 1 0.03125,0 l 2.96875,0 0,-1.875 -2.96875,0 a 0.06713731,0.06713731 0 0 1 -0.03125,0 0.06713731,0.06713731 0 0 1 -0.03125,-0.03125 0.06713731,0.06713731 0 0 1 0,-0.03125 l 0,-2.9375 -1.875,0 z"
             id="path3617"
             style="opacity:0.2;fill:none;stroke:#000000;stroke-width:0.33333334;stroke-miterlimit:4;stroke-opacity:1;stroke-dasharray:none;filter:url(#filter3690)"
             inkscape:original="M 9 4.03125 L 9 7.03125 L 6.03125 7.03125 L 6.03125 9.03125 L 9 9.03125 L 9 12.03125 L 11 12.03125 L 11 9.03125 L 14.03125 9.03125 L 14.03125 7.03125 L 11 7.03125 L 11 4.03125 L 9 4.03125 z "
             inkscape:radius="-0.067130595"
             sodipodi:type="inkscape:offset" />
          <path
             id="path3635"
             d="m 9.4966805,2.3178445 0,4.8906867 A 0.80749379,0.80749379 0 0 1 8.7019438,8.0032679 l -4.8295532,0 0,0.8864371 c 1.9797002,0.6392558 4.3909532,1.0087048 6.9997944,1.0087048 2.43651,0 4.700568,-0.322399 6.602427,-0.886438 l 0,-1.0087039 -4.95182,0 A 0.80749379,0.80749379 0 0 1 11.728056,7.2085312 l 0,-4.8906867 -2.2313755,0 z"
             style="fill:url(#linearGradient3694);fill-opacity:1;stroke:none"
             inkscape:connector-curvature="0" />
        </g>
        <path
           sodipodi:type="arc"
           style="opacity:0.49637685;fill:url(#radialGradient3971);fill-opacity:1;stroke:none"
           id="path3955"
           sodipodi:cx="15.625"
           sodipodi:cy="30.125"
           sodipodi:rx="9.375"
           sodipodi:ry="0.375"
           d="m 25,30.125 a 9.375,0.375 0 1 1 -18.75,0 9.375,0.375 0 1 1 18.75,0 z"
           transform="matrix(1.2528833,0,0,2.0496496,-4.1980835,989.66782)" />
      </g>
    </g>
  </g>
</svg>
