<?xml version="1.0" encoding="UTF-8" standalone="no"?>
<!-- Created with Inkscape (http://www.inkscape.org/) -->

<svg
   xmlns:dc="http://purl.org/dc/elements/1.1/"
   xmlns:cc="http://creativecommons.org/ns#"
   xmlns:rdf="http://www.w3.org/1999/02/22-rdf-syntax-ns#"
   xmlns:svg="http://www.w3.org/2000/svg"
   xmlns="http://www.w3.org/2000/svg"
   xmlns:xlink="http://www.w3.org/1999/xlink"
   xmlns:sodipodi="http://sodipodi.sourceforge.net/DTD/sodipodi-0.dtd"
   xmlns:inkscape="http://www.inkscape.org/namespaces/inkscape"
   width="22"
   height="22"
   id="svg2"
   sodipodi:version="0.32"
   inkscape:version="0.47 r22583"
   sodipodi:docname="options.svg"
   inkscape:output_extension="org.inkscape.output.svg.inkscape"
   version="1.0">
  <defs
     id="defs4">
    <linearGradient
       inkscape:collect="always"
       id="linearGradient3647">
      <stop
         style="stop-color:#ffffff;stop-opacity:1;"
         offset="0"
         id="stop3649" />
      <stop
         style="stop-color:#ffffff;stop-opacity:0;"
         offset="1"
         id="stop3651" />
    </linearGradient>
    <linearGradient
       id="linearGradient3620">
      <stop
         style="stop-color:#072232;stop-opacity:1;"
         offset="0"
         id="stop3622" />
      <stop
         style="stop-color:#35a3e2;stop-opacity:1;"
         offset="1"
         id="stop3624" />
    </linearGradient>
    <inkscape:perspective
       sodipodi:type="inkscape:persp3d"
       inkscape:vp_x="0 : 526.18109 : 1"
       inkscape:vp_y="0 : 1000 : 0"
       inkscape:vp_z="744.09448 : 526.18109 : 1"
       inkscape:persp3d-origin="372.04724 : 350.78739 : 1"
       id="perspective10" />
    <inkscape:perspective
       id="perspective2464"
       inkscape:persp3d-origin="372.04724 : 350.78739 : 1"
       inkscape:vp_z="744.09448 : 526.18109 : 1"
       inkscape:vp_y="0 : 1000 : 0"
       inkscape:vp_x="0 : 526.18109 : 1"
       sodipodi:type="inkscape:persp3d" />
    <inkscape:perspective
       id="perspective2517"
       inkscape:persp3d-origin="372.04724 : 350.78739 : 1"
       inkscape:vp_z="744.09448 : 526.18109 : 1"
       inkscape:vp_y="0 : 1000 : 0"
       inkscape:vp_x="0 : 526.18109 : 1"
       sodipodi:type="inkscape:persp3d" />
    <filter
       id="filter4280"
       inkscape:label="Drop shadow"
       width="1.5"
       height="1.5"
       x="-.25"
       y="-.25">
      <feGaussianBlur
         id="feGaussianBlur4282"
         in="SourceAlpha"
         stdDeviation="0.500000"
         result="blur" />
      <feColorMatrix
         id="feColorMatrix4284"
         result="bluralpha"
         type="matrix"
         values="1 0 0 0 0 0 1 0 0 0 0 0 1 0 0 0 0 0 0.750000 0 " />
      <feOffset
         id="feOffset4286"
         in="bluralpha"
         dx="1.000000"
         dy="1.000000"
         result="offsetBlur" />
      <feMerge
         id="feMerge4288">
        <feMergeNode
           id="feMergeNode4290"
           in="offsetBlur" />
        <feMergeNode
           id="feMergeNode4292"
           in="SourceGraphic" />
      </feMerge>
    </filter>
    <filter
       id="filter3718"
       inkscape:label="Drop shadow"
       width="1.5"
       height="1.5"
       x="-.25"
       y="-.25">
      <feGaussianBlur
         id="feGaussianBlur3720"
         in="SourceAlpha"
         stdDeviation="0.500000"
         result="blur" />
      <feColorMatrix
         id="feColorMatrix3722"
         result="bluralpha"
         type="matrix"
         values="1 0 0 0 0 0 1 0 0 0 0 0 1 0 0 0 0 0 0.750000 0 " />
      <feOffset
         id="feOffset3724"
         in="bluralpha"
         dx="1.000000"
         dy="1.000000"
         result="offsetBlur" />
      <feMerge
         id="feMerge3726">
        <feMergeNode
           id="feMergeNode3728"
           in="offsetBlur" />
        <feMergeNode
           id="feMergeNode3730"
           in="SourceGraphic" />
      </feMerge>
    </filter>
    <filter
       id="filter3606"
       inkscape:label="Drop shadow"
       width="1.5"
       height="1.5"
       x="-.25"
       y="-.25">
      <feGaussianBlur
         id="feGaussianBlur3608"
         in="SourceAlpha"
         stdDeviation="0.500000"
         result="blur" />
      <feColorMatrix
         id="feColorMatrix3610"
         result="bluralpha"
         type="matrix"
         values="1 0 0 0 0 0 1 0 0 0 0 0 1 0 0 0 0 0 0.750000 0 " />
      <feOffset
         id="feOffset3612"
         in="bluralpha"
         dx="1.000000"
         dy="1.000000"
         result="offsetBlur" />
      <feMerge
         id="feMerge3614">
        <feMergeNode
           id="feMergeNode3616"
           in="offsetBlur" />
        <feMergeNode
           id="feMergeNode3618"
           in="SourceGraphic" />
      </feMerge>
    </filter>
    <filter
       id="filter4066"
       inkscape:label="Drop shadow"
       width="1.5"
       height="1.5"
       x="-.25"
       y="-.25">
      <feGaussianBlur
         id="feGaussianBlur4068"
         in="SourceAlpha"
         stdDeviation="0.500000"
         result="blur" />
      <feColorMatrix
         id="feColorMatrix4070"
         result="bluralpha"
         type="matrix"
         values="1 0 0 0 0 0 1 0 0 0 0 0 1 0 0 0 0 0 0.750000 0 " />
      <feOffset
         id="feOffset4072"
         in="bluralpha"
         dx="1.000000"
         dy="1.000000"
         result="offsetBlur" />
      <feMerge
         id="feMerge4074">
        <feMergeNode
           id="feMergeNode4076"
           in="offsetBlur" />
        <feMergeNode
           id="feMergeNode4078"
           in="SourceGraphic" />
      </feMerge>
    </filter>
    <filter
       inkscape:collect="always"
       id="filter3627">
      <feGaussianBlur
         inkscape:collect="always"
         stdDeviation="0.39717887"
         id="feGaussianBlur3629" />
    </filter>
    <linearGradient
       inkscape:collect="always"
       xlink:href="#linearGradient3647"
       id="linearGradient3653"
       x1="10.809324"
       y1="1.6561646"
       x2="6.9116125"
       y2="11.636872"
       gradientUnits="userSpaceOnUse"
       gradientTransform="matrix(1.0839772,-0.08510488,-0.08510488,1.0839772,-0.20441894,-1.8794116)" />
    <filter
       inkscape:collect="always"
       id="filter3696"
       x="-0.17455322"
       width="1.3491064"
       y="-0.18571979"
       height="1.3714396">
      <feGaussianBlur
         inkscape:collect="always"
         stdDeviation="0.41445838"
         id="feGaussianBlur3698" />
    </filter>
    <filter
       inkscape:collect="always"
       id="filter3708">
      <feGaussianBlur
         inkscape:collect="always"
         stdDeviation="0.38520248"
         id="feGaussianBlur3710" />
    </filter>
  </defs>
  <sodipodi:namedview
     id="base"
     pagecolor="#ffffff"
     bordercolor="#666666"
     borderopacity="1.0"
     gridtolerance="10000"
     guidetolerance="10"
     objecttolerance="10"
     inkscape:pageopacity="0.0"
     inkscape:pageshadow="2"
     inkscape:zoom="22.954545"
     inkscape:cx="8.8258698"
     inkscape:cy="11.203952"
     inkscape:document-units="px"
     inkscape:current-layer="layer1"
     showgrid="false"
     inkscape:window-width="1280"
     inkscape:window-height="752"
     inkscape:window-x="0"
     inkscape:window-y="25"
     inkscape:window-maximized="1"
     inkscape:snap-global="false">
    <inkscape:grid
       type="xygrid"
       id="grid3773" />
  </sodipodi:namedview>
  <metadata
     id="metadata7">
    <rdf:RDF>
      <cc:Work
         rdf:about="">
        <dc:format>image/svg+xml</dc:format>
        <dc:type
           rdf:resource="http://purl.org/dc/dcmitype/StillImage" />
        <dc:title />
      </cc:Work>
    </rdf:RDF>
  </metadata>
  <g
     inkscape:label="Layer 1"
     inkscape:groupmode="layer"
     id="layer1"
     transform="translate(0,2)">
    <path
       style="fill:#646464;fill-opacity:1;stroke:none;filter:url(#filter3627)"
       id="path3621"
       d="M 9.8706908,2.4138085 C 8.5532181,1.0963356 6.5651301,0.91234685 5.0314291,1.8171871 l 2.010835,2.0108349 c 0.391737,0.3917372 0.391737,1.0224764 0,1.4142136 -0.391738,0.3917372 -1.022477,0.3917372 -1.414214,0 L 3.6172151,3.2314007 c -0.90484,1.533701 -0.720851,3.5217893 0.596621,4.839262 1.045959,1.0459584 2.511378,1.3712257 3.844894,1.016466 l 7.4688159,7.4688153 c 0.783473,0.783474 2.044952,0.783474 2.828426,0 0.783474,-0.783474 0.783474,-2.044953 0,-2.828427 L 10.887157,6.2587016 C 11.241917,4.9251857 10.916649,3.4597668 9.8706908,2.4138085 z M 17.648865,15.141731 c 0.195262,0.195261 0.195262,0.511844 0,0.707106 -0.195262,0.195262 -0.511845,0.195262 -0.707107,0 -0.195262,-0.195262 -0.195262,-0.511845 0,-0.707106 0.195262,-0.195263 0.511845,-0.195262 0.707107,0 z"
       transform="matrix(1.0839772,-0.08510488,-0.08510488,1.0839772,-0.37462824,0.28854242)" />
    <path
       d="M 10.136567,1.8482475 C 8.8205799,0.53226045 6.6811961,0.50201686 4.9416929,1.6133684 L 6.9502602,3.6219357 C 7.3415555,4.0132311 7.2878765,4.696938 6.8299037,5.1549109 6.37193,5.6128839 5.6882235,5.6665628 5.2969281,5.2752673 L 3.2883608,3.2667001 C 2.1770093,5.0062035 2.2072533,7.1455873 3.5232399,8.4615739 4.5680191,9.5063531 6.1288177,9.7342214 7.6045105,9.2361812 l 7.4603935,7.4603918 c 0.782589,0.782591 2.150004,0.675233 3.065949,-0.240712 0.915946,-0.915946 1.023303,-2.28336 0.240713,-3.065951 L 10.911174,5.9295178 c 0.49804,-1.4756927 0.270171,-3.0364914 -0.774607,-4.0812703 z m 7.348155,13.1348175 c 0.195042,0.19504 0.168099,0.538209 -0.06018,0.766486 -0.228277,0.228277 -0.571445,0.25522 -0.766487,0.06018 -0.195041,-0.195041 -0.168099,-0.53821 0.06018,-0.766487 0.228278,-0.228278 0.571446,-0.255219 0.766488,-0.06018 z"
       id="rect2839"
       style="fill:#5ebec1;fill-opacity:1;stroke:none" />
    <path
       style="fill:url(#linearGradient3653);fill-opacity:1;stroke:none"
       d="M 7.0935329,1.2171514 C 6.566312,1.2840661 6.0510599,1.4534962 5.5399352,1.7094474 L 7.1943174,3.3638297 C 7.7011994,3.8707121 7.6306609,4.7691565 7.0374052,5.3624125 6.4441486,5.9556681 5.5457046,6.0262068 5.0388224,5.5193247 L 3.3844402,3.8649424 C 3.0309482,4.5664127 2.8574724,5.317011 2.8781474,6.0256175 5.7623422,5.924507 8.9489105,6.7403992 11.839298,8.5202832 c 2.631737,1.6206108 4.572989,3.7785078 5.685706,6.0510448 0.08219,0.03693 0.160777,0.08771 0.223822,0.150755 0.198287,0.198285 0.251712,0.476492 0.175951,0.760492 0.06199,0.160778 0.109799,0.330871 0.163352,0.492157 0.588433,-0.759701 0.618288,-1.719877 0.01414,-2.324028 L 10.641938,6.1903759 a 0.30849728,0.36106581 45 0 1 -0.03121,-0.031214 0.30849728,0.36106581 45 0 1 -0.04381,-0.2995501 C 11.02861,4.4915978 10.849543,3.0734031 9.8850828,2.1089431 9.2781817,1.5020418 8.482767,1.2052259 7.6355214,1.174599 7.4620749,1.168329 7.2692732,1.1948466 7.0935329,1.2171514 z"
       id="path3644" />
    <path
       style="fill:#8cd7d7;fill-opacity:1;stroke:none;filter:url(#filter3696)"
       d="M 10.672949,9.7210535 10.16256,10.066864 15.875739,15.784517 16.48711,15.389718 10.672949,9.7210535 z"
       id="path3655"
       transform="matrix(1.4902431,-0.10465303,-0.13105119,1.5145462,-5.4657131,-5.3664179)"
       sodipodi:nodetypes="ccccc" />
    <path
       sodipodi:type="inkscape:offset"
       inkscape:radius="-0.22216883"
       inkscape:original="M 7.53125 1.09375 C 6.6778313 0.99617373 5.7981005 1.1725799 5.03125 1.625 L 7.03125 3.625 C 7.422987 4.0167372 7.422987 4.6395128 7.03125 5.03125 C 6.639512 5.4229872 6.016737 5.4229872 5.625 5.03125 L 3.625 3.03125 C 2.72016 4.564951 2.901278 6.5575273 4.21875 7.875 C 5.264709 8.9209584 6.728984 9.2297597 8.0625 8.875 L 15.53125 16.34375 C 16.314723 17.127224 17.560276 17.127224 18.34375 16.34375 C 19.127224 15.560276 19.127224 14.314724 18.34375 13.53125 L 10.875 6.0625 C 11.22976 4.7289841 10.920958 3.2647083 9.875 2.21875 C 9.2162637 1.5600136 8.3846687 1.1913263 7.53125 1.09375 z M 16.9375 14.9375 C 17.132762 14.742237 17.460988 14.742238 17.65625 14.9375 C 17.851512 15.132761 17.851512 15.460988 17.65625 15.65625 C 17.460988 15.851512 17.132762 15.851512 16.9375 15.65625 C 16.742238 15.460988 16.742238 15.132761 16.9375 14.9375 z "
       style="opacity:0.3;fill:none;stroke:#000000;stroke-width:0.30000001;stroke-miterlimit:4;stroke-opacity:1;stroke-dasharray:none;filter:url(#filter3708)"
       id="path3702"
       d="M 7.5,1.3125 C 6.792619,1.2316211 6.0943798,1.3998273 5.4375,1.71875 l 1.75,1.75 c 0.4749869,0.4749871 0.4749869,1.2437629 0,1.71875 -0.4749877,0.4749868 -1.2437632,0.4749871 -1.71875,0 l -1.75,-1.75 C 3.0339407,4.8441352 3.2059093,6.5496587 4.375,7.71875 5.3631105,8.7068599 6.7364873,8.9923865 8,8.65625 a 0.22219105,0.22219105 0 0 1 0.0625,0 0.22219105,0.22219105 0 0 1 0.0625,0 0.22219105,0.22219105 0 0 1 0.0625,0.03125 0.22219105,0.22219105 0 0 1 0.03125,0.03125 l 7.46875,7.46875 c 0.700223,0.700224 1.799776,0.700224 2.5,0 0.700224,-0.700224 0.700224,-1.799776 0,-2.5 L 10.71875,6.21875 a 0.22219105,0.22219105 0 0 1 -0.0625,-0.125 0.22219105,0.22219105 0 0 1 0,-0.09375 C 10.992387,4.7364875 10.706859,3.3631097 9.71875,2.375 9.0968122,1.7530621 8.3068499,1.4047518 7.5,1.3125 z m 9.78125,13.25 c 0.187415,0 0.389607,0.07711 0.53125,0.21875 0.283287,0.283286 0.283286,0.747964 0,1.03125 -0.283286,0.283286 -0.747964,0.283286 -1.03125,0 -0.283286,-0.283286 -0.283287,-0.747964 0,-1.03125 0.141643,-0.141644 0.312585,-0.21875 0.5,-0.21875 z"
       transform="matrix(1.0839772,-0.08510488,-0.08510488,1.0839772,-0.37462824,0.28854242)" />
  </g>
</svg>
