<?xml version="1.0" encoding="UTF-8" standalone="no"?>
<!-- Created with Inkscape (http://www.inkscape.org/) -->

<svg
   xmlns:dc="http://purl.org/dc/elements/1.1/"
   xmlns:cc="http://creativecommons.org/ns#"
   xmlns:rdf="http://www.w3.org/1999/02/22-rdf-syntax-ns#"
   xmlns:svg="http://www.w3.org/2000/svg"
   xmlns="http://www.w3.org/2000/svg"
   xmlns:xlink="http://www.w3.org/1999/xlink"
   xmlns:sodipodi="http://sodipodi.sourceforge.net/DTD/sodipodi-0.dtd"
   xmlns:inkscape="http://www.inkscape.org/namespaces/inkscape"
   width="32"
   height="32"
   id="svg2"
   version="1.1"
   inkscape:version="0.47 r22583"
   sodipodi:docname="peer.svg"
   inkscape:export-filename="C:\Documents and Settings\Propriétaire\Bureau\wiLink\fresh\peer.png"
   inkscape:export-xdpi="90"
   inkscape:export-ydpi="90">
  <defs
     id="defs4">
    <linearGradient
       id="linearGradient3740">
      <stop
         style="stop-color:#000000;stop-opacity:0.58823532;"
         offset="0"
         id="stop3742" />
      <stop
         style="stop-color:#000000;stop-opacity:0;"
         offset="1"
         id="stop3744" />
    </linearGradient>
    <linearGradient
       id="linearGradient3726">
      <stop
         id="stop3728"
         offset="0"
         style="stop-color:#008dff;stop-opacity:0;" />
      <stop
         id="stop3730"
         offset="1"
         style="stop-color:#1cb8ff;stop-opacity:1;" />
    </linearGradient>
    <linearGradient
       inkscape:collect="always"
       id="linearGradient3712">
      <stop
         style="stop-color:#ffffff;stop-opacity:1;"
         offset="0"
         id="stop3714" />
      <stop
         style="stop-color:#ffffff;stop-opacity:0;"
         offset="1"
         id="stop3716" />
    </linearGradient>
    <linearGradient
       id="linearGradient3679">
      <stop
         style="stop-color:#005aff;stop-opacity:1;"
         offset="0"
         id="stop3681" />
      <stop
         style="stop-color:#008dff;stop-opacity:1;"
         offset="1"
         id="stop3683" />
    </linearGradient>
    <linearGradient
       id="linearGradient3660">
      <stop
         id="stop3662"
         offset="0"
         style="stop-color:#ffffff;stop-opacity:0.502" />
      <stop
         id="stop3664"
         offset="1"
         style="stop-color:#ffffff;stop-opacity:0;" />
    </linearGradient>
    <linearGradient
       id="linearGradient3623">
      <stop
         style="stop-color:#000000;stop-opacity:0.58823532;"
         offset="0"
         id="stop3625" />
      <stop
         style="stop-color:#000000;stop-opacity:0;"
         offset="1"
         id="stop3627" />
    </linearGradient>
    <radialGradient
       inkscape:collect="always"
       xlink:href="#linearGradient3623"
       id="radialGradient3631"
       cx="16.152971"
       cy="27.82365"
       fx="16.152971"
       fy="27.82365"
       r="7.9328542"
       gradientTransform="matrix(1,0,0,0.14206128,0,23.870987)"
       gradientUnits="userSpaceOnUse" />
    <linearGradient
       inkscape:collect="always"
       xlink:href="#linearGradient3660"
       id="linearGradient3658"
       gradientUnits="userSpaceOnUse"
       gradientTransform="matrix(0.72818641,0,0,0.72818641,3.1709296,1017.6862)"
       x1="9.1875"
       y1="5.6249657"
       x2="13.893667"
       y2="16.488956" />
    <linearGradient
       inkscape:collect="always"
       xlink:href="#linearGradient3679"
       id="linearGradient3685"
       x1="9.1875"
       y1="10.736831"
       x2="24.375"
       y2="11.106878"
       gradientUnits="userSpaceOnUse" />
    <linearGradient
       inkscape:collect="always"
       xlink:href="#linearGradient3679"
       id="linearGradient3693"
       x1="6.21875"
       y1="18.828125"
       x2="25.78125"
       y2="18.828125"
       gradientUnits="userSpaceOnUse"
       gradientTransform="matrix(1.1342904,0,0,1.1342904,-2.7578381,1019.0529)" />
    <linearGradient
       inkscape:collect="always"
       xlink:href="#linearGradient3712"
       id="linearGradient3718"
       x1="6.625"
       y1="16.566784"
       x2="11.03125"
       y2="18.828125"
       gradientUnits="userSpaceOnUse"
       gradientTransform="matrix(1.1342904,0,0,1.1342904,-2.7578381,1019.0529)" />
    <linearGradient
       inkscape:collect="always"
       xlink:href="#linearGradient3712"
       id="linearGradient3722"
       gradientUnits="userSpaceOnUse"
       x1="6.625"
       y1="16.566784"
       x2="11.03125"
       y2="18.828125"
       gradientTransform="matrix(-1.1342904,0,0,1.1342904,33.5749,1019.0529)" />
    <linearGradient
       inkscape:collect="always"
       xlink:href="#linearGradient3726"
       id="linearGradient3732"
       gradientUnits="userSpaceOnUse"
       x1="16"
       y1="18.828125"
       x2="16"
       y2="26.53125"
       gradientTransform="matrix(1.1342904,0,0,1.1342904,-2.7578381,1019.0529)" />
    <radialGradient
       inkscape:collect="always"
       xlink:href="#linearGradient3740"
       id="radialGradient3763"
       cx="17.09375"
       cy="8.0625"
       fx="17.09375"
       fy="8.0625"
       r="4.8125"
       gradientTransform="matrix(1.1513049,0.45102401,-0.48660788,1.2421378,1.336908,-6.5994276)"
       gradientUnits="userSpaceOnUse" />
    <filter
       inkscape:collect="always"
       id="filter3769"
       x="-0.16363636"
       width="1.3272727"
       y="-0.45"
       height="1.9">
      <feGaussianBlur
         inkscape:collect="always"
         stdDeviation="0.65625"
         id="feGaussianBlur3771" />
    </filter>
    <linearGradient
       inkscape:collect="always"
       xlink:href="#linearGradient3726"
       id="linearGradient3781"
       gradientUnits="userSpaceOnUse"
       x1="16.78125"
       y1="13.21875"
       x2="16.78125"
       y2="20.8125" />
    <filter
       inkscape:collect="always"
       id="filter3797"
       x="-0.12"
       width="1.24"
       y="-0.12"
       height="1.24">
      <feGaussianBlur
         inkscape:collect="always"
         stdDeviation="0.759375"
         id="feGaussianBlur3799" />
    </filter>
    <filter
       inkscape:collect="always"
       id="filter3817">
      <feGaussianBlur
         inkscape:collect="always"
         stdDeviation="0.43710938"
         id="feGaussianBlur3819" />
    </filter>
  </defs>
  <sodipodi:namedview
     id="base"
     pagecolor="#ffffff"
     bordercolor="#666666"
     borderopacity="1.0"
     inkscape:pageopacity="0.0"
     inkscape:pageshadow="2"
     inkscape:zoom="0.70710678"
     inkscape:cx="-122.21546"
     inkscape:cy="184.3309"
     inkscape:document-units="px"
     inkscape:current-layer="g3725"
     showgrid="false"
     inkscape:window-width="1280"
     inkscape:window-height="968"
     inkscape:window-x="-4"
     inkscape:window-y="-4"
     inkscape:window-maximized="1" />
  <metadata
     id="metadata7">
    <rdf:RDF>
      <cc:Work
         rdf:about="">
        <dc:format>image/svg+xml</dc:format>
        <dc:type
           rdf:resource="http://purl.org/dc/dcmitype/StillImage" />
        <dc:title></dc:title>
      </cc:Work>
    </rdf:RDF>
  </metadata>
  <g
     inkscape:label="Layer 1"
     inkscape:groupmode="layer"
     id="layer1"
     transform="translate(0,-1020.3622)"
     style="display:inline">
    <g
       id="g2852">
      <g
         transform="translate(0.62178193,-0.21923911)"
         id="g3725">
        <path
           sodipodi:type="arc"
           style="fill:url(#radialGradient3631);fill-opacity:1;stroke:none"
           id="path3621"
           sodipodi:cx="16.152971"
           sodipodi:cy="27.82365"
           sodipodi:rx="7.9328542"
           sodipodi:ry="1.1269515"
           d="m 24.085825,27.82365 a 7.9328542,1.1269515 0 1 1 -15.8657079,0 7.9328542,1.1269515 0 1 1 15.8657079,0 z"
           transform="matrix(1.3732591,0,0,1,-6.8664967,1022.4564)" />
        <path
           style="fill:url(#linearGradient3693);fill-opacity:1;stroke:none"
           d="m 15.390808,1031.6718 c -6.1274765,0 -11.0947778,4.2373 -11.0947778,9.4643 0,2.7309 1.3756835,5.1846 3.5446573,6.9121 0.025109,0.01 0.045701,0.028 0.070893,0.035 2.2267735,0.6733 4.7669135,1.0634 7.4792275,1.0634 2.712314,0 5.252454,-0.3901 7.479227,-1.0634 0.02519,-0.01 0.04578,-0.028 0.07089,-0.035 2.168974,-1.7275 3.544657,-4.1812 3.544657,-6.9121 0,-5.227 -4.967301,-9.4643 -11.094777,-9.4643 z"
           id="path3601" />
        <path
           id="path3724"
           d="m 15.390808,1031.6718 c -6.1274765,0 -11.0947778,4.2373 -11.0947778,9.4643 0,2.7309 1.3756835,5.1846 3.5446573,6.9121 0.025109,0.01 0.045701,0.028 0.070893,0.035 2.2267735,0.6733 4.7669135,1.0634 7.4792275,1.0634 2.712314,0 5.252454,-0.3901 7.479227,-1.0634 0.02519,-0.01 0.04578,-0.028 0.07089,-0.035 2.168974,-1.7275 3.544657,-4.1812 3.544657,-6.9121 0,-5.227 -4.967301,-9.4643 -11.094777,-9.4643 z"
           style="fill:url(#linearGradient3732);fill-opacity:1;stroke:none" />
        <path
           transform="matrix(1.0627941,0,0,1.0627941,-1.7202378,1020.4851)"
           id="path3807"
           d="m 16,11.125 c -5.402035,0 -9.78125,3.735624 -9.78125,8.34375 0,2.407641 1.2128143,4.570823 3.125,6.09375 0.022136,0.0068 0.04029,0.02453 0.0625,0.03125 1.963142,0.593602 4.202551,0.9375 6.59375,0.9375 2.391199,0 4.630608,-0.343898 6.59375,-0.9375 0.02221,-0.0067 0.04036,-0.02447 0.0625,-0.03125 1.912186,-1.522927 3.125,-3.686109 3.125,-6.09375 C 25.78125,14.860624 21.402035,11.125 16,11.125 z"
           style="fill:none;stroke:#000000;stroke-width:0.21708502;stroke-miterlimit:4;stroke-opacity:1;stroke-dasharray:none;filter:url(#filter3817)" />
        <path
           style="fill:url(#radialGradient3763);fill-opacity:1;stroke:none;filter:url(#filter3769)"
           d="m 16,11.125 c -1.315355,0 -2.573132,0.223373 -3.71875,0.625 1.106191,1.720303 3.021525,2.875 5.21875,2.875 1.71726,0 3.280878,-0.687128 4.40625,-1.8125 C 20.265436,11.751193 18.21797,11.125 16,11.125 z"
           transform="matrix(1.1342904,0,0,1.1342904,-2.7578381,1019.0529)"
           id="path3738" />
        <path
           sodipodi:type="arc"
           style="fill:url(#linearGradient3685);fill-opacity:1;stroke:none"
           id="path2827"
           sodipodi:cx="16.78125"
           sodipodi:cy="13.21875"
           sodipodi:rx="7.59375"
           sodipodi:ry="7.59375"
           d="m 24.375,13.21875 a 7.59375,7.59375 0 1 1 -15.1875,0 7.59375,7.59375 0 1 1 15.1875,0 z"
           transform="matrix(0.78886861,0,0,0.78886861,2.1526065,1016.8841)" />
        <path
           sodipodi:type="arc"
           style="fill:none;stroke:#000000;stroke-width:0.31190372;stroke-miterlimit:4;stroke-opacity:1;stroke-dasharray:none;filter:url(#filter3797)"
           id="path3783"
           sodipodi:cx="16.78125"
           sodipodi:cy="13.21875"
           sodipodi:rx="7.59375"
           sodipodi:ry="7.59375"
           d="m 24.375,13.21875 a 7.59375,7.59375 0 1 1 -15.1875,0 7.59375,7.59375 0 1 1 15.1875,0 z"
           transform="matrix(0.72733365,0,0,0.72733365,3.1852399,1017.6975)" />
        <path
           style="fill:#ffffff;fill-opacity:1;stroke:none"
           d="m 7.5687412,1046.7781 c -1.2250545,-3.8693 0.686532,-8.5323 2.1806133,-10.6524 -2.631278,2.8388 -4.1934792,7.3559 -2.1806133,10.6524 z"
           id="path3615"
           sodipodi:nodetypes="ccc" />
        <path
           sodipodi:nodetypes="ccc"
           id="path3619"
           d="m 23.220085,1046.7781 c 1.225055,-3.8693 -0.686532,-8.5323 -2.180613,-10.6525 2.631278,2.8389 4.193479,7.356 2.180613,10.6525 z"
           style="fill:#ffffff;fill-opacity:1;stroke:none" />
        <path
           style="fill:url(#linearGradient3658);fill-opacity:1;stroke:none"
           d="m 15.390808,1021.7822 c -3.05395,0 -5.5296657,2.4758 -5.5296657,5.5297 0,1.6171 0.7012547,3.0652 1.8077757,4.0764 -0.151705,-0.5218 -0.21268,-1.0993 -0.21268,-1.666 0,-3.4357 2.957897,-6.2032 6.628509,-6.2032 0.483117,0 0.964025,0.05 1.417863,0.1418 -1.012914,-1.14 -2.466872,-1.8787 -4.111802,-1.8787 z"
           id="path3645" />
        <path
           transform="matrix(0.78886861,0,0,0.78886861,2.1526065,1016.8841)"
           d="m 24.375,13.21875 a 7.59375,7.59375 0 1 1 -15.1875,0 7.59375,7.59375 0 1 1 15.1875,0 z"
           sodipodi:ry="7.59375"
           sodipodi:rx="7.59375"
           sodipodi:cy="13.21875"
           sodipodi:cx="16.78125"
           id="path3779"
           style="fill:url(#linearGradient3781);fill-opacity:1;stroke:none"
           sodipodi:type="arc" />
        <path
           style="fill:none;stroke:#000000;stroke-width:0;stroke-miterlimit:4;stroke-opacity:1;stroke-dasharray:none"
           d="m 15.390808,1031.6718 c -6.1274765,0 -11.0947778,4.2373 -11.0947778,9.4643 0,2.7309 1.3756835,5.1846 3.5446573,6.9121 0.025109,0.01 0.045701,0.028 0.070893,0.035 2.2267735,0.6733 4.7669135,1.0634 7.4792275,1.0634 2.712314,0 5.252454,-0.3901 7.479227,-1.0634 0.02519,-0.01 0.04578,-0.028 0.07089,-0.035 2.168974,-1.7275 3.544657,-4.1812 3.544657,-6.9121 0,-5.227 -4.967301,-9.4643 -11.094777,-9.4643 z"
           id="path3801" />
        <path
           style="opacity:0.5;fill:url(#linearGradient3718);fill-opacity:1;stroke:none"
           d="m 9.2231039,1033.8341 c -2.6855465,1.5914 -4.4662683,4.2658 -4.4662683,7.2665 0,2.2752 1.0617386,4.3252 2.7293862,5.8842 l 2.2685807,0 c -6.0919658,-5.8858 -2.4605373,-9.302 -0.5316986,-13.1507 z"
           id="path3697"
           sodipodi:nodetypes="csccc" />
        <path
           sodipodi:nodetypes="csccc"
           id="path3720"
           d="m 21.593958,1033.8341 c 2.685547,1.5914 4.466268,4.2658 4.466268,7.2665 0,2.2752 -1.061738,4.3252 -2.729386,5.8842 l -2.26858,0 c 6.091966,-5.8858 2.460537,-9.302 0.531698,-13.1507 z"
           style="opacity:0.5;fill:url(#linearGradient3722);fill-opacity:1;stroke:none" />
      </g>
    </g>
  </g>
</svg>
