<?xml version="1.0" encoding="UTF-8" standalone="no"?>
<!-- Created with Inkscape (http://www.inkscape.org/) -->

<svg
   xmlns:dc="http://purl.org/dc/elements/1.1/"
   xmlns:cc="http://creativecommons.org/ns#"
   xmlns:rdf="http://www.w3.org/1999/02/22-rdf-syntax-ns#"
   xmlns:svg="http://www.w3.org/2000/svg"
   xmlns="http://www.w3.org/2000/svg"
   xmlns:xlink="http://www.w3.org/1999/xlink"
   xmlns:sodipodi="http://sodipodi.sourceforge.net/DTD/sodipodi-0.dtd"
   xmlns:inkscape="http://www.inkscape.org/namespaces/inkscape"
   sodipodi:docname="phone.svg"
   inkscape:version="0.48.1 r9760"
   version="1.1"
   id="svg2"
   height="22"
   width="22"
   style="display:inline">
  <defs
     id="defs4">
    <linearGradient
       id="linearGradient3974">
      <stop
         style="stop-color:#ffffff;stop-opacity:0;"
         offset="0"
         id="stop3976" />
      <stop
         id="stop3982"
         offset="0.5"
         style="stop-color:#ffffff;stop-opacity:0.49803922;" />
      <stop
         style="stop-color:#ffffff;stop-opacity:0;"
         offset="1"
         id="stop3978" />
    </linearGradient>
    <linearGradient
       id="linearGradient3920">
      <stop
         id="stop3922"
         offset="0"
         style="stop-color:#ffffff;stop-opacity:0.03921569;" />
      <stop
         id="stop3924"
         offset="1"
         style="stop-color:#ffffff;stop-opacity:0;" />
    </linearGradient>
    <linearGradient
       id="linearGradient3908">
      <stop
         style="stop-color:#ffffff;stop-opacity:0.19607843;"
         offset="0"
         id="stop3910" />
      <stop
         style="stop-color:#ffffff;stop-opacity:0;"
         offset="1"
         id="stop3912" />
    </linearGradient>
    <linearGradient
       id="linearGradient8277">
      <stop
         id="stop8279"
         offset="0"
         style="stop-color:#ff5a00;stop-opacity:1;" />
      <stop
         style="stop-color:#f3c413;stop-opacity:1;"
         offset="0.31849742"
         id="stop8285" />
      <stop
         style="stop-color:#ffc01b;stop-opacity:1;"
         offset="0.67473793"
         id="stop8283" />
      <stop
         id="stop8281"
         offset="1"
         style="stop-color:#e45a08;stop-opacity:1;" />
    </linearGradient>
    <linearGradient
       id="linearGradient8225">
      <stop
         style="stop-color:#ff5106;stop-opacity:1;"
         offset="0"
         id="stop8227" />
      <stop
         style="stop-color:#f1aa17;stop-opacity:1;"
         offset="1"
         id="stop8229" />
    </linearGradient>
    <linearGradient
       id="linearGradient4692">
      <stop
         style="stop-color:#ffffff;stop-opacity:0;"
         offset="0"
         id="stop4694" />
      <stop
         id="stop4702"
         offset="0.77867794"
         style="stop-color:#ffffff;stop-opacity:0;" />
      <stop
         style="stop-color:#ffffff;stop-opacity:0.78431374;"
         offset="1"
         id="stop4696" />
    </linearGradient>
    <linearGradient
       id="linearGradient4652">
      <stop
         id="stop4662"
         offset="0"
         style="stop-color:#0b0b0b;stop-opacity:1;" />
      <stop
         style="stop-color:#000000;stop-opacity:1;"
         offset="0.3760547"
         id="stop3846" />
      <stop
         id="stop3848"
         offset="0.80040872"
         style="stop-color:#1b1b1b;stop-opacity:1;" />
      <stop
         id="stop4660"
         offset="1"
         style="stop-color:#000000;stop-opacity:1;" />
    </linearGradient>
    <linearGradient
       id="linearGradient3753">
      <stop
         style="stop-color:#000000;stop-opacity:1;"
         offset="0"
         id="stop3755" />
      <stop
         id="stop3898"
         offset="0.39451832"
         style="stop-color:#000000;stop-opacity:1;" />
      <stop
         style="stop-color:#0f0f0f;stop-opacity:1;"
         offset="0.75676548"
         id="stop3900" />
      <stop
         style="stop-color:#000000;stop-opacity:1;"
         offset="1"
         id="stop3757" />
    </linearGradient>
    <linearGradient
       id="linearGradient4692-4">
      <stop
         style="stop-color:#ffffff;stop-opacity:0;"
         offset="0"
         id="stop4694-4" />
      <stop
         id="stop4702-3"
         offset="0.69280916"
         style="stop-color:#ffffff;stop-opacity:0;" />
      <stop
         style="stop-color:#ffffff;stop-opacity:0.78431374;"
         offset="1"
         id="stop4696-7" />
    </linearGradient>
    <linearGradient
       inkscape:collect="always"
       xlink:href="#linearGradient4652"
       id="linearGradient3260"
       gradientUnits="userSpaceOnUse"
       x1="12.491603"
       y1="7.0270567"
       x2="10.777441"
       y2="2.8395567" />
    <radialGradient
       inkscape:collect="always"
       xlink:href="#linearGradient4692"
       id="radialGradient3262"
       gradientUnits="userSpaceOnUse"
       gradientTransform="matrix(0.85947302,-0.49644527,0.63807585,1.1046715,-0.16436308,9.0584106)"
       cx="19.130596"
       cy="4.6450624"
       fx="19.130596"
       fy="4.6450624"
       r="2.5044217" />
    <radialGradient
       inkscape:collect="always"
       xlink:href="#linearGradient4692-4"
       id="radialGradient3266"
       gradientUnits="userSpaceOnUse"
       gradientTransform="matrix(-1.1585834,-0.10583885,-0.15054383,1.6479532,29.001858,3.8732062)"
       cx="18.968229"
       cy="4.5178137"
       fx="18.968229"
       fy="4.5178137"
       r="2.5044217" />
    <linearGradient
       inkscape:collect="always"
       xlink:href="#linearGradient8225"
       id="linearGradient3268"
       gradientUnits="userSpaceOnUse"
       x1="8.4247789"
       y1="9.4158201"
       x2="5.2577405"
       y2="11.581334" />
    <linearGradient
       inkscape:collect="always"
       xlink:href="#linearGradient8277"
       id="linearGradient3270"
       gradientUnits="userSpaceOnUse"
       x1="17.93059"
       y1="6.1065989"
       x2="21.746191"
       y2="4.4714146" />
    <linearGradient
       inkscape:collect="always"
       xlink:href="#linearGradient3753"
       id="linearGradient3123"
       gradientUnits="userSpaceOnUse"
       x1="13.037926"
       y1="8.9225521"
       x2="12.951595"
       y2="19.542923" />
    <linearGradient
       inkscape:collect="always"
       xlink:href="#linearGradient3908"
       id="linearGradient3914"
       x1="4.8934298"
       y1="16.046341"
       x2="7.0929213"
       y2="16.046341"
       gradientUnits="userSpaceOnUse" />
    <linearGradient
       inkscape:collect="always"
       xlink:href="#linearGradient3920"
       id="linearGradient3918"
       gradientUnits="userSpaceOnUse"
       x1="4.8934298"
       y1="16.046341"
       x2="7.0929213"
       y2="16.046341"
       gradientTransform="matrix(-0.86231316,0,0,0.86231316,22.803985,2.0714176)" />
    <linearGradient
       inkscape:collect="always"
       xlink:href="#linearGradient3908"
       id="linearGradient3942"
       x1="6.0637712"
       y1="13.185898"
       x2="8.212451"
       y2="14.426438"
       gradientUnits="userSpaceOnUse" />
    <linearGradient
       inkscape:collect="always"
       xlink:href="#linearGradient3920"
       id="linearGradient3946"
       gradientUnits="userSpaceOnUse"
       x1="6.0637712"
       y1="13.185898"
       x2="8.212451"
       y2="14.426438"
       gradientTransform="matrix(-0.86231316,0,0,0.86231316,22.786038,2.1000809)" />
    <linearGradient
       inkscape:collect="always"
       xlink:href="#linearGradient3974"
       id="linearGradient3980"
       x1="10.707323"
       y1="9.8420544"
       x2="16.347088"
       y2="9.8420544"
       gradientUnits="userSpaceOnUse" />
  </defs>
  <sodipodi:namedview
     id="base"
     pagecolor="#ffffff"
     bordercolor="#666666"
     borderopacity="1.0"
     inkscape:pageopacity="0.0"
     inkscape:pageshadow="2"
     inkscape:zoom="7.521045"
     inkscape:cx="37.594223"
     inkscape:cy="7.8584601"
     inkscape:document-units="px"
     inkscape:current-layer="layer3"
     showgrid="false"
     inkscape:window-width="1366"
     inkscape:window-height="692"
     inkscape:window-x="0"
     inkscape:window-y="25"
     inkscape:window-maximized="1"
     inkscape:snap-global="false"
     showguides="true"
     inkscape:guide-bbox="true" />
  <metadata
     id="metadata7">
    <rdf:RDF>
      <cc:Work
         rdf:about="">
        <dc:format>image/svg+xml</dc:format>
        <dc:type
           rdf:resource="http://purl.org/dc/dcmitype/StillImage" />
        <dc:title />
      </cc:Work>
    </rdf:RDF>
  </metadata>
  <g
     inkscape:groupmode="layer"
     id="layer3"
     inkscape:label="phone"
     style="display:inline">
    <g
       transform="matrix(1.1596715,0,0,1.1596715,-4.7309225,-2.4021639)"
       id="g3914">
      <path
         style="fill:url(#linearGradient3123);fill-opacity:1"
         d="m 10.646519,8.46875 0,2.625 -3.209019,3.53125 0,4.4375 12.012678,0 0,-4.4375 -3.015625,-3.53125 0,-2.625 -1.788478,0 0,2.5625 -2.108042,0 0,-2.5625 z"
         id="path3121"
         inkscape:connector-curvature="0"
         sodipodi:nodetypes="ccccccccccccc" />
      <path
         style="fill:url(#linearGradient3914);fill-opacity:1"
         d="m 8.9938571,15.852564 -4.5,-1.008013 0,4.616721 4.5,0 z"
         transform="matrix(0.86231316,0,0,0.86231316,4.0795367,2.0714176)"
         id="path3126"
         inkscape:connector-curvature="0"
         sodipodi:nodetypes="ccccc" />
      <path
         sodipodi:nodetypes="ccccc"
         inkscape:connector-curvature="0"
         id="path3916"
         d="m 15.048464,15.741292 3.880409,-0.869223 0,3.98106 -3.880409,0 z"
         style="fill:url(#linearGradient3918);fill-opacity:1" />
      <path
         style="fill:url(#linearGradient3942);fill-opacity:1;stroke:none"
         d="m 4.5087878,14.664997 3.1065967,-3.57098 2.2564102,0 0,4.802938 z"
         id="path3926"
         inkscape:connector-curvature="0"
         transform="matrix(0.86231316,0,0,0.86231316,4.0795367,2.0714176)"
         sodipodi:nodetypes="ccccc" />
      <path
         sodipodi:nodetypes="ccccc"
         inkscape:connector-curvature="0"
         id="path3944"
         d="m 18.898051,14.745901 -2.678859,-3.079304 -1.945732,0 0,4.141637 z"
         style="fill:url(#linearGradient3946);fill-opacity:1;stroke:none" />
      <path
         sodipodi:nodetypes="ccccccccc"
         inkscape:connector-curvature="0"
         id="path3972"
         d="m 10.818499,8.5834034 0,2.3797936 5.472737,0 0,-2.3797936 -1.473181,0 0,2.3797936 -2.423339,0 0,-2.3797936 z"
         style="fill:url(#linearGradient3980);fill-opacity:1" />
    </g>
    <g
       transform="matrix(0.94071662,0.39764077,-0.34927862,1.070971,1.526506,-5.4869607)"
       id="g3317">
      <path
         inkscape:connector-curvature="0"
         id="path2890"
         d="M 4.7561993,11.607551 C 4.2855323,11.181603 3.2270553,11.20639 3.7657383,9.0670866 4.3044213,6.9277832 5.6154736,4.8429699 11.254023,2.7494331 c 5.63855,-2.09353683 7.52551,-1.2101413 8.420926,-0.5520573 1.338571,0.9837799 2.102492,1.3627924 2.102492,2.7543396 0,0.8491095 -0.377335,1.0950631 -2.024934,1.3198885 C 18.304262,6.4692261 18.125266,6.407977 17.372155,5.4570979 16.510464,4.3691245 16.036202,4.615175 14.997353,5.0008893 13.921446,5.4003627 11.062177,6.3939732 9.8739699,6.8351426 8.7355306,7.2578337 8.3233943,6.9990178 8.2416343,8.4121936 c -0.106941,1.8484354 -0.111136,1.8563274 -1.437792,2.7051104 -1.345338,0.860736 -1.576976,0.916195 -2.047643,0.490247 z"
         style="fill:url(#linearGradient3260);fill-opacity:1"
         sodipodi:nodetypes="sszsssssssss" />
      <path
         inkscape:connector-curvature="0"
         sodipodi:nodetypes="csssss"
         style="fill:url(#radialGradient3262);fill-opacity:1"
         d="m 19.456199,2.6036258 c 1.36848,0.1063626 2.289992,0.9252924 2.289992,2.3168396 0,0.8491095 -0.377335,1.0950631 -2.024934,1.3198885 -1.448245,0.1976222 -1.774735,0.2343447 -2.317852,-0.814506 -0.186624,-0.3604016 -0.717186,-0.5336302 -0.662064,-0.8001123 0.292047,-1.411875 1.287162,-2.1330749 2.714858,-2.0221098 z"
         id="path4680" />
      <path
         inkscape:connector-curvature="0"
         sodipodi:nodetypes="csccs"
         style="fill:url(#radialGradient3266);fill-opacity:1;display:inline"
         d="M 4.5149042,8.1908816 C 3.6339545,9.243487 3.5749322,10.474888 4.5696467,11.447999 5.1766122,12.041783 5.6162977,11.94405 6.9291778,10.923523 8.3827367,9.9479379 8.2922489,8.4403654 8.3276173,6.8830449 7.1141428,6.1044809 5.4339741,7.0927287 4.5149042,8.1908816 z"
         id="path4680-3" />
      <path
         inkscape:connector-curvature="0"
         style="fill:#000000;fill-opacity:1;display:inline"
         d="m 8.1745558,8.4245558 -4.125,2.6562502 c 0.8345631,1.182452 1.7004198,0.770983 2.78125,0 0.5473874,-0.36739 1.0789988,-0.544251 1.25,-1.03125 0.1074598,-0.3060374 0.066845,-1.1967455 0.09375,-1.6250002 z"
         id="path8292"
         sodipodi:nodetypes="cccsc" />
      <path
         inkscape:connector-curvature="0"
         sodipodi:nodetypes="cccsc"
         id="path8220"
         d="m 8.21875,8.46875 -4.125,2.65625 c 0.8345631,1.182452 1.7004198,0.770983 2.78125,0 0.5473874,-0.36739 1.0789988,-0.544251 1.25,-1.03125 0.1074598,-0.3060372 0.066845,-1.1967453 0.09375,-1.625 z"
         style="fill:url(#linearGradient3268);fill-opacity:1;display:inline" />
      <path
         inkscape:connector-curvature="0"
         style="fill:#000000;fill-opacity:1"
         d="m 21.518306,3.8491117 -4.40625,1.1875 c 0.0997,0.086184 0.19028,0.1971715 0.25,0.3125 0.543117,1.0488507 0.864255,1.0101222 2.3125,0.8125 1.647599,-0.2248254 2.03125,-0.4946405 2.03125,-1.34375 0,-0.3742177 -0.06344,-0.6800764 -0.1875,-0.96875 z"
         id="path8290" />
      <path
         inkscape:connector-curvature="0"
         id="path8271"
         d="M 21.5625,3.9375 17.15625,5.125 c 0.0997,0.086184 0.19028,0.1971715 0.25,0.3125 0.543117,1.0488507 0.864255,1.0101222 2.3125,0.8125 C 21.366349,6.0251746 21.75,5.7553595 21.75,4.90625 21.75,4.5320323 21.686557,4.2261736 21.5625,3.9375 z"
         style="fill:url(#linearGradient3270);fill-opacity:1" />
    </g>
    <g
       transform="matrix(0.66338403,0,0,0.91753936,2.8865964,3.8776439)"
       id="g3858">
      <path
         sodipodi:type="arc"
         style="fill:#111111;fill-opacity:1;fill-rule:nonzero;stroke:none"
         id="path3921"
         sodipodi:cx="-9.1235409"
         sodipodi:cy="12.306238"
         sodipodi:rx="3.6351607"
         sodipodi:ry="2.3521628"
         d="m -5.4883802,12.306238 a 3.6351607,2.3521628 0 1 1 -7.2703218,0 3.6351607,2.3521628 0 1 1 7.2703218,0 z"
         transform="matrix(1.1426175,0,0,1.1772422,22.655044,-2.0509449)" />
      <path
         transform="matrix(1.1369328,0,0,1.1772422,22.623845,-2.2162623)"
         d="m -5.4883802,12.306238 a 3.6351607,2.3521628 0 1 1 -7.2703218,0 3.6351607,2.3521628 0 1 1 7.2703218,0 z"
         sodipodi:ry="2.3521628"
         sodipodi:rx="3.6351607"
         sodipodi:cy="12.306238"
         sodipodi:cx="-9.1235409"
         id="path3912"
         style="fill:#d8d8d8;fill-opacity:1;fill-rule:nonzero;stroke:none"
         sodipodi:type="arc" />
      <path
         sodipodi:type="arc"
         style="fill:#000000;fill-opacity:1;fill-rule:nonzero;stroke:none"
         id="path3923"
         sodipodi:cx="-9.1235409"
         sodipodi:cy="12.306238"
         sodipodi:rx="3.6351607"
         sodipodi:ry="2.3521628"
         d="m -5.4883802,12.306238 a 3.6351607,2.3521628 0 1 1 -7.2703218,0 3.6351607,2.3521628 0 1 1 7.2703218,0 z"
         transform="matrix(0.37332122,0,0,0.45684025,15.657004,6.6491759)" />
      <g
         transform="matrix(1.1596715,0,0,1.1596715,22.851967,-1.8967087)"
         id="g4641"
         style="fill:#404040;fill-opacity:1">
        <path
           sodipodi:type="arc"
           style="fill:#404040;fill-opacity:1;fill-rule:nonzero;stroke:none"
           id="path4623"
           sodipodi:cx="-8.9720755"
           sodipodi:cy="14.025811"
           sodipodi:rx="0.63258922"
           sodipodi:ry="0.38311744"
           d="m -8.3394862,14.025811 a 0.63258922,0.38311744 0 1 1 -1.2651785,0 0.63258922,0.38311744 0 1 1 1.2651785,0 z"
           transform="matrix(1.0422535,0,0,1.0465116,0.29891443,-0.72364096)" />
        <path
           transform="matrix(1.0422535,0,0,1.0465116,-1.1266388,-0.93747394)"
           d="m -8.3394862,14.025811 a 0.63258922,0.38311744 0 1 1 -1.2651785,0 0.63258922,0.38311744 0 1 1 1.2651785,0 z"
           sodipodi:ry="0.38311744"
           sodipodi:rx="0.63258922"
           sodipodi:cy="14.025811"
           sodipodi:cx="-8.9720755"
           id="path4625"
           style="fill:#404040;fill-opacity:1;fill-rule:nonzero;stroke:none"
           sodipodi:type="arc" />
        <path
           sodipodi:type="arc"
           style="fill:#404040;fill-opacity:1;fill-rule:nonzero;stroke:none"
           id="path4627"
           sodipodi:cx="-8.9720755"
           sodipodi:cy="14.025811"
           sodipodi:rx="0.63258922"
           sodipodi:ry="0.38311744"
           d="m -8.3394862,14.025811 a 0.63258922,0.38311744 0 1 1 -1.2651785,0 0.63258922,0.38311744 0 1 1 1.2651785,0 z"
           transform="matrix(1.0422535,0,0,1.0465116,-2.0710678,-1.6146117)" />
        <path
           transform="matrix(0.91549293,0,0,0.95348835,-3.6449488,-1.2899529)"
           d="m -8.3394862,14.025811 a 0.63258922,0.38311744 0 1 1 -1.2651785,0 0.63258922,0.38311744 0 1 1 1.2651785,0 z"
           sodipodi:ry="0.38311744"
           sodipodi:rx="0.63258922"
           sodipodi:cy="14.025811"
           sodipodi:cx="-8.9720755"
           id="path4629"
           style="fill:#404040;fill-opacity:1;fill-rule:nonzero;stroke:none"
           sodipodi:type="arc" />
        <path
           sodipodi:type="arc"
           style="fill:#404040;fill-opacity:1;fill-rule:nonzero;stroke:none"
           id="path4631"
           sodipodi:cx="-8.9720755"
           sodipodi:cy="14.025811"
           sodipodi:rx="0.63258922"
           sodipodi:ry="0.38311744"
           d="m -8.3394862,14.025811 a 0.63258922,0.38311744 0 1 1 -1.2651785,0 0.63258922,0.38311744 0 1 1 1.2651785,0 z"
           transform="matrix(0.92957744,0,0,0.97674416,-2.9572701,-2.4090986)" />
        <path
           transform="matrix(0.88732392,0,0,0.99999997,-2.418672,-3.4035083)"
           d="m -8.3394862,14.025811 a 0.63258922,0.38311744 0 1 1 -1.2651785,0 0.63258922,0.38311744 0 1 1 1.2651785,0 z"
           sodipodi:ry="0.38311744"
           sodipodi:rx="0.63258922"
           sodipodi:cy="14.025811"
           sodipodi:cx="-8.9720755"
           id="path4633"
           style="fill:#404040;fill-opacity:1;fill-rule:nonzero;stroke:none"
           sodipodi:type="arc" />
        <path
           sodipodi:type="arc"
           style="fill:#404040;fill-opacity:1;fill-rule:nonzero;stroke:none"
           id="path4635"
           sodipodi:cx="-8.9720755"
           sodipodi:cy="14.025811"
           sodipodi:rx="0.63258922"
           sodipodi:ry="0.38311744"
           d="m -8.3394862,14.025811 a 0.63258922,0.38311744 0 1 1 -1.2651785,0 0.63258922,0.38311744 0 1 1 1.2651785,0 z"
           transform="matrix(0.88732392,0,0,0.93023253,-1.0643964,-2.5942479)" />
        <path
           transform="matrix(0.83098589,0,0,0.86046509,-0.25122872,-1.4285991)"
           d="m -8.3394862,14.025811 a 0.63258922,0.38311744 0 1 1 -1.2651785,0 0.63258922,0.38311744 0 1 1 1.2651785,0 z"
           sodipodi:ry="0.38311744"
           sodipodi:rx="0.63258922"
           sodipodi:cy="14.025811"
           sodipodi:cx="-8.9720755"
           id="path4637"
           style="fill:#404040;fill-opacity:1;fill-rule:nonzero;stroke:none"
           sodipodi:type="arc" />
        <path
           sodipodi:type="arc"
           style="fill:#404040;fill-opacity:1;fill-rule:nonzero;stroke:none"
           id="path4639"
           sodipodi:cx="-8.9720755"
           sodipodi:cy="14.025811"
           sodipodi:rx="0.63258922"
           sodipodi:ry="0.38311744"
           d="m -8.3394862,14.025811 a 0.63258922,0.38311744 0 1 1 -1.2651785,0 0.63258922,0.38311744 0 1 1 1.2651785,0 z"
           transform="matrix(0.88732392,0,0,0.97674416,1.269947,-2.4090987)" />
      </g>
    </g>
  </g>
</svg>
