<?xml version="1.0" encoding="UTF-8" standalone="no"?>
<!-- Generator: Adobe Illustrator 14.0.0, SVG Export Plug-In . SVG Version: 6.00 Build 43363)  -->

<svg
   xmlns:dc="http://purl.org/dc/elements/1.1/"
   xmlns:cc="http://creativecommons.org/ns#"
   xmlns:rdf="http://www.w3.org/1999/02/22-rdf-syntax-ns#"
   xmlns:svg="http://www.w3.org/2000/svg"
   xmlns="http://www.w3.org/2000/svg"
   xmlns:xlink="http://www.w3.org/1999/xlink"
   xmlns:sodipodi="http://sodipodi.sourceforge.net/DTD/sodipodi-0.dtd"
   xmlns:inkscape="http://www.inkscape.org/namespaces/inkscape"
   version="1.1"
   id="Layer_1"
   x="0px"
   y="0px"
   width="22"
   height="22"
   viewBox="0 0 22 22"
   enable-background="new 0 0 64 64"
   xml:space="preserve"
   inkscape:version="0.47pre4 r22446"
   sodipodi:docname="photos.svg"><metadata
   id="metadata9"><rdf:RDF><cc:Work
       rdf:about=""><dc:format>image/svg+xml</dc:format><dc:type
         rdf:resource="http://purl.org/dc/dcmitype/StillImage" /><dc:title /></cc:Work></rdf:RDF></metadata><defs
   id="defs7"><linearGradient
     inkscape:collect="always"
     id="linearGradient3593"><stop
       style="stop-color:#ffffff;stop-opacity:1;"
       offset="0"
       id="stop3595" /><stop
       style="stop-color:#ffffff;stop-opacity:0;"
       offset="1"
       id="stop3597" /></linearGradient><inkscape:perspective
     sodipodi:type="inkscape:persp3d"
     inkscape:vp_x="0 : 32 : 1"
     inkscape:vp_y="0 : 1000 : 0"
     inkscape:vp_z="64 : 32 : 1"
     inkscape:persp3d-origin="32 : 21.333333 : 1"
     id="perspective11" /><filter
     id="filter3639"
     inkscape:label="Drop shadow"
     width="1.5"
     height="1.5"
     x="-.25"
     y="-.25"><feGaussianBlur
       id="feGaussianBlur3641"
       in="SourceAlpha"
       stdDeviation="0.500000"
       result="blur" /><feColorMatrix
       id="feColorMatrix3643"
       result="bluralpha"
       type="matrix"
       values="1 0 0 0 0 0 1 0 0 0 0 0 1 0 0 0 0 0 0.750000 0 " /><feOffset
       id="feOffset3645"
       in="bluralpha"
       dx="1.000000"
       dy="1.000000"
       result="offsetBlur" /><feMerge
       id="feMerge3647"><feMergeNode
         id="feMergeNode3649"
         in="offsetBlur" /><feMergeNode
         id="feMergeNode3651"
         in="SourceGraphic" /></feMerge></filter><linearGradient
     inkscape:collect="always"
     xlink:href="#linearGradient3593"
     id="linearGradient3599"
     x1="2.8353488"
     y1="10.939637"
     x2="19.314521"
     y2="10.939637"
     gradientUnits="userSpaceOnUse"
     gradientTransform="translate(-0.0749349,0)" /><linearGradient
     inkscape:collect="always"
     xlink:href="#linearGradient3593"
     id="linearGradient3604"
     gradientUnits="userSpaceOnUse"
     gradientTransform="translate(-0.0749349,0)"
     x1="2.8353488"
     y1="10.939637"
     x2="19.314521"
     y2="10.939637" /><linearGradient
     inkscape:collect="always"
     xlink:href="#linearGradient3593"
     id="linearGradient3608"
     gradientUnits="userSpaceOnUse"
     gradientTransform="translate(-0.0749349,0)"
     x1="2.8353488"
     y1="10.939637"
     x2="19.314521"
     y2="10.939637" /><linearGradient
     inkscape:collect="always"
     xlink:href="#linearGradient3593"
     id="linearGradient3611"
     gradientUnits="userSpaceOnUse"
     gradientTransform="translate(-0.0749349,0)"
     x1="10.493665"
     y1="2.8492095"
     x2="10.493665"
     y2="12.282095" /><filter
     inkscape:collect="always"
     id="filter3654"><feGaussianBlur
       inkscape:collect="always"
       stdDeviation="0.3862306"
       id="feGaussianBlur3656" /></filter><filter
     inkscape:collect="always"
     id="filter3662"><feGaussianBlur
       inkscape:collect="always"
       stdDeviation="0.37578125"
       id="feGaussianBlur3664" /></filter><filter
     inkscape:collect="always"
     id="filter3678"
     x="-0.20356364"
     width="1.4071273"
     y="-1.555"
     height="4.11"><feGaussianBlur
       inkscape:collect="always"
       stdDeviation="1.1181875"
       id="feGaussianBlur3680" /></filter></defs><sodipodi:namedview
   pagecolor="#ffffff"
   bordercolor="#666666"
   borderopacity="1"
   objecttolerance="10"
   gridtolerance="10"
   guidetolerance="10"
   inkscape:pageopacity="0"
   inkscape:pageshadow="2"
   inkscape:window-width="1440"
   inkscape:window-height="827"
   id="namedview5"
   showgrid="false"
   inkscape:zoom="2.6074563"
   inkscape:cx="-106.66421"
   inkscape:cy="47.357762"
   inkscape:window-x="0"
   inkscape:window-y="25"
   inkscape:window-maximized="1"
   inkscape:current-layer="Layer_1" />
<path
   style="fill:#969696;fill-opacity:1;stroke:none;filter:url(#filter3654)"
   id="path3644"
   d="m 16.664716,6.5356586 h -5.79449 C 10.806369,6.3937833 10.726291,6.2622074 10.635913,6.1715719 L 9.3041905,4.8398489 C 9.1041226,4.6397815 8.708365,4.4757621 8.4251293,4.4757621 H 6.3652328 c -0.2832358,0 -0.6184839,0.2072771 -0.7454251,0.4606444 L 5.0505037,6.0750143 C 4.9835572,6.2089076 4.9243351,6.3948132 4.8821073,6.5820063 3.6806726,6.7982954 2.7604139,7.8493576 2.7604139,9.1105292 v 7.2096388 c 0,1.416179 1.1586918,2.57487 2.5748706,2.57487 H 16.664716 c 1.416179,0 2.57487,-1.158691 2.57487,-2.57487 V 9.1105292 c 0,-1.4161788 -1.158691,-2.5748706 -2.57487,-2.5748706 z M 11,16.06268 c -1.8482422,0 -3.3473319,-1.498575 -3.3473319,-3.347333 0,-1.848756 1.4990897,-3.3473307 3.3473319,-3.3473307 1.848242,0 3.347332,1.4985747 3.347332,3.3473307 0,1.848758 -1.49909,3.347333 -3.347332,3.347333 z" /><path
   d="m 16.664716,5.7898959 h -5.79449 C 10.806369,5.6480206 10.726291,5.5164447 10.635913,5.4258092 L 9.3041905,4.0940862 C 9.1041226,3.8940188 8.708365,3.7299994 8.4251293,3.7299994 H 6.3652328 c -0.2832358,0 -0.6184839,0.2072771 -0.7454251,0.4606444 L 5.0505037,5.3292516 C 4.9835572,5.4631449 4.9243351,5.6490505 4.8821073,5.8362436 3.6806726,6.0525327 2.7604139,7.1035949 2.7604139,8.3647665 v 7.2096385 c 0,1.416179 1.1586918,2.57487 2.5748706,2.57487 H 16.664716 c 1.416179,0 2.57487,-1.158691 2.57487,-2.57487 V 8.3647665 c 0,-1.4161788 -1.158691,-2.5748706 -2.57487,-2.5748706 z M 11,15.316917 c -1.8482422,0 -3.3473319,-1.498575 -3.3473319,-3.347333 0,-1.848756 1.4990897,-3.3473304 3.3473319,-3.3473304 1.848242,0 3.347332,1.4985744 3.347332,3.3473304 0,1.848758 -1.49909,3.347333 -3.347332,3.347333 z"
   id="path3"
   style="fill:#ff97cd;fill-opacity:1;stroke:none" />
<path
   style="fill:url(#linearGradient3611);fill-opacity:1;stroke:none"
   d="M 6.375 4 C 6.2308757 4 5.9419854 4.1788011 5.875 4.3125 L 5.3125 5.46875 C 5.2509945 5.5917613 5.1907086 5.7534972 5.15625 5.90625 A 0.27443226 0.27443226 0 0 1 5.125 5.96875 A 0.27443226 0.27443226 0 0 1 5.03125 6.0625 A 0.27443226 0.27443226 0 0 1 5 6.09375 A 0.27443226 0.27443226 0 0 1 4.9375 6.125 C 3.864891 6.3180972 3.03125 7.2477942 3.03125 8.375 L 3.03125 10.21875 C 5.1333367 9.0283067 7.925589 8.28125 11 8.28125 C 14.074411 8.28125 16.866663 9.0283067 18.96875 10.21875 L 18.96875 8.375 C 18.96875 7.1109353 17.920315 6.0625 16.65625 6.0625 L 10.875 6.0625 A 0.27443226 0.27443226 0 0 1 10.78125 6.03125 A 0.27443226 0.27443226 0 0 1 10.71875 6 A 0.27443226 0.27443226 0 0 1 10.65625 5.9375 A 0.27443226 0.27443226 0 0 1 10.625 5.90625 C 10.581253 5.8090543 10.517046 5.7047724 10.4375 5.625 L 9.125 4.28125 C 8.9950073 4.1512576 8.6077501 4 8.4375 4 L 6.375 4 z "
   id="path3606" /><rect
   style="opacity:0.50000000000000000;fill:#ff2494;fill-opacity:1;stroke:none;filter:url(#filter3678)"
   id="rect3613"
   width="13.183347"
   height="1.7258199"
   x="4.2666106"
   y="15.671993" /><path
   sodipodi:type="inkscape:offset"
   inkscape:radius="-0.20338984"
   inkscape:original="M 6.375 3.71875 C 6.0917642 3.71875 5.7519412 3.9341327 5.625 4.1875 L 5.0625 5.34375 C 4.9955535 5.4776433 4.9172278 5.6565569 4.875 5.84375 C 3.6735653 6.0600391 2.75 7.1138284 2.75 8.375 L 2.75 15.5625 C 2.75 16.978679 3.9275712 18.15625 5.34375 18.15625 L 16.65625 18.15625 C 18.072429 18.15625 19.25 16.978679 19.25 15.5625 L 19.25 8.375 C 19.25 6.9588212 18.072429 5.78125 16.65625 5.78125 L 10.875 5.78125 C 10.811143 5.6393747 10.715378 5.5281355 10.625 5.4375 L 9.3125 4.09375 C 9.1124321 3.8936826 8.7207357 3.71875 8.4375 3.71875 L 6.375 3.71875 z M 11 8.625 C 12.848242 8.625 14.34375 10.119994 14.34375 11.96875 C 14.34375 13.817508 12.848242 15.3125 11 15.3125 C 9.1517578 15.3125 7.65625 13.817508 7.65625 11.96875 C 7.65625 10.119994 9.1517578 8.625 11 8.625 z "
   style="fill:none;stroke:#000000;stroke-width:0.30000000999999998;stroke-miterlimit:4;stroke-opacity:1;stroke-dasharray:none;filter:url(#filter3662);opacity:0.5"
   id="path3660"
   d="m 6.375,3.9375 c -0.1801258,0 -0.4799983,0.1790813 -0.5625,0.34375 L 5.25,5.4375 C 5.1870864,5.5633275 5.0989693,5.7133341 5.0625,5.875 a 0.20341018,0.20341018 0 0 1 0,0.0625 A 0.20341018,0.20341018 0 0 1 5.03125,5.96875 0.20341018,0.20341018 0 0 1 5,6 0.20341018,0.20341018 0 0 1 4.96875,6.03125 a 0.20341018,0.20341018 0 0 1 -0.03125,0 0.20341018,0.20341018 0 0 1 -0.03125,0 C 3.8003014,6.2303492 2.96875,7.2131243 2.96875,8.375 l 0,7.1875 c 0,1.303431 1.0715687,2.375 2.375,2.375 l 11.3125,0 c 1.303431,0 2.375,-1.071569 2.375,-2.375 l 0,-7.1875 C 19.03125,7.0715687 17.959681,6 16.65625,6 L 10.875,6 a 0.20341018,0.20341018 0 0 1 -0.03125,-0.03125 0.20341018,0.20341018 0 0 1 -0.0625,0 A 0.20341018,0.20341018 0 0 1 10.75,5.9375 0.20341018,0.20341018 0 0 1 10.71875,5.90625 0.20341018,0.20341018 0 0 1 10.6875,5.875 C 10.638549,5.7662414 10.551099,5.6763337 10.46875,5.59375 L 9.15625,4.25 C 9.0081221,4.1018725 8.6369903,3.9375 8.4375,3.9375 l -2.0625,0 z M 11,8.40625 c 1.95792,0 3.5625,1.604059 3.5625,3.5625 0,1.958443 -1.60458,3.5625 -3.5625,3.5625 -1.9579198,0 -3.5625,-1.604057 -3.5625,-3.5625 0,-1.958441 1.60458,-3.5625 3.5625,-3.5625 z" /></svg>