<?xml version="1.0" encoding="UTF-8" standalone="no"?>
<!-- Generator: Adobe Illustrator 14.0.0, SVG Export Plug-In . SVG Version: 6.00 Build 43363)  -->

<svg
   xmlns:dc="http://purl.org/dc/elements/1.1/"
   xmlns:cc="http://creativecommons.org/ns#"
   xmlns:rdf="http://www.w3.org/1999/02/22-rdf-syntax-ns#"
   xmlns:svg="http://www.w3.org/2000/svg"
   xmlns="http://www.w3.org/2000/svg"
   xmlns:sodipodi="http://sodipodi.sourceforge.net/DTD/sodipodi-0.dtd"
   xmlns:inkscape="http://www.inkscape.org/namespaces/inkscape"
   version="1.1"
   id="Layer_1"
   x="0px"
   y="0px"
   width="22"
   height="22"
   viewBox="0 0 22 22"
   enable-background="new 0 0 64 64"
   xml:space="preserve"
   inkscape:version="0.47 r22583"
   sodipodi:docname="camera.svg"><metadata
   id="metadata9"><rdf:RDF><cc:Work
       rdf:about=""><dc:format>image/svg+xml</dc:format><dc:type
         rdf:resource="http://purl.org/dc/dcmitype/StillImage" /><dc:title /></cc:Work></rdf:RDF></metadata><defs
   id="defs7"><inkscape:perspective
     sodipodi:type="inkscape:persp3d"
     inkscape:vp_x="0 : 32 : 1"
     inkscape:vp_y="0 : 1000 : 0"
     inkscape:vp_z="64 : 32 : 1"
     inkscape:persp3d-origin="32 : 21.333333 : 1"
     id="perspective11" /><filter
     id="filter3639"
     inkscape:label="Drop shadow"
     width="1.5"
     height="1.5"
     x="-.25"
     y="-.25"><feGaussianBlur
       id="feGaussianBlur3641"
       in="SourceAlpha"
       stdDeviation="0.500000"
       result="blur" /><feColorMatrix
       id="feColorMatrix3643"
       result="bluralpha"
       type="matrix"
       values="1 0 0 0 0 0 1 0 0 0 0 0 1 0 0 0 0 0 0.750000 0 " /><feOffset
       id="feOffset3645"
       in="bluralpha"
       dx="1.000000"
       dy="1.000000"
       result="offsetBlur" /><feMerge
       id="feMerge3647"><feMergeNode
         id="feMergeNode3649"
         in="offsetBlur" /><feMergeNode
         id="feMergeNode3651"
         in="SourceGraphic" /></feMerge></filter></defs><sodipodi:namedview
   pagecolor="#ffffff"
   bordercolor="#666666"
   borderopacity="1"
   objecttolerance="10"
   gridtolerance="10"
   guidetolerance="10"
   inkscape:pageopacity="0"
   inkscape:pageshadow="2"
   inkscape:window-width="1280"
   inkscape:window-height="752"
   id="namedview5"
   showgrid="false"
   inkscape:zoom="20.85965"
   inkscape:cx="1.4362881"
   inkscape:cy="8.0585027"
   inkscape:window-x="0"
   inkscape:window-y="0"
   inkscape:window-maximized="1"
   inkscape:current-layer="Layer_1" />
<path
   d="m 16.739651,5.7898959 h -5.79449 C 10.881304,5.6480206 10.801226,5.5164447 10.710848,5.4258092 L 9.3791254,4.0940862 C 9.1790575,3.8940188 8.7832999,3.7299994 8.5000642,3.7299994 H 6.4401677 c -0.2832358,0 -0.6184839,0.2072771 -0.7454251,0.4606444 L 5.1254386,5.3292516 C 5.0584921,5.4631449 4.99927,5.6490505 4.9570422,5.8362436 3.7556075,6.0525327 2.8353488,7.1035949 2.8353488,8.3647665 v 7.2096385 c 0,1.416179 1.1586918,2.57487 2.5748706,2.57487 H 16.739651 c 1.416179,0 2.57487,-1.158691 2.57487,-2.57487 V 8.3647665 c 0,-1.4161788 -1.158691,-2.5748706 -2.57487,-2.5748706 z m -5.664716,9.5270211 c -1.8482423,0 -3.347332,-1.498575 -3.347332,-3.347333 0,-1.848756 1.4990897,-3.3473304 3.347332,-3.3473304 1.848242,0 3.347332,1.4985744 3.347332,3.3473304 0,1.848758 -1.49909,3.347333 -3.347332,3.347333 z"
   id="path3"
   style="fill:#f196c5;fill-opacity:1;stroke:#000000;stroke-width:0.25000000000000000;stroke-miterlimit:4;stroke-opacity:1;stroke-dasharray:none;filter:url(#filter3639)" />
</svg>