<?xml version="1.0" encoding="UTF-8" standalone="no"?>
<!-- Created with Inkscape (http://www.inkscape.org/) -->

<svg
   xmlns:dc="http://purl.org/dc/elements/1.1/"
   xmlns:cc="http://creativecommons.org/ns#"
   xmlns:rdf="http://www.w3.org/1999/02/22-rdf-syntax-ns#"
   xmlns:svg="http://www.w3.org/2000/svg"
   xmlns="http://www.w3.org/2000/svg"
   xmlns:xlink="http://www.w3.org/1999/xlink"
   xmlns:sodipodi="http://sodipodi.sourceforge.net/DTD/sodipodi-0.dtd"
   xmlns:inkscape="http://www.inkscape.org/namespaces/inkscape"
   sodipodi:docname="photos.svg"
   inkscape:version="0.48.1 r9760"
   version="1.1"
   id="svg2"
   height="22"
   width="22"
   style="display:inline"
   inkscape:export-filename="photos.png"
   inkscape:export-xdpi="130.90909"
   inkscape:export-ydpi="130.90909">
  <defs
     id="defs4">
    <linearGradient
       id="linearGradient3886">
      <stop
         style="stop-color:#ffffff;stop-opacity:0.58823532;"
         offset="0"
         id="stop3889" />
      <stop
         style="stop-color:#ffffff;stop-opacity:0;"
         offset="1"
         id="stop3891" />
    </linearGradient>
    <linearGradient
       id="linearGradient3868">
      <stop
         style="stop-color:#ffffff;stop-opacity:0;"
         offset="0"
         id="stop3870" />
      <stop
         style="stop-color:#ffffff;stop-opacity:1;"
         offset="1"
         id="stop3873" />
    </linearGradient>
    <linearGradient
       id="linearGradient3837">
      <stop
         id="stop3839"
         offset="0"
         style="stop-color:#ffffff;stop-opacity:0;" />
      <stop
         id="stop3843"
         offset="1"
         style="stop-color:#ffffff;stop-opacity:0.58823532;" />
    </linearGradient>
    <linearGradient
       id="linearGradient3997">
      <stop
         style="stop-color:#ffffff;stop-opacity:1;"
         offset="0"
         id="stop3999" />
      <stop
         id="stop4005"
         offset="0.5"
         style="stop-color:#bababa;stop-opacity:1;" />
      <stop
         style="stop-color:#ffffff;stop-opacity:1;"
         offset="1"
         id="stop4001" />
    </linearGradient>
    <linearGradient
       id="linearGradient3884">
      <stop
         style="stop-color:#ffffff;stop-opacity:1;"
         offset="0"
         id="stop3886" />
      <stop
         id="stop3888"
         offset="1"
         style="stop-color:#ffffff;stop-opacity:0;" />
    </linearGradient>
    <linearGradient
       id="linearGradient3864">
      <stop
         id="stop3872"
         offset="0"
         style="stop-color:#ffffff;stop-opacity:0.42857143;" />
      <stop
         style="stop-color:#ffffff;stop-opacity:0;"
         offset="1"
         id="stop3868" />
    </linearGradient>
    <linearGradient
       id="linearGradient3848">
      <stop
         style="stop-color:#e1e1e1;stop-opacity:1;"
         offset="0"
         id="stop3850" />
      <stop
         id="stop3858"
         offset="0.25"
         style="stop-color:#e2e2e2;stop-opacity:1;" />
      <stop
         id="stop3856"
         offset="0.68931079"
         style="stop-color:#969696;stop-opacity:1;" />
      <stop
         style="stop-color:#ababab;stop-opacity:1;"
         offset="1"
         id="stop3852" />
    </linearGradient>
    <linearGradient
       id="linearGradient3807">
      <stop
         style="stop-color:#464646;stop-opacity:1;"
         offset="0"
         id="stop3809" />
      <stop
         style="stop-color:#6e6e6e;stop-opacity:1;"
         offset="1"
         id="stop3811" />
    </linearGradient>
    <linearGradient
       id="linearGradient3799">
      <stop
         style="stop-color:#8c8c8c;stop-opacity:1;"
         offset="0"
         id="stop3801" />
      <stop
         id="stop3060"
         offset="0.1"
         style="stop-color:#c8c8c8;stop-opacity:1;" />
      <stop
         style="stop-color:#e8e8e8;stop-opacity:1;"
         offset="0.38387764"
         id="stop3895" />
      <stop
         style="stop-color:#c8c8c8;stop-opacity:1;"
         offset="0.66775525"
         id="stop3072" />
      <stop
         style="stop-color:#8c8c8c;stop-opacity:1;"
         offset="0.76735699"
         id="stop3066" />
      <stop
         id="stop3068"
         offset="0.92547792"
         style="stop-color:#c0c0c0;stop-opacity:1;" />
      <stop
         style="stop-color:#4b4b4b;stop-opacity:1;"
         offset="1"
         id="stop3803" />
    </linearGradient>
    <linearGradient
       inkscape:collect="always"
       xlink:href="#linearGradient3799"
       id="linearGradient3805"
       x1="12.072827"
       y1="18.778175"
       x2="12.072827"
       y2="3.8258126"
       gradientUnits="userSpaceOnUse" />
    <linearGradient
       inkscape:collect="always"
       xlink:href="#linearGradient3848"
       id="linearGradient3854"
       x1="-3.8890872"
       y1="9.4174318"
       x2="-3.8890872"
       y2="14.553282"
       gradientUnits="userSpaceOnUse" />
    <radialGradient
       inkscape:collect="always"
       xlink:href="#linearGradient3864"
       id="radialGradient3880"
       gradientUnits="userSpaceOnUse"
       gradientTransform="matrix(0.77414284,0.44695158,-0.29498423,0.51092767,2.6501673,5.9666978)"
       cx="-1.9147764"
       cy="10.450163"
       fx="-1.9147764"
       fy="10.450163"
       r="2.5853591" />
    <radialGradient
       inkscape:collect="always"
       xlink:href="#linearGradient3884"
       id="radialGradient3890"
       gradientUnits="userSpaceOnUse"
       gradientTransform="matrix(0.31938189,0.31938189,-0.17635189,0.17635188,-0.46386477,11.555168)"
       cx="-2.7971506"
       cy="16.246754"
       fx="-2.7971506"
       fy="16.246754"
       r="2.5853591" />
    <linearGradient
       inkscape:collect="always"
       xlink:href="#linearGradient3997"
       id="linearGradient4020"
       gradientUnits="userSpaceOnUse"
       gradientTransform="matrix(0.92156863,0,0,0.92156863,0.72790399,0.4135298)"
       x1="7.5572033"
       y1="6.0238061"
       x2="7.5572033"
       y2="4.519743" />
    <linearGradient
       inkscape:collect="always"
       xlink:href="#linearGradient3997"
       id="linearGradient4022"
       gradientUnits="userSpaceOnUse"
       gradientTransform="matrix(0.92156863,0,0,0.92156863,0.72790399,0.4135298)"
       x1="7.5572033"
       y1="6.0238061"
       x2="7.5572033"
       y2="4.519743" />
    <linearGradient
       inkscape:collect="always"
       xlink:href="#linearGradient3868"
       id="linearGradient3875"
       gradientUnits="userSpaceOnUse"
       x1="12.072827"
       y1="10.654684"
       x2="12.072827"
       y2="6.7940564"
       gradientTransform="matrix(0.94904459,0,0,0.94904459,0.56135246,0.46576433)" />
    <linearGradient
       inkscape:collect="always"
       xlink:href="#linearGradient3886"
       id="linearGradient3900"
       gradientUnits="userSpaceOnUse"
       x1="13.004503"
       y1="18.568619"
       x2="13.004503"
       y2="14.576755"
       gradientTransform="matrix(0.88816271,0,0,0.88816271,1.2564221,1.8436814)" />
    <linearGradient
       inkscape:collect="always"
       xlink:href="#linearGradient3837"
       id="linearGradient3902"
       gradientUnits="userSpaceOnUse"
       x1="12.072827"
       y1="10.654684"
       x2="12.072827"
       y2="3.8258126"
       gradientTransform="matrix(0.87243126,0,0,0.87243126,1.0046038,0.66561594)" />
  </defs>
  <sodipodi:namedview
     id="base"
     pagecolor="#ffffff"
     bordercolor="#666666"
     borderopacity="1.0"
     inkscape:pageopacity="0.0"
     inkscape:pageshadow="2"
     inkscape:zoom="90.509668"
     inkscape:cx="8.0499054"
     inkscape:cy="18.522825"
     inkscape:document-units="px"
     inkscape:current-layer="layer1"
     showgrid="false"
     inkscape:window-width="1366"
     inkscape:window-height="692"
     inkscape:window-x="0"
     inkscape:window-y="25"
     inkscape:window-maximized="1"
     inkscape:snap-global="false"
     showguides="true"
     inkscape:guide-bbox="true" />
  <metadata
     id="metadata7">
    <rdf:RDF>
      <cc:Work
         rdf:about="">
        <dc:format>image/svg+xml</dc:format>
        <dc:type
           rdf:resource="http://purl.org/dc/dcmitype/StillImage" />
        <dc:title />
      </cc:Work>
    </rdf:RDF>
  </metadata>
  <g
     inkscape:groupmode="layer"
     id="layer1"
     inkscape:label="Calque 1"
     style="display:inline">
    <path
       style="fill:url(#linearGradient3805);fill-opacity:1;stroke:none;display:inline"
       d="m 3.017512,6.7036202 0,9.7885918 c -0.1042594,1.086447 1.6320712,2.211592 2.6229977,2.211592 l 10.6849093,0 c 0.944564,0.06519 2.659713,-1.451769 2.659713,-2.340884 l 0,-7.2138473 C 19.045364,8.2252712 17.617613,6.7036202 16.744697,6.7036202 l -4.870651,0 C 11.123886,5.210119 10.535951,3.7381991 8.8679962,3.7381991 l -2.7255607,0 c -1.4827585,0 -1.9260286,1.3655085 -2.2297148,2.9654211 z"
       id="path5763-4"
       inkscape:connector-curvature="0"
       sodipodi:nodetypes="cccccccccccc" />
    <path
       style="fill:url(#linearGradient3875);fill-opacity:1;stroke:none;display:inline"
       d="m 3.0318939,6.717158 0,3.0314491 c 1.744414,-0.7206285 4.27643,-1.1566481 6.5750398,-1.1566481 3.7800193,0 7.4561203,1.1478409 9.3612663,2.876791 l 0,-2.3132958 C 19.02536,8.278725 17.661285,6.7171576 16.832849,6.7171576 c -4.351656,-0.035008 -9.8968126,-0.00337 -13.8009551,4e-7 z"
       id="path3830"
       inkscape:connector-curvature="0"
       sodipodi:nodetypes="ccscccc" />
    <g
       id="g3971"
       transform="matrix(0.90685449,0,0,0.90685449,1.0246006,1.1744473)">
      <path
         transform="matrix(1.2735043,0,0,1.2735043,14.798999,-2.6043218)"
         d="m -0.39774752,11.945826 c 0,1.427854 -1.15750468,2.585359 -2.58535908,2.585359 -1.4278544,0 -2.5853591,-1.157505 -2.5853591,-2.585359 0,-1.427855 1.1575047,-2.5853595 2.5853591,-2.5853595 1.4278544,0 2.58535908,1.1575045 2.58535908,2.5853595 z"
         sodipodi:ry="2.5853591"
         sodipodi:rx="2.5853591"
         sodipodi:cy="11.945826"
         sodipodi:cx="-2.9831066"
         id="path3846"
         style="fill:url(#linearGradient3854);fill-opacity:1;stroke:#000000;stroke-width:0.07852349;stroke-miterlimit:4;stroke-opacity:1;stroke-dasharray:none"
         sodipodi:type="arc" />
      <path
         sodipodi:type="arc"
         style="fill:#0f0f0f;fill-opacity:1;stroke:none"
         id="path3860"
         sodipodi:cx="-2.9831066"
         sodipodi:cy="11.945826"
         sodipodi:rx="2.5853591"
         sodipodi:ry="2.5853591"
         d="m -0.39774752,11.945826 c 0,1.427854 -1.15750468,2.585359 -2.58535908,2.585359 -1.4278544,0 -2.5853591,-1.157505 -2.5853591,-2.585359 0,-1.427855 1.1575047,-2.5853595 2.5853591,-2.5853595 1.4278544,0 2.58535908,1.1575045 2.58535908,2.5853595 z"
         transform="matrix(1.0341881,0,0,1.0341881,14.085093,0.25450833)" />
      <path
         transform="matrix(1.0341881,0,0,1.0341881,14.085093,0.25450833)"
         d="m -0.39774752,11.945826 c 0,1.427854 -1.15750468,2.585359 -2.58535908,2.585359 -1.4278544,0 -2.5853591,-1.157505 -2.5853591,-2.585359 0,-1.427855 1.1575047,-2.5853595 2.5853591,-2.5853595 1.4278544,0 2.58535908,1.1575045 2.58535908,2.5853595 z"
         sodipodi:ry="2.5853591"
         sodipodi:rx="2.5853591"
         sodipodi:cy="11.945826"
         sodipodi:cx="-2.9831066"
         id="path3874"
         style="fill:url(#radialGradient3880);fill-opacity:1;stroke:none"
         sodipodi:type="arc" />
      <path
         sodipodi:type="arc"
         style="fill:url(#radialGradient3890);fill-opacity:1;stroke:none"
         id="path3882"
         sodipodi:cx="-2.9831066"
         sodipodi:cy="11.945826"
         sodipodi:rx="2.5853591"
         sodipodi:ry="2.5853591"
         d="m -0.39774752,11.945826 c 0,1.427854 -1.15750468,2.585359 -2.58535908,2.585359 -1.4278544,0 -2.5853591,-1.157505 -2.5853591,-2.585359 0,-1.427855 1.1575047,-2.5853595 2.5853591,-2.5853595 1.4278544,0 2.58535908,1.1575045 2.58535908,2.5853595 z"
         transform="matrix(1.0341881,0,0,1.0341881,14.085093,0.25450833)" />
    </g>
    <path
       style="fill:url(#linearGradient3902);fill-opacity:1;stroke:none;display:inline"
       d="M 6.3755088,3.7497332 C 4.738047,3.6773595 3.9125384,5.2918213 3.9125384,6.6875 l 7.9561736,0 C 11.347257,5.3022808 10.565159,3.7497332 8.7474313,3.7497332 z"
       id="path3853"
       inkscape:connector-curvature="0"
       sodipodi:nodetypes="cccsc" />
    <g
       id="g4015"
       transform="matrix(0.94351033,0,0,0.84955176,0.31126584,0.94948915)">
      <rect
         y="4.233942"
         x="5.5101376"
         height="2.0771263"
         width="4.4255881"
         id="rect4009"
         style="fill:#313131;fill-opacity:1;stroke:none" />
      <rect
         y="4.5190382"
         x="5.8188996"
         height="1.5069346"
         width="3.8080645"
         id="rect3995"
         style="fill:url(#linearGradient4020);fill-opacity:1;stroke:none" />
      <rect
         style="fill:url(#linearGradient4022);fill-opacity:1;stroke:none"
         id="rect4007"
         width="3.8080645"
         height="1.5069346"
         x="5.8188996"
         y="4.5190382" />
    </g>
    <path
       style="fill:url(#linearGradient3900);fill-opacity:1;stroke:none;display:inline"
       d="m 18.912764,13.84375 c -1.350233,2.883106 -8.008205,4.589922 -15.5442775,3.598289 1.1718076,1.514218 2.3325942,1.214438 2.8838508,1.214438 l 9.4922387,0 c 2.31137,0 3.168188,-1.698202 3.168188,-2.269131 z"
       id="path3877"
       inkscape:connector-curvature="0"
       sodipodi:nodetypes="ccscsc" />
    <path
       style="fill:#000000;fill-opacity:0.58823529;stroke:none;display:inline"
       d="m 6.15625,3.75 c -1.4571955,-0.064406 -1.9463138,1.3688374 -2.25,2.96875 -0.2916667,0 -0.5833333,0 -0.875,0 l 0,9.78125 c -0.1042594,1.086447 1.6028235,2.21875 2.59375,2.21875 l 10.6875,0 C 17.257064,18.78394 19,17.264115 19,16.375 l 0,-7.21875 c 0.06023,-0.9238015 -1.377084,-2.4375 -2.25,-2.4375 -1.625,0 -3.25,0 -4.875,0 C 11.12484,5.2252488 10.542955,3.75 8.875,3.75 z M 6.125,4.1875 c 0.010412,3.721e-4 0.020838,3.721e-4 0.03125,0 l 2.71875,0 c 0.7049929,0 1.1052333,0.2602181 1.5,0.75 0.36074,0.4475649 0.661036,1.0958391 1,1.78125 l -7,0 C 4.5203464,5.9768023 4.6941881,5.284994 4.96875,4.84375 5.2558983,4.3822786 5.5415764,4.1617134 6.125,4.1875 z M 3.46875,7.15625 c 4.5992695,0 9.334052,0 13.28125,0 0.183573,0 0.743663,0.2766361 1.15625,0.71875 0.412587,0.4421139 0.670657,1.0290391 0.65625,1.25 -3.72e-4,0.010412 -3.72e-4,0.020838 0,0.03125 l 0,7.21875 c 0,0.15868 -0.340056,0.748252 -0.84375,1.1875 -0.503694,0.439248 -1.154141,0.733993 -1.375,0.71875 -0.01041,-3.72e-4 -0.02084,-3.72e-4 -0.03125,0 l -10.6875,0 c -0.3288237,0 -0.9644647,-0.256428 -1.4375,-0.625 -0.4730353,-0.368572 -0.7478102,-0.822175 -0.71875,-1.125 3.721e-4,-0.01041 3.721e-4,-0.02084 0,-0.03125 z"
       id="path3904"
       inkscape:connector-curvature="0"
       sodipodi:nodetypes="ccccscscccscccssccscccsccssccssccc" />
  </g>
</svg>
