<?xml version="1.0" encoding="UTF-8" standalone="no"?>
<!-- Created with Inkscape (http://www.inkscape.org/) -->

<svg
   xmlns:dc="http://purl.org/dc/elements/1.1/"
   xmlns:cc="http://creativecommons.org/ns#"
   xmlns:rdf="http://www.w3.org/1999/02/22-rdf-syntax-ns#"
   xmlns:svg="http://www.w3.org/2000/svg"
   xmlns="http://www.w3.org/2000/svg"
   xmlns:xlink="http://www.w3.org/1999/xlink"
   xmlns:sodipodi="http://sodipodi.sourceforge.net/DTD/sodipodi-0.dtd"
   xmlns:inkscape="http://www.inkscape.org/namespaces/inkscape"
   width="22"
   height="22"
   id="svg2"
   sodipodi:version="0.32"
   inkscape:version="0.47 r22583"
   sodipodi:docname="refresh2-2.svg"
   inkscape:output_extension="org.inkscape.output.svg.inkscape"
   version="1.0"
   inkscape:export-filename="C:\Documents and Settings\Propriétaire\Bureau\wiLink\fresh\refresh2-2.png"
   inkscape:export-xdpi="65.454544"
   inkscape:export-ydpi="65.454544">
  <defs
     id="defs4">
    <linearGradient
       id="linearGradient3606">
      <stop
         style="stop-color:#287004;stop-opacity:1;"
         offset="0"
         id="stop3608" />
      <stop
         id="stop3614"
         offset="0.74158061"
         style="stop-color:#48c907;stop-opacity:1;" />
      <stop
         style="stop-color:#287004;stop-opacity:1;"
         offset="1"
         id="stop3610" />
    </linearGradient>
    <inkscape:perspective
       sodipodi:type="inkscape:persp3d"
       inkscape:vp_x="0 : 11 : 1"
       inkscape:vp_y="0 : 1000 : 0"
       inkscape:vp_z="22 : 11 : 1"
       inkscape:persp3d-origin="11 : 7.3333333 : 1"
       id="perspective29" />
    <linearGradient
       id="linearGradient3877">
      <stop
         style="stop-color:#646464;stop-opacity:1;"
         offset="0"
         id="stop3879" />
      <stop
         style="stop-color:#646464;stop-opacity:0;"
         offset="1"
         id="stop3881" />
    </linearGradient>
    <linearGradient
       id="linearGradient3865">
      <stop
         style="stop-color:#3cac05;stop-opacity:1;"
         offset="0"
         id="stop3867" />
      <stop
         style="stop-color:#86f93a;stop-opacity:1;"
         offset="1"
         id="stop3869" />
    </linearGradient>
    <linearGradient
       inkscape:collect="always"
       id="linearGradient3815">
      <stop
         style="stop-color:#ffffff;stop-opacity:1;"
         offset="0"
         id="stop3817" />
      <stop
         style="stop-color:#ffffff;stop-opacity:0;"
         offset="1"
         id="stop3819" />
    </linearGradient>
    <linearGradient
       inkscape:collect="always"
       xlink:href="#linearGradient3815"
       id="linearGradient3821"
       x1="6.6855025"
       y1="-0.81110662"
       x2="6.6855025"
       y2="14.728623"
       gradientUnits="userSpaceOnUse"
       gradientTransform="translate(0,2)" />
    <filter
       inkscape:collect="always"
       id="filter3838">
      <feGaussianBlur
         inkscape:collect="always"
         stdDeviation="0.26715962"
         id="feGaussianBlur3840" />
    </filter>
    <linearGradient
       inkscape:collect="always"
       xlink:href="#linearGradient3865"
       id="linearGradient3871"
       x1="11.376495"
       y1="11.114855"
       x2="11.376495"
       y2="18.625"
       gradientUnits="userSpaceOnUse"
       gradientTransform="matrix(0.87504996,0,0,0.87504996,1.3451652,0.3120503)" />
    <linearGradient
       inkscape:collect="always"
       xlink:href="#linearGradient3815"
       id="linearGradient3873"
       gradientUnits="userSpaceOnUse"
       gradientTransform="matrix(0.87504996,0,0,0.87504996,1.3451652,0.3120503)"
       x1="6.6855025"
       y1="-0.81110662"
       x2="6.6855025"
       y2="14.728623" />
    <radialGradient
       inkscape:collect="always"
       xlink:href="#linearGradient3877"
       id="radialGradient3885"
       cx="11.1875"
       cy="18.03125"
       fx="11.1875"
       fy="18.03125"
       r="8.375"
       gradientTransform="matrix(1,0,0,0.25,0,13.523438)"
       gradientUnits="userSpaceOnUse" />
    <linearGradient
       inkscape:collect="always"
       xlink:href="#linearGradient3606"
       id="linearGradient3612"
       x1="9.7395267"
       y1="0.68409109"
       x2="9.7395267"
       y2="14.620313"
       gradientUnits="userSpaceOnUse" />
  </defs>
  <sodipodi:namedview
     id="base"
     pagecolor="#ffffff"
     bordercolor="#666666"
     borderopacity="1.0"
     gridtolerance="10000"
     guidetolerance="10"
     objecttolerance="10"
     inkscape:pageopacity="0.0"
     inkscape:pageshadow="2"
     inkscape:zoom="0.84852814"
     inkscape:cx="-201.16962"
     inkscape:cy="77.300378"
     inkscape:document-units="px"
     inkscape:current-layer="layer1"
     showgrid="false"
     inkscape:window-width="1280"
     inkscape:window-height="968"
     inkscape:window-x="-4"
     inkscape:window-y="-4"
     inkscape:window-maximized="1"
     inkscape:snap-global="false">
    <inkscape:grid
       type="xygrid"
       id="grid2402" />
  </sodipodi:namedview>
  <metadata
     id="metadata7">
    <rdf:RDF>
      <cc:Work
         rdf:about="">
        <dc:format>image/svg+xml</dc:format>
        <dc:type
           rdf:resource="http://purl.org/dc/dcmitype/StillImage" />
        <dc:title></dc:title>
      </cc:Work>
    </rdf:RDF>
  </metadata>
  <g
     inkscape:label="Layer 1"
     inkscape:groupmode="layer"
     id="layer1"
     transform="translate(0,2)">
    <path
       sodipodi:type="arc"
       style="fill:url(#radialGradient3885);fill-opacity:1;stroke:none;stroke-width:0.50000000000000000;stroke-miterlimit:4;stroke-opacity:1;stroke-dasharray:none"
       id="path3875"
       sodipodi:cx="11.1875"
       sodipodi:cy="18.03125"
       sodipodi:rx="8.375"
       sodipodi:ry="2.09375"
       d="m 19.5625,18.03125 c 0,1.156346 -3.749615,2.09375 -8.375,2.09375 -4.6253848,0 -8.375,-0.937404 -8.375,-2.09375 0,-1.156346 3.7496152,-2.09375 8.375,-2.09375 4.625385,0 8.375,0.937404 8.375,2.09375 z"
       transform="translate(0,-2)" />
    <path
       style="fill:url(#linearGradient3871);fill-opacity:1;stroke:url(#linearGradient3612);stroke-opacity:1;stroke-width:0.29999999999999999;stroke-miterlimit:4;stroke-dasharray:none"
       d="m 10.952797,0.3013132 c -4.3486072,0 -7.8861866,3.5375795 -7.8861866,7.8861868 0,4.348607 3.5375794,7.886186 7.8861866,7.886186 2.129936,0 4.045002,-0.869103 5.465427,-2.246065 l -2.545542,-2.271022 c -0.782871,0.67759 -1.799451,1.098077 -2.919885,1.098077 -2.4732703,0 -4.4671753,-1.993906 -4.4671753,-4.467176 0,-2.318691 1.7597763,-4.2378441 4.0179623,-4.4671754 0.150546,-0.015289 0.294633,0 0.449213,0 1.18015,0 2.249432,0.4532425 3.044667,1.1979018 L 12.325393,6.4156036 18.464639,7.7632431 18.19012,1.2246959 16.567961,2.6721605 C 15.137046,1.2122036 13.153626,0.3013132 10.952797,0.3013132 z"
       id="path3779" />
    <path
       style="fill:url(#linearGradient3873);fill-opacity:1;stroke:none"
       d="m 10.943369,0.8042659 c -4.0864682,0 -7.3832335,3.2967656 -7.3832335,7.3832341 0,0.2554043 0.0022,0.517046 0.027345,0.7656687 C 4.1707872,7.7839208 5.2027991,6.7844825 6.5134291,6.0272204 7.248154,4.5121354 8.7048898,3.4153413 10.451154,3.2379986 c 0.211296,-0.021459 0.369603,0 0.492215,0 1.298244,0 2.502803,0.4810359 3.390819,1.312575 a 0.48487541,0.48487541 0 0 1 0.136727,0.2461078 c 0.0017,3.386e-4 -0.0017,0.027006 0,0.027345 1.269567,0.2473643 2.431403,0.6926482 3.418164,1.2852296 L 17.752352,2.2809128 16.904647,3.0192362 A 0.48487541,0.48487541 0 0 1 16.221015,2.9918908 C 14.879207,1.6228502 13.013235,0.8042659 10.943369,0.8042659 z"
       id="path3813" />
  </g>
</svg>
