<?xml version="1.0" encoding="UTF-8" standalone="no"?>
<!-- Created with Inkscape (http://www.inkscape.org/) -->

<svg
   xmlns:dc="http://purl.org/dc/elements/1.1/"
   xmlns:cc="http://creativecommons.org/ns#"
   xmlns:rdf="http://www.w3.org/1999/02/22-rdf-syntax-ns#"
   xmlns:svg="http://www.w3.org/2000/svg"
   xmlns="http://www.w3.org/2000/svg"
   xmlns:xlink="http://www.w3.org/1999/xlink"
   xmlns:sodipodi="http://sodipodi.sourceforge.net/DTD/sodipodi-0.dtd"
   xmlns:inkscape="http://www.inkscape.org/namespaces/inkscape"
   width="22"
   height="22"
   id="svg3261"
   sodipodi:version="0.32"
   inkscape:version="0.48.1 r9760"
   version="1.0"
   sodipodi:docname="share.svg"
   inkscape:output_extension="org.inkscape.output.svg.inkscape">
  <defs
     id="defs3263">
    <linearGradient
       id="linearGradient4041">
      <stop
         style="stop-color:#ffffff;stop-opacity:1;"
         offset="0"
         id="stop4043" />
      <stop
         style="stop-color:#ffffff;stop-opacity:0;"
         offset="1"
         id="stop4045" />
    </linearGradient>
    <linearGradient
       inkscape:collect="always"
       id="linearGradient3975">
      <stop
         style="stop-color:#ffffff;stop-opacity:1;"
         offset="0"
         id="stop3977" />
      <stop
         style="stop-color:#ffffff;stop-opacity:0;"
         offset="1"
         id="stop3979" />
    </linearGradient>
    <filter
       id="filter3733"
       inkscape:collect="always">
      <feGaussianBlur
         id="feGaussianBlur3735"
         stdDeviation="0.29335875"
         inkscape:collect="always" />
    </filter>
    <filter
       id="filter3733-0"
       inkscape:collect="always">
      <feGaussianBlur
         id="feGaussianBlur3735-4"
         stdDeviation="0.29335875"
         inkscape:collect="always" />
    </filter>
    <linearGradient
       inkscape:collect="always"
       xlink:href="#linearGradient3975"
       id="linearGradient3985"
       gradientUnits="userSpaceOnUse"
       x1="13.798531"
       y1="233.60979"
       x2="13.798531"
       y2="239.27254"
       gradientTransform="translate(-4.4310482,-233.20413)" />
    <filter
       inkscape:collect="always"
       id="filter3996"
       x="-0.066716417"
       width="1.1334328"
       y="-0.59600004"
       height="2.1920001">
      <feGaussianBlur
         inkscape:collect="always"
         stdDeviation="0.25722392"
         id="feGaussianBlur3998" />
    </filter>
    <linearGradient
       inkscape:collect="always"
       xlink:href="#linearGradient3975"
       id="linearGradient4015"
       gradientUnits="userSpaceOnUse"
       gradientTransform="translate(-4.4310482,-233.20413)"
       x1="13.798531"
       y1="233.60979"
       x2="13.798531"
       y2="239.27254" />
    <filter
       inkscape:collect="always"
       id="filter4035"
       x="-0.25759158"
       width="1.5151832"
       y="-0.25759158"
       height="1.5151832">
      <feGaussianBlur
         inkscape:collect="always"
         stdDeviation="0.40877569"
         id="feGaussianBlur4037" />
    </filter>
    <linearGradient
       inkscape:collect="always"
       xlink:href="#linearGradient4041"
       id="linearGradient4052"
       gradientUnits="userSpaceOnUse"
       gradientTransform="matrix(1.2779687,0,0,1.2779687,-3.7889934,-3.69913)"
       x1="12.098656"
       y1="9.2790976"
       x2="12.098656"
       y2="11.09731" />
    <filter
       inkscape:collect="always"
       id="filter6862">
      <feGaussianBlur
         inkscape:collect="always"
         stdDeviation="0.5328125"
         id="feGaussianBlur6864" />
    </filter>
    <filter
       color-interpolation-filters="sRGB"
       inkscape:collect="always"
       id="filter4035-0"
       x="-0.25759158"
       width="1.5151832"
       y="-0.25759158"
       height="1.5151832">
      <feGaussianBlur
         inkscape:collect="always"
         stdDeviation="0.40877569"
         id="feGaussianBlur4037-6" />
    </filter>
    <linearGradient
       id="linearGradient4041-8">
      <stop
         style="stop-color:#ffffff;stop-opacity:1;"
         offset="0"
         id="stop4043-5" />
      <stop
         style="stop-color:#ffffff;stop-opacity:0;"
         offset="1"
         id="stop4045-0" />
    </linearGradient>
    <linearGradient
       inkscape:collect="always"
       xlink:href="#linearGradient3975-7"
       id="linearGradient3985-9"
       gradientUnits="userSpaceOnUse"
       x1="13.798531"
       y1="233.60979"
       x2="13.798531"
       y2="239.27254"
       gradientTransform="translate(-4.4310482,-233.20413)" />
    <linearGradient
       inkscape:collect="always"
       id="linearGradient3975-7">
      <stop
         style="stop-color:#ffffff;stop-opacity:1;"
         offset="0"
         id="stop3977-6" />
      <stop
         style="stop-color:#ffffff;stop-opacity:0;"
         offset="1"
         id="stop3979-0" />
    </linearGradient>
    <filter
       color-interpolation-filters="sRGB"
       inkscape:collect="always"
       id="filter3996-8"
       x="-0.066716418"
       width="1.1334327"
       y="-0.59600002"
       height="2.1920002">
      <feGaussianBlur
         inkscape:collect="always"
         stdDeviation="0.25722392"
         id="feGaussianBlur3998-0" />
    </filter>
    <linearGradient
       inkscape:collect="always"
       xlink:href="#linearGradient3975-7"
       id="linearGradient4015-9"
       gradientUnits="userSpaceOnUse"
       gradientTransform="translate(-4.4310482,-233.20413)"
       x1="13.798531"
       y1="233.60979"
       x2="13.798531"
       y2="239.27254" />
    <linearGradient
       y2="11.09731"
       x2="12.098656"
       y1="9.2790976"
       x1="12.098656"
       gradientTransform="matrix(1.2779687,0,0,1.2779687,-3.7889934,-3.69913)"
       gradientUnits="userSpaceOnUse"
       id="linearGradient6911"
       xlink:href="#linearGradient4041-8"
       inkscape:collect="always" />
    <linearGradient
       inkscape:collect="always"
       xlink:href="#linearGradient4041-8"
       id="linearGradient6981"
       gradientUnits="userSpaceOnUse"
       gradientTransform="matrix(1.2779687,0,0,1.2779687,-25.223094,228.06171)"
       x1="12.098656"
       y1="9.2790976"
       x2="12.098656"
       y2="11.09731" />
    <linearGradient
       inkscape:collect="always"
       xlink:href="#linearGradient3975-7"
       id="linearGradient6987"
       gradientUnits="userSpaceOnUse"
       gradientTransform="matrix(-1,0,0,1,5.0342851,10.5196)"
       x1="13.798531"
       y1="233.60979"
       x2="13.798531"
       y2="239.27254" />
    <linearGradient
       inkscape:collect="always"
       xlink:href="#linearGradient3975-7"
       id="linearGradient6992"
       gradientUnits="userSpaceOnUse"
       gradientTransform="translate(-25.865149,-1.44329)"
       x1="13.798531"
       y1="233.60979"
       x2="13.798531"
       y2="239.27254" />
  </defs>
  <sodipodi:namedview
     id="base"
     pagecolor="#ffffff"
     bordercolor="#666666"
     borderopacity="1.0"
     gridtolerance="10000"
     guidetolerance="10"
     objecttolerance="10"
     inkscape:pageopacity="0.0"
     inkscape:pageshadow="2"
     inkscape:zoom="1"
     inkscape:cx="-17.657695"
     inkscape:cy="-59.547423"
     inkscape:document-units="px"
     inkscape:current-layer="layer1"
     showgrid="false"
     inkscape:window-width="1366"
     inkscape:window-height="692"
     inkscape:window-x="0"
     inkscape:window-y="25"
     showborder="true"
     inkscape:window-maximized="1"
     inkscape:snap-global="false"
     showguides="true"
     inkscape:guide-bbox="true">
    <inkscape:grid
       type="xygrid"
       id="grid3760"
       empspacing="5"
       visible="true"
       enabled="true"
       snapvisiblegridlinesonly="true" />
  </sodipodi:namedview>
  <metadata
     id="metadata3266">
    <rdf:RDF>
      <cc:Work
         rdf:about="">
        <dc:format>image/svg+xml</dc:format>
        <dc:type
           rdf:resource="http://purl.org/dc/dcmitype/StillImage" />
        <dc:title></dc:title>
      </cc:Work>
    </rdf:RDF>
  </metadata>
  <g
     inkscape:label="Layer 1"
     inkscape:groupmode="layer"
     id="layer1"
     transform="translate(-4.4310482,-233.20413)">
    <path
       style="fill:#aaaaaa;fill-opacity:1;stroke:none;filter:url(#filter6862)"
       d="m 10.977923,233.59475 -6.2499998,4.59375 6.2499998,4.65625 0,-2.625 9.8125,0 0,-4.0625 -9.8125,0 0,-2.5625 z m 4.4375,7.90625 c -1.478893,0 -2.6875,1.20861 -2.6875,2.6875 0,1.47889 1.208607,2.6875 2.6875,2.6875 1.478893,0 2.65625,-1.20861 2.65625,-2.6875 0,-1.47889 -1.177357,-2.6875 -2.65625,-2.6875 z m 4.46875,4.03125 0,2.59375 -9.8125,0 0,4.0625 9.8125,0 0,2.625 6.25,-4.65625 -6.25,-4.625 z"
       id="path4009-0"
       inkscape:connector-curvature="0" />
    <g
       id="g6845">
      <path
         transform="matrix(1.4061738,0,0,1.4061738,-0.84156899,228.03039)"
         d="m 13.476563,11.501953 c 0,1.051714 -0.852583,1.904297 -1.904297,1.904297 -1.051714,0 -1.9042972,-0.852583 -1.9042972,-1.904297 0,-1.051714 0.8525832,-1.9042967 1.9042972,-1.9042967 1.051714,0 1.904297,0.8525827 1.904297,1.9042967 z"
         sodipodi:ry="1.9042969"
         sodipodi:rx="1.9042969"
         sodipodi:cy="11.501953"
         sodipodi:cx="11.572266"
         id="path2986"
         style="fill:#ff9b2b;fill-opacity:1;stroke:none;stroke-width:0.71114964999999997;stroke-linecap:butt;stroke-linejoin:bevel;stroke-miterlimit:4;stroke-opacity:1;stroke-dasharray:none;stroke-dashoffset:0"
         sodipodi:type="arc" />
      <path
         sodipodi:type="arc"
         style="fill:#ffc62f;fill-opacity:1;stroke:none;filter:url(#filter4035)"
         id="path4017"
         sodipodi:cx="11.572266"
         sodipodi:cy="11.501953"
         sodipodi:rx="1.9042969"
         sodipodi:ry="1.9042969"
         d="m 13.476563,11.501953 a 1.9042969,1.9042969 0 1 1 -3.8085942,0 1.9042969,1.9042969 0 1 1 3.8085942,0 z"
         transform="matrix(0.73950714,0,0,0.34544294,6.8244467,241.76895)" />
      <path
         id="path4039"
         transform="translate(4.4310482,233.20413)"
         d="M 11 8.5625 C 9.7813015 8.5625 8.7714537 9.4559319 8.59375 10.625 C 9.1837228 10.117381 10.047538 9.78125 11 9.78125 C 11.952462 9.78125 12.816277 10.117381 13.40625 10.625 C 13.228546 9.4559319 12.218699 8.5625 11 8.5625 z "
         style="fill:url(#linearGradient4052);fill-opacity:1;stroke:none" />
    </g>
    <g
       id="g4007"
       transform="matrix(-1,0,0,1,30.899434,11.962892)">
      <path
         d="m 20.803628,236.17503 -9.815943,0 0,-2.57402 -6.2351495,4.61094 6.2351495,4.65976 0,-2.62285 9.815943,0 z"
         id="path4009"
         style="fill:#0ece17;fill-opacity:1;stroke:none"
         inkscape:connector-curvature="0"
         sodipodi:nodetypes="cccccccc" />
      <path
         style="fill:url(#linearGradient4015);fill-opacity:1;stroke:none"
         d="M 6.25,1 0.84375,5 2.3125,6.09375 c 1.5207549,-1.252806 4.6252082,-2.125 8.21875,-2.125 2.082406,0 3.987824,0.2949605 5.53125,0.78125 l 0,-1.46875 -9.5,0 A 0.29977324,0.29977324 0 0 1 6.40625,3.21875 0.29977324,0.29977324 0 0 1 6.28125,3.0625 0.29977324,0.29977324 0 0 1 6.25,2.96875 L 6.25,1 z"
         id="path4011"
         transform="translate(4.4310482,233.20413)"
         inkscape:connector-curvature="0" />
      <rect
         style="fill:#37ff10;fill-opacity:1;stroke:none;filter:url(#filter3996)"
         id="rect4013"
         width="9.2531557"
         height="1.0358009"
         x="11.19828"
         y="238.80396" />
    </g>
    <path
       sodipodi:type="inkscape:offset"
       inkscape:radius="-0.11418685"
       inkscape:original="M 8.5 1034.25 L 8.5 1041.7812 L 6 1041.7812 L 11 1048.4688 L 16 1041.7812 L 13.5 1041.7812 L 13.5 1034.25 L 8.5 1034.25 z "
       style="opacity:0.2;fill:none;stroke:#000000;stroke-width:0.30000001;stroke-miterlimit:4;stroke-opacity:1;stroke-dasharray:none;filter:url(#filter3733)"
       id="path3731"
       d="m 8.625,1034.375 0,7.4062 a 0.11419827,0.11419827 0 0 1 -0.03125,0.031 0.11419827,0.11419827 0 0 1 0,0.031 0.11419827,0.11419827 0 0 1 -0.03125,0.031 0.11419827,0.11419827 0 0 1 -0.03125,0.031 0.11419827,0.11419827 0 0 1 -0.03125,0 l -2.28125,0 4.78125,6.375 4.78125,-6.375 -2.28125,0 a 0.11419827,0.11419827 0 0 1 -0.03125,-0.031 0.11419827,0.11419827 0 0 1 -0.03125,0 0.11419827,0.11419827 0 0 1 -0.03125,-0.031 0.11419827,0.11419827 0 0 1 -0.03125,-0.031 0.11419827,0.11419827 0 0 1 0,-0.031 l 0,-7.4062 -4.75,0 z" />
    <path
       sodipodi:type="inkscape:offset"
       inkscape:radius="-0.11418685"
       inkscape:original="M 8.5 1034.25 L 8.5 1041.7812 L 6 1041.7812 L 11 1048.4688 L 16 1041.7812 L 13.5 1041.7812 L 13.5 1034.25 L 8.5 1034.25 z "
       style="opacity:0.2;fill:none;stroke:#000000;stroke-width:0.30000001;stroke-miterlimit:4;stroke-opacity:1;stroke-dasharray:none;filter:url(#filter3733-0)"
       id="path3731-0"
       d="m 8.625,1034.375 0,7.4062 a 0.11419827,0.11419827 0 0 1 -0.03125,0.031 0.11419827,0.11419827 0 0 1 0,0.031 0.11419827,0.11419827 0 0 1 -0.03125,0.031 0.11419827,0.11419827 0 0 1 -0.03125,0.031 0.11419827,0.11419827 0 0 1 -0.03125,0 l -2.28125,0 4.78125,6.375 4.78125,-6.375 -2.28125,0 a 0.11419827,0.11419827 0 0 1 -0.03125,-0.031 0.11419827,0.11419827 0 0 1 -0.03125,0 0.11419827,0.11419827 0 0 1 -0.03125,-0.031 0.11419827,0.11419827 0 0 1 -0.03125,-0.031 0.11419827,0.11419827 0 0 1 0,-0.031 l 0,-7.4062 -4.75,0 z" />
    <g
       id="g4002">
      <path
         sodipodi:nodetypes="cccccccc"
         inkscape:connector-curvature="0"
         style="fill:#0ece17;fill-opacity:1;stroke:none"
         id="rect5207"
         d="m 20.803628,236.17503 -9.815943,0 0,-2.57402 -6.2351495,4.61094 6.2351495,4.65976 0,-2.62285 9.815943,0 z" />
      <path
         transform="translate(4.4310482,233.20413)"
         id="path3983"
         d="M 6.25 1 L 0.84375 5 L 2.3125 6.09375 C 3.8332549 4.840944 6.9377082 3.96875 10.53125 3.96875 C 12.613656 3.96875 14.519074 4.2637105 16.0625 4.75 L 16.0625 3.28125 L 6.5625 3.28125 A 0.29977324 0.29977324 0 0 1 6.40625 3.21875 A 0.29977324 0.29977324 0 0 1 6.28125 3.0625 A 0.29977324 0.29977324 0 0 1 6.25 2.96875 L 6.25 1 z "
         style="fill:url(#linearGradient3985);fill-opacity:1;stroke:none" />
      <rect
         y="238.80396"
         x="11.19828"
         height="1.0358009"
         width="9.2531557"
         id="rect3990"
         style="fill:#37ff10;fill-opacity:1;stroke:none;filter:url(#filter3996)" />
    </g>
    <path
       style="fill:#000000;fill-opacity:0.58823532;stroke:none"
       d="m 10.962298,233.59475 -6.2187498,4.59375 6.2187498,4.65625 0,-2.625 9.8125,0 0,-4.0625 -9.8125,0 0,-2.5625 z m -0.34375,0.6875 0,1.875 a 0.34530152,0.34530152 0 0 0 0.34375,0.34375 l 9.46875,0 0,3.375 -9.46875,0 a 0.34530152,0.34530152 0 0 0 -0.34375,0.34375 l 0,1.9375 -5.2812498,-3.96875 5.2812498,-3.90625 z m 4.78125,7.21875 c -1.478893,0 -2.65625,1.20861 -2.65625,2.6875 0,1.47889 1.177357,2.6875 2.65625,2.6875 1.478893,0 2.6875,-1.20861 2.6875,-2.6875 0,-1.47889 -1.208607,-2.6875 -2.6875,-2.6875 z m 0,0.34375 c 1.290783,0 2.34375,1.05297 2.34375,2.34375 0,1.29078 -1.052967,2.34375 -2.34375,2.34375 -1.290783,0 -2.3125,-1.0481 -2.3125,-2.34375 0,-1.29565 1.021717,-2.34375 2.3125,-2.34375 z m 4.5,3.6875 0,2.59375 -9.8125,0 0,4.0625 9.8125,0 0,2.625 6.21875,-4.65625 -6.21875,-4.625 z m 0.34375,0.6875 5.28125,3.9375 -5.28125,3.96875 0,-1.9375 a 0.34530152,0.34530152 0 0 0 -0.34375,-0.34375 l -9.46875,0 0,-3.375 9.46875,0 a 0.34530152,0.34530152 0 0 0 0.34375,-0.34375 l 0,-1.90625 z"
       id="path2986-4"
       inkscape:connector-curvature="0" />
  </g>
</svg>
