<?xml version="1.0" encoding="UTF-8" standalone="no"?>
<!-- Created with Inkscape (http://www.inkscape.org/) -->

<svg
   xmlns:dc="http://purl.org/dc/elements/1.1/"
   xmlns:cc="http://creativecommons.org/ns#"
   xmlns:rdf="http://www.w3.org/1999/02/22-rdf-syntax-ns#"
   xmlns:svg="http://www.w3.org/2000/svg"
   xmlns="http://www.w3.org/2000/svg"
   xmlns:sodipodi="http://sodipodi.sourceforge.net/DTD/sodipodi-0.dtd"
   xmlns:inkscape="http://www.inkscape.org/namespaces/inkscape"
   width="250"
   height="250"
   id="svg3261"
   sodipodi:version="0.32"
   inkscape:version="0.47 r22583"
   version="1.0"
   sodipodi:docname="wDesktop.svg"
   inkscape:output_extension="org.inkscape.output.svg.inkscape">
  <defs
     id="defs3263">
    <inkscape:perspective
       sodipodi:type="inkscape:persp3d"
       inkscape:vp_x="0 : 526.18109 : 1"
       inkscape:vp_y="0 : 1000 : 0"
       inkscape:vp_z="744.09448 : 526.18109 : 1"
       inkscape:persp3d-origin="372.04724 : 350.78739 : 1"
       id="perspective3269" />
    <inkscape:perspective
       id="perspective3332"
       inkscape:persp3d-origin="372.04724 : 350.78739 : 1"
       inkscape:vp_z="744.09448 : 526.18109 : 1"
       inkscape:vp_y="0 : 1000 : 0"
       inkscape:vp_x="0 : 526.18109 : 1"
       sodipodi:type="inkscape:persp3d" />
    <filter
       inkscape:collect="always"
       id="filter4063">
      <feGaussianBlur
         inkscape:collect="always"
         stdDeviation="6.3250562"
         id="feGaussianBlur4065" />
    </filter>
    <filter
       inkscape:collect="always"
       id="filter4079">
      <feGaussianBlur
         inkscape:collect="always"
         stdDeviation="4.1494164"
         id="feGaussianBlur4081" />
    </filter>
    <filter
       inkscape:collect="always"
       id="filter4723">
      <feGaussianBlur
         inkscape:collect="always"
         stdDeviation="3.416698"
         id="feGaussianBlur4725" />
    </filter>
    <clipPath
       clipPathUnits="userSpaceOnUse"
       id="clipPath4729">
      <path
         id="path4731"
         style="fill:#004dc1;fill-opacity:1;stroke:none"
         d="m 85.518938,148.54709 c -5.472546,-3.85903 -8.422152,-10.14617 -10.892143,-16.0907 -3.546178,-8.5346 -4.076141,-18.41392 -1.573849,-27.24953 3.998687,-14.119407 15.956096,-25.409162 30.022994,-29.719098 11.70336,-3.585775 25.82554,-1.775119 34.41693,7.40167 3.85493,4.11758 6.98875,9.304374 7.98636,14.810877 1.20337,6.642211 -1.03046,13.891951 -4.7917,19.483521 -3.16831,4.71009 -9.42912,6.01835 -14.80772,7.05567 -4.38598,0.84587 -8.7164,-4.56499 -5.30779,-7.88436 2.98616,-2.90799 7.91023,-3.83375 9.09006,-8.5532 0.89191,-3.56776 1.14981,-7.53702 -1.68569,-10.440003 -6.50237,-6.657102 -16.93157,-6.752189 -25.00626,-3.485265 -9.355293,3.78504 -17.261557,12.613838 -17.363416,23.120958 -0.06988,7.20864 -0.149882,15.21888 4.88151,20.97943 2.193764,2.51169 5.562005,5.90222 3.863408,9.44973 -1.715367,3.58254 -5.884246,3.19944 -8.832694,1.1203 z m 56.905742,7.13051 c -2.13225,-3.41426 -1.2272,-5.49491 5.41371,-12.44586 11.00788,-11.52183 16.36397,-20.72575 19.37848,-33.30001 2.16212,-9.01878 2.26146,-16.117521 0.33419,-23.880796 -2.13423,-8.596932 -5.11536,-13.83496 -11.39011,-20.013153 -9.6315,-9.483306 -19.11608,-13.065383 -34.64006,-13.082667 -10.73386,-0.01195 -19.73141,1.463015 -29.506807,4.837023 -9.671929,3.338306 -12.489869,2.982392 -13.356102,-1.68691 -0.461592,-2.48817 2.368808,-5.151725 9.053362,-8.519695 14.513527,-7.312563 24.661187,-9.825859 39.672787,-9.825859 30.16031,0 51.73647,14.871656 57.8041,39.842265 1.84412,7.589239 1.41112,23.896502 -0.84737,31.913262 -3.42452,12.1557 -12.5954,27.21463 -22.1793,36.41924 -11.21274,10.76897 -17.23855,13.74363 -19.73688,9.74316 z m -30.93754,66.89178 c -34.497452,-3.92874 -68.197951,-28.52455 -75.256698,-63.4056 -2.392329,-11.82178 -4.301656,-25.4117 0.135465,-36.08373 3.532913,-8.49724 9.56484,5.43371 9.562958,11.34575 -0.0091,28.57003 24.85015,52.71892 51.362129,62.11907 26.535636,9.40855 56.766806,3.39478 78.918446,-13.36379 16.86629,-12.75999 29.51589,-31.11552 34.54994,-51.91641 1.69834,-7.0176 -0.0451,-21.49679 7.16266,-21.51676 8.40173,-0.0233 4.93183,14.14899 3.98484,20.94695 -3.54824,25.47116 -13.91812,51.39824 -34.72628,67.80192 -21.12951,16.65701 -48.49323,27.17029 -75.69346,24.0726 z" />
    </clipPath>
  </defs>
  <sodipodi:namedview
     id="base"
     pagecolor="#ffffff"
     bordercolor="#666666"
     borderopacity="1.0"
     gridtolerance="10000"
     guidetolerance="10"
     objecttolerance="10"
     inkscape:pageopacity="0.0"
     inkscape:pageshadow="2"
     inkscape:zoom="2.5566038"
     inkscape:cx="121.8659"
     inkscape:cy="117.15351"
     inkscape:document-units="px"
     inkscape:current-layer="layer1"
     showgrid="false"
     inkscape:window-width="1280"
     inkscape:window-height="752"
     inkscape:window-x="0"
     inkscape:window-y="0"
     showborder="true"
     inkscape:window-maximized="1" />
  <metadata
     id="metadata3266">
    <rdf:RDF>
      <cc:Work
         rdf:about="">
        <dc:format>image/svg+xml</dc:format>
        <dc:type
           rdf:resource="http://purl.org/dc/dcmitype/StillImage" />
      </cc:Work>
    </rdf:RDF>
  </metadata>
  <g
     inkscape:label="Layer 1"
     inkscape:groupmode="layer"
     id="layer1"
     transform="translate(-4.4310482,-5.204132)">
    <path
       style="fill:#ffffff;fill-opacity:1;stroke:none;filter:url(#filter4063)"
       d="m 125.96875,31.78125 c -18.66165,0.262463 -38.420995,5.695032 -52.03125,18.8125 -4.76386,7.405055 3.87528,18.668031 12.21875,14.96875 18.75697,-5.66977 41.10634,-11.589832 59.125,-0.78125 13.82913,8.352387 20.50023,26.056907 16.65664,41.76359 -2.53273,14.81385 -12.56818,26.7556 -22.59414,37.26766 -4.67773,4.81737 -5.67395,13.42159 0.375,17.59375 6.10298,4.60076 13.70797,0.30222 18.40625,-4.15625 24.78695,-18.66316 40.66315,-52.07378 32.1875,-83.0625 -4.45507,-17.638724 -18.08502,-32.182758 -35.28125,-37.84375 -9.28281,-3.351325 -19.18597,-4.818245 -29.0625,-4.5625 z m -12.90625,36 C 84.240907,68.235902 59.117684,98.297475 66.75,126.8125 c 2.71408,12.16689 9.263031,26.38156 22.5,29.46875 9.398027,0.81686 15.72492,-12.37454 8.375,-18.71875 -9.665616,-10.06992 -8.437476,-28.86502 3.6875,-36.25 6.56051,-4.032615 18.08155,-6.147649 22.75,1.53125 1.70555,6.51933 -8.25973,6.64117 -9.78125,12.03125 -3.3887,7.56437 3.96696,17.03918 12.1875,15.25 13.36718,-0.25109 24.2376,-11.79058 25.125,-24.84375 2.31788,-21.259433 -17.78239,-39.209781 -38.53125,-37.5 z m 104.53125,35.9375 c -9.25842,0.6048 -12.04418,11.56084 -11.90625,19.28125 -4.87571,45.7013 -54.40364,81.40887 -99.1875,69.9375 -24.687575,-6.06911 -47.818079,-24.44285 -53.6875,-50 -1.22862,-9.75617 -0.952204,-23.40284 -11.53125,-28.125 -7.925025,-1.86105 -12.27024,7.3902 -12.75,13.90625 -4.503054,32.60836 10.982459,66.94482 39.0625,84.1875 29.278516,19.63277 69.3552,21.33156 100.49749,4.79066 26.7468,-12.52457 48.18265,-36.48963 55.20221,-65.42506 3.72481,-13.17383 7.1554,-27.3616 5.1753,-41.08435 -1.6388,-4.4298 -6.04181,-7.8331 -10.875,-7.46875 z"
       id="path3957" />
    <path
       sodipodi:type="arc"
       style="fill:#ffffff;fill-opacity:1;stroke:none;filter:url(#filter4079);opacity:0.14814815"
       id="path4069"
       sodipodi:cx="106.20692"
       sodipodi:cy="118.34768"
       sodipodi:rx="58.635067"
       sodipodi:ry="61.954033"
       d="m 164.84198,118.34768 a 58.635067,61.954033 0 1 1 -117.27013,0 58.635067,61.954033 0 1 1 117.27013,0 z"
       transform="matrix(1.0707547,0,0,1.0625,11.83092,-1.852081)" />
    <path
       id="path3340"
       style="fill:#0055d4;fill-opacity:1;stroke:none"
       d="m 85.518938,148.54709 c -5.472546,-3.85903 -8.422152,-10.14617 -10.892143,-16.0907 -3.546178,-8.5346 -4.076141,-18.41392 -1.573849,-27.24953 3.998687,-14.119407 15.956096,-25.409162 30.022994,-29.719098 11.70336,-3.585775 25.82554,-1.775119 34.41693,7.40167 3.85493,4.11758 6.98875,9.304374 7.98636,14.810877 1.20337,6.642211 -1.03046,13.891951 -4.7917,19.483521 -3.16831,4.71009 -9.42912,6.01835 -14.80772,7.05567 -4.38598,0.84587 -8.7164,-4.56499 -5.30779,-7.88436 2.98616,-2.90799 7.91023,-3.83375 9.09006,-8.5532 0.89191,-3.56776 1.14981,-7.53702 -1.68569,-10.440003 -6.50237,-6.657102 -16.93157,-6.752189 -25.00626,-3.485265 -9.355293,3.78504 -17.261557,12.613838 -17.363416,23.120958 -0.06988,7.20864 -0.149882,15.21888 4.88151,20.97943 2.193764,2.51169 5.562005,5.90222 3.863408,9.44973 -1.715367,3.58254 -5.884246,3.19944 -8.832694,1.1203 z m 56.905742,7.13051 c -2.13225,-3.41426 -1.2272,-5.49491 5.41371,-12.44586 11.00788,-11.52183 16.36397,-20.72575 19.37848,-33.30001 2.16212,-9.01878 2.26146,-16.117521 0.33419,-23.880796 -2.13423,-8.596932 -5.11536,-13.83496 -11.39011,-20.013153 -9.6315,-9.483306 -19.11608,-13.065383 -34.64006,-13.082667 -10.73386,-0.01195 -19.73141,1.463015 -29.506807,4.837023 -9.671929,3.338306 -12.489869,2.982392 -13.356102,-1.68691 -0.461592,-2.48817 2.368808,-5.151725 9.053362,-8.519695 14.513527,-7.312563 24.661187,-9.825859 39.672787,-9.825859 30.16031,0 51.73647,14.871656 57.8041,39.842265 1.84412,7.589239 1.41112,23.896502 -0.84737,31.913262 -3.42452,12.1557 -12.5954,27.21463 -22.1793,36.41924 -11.21274,10.76897 -17.23855,13.74363 -19.73688,9.74316 z m -30.93754,66.89178 c -34.497452,-3.92874 -68.197951,-28.52455 -75.256698,-63.4056 -2.392329,-11.82178 -4.301656,-25.4117 0.135465,-36.08373 3.532913,-8.49724 9.56484,5.43371 9.562958,11.34575 -0.0091,28.57003 24.85015,52.71892 51.362129,62.11907 26.535636,9.40855 56.766806,3.39478 78.918446,-13.36379 16.86629,-12.75999 29.51589,-31.11552 34.54994,-51.91641 1.69834,-7.0176 -0.0451,-21.49679 7.16266,-21.51676 8.40173,-0.0233 4.93183,14.14899 3.98484,20.94695 -3.54824,25.47116 -13.91812,51.39824 -34.72628,67.80192 -21.12951,16.65701 -48.49323,27.17029 -75.69346,24.0726 z" />
    <path
       d="m 85.518938,148.54709 c -5.472546,-3.85903 -8.422152,-10.14617 -10.892143,-16.0907 -3.546178,-8.5346 -4.076141,-18.41392 -1.573849,-27.24953 3.998687,-14.119407 15.956096,-25.409162 30.022994,-29.719098 11.70336,-3.585775 25.82554,-1.775119 34.41693,7.40167 3.85493,4.11758 6.98875,9.304374 7.98636,14.810877 1.20337,6.642211 -1.03046,13.891951 -4.7917,19.483521 -3.16831,4.71009 -9.42912,6.01835 -14.80772,7.05567 -4.38598,0.84587 -8.7164,-4.56499 -5.30779,-7.88436 2.98616,-2.90799 7.91023,-3.83375 9.09006,-8.5532 0.89191,-3.56776 1.14981,-7.53702 -1.68569,-10.440003 -6.50237,-6.657102 -16.93157,-6.752189 -25.00626,-3.485265 -9.355293,3.78504 -17.261557,12.613838 -17.363416,23.120958 -0.06988,7.20864 -0.149882,15.21888 4.88151,20.97943 2.193764,2.51169 5.562005,5.90222 3.863408,9.44973 -1.715367,3.58254 -5.884246,3.19944 -8.832694,1.1203 z m 56.905742,7.13051 c -2.13225,-3.41426 -1.2272,-5.49491 5.41371,-12.44586 11.00788,-11.52183 16.36397,-20.72575 19.37848,-33.30001 2.16212,-9.01878 2.26146,-16.117521 0.33419,-23.880796 -2.13423,-8.596932 -5.11536,-13.83496 -11.39011,-20.013153 -9.6315,-9.483306 -19.11608,-13.065383 -34.64006,-13.082667 -10.73386,-0.01195 -19.73141,1.463015 -29.506807,4.837023 -9.671929,3.338306 -12.489869,2.982392 -13.356102,-1.68691 -0.461592,-2.48817 2.368808,-5.151725 9.053362,-8.519695 14.513527,-7.312563 24.661187,-9.825859 39.672787,-9.825859 30.16031,0 51.73647,14.871656 57.8041,39.842265 1.84412,7.589239 1.41112,23.896502 -0.84737,31.913262 -3.42452,12.1557 -12.5954,27.21463 -22.1793,36.41924 -11.21274,10.76897 -17.23855,13.74363 -19.73688,9.74316 z m -30.93754,66.89178 c -34.497452,-3.92874 -68.197951,-28.52455 -75.256698,-63.4056 -2.392329,-11.82178 -4.301656,-25.4117 0.135465,-36.08373 3.532913,-8.49724 9.56484,5.43371 9.562958,11.34575 -0.0091,28.57003 24.85015,52.71892 51.362129,62.11907 26.535636,9.40855 56.766806,3.39478 78.918446,-13.36379 16.86629,-12.75999 29.51589,-31.11552 34.54994,-51.91641 1.69834,-7.0176 -0.0451,-21.49679 7.16266,-21.51676 8.40173,-0.0233 4.93183,14.14899 3.98484,20.94695 -3.54824,25.47116 -13.91812,51.39824 -34.72628,67.80192 -21.12951,16.65701 -48.49323,27.17029 -75.69346,24.0726 z"
       style="fill:none;fill-opacity:1;stroke:#002255;stroke-width:8;stroke-miterlimit:4;stroke-dasharray:none;filter:url(#filter4723)"
       id="path4705"
       clip-path="url(#clipPath4729)" />
  </g>
</svg>
