<?xml version="1.0" encoding="UTF-8" standalone="no"?>
<!-- Created with Inkscape (http://www.inkscape.org/) -->

<svg
   xmlns:dc="http://purl.org/dc/elements/1.1/"
   xmlns:cc="http://creativecommons.org/ns#"
   xmlns:rdf="http://www.w3.org/1999/02/22-rdf-syntax-ns#"
   xmlns:svg="http://www.w3.org/2000/svg"
   xmlns="http://www.w3.org/2000/svg"
   xmlns:sodipodi="http://sodipodi.sourceforge.net/DTD/sodipodi-0.dtd"
   xmlns:inkscape="http://www.inkscape.org/namespaces/inkscape"
   width="22"
   height="22"
   id="svg3261"
   sodipodi:version="0.32"
   inkscape:version="0.48.1 r9760"
   version="1.0"
   sodipodi:docname="wiLink-white.svg"
   inkscape:output_extension="org.inkscape.output.svg.inkscape">
  <defs
     id="defs3263" />
  <sodipodi:namedview
     id="base"
     pagecolor="#ffffff"
     bordercolor="#666666"
     borderopacity="1.0"
     gridtolerance="10000"
     guidetolerance="10"
     objecttolerance="10"
     inkscape:pageopacity="0.0"
     inkscape:pageshadow="2"
     inkscape:zoom="7.2311676"
     inkscape:cx="18.15274"
     inkscape:cy="2.9048173"
     inkscape:document-units="px"
     inkscape:current-layer="layer1"
     showgrid="true"
     inkscape:window-width="1366"
     inkscape:window-height="692"
     inkscape:window-x="0"
     inkscape:window-y="25"
     showborder="true"
     inkscape:window-maximized="1">
    <inkscape:grid
       type="xygrid"
       id="grid3760"
       empspacing="5"
       visible="true"
       enabled="true"
       snapvisiblegridlinesonly="true" />
  </sodipodi:namedview>
  <metadata
     id="metadata3266">
    <rdf:RDF>
      <cc:Work
         rdf:about="">
        <dc:format>image/svg+xml</dc:format>
        <dc:type
           rdf:resource="http://purl.org/dc/dcmitype/StillImage" />
        <dc:title></dc:title>
      </cc:Work>
    </rdf:RDF>
  </metadata>
  <g
     inkscape:label="Layer 1"
     inkscape:groupmode="layer"
     id="layer1"
     transform="translate(-4.4310482,-233.20413)">
    <path
       transform="matrix(0.80308813,0,0,0.80308813,3.0391708,48.089191)"
       style="fill:#ffffff;fill-opacity:1;stroke:#597fbe;stroke-width:0.62259668;stroke-miterlimit:4;stroke-opacity:1"
       d="m 15.3125,233.90625 c -1.641385,0 -2.861281,0.29959 -4.4375,1.09375 -0.373742,0.18831 -0.648972,0.35248 -0.875,0.5625 -0.2260283,0.21002 -0.4412621,0.54908 -0.375,0.90625 0.032545,0.17543 0.1025491,0.38538 0.25,0.5625 0.147451,0.17712 0.383092,0.28345 0.59375,0.3125 0.421316,0.0581 0.780373,-0.0663 1.3125,-0.25 0.973363,-0.33596 1.826295,-0.46971 2.90625,-0.46875 1.546398,0.002 2.320233,0.30329 3.25,1.21875 0.610156,0.60077 0.822753,0.97264 1.03125,1.8125 0.182118,0.73359 0.18066,1.39731 -0.03125,2.28125 -0.296667,1.23748 -0.758297,2.08116 -1.875,3.25 -0.355096,0.37167 -0.593797,0.58383 -0.75,0.90625 -0.0781,0.16121 -0.116911,0.36614 -0.09375,0.5625 0.02316,0.19636 0.107577,0.37202 0.1875,0.5 0.136575,0.21869 0.382747,0.40354 0.65625,0.4375 0.273503,0.034 0.521265,-0.0489 0.75,-0.15625 0.457469,-0.21464 0.952612,-0.60175 1.5625,-1.1875 1.10051,-1.05696 2.069686,-2.67723 2.46875,-4.09375 0.289208,-1.02659 0.333196,-2.63959 0.09375,-3.625 -0.69803,-2.87265 -3.267543,-4.625 -6.625,-4.625 z M 14.78125,237.75 c -0.74296,-0.14101 -1.490779,-0.0572 -2.1875,0.15625 -1.657838,0.50794 -3.0518409,1.80719 -3.53125,3.5 -0.2973595,1.04997 -0.2683312,2.19692 0.15625,3.21875 0.2692714,0.64806 0.6458573,1.42334 1.375,1.9375 0.238149,0.16794 0.50813,0.28837 0.84375,0.28125 0.33562,-0.007 0.732191,-0.23022 0.90625,-0.59375 0.182875,-0.38194 0.08082,-0.80567 -0.0625,-1.0625 -0.143318,-0.25683 -0.300824,-0.44179 -0.40625,-0.5625 -0.358297,-0.41023 -0.413564,-1.0944 -0.40625,-1.84375 0.0079,-0.819 0.696086,-1.581 1.5,-1.90625 0.686783,-0.27787 1.522551,-0.23881 2,0.25 0.112843,0.11553 0.105282,0.26637 0.03125,0.5625 -0.01837,0.0735 -0.01445,0.0919 -0.15625,0.1875 -0.1418,0.0956 -0.408268,0.19601 -0.65625,0.4375 -0.18918,0.18423 -0.280988,0.44401 -0.28125,0.6875 -2.62e-4,0.24349 0.06608,0.45545 0.1875,0.625 0.242836,0.33909 0.665899,0.5946 1.15625,0.5 0.576756,-0.11123 1.439079,-0.25904 1.9375,-1 0.467144,-0.69447 0.754873,-1.57941 0.59375,-2.46875 -0.13178,-0.72738 -0.546252,-1.32784 -1,-1.8125 -0.541108,-0.57798 -1.25605,-0.95255 -2,-1.09375 z m 10.0625,3.71875 c -0.377013,0.001 -0.742478,0.2351 -0.90625,0.5 -0.163772,0.2649 -0.205272,0.54378 -0.25,0.8125 -0.08946,0.53744 -0.1277,1.12791 -0.1875,1.375 -0.496879,2.05313 -1.733375,3.89066 -3.40625,5.15625 -2.185797,1.65364 -5.15711,2.23184 -7.75,1.3125 -2.6065774,-0.9242 -5.0321019,-3.32325 -5.03125,-6 1.596e-4,-0.50134 -0.1634085,-1.02328 -0.4375,-1.46875 -0.1370457,-0.22273 -0.296385,-0.48327 -0.71875,-0.5625 -0.2111825,-0.0396 -0.4685444,0.0558 -0.625,0.1875 -0.1564556,0.13172 -0.2447598,0.27458 -0.3125,0.4375 -0.5514698,1.32638 -0.3200392,2.85237 -0.0625,4.125 0.8012383,3.95935 4.5537029,6.68626 8.40625,7.125 3.045906,0.34689 6.056689,-0.82866 8.375,-2.65625 2.345934,-1.84937 3.48828,-4.75517 3.875,-7.53125 0.04366,-0.3134 0.160593,-0.8781 0.15625,-1.4375 -0.0022,-0.2797 -0.01629,-0.55126 -0.1875,-0.84375 -0.171207,-0.29249 -0.559633,-0.53211 -0.9375,-0.53125 z"
       id="path3766" />
  </g>
</svg>
