<?xml version="1.0" encoding="UTF-8" standalone="no"?>
<!-- Created with Inkscape (http://www.inkscape.org/) -->

<svg
   xmlns:dc="http://purl.org/dc/elements/1.1/"
   xmlns:cc="http://creativecommons.org/ns#"
   xmlns:rdf="http://www.w3.org/1999/02/22-rdf-syntax-ns#"
   xmlns:svg="http://www.w3.org/2000/svg"
   xmlns="http://www.w3.org/2000/svg"
   xmlns:xlink="http://www.w3.org/1999/xlink"
   xmlns:sodipodi="http://sodipodi.sourceforge.net/DTD/sodipodi-0.dtd"
   xmlns:inkscape="http://www.inkscape.org/namespaces/inkscape"
   width="250"
   height="250"
   id="svg3261"
   sodipodi:version="0.32"
   inkscape:version="0.48.1 r9760"
   version="1.0"
   sodipodi:docname="wiLink-available.svg"
   inkscape:output_extension="org.inkscape.output.svg.inkscape"
   style="display:inline;enable-background:new">
  <defs
     id="defs3263">
    <inkscape:perspective
       sodipodi:type="inkscape:persp3d"
       inkscape:vp_x="0 : 526.18109 : 1"
       inkscape:vp_y="0 : 1000 : 0"
       inkscape:vp_z="744.09448 : 526.18109 : 1"
       inkscape:persp3d-origin="372.04724 : 350.78739 : 1"
       id="perspective3269" />
    <inkscape:perspective
       id="perspective3332"
       inkscape:persp3d-origin="372.04724 : 350.78739 : 1"
       inkscape:vp_z="744.09448 : 526.18109 : 1"
       inkscape:vp_y="0 : 1000 : 0"
       inkscape:vp_x="0 : 526.18109 : 1"
       sodipodi:type="inkscape:persp3d" />
    <filter
       inkscape:collect="always"
       id="filter4079"
       color-interpolation-filters="sRGB">
      <feGaussianBlur
         inkscape:collect="always"
         stdDeviation="8.8091199999999983"
         id="feGaussianBlur4081" />
    </filter>
    <clipPath
       clipPathUnits="userSpaceOnUse"
       id="clipPath4729">
      <path
         id="path4731"
         style="fill:#004dc1;fill-opacity:1;stroke:none"
         d="m 85.518938,148.54709 c -5.472546,-3.85903 -8.422152,-10.14617 -10.892143,-16.0907 -3.546178,-8.5346 -4.076141,-18.41392 -1.573849,-27.24953 3.998687,-14.119407 15.956096,-25.409162 30.022994,-29.719098 11.70336,-3.585775 25.82554,-1.775119 34.41693,7.40167 3.85493,4.11758 6.98875,9.304374 7.98636,14.810877 1.20337,6.642211 -1.03046,13.891951 -4.7917,19.483521 -3.16831,4.71009 -9.42912,6.01835 -14.80772,7.05567 -4.38598,0.84587 -8.7164,-4.56499 -5.30779,-7.88436 2.98616,-2.90799 7.91023,-3.83375 9.09006,-8.5532 0.89191,-3.56776 1.14981,-7.53702 -1.68569,-10.440003 -6.50237,-6.657102 -16.93157,-6.752189 -25.00626,-3.485265 -9.355293,3.78504 -17.261557,12.613838 -17.363416,23.120958 -0.06988,7.20864 -0.149882,15.21888 4.88151,20.97943 2.193764,2.51169 5.562005,5.90222 3.863408,9.44973 -1.715367,3.58254 -5.884246,3.19944 -8.832694,1.1203 z m 56.905742,7.13051 c -2.13225,-3.41426 -1.2272,-5.49491 5.41371,-12.44586 11.00788,-11.52183 16.36397,-20.72575 19.37848,-33.30001 2.16212,-9.01878 2.26146,-16.117521 0.33419,-23.880796 -2.13423,-8.596932 -5.11536,-13.83496 -11.39011,-20.013153 -9.6315,-9.483306 -19.11608,-13.065383 -34.64006,-13.082667 -10.73386,-0.01195 -19.73141,1.463015 -29.506807,4.837023 -9.671929,3.338306 -12.489869,2.982392 -13.356102,-1.68691 -0.461592,-2.48817 2.368808,-5.151725 9.053362,-8.519695 14.513527,-7.312563 24.661187,-9.825859 39.672787,-9.825859 30.16031,0 51.73647,14.871656 57.8041,39.842265 1.84412,7.589239 1.41112,23.896502 -0.84737,31.913262 -3.42452,12.1557 -12.5954,27.21463 -22.1793,36.41924 -11.21274,10.76897 -17.23855,13.74363 -19.73688,9.74316 z m -30.93754,66.89178 c -34.497452,-3.92874 -68.197951,-28.52455 -75.256698,-63.4056 -2.392329,-11.82178 -4.301656,-25.4117 0.135465,-36.08373 3.532913,-8.49724 9.56484,5.43371 9.562958,11.34575 -0.0091,28.57003 24.85015,52.71892 51.362129,62.11907 26.535636,9.40855 56.766806,3.39478 78.918446,-13.36379 16.86629,-12.75999 29.51589,-31.11552 34.54994,-51.91641 1.69834,-7.0176 -0.0451,-21.49679 7.16266,-21.51676 8.40173,-0.0233 4.93183,14.14899 3.98484,20.94695 -3.54824,25.47116 -13.91812,51.39824 -34.72628,67.80192 -21.12951,16.65701 -48.49323,27.17029 -75.69346,24.0726 z" />
    </clipPath>
    <filter
       id="filter3840"
       x="-0.25"
       width="1.5"
       y="-0.25"
       height="1.5"
       inkscape:menu="Non realistic 3D shaders"
       inkscape:menu-tooltip="Non realistic frosted glass imitation"
       inkscape:label="Frosted glass"
       color-interpolation-filters="sRGB">
      <feGaussianBlur
         id="feGaussianBlur3842"
         result="result8"
         stdDeviation="7" />
      <feComposite
         id="feComposite3844"
         in2="result8"
         in="result8"
         operator="xor"
         result="result6" />
      <feDisplacementMap
         id="feDisplacementMap3846"
         in2="result6"
         result="result4"
         scale="75"
         yChannelSelector="A"
         xChannelSelector="A"
         in="result6" />
      <feComposite
         id="feComposite3848"
         in2="result4"
         k1="2"
         in="SourceGraphic"
         operator="arithmetic"
         result="result2"
         k2="0"
         k3="0"
         k4="0" />
      <feComposite
         id="feComposite3850"
         in2="result2"
         operator="in"
         in="result6"
         result="fbSourceGraphic" />
    </filter>
    <filter
       id="filter3876"
       x="-0.25"
       width="1.5"
       y="-0.25"
       height="1.5"
       inkscape:menu="Non realistic 3D shaders"
       inkscape:menu-tooltip="Non realistic frosted glass imitation"
       inkscape:label="Frosted glass"
       color-interpolation-filters="sRGB">
      <feGaussianBlur
         id="feGaussianBlur3878"
         result="result8"
         stdDeviation="7" />
      <feComposite
         id="feComposite3880"
         in2="result8"
         in="result8"
         operator="xor"
         result="result6" />
      <feDisplacementMap
         id="feDisplacementMap3882"
         in2="result6"
         result="result4"
         scale="75"
         yChannelSelector="A"
         xChannelSelector="A"
         in="result6" />
      <feComposite
         id="feComposite3884"
         in2="result4"
         k1="2"
         in="SourceGraphic"
         operator="arithmetic"
         result="result2"
         k2="0"
         k3="0"
         k4="0" />
      <feComposite
         id="feComposite3886"
         in2="result2"
         operator="in"
         in="result6"
         result="fbSourceGraphic" />
    </filter>
    <filter
       inkscape:collect="always"
       id="filter3691">
      <feGaussianBlur
         inkscape:collect="always"
         stdDeviation="1.5006972"
         id="feGaussianBlur3693" />
    </filter>
    <linearGradient
       y2="24.240818"
       x2="-7.4545116"
       y1="8.5089407"
       x1="-7.4545116"
       gradientTransform="matrix(0.85136988,0,0,0.68928578,21.436713,1022.911)"
       gradientUnits="userSpaceOnUse"
       id="linearGradient3808"
       xlink:href="#linearGradient3612"
       inkscape:collect="always" />
    <linearGradient
       y2="24.240818"
       x2="-7.4545116"
       y1="8.5089407"
       x1="-7.4545116"
       gradientTransform="matrix(0.85136988,0,0,0.68928578,21.436713,1022.911)"
       gradientUnits="userSpaceOnUse"
       id="linearGradient3803"
       xlink:href="#linearGradient3612"
       inkscape:collect="always" />
    <filter
       height="1.24"
       y="-0.12"
       width="1.24"
       x="-0.12"
       id="filter3780"
       inkscape:collect="always">
      <feGaussianBlur
         id="feGaussianBlur3782"
         stdDeviation="0.88712873"
         inkscape:collect="always" />
    </filter>
    <filter
       id="filter3768"
       inkscape:collect="always">
      <feGaussianBlur
         id="feGaussianBlur3770"
         stdDeviation="0.44356437"
         inkscape:collect="always" />
    </filter>
    <filter
       height="2.2719394"
       y="-0.6359697"
       width="2.2830916"
       x="-0.64154579"
       id="filter3733"
       inkscape:collect="always">
      <feGaussianBlur
         id="feGaussianBlur3735"
         stdDeviation="1.9309895"
         inkscape:collect="always" />
    </filter>
    <radialGradient
       inkscape:collect="always"
       xlink:href="#linearGradient4291"
       id="radialGradient3758"
       gradientUnits="userSpaceOnUse"
       gradientTransform="matrix(0.93524186,0.00253302,-0.02416112,0.09311612,1.6900159,22.625282)"
       cx="16.771688"
       cy="24.995224"
       fx="16.771688"
       fy="24.995224"
       r="7.1373591" />
    <linearGradient
       y2="24.240818"
       x2="-7.4545116"
       y1="8.5089407"
       x1="-7.4545116"
       gradientTransform="matrix(0.85136988,0,0,0.68928578,21.436713,1022.911)"
       gradientUnits="userSpaceOnUse"
       id="linearGradient3737"
       xlink:href="#linearGradient3612"
       inkscape:collect="always" />
    <filter
       height="1.2175484"
       y="-0.10877419"
       width="1.2175484"
       x="-0.10877419"
       id="filter3659"
       inkscape:collect="always">
      <feGaussianBlur
         id="feGaussianBlur3661"
         stdDeviation="0.80413927"
         inkscape:collect="always" />
    </filter>
    <clipPath
       id="clipPath3763"
       clipPathUnits="userSpaceOnUse">
      <path
         sodipodi:type="arc"
         style="fill:#bdbdbd;fill-opacity:1;stroke-width:0.1;stroke-miterlimit:4;stroke-dasharray:none"
         id="path3765"
         sodipodi:cx="-7.2871289"
         sodipodi:cy="17.425743"
         sodipodi:rx="8.8712873"
         sodipodi:ry="8.8712873"
         d="m 1.5841584,17.425743 a 8.8712873,8.8712873 0 1 1 -17.7425744,0 8.8712873,8.8712873 0 1 1 17.7425744,0 z" />
    </clipPath>
    <clipPath
       id="clipPath3722"
       clipPathUnits="userSpaceOnUse">
      <path
         sodipodi:type="arc"
         style="fill:#bdbdbd;fill-opacity:1;stroke-width:0.1;stroke-miterlimit:4;stroke-dasharray:none"
         id="path3724"
         sodipodi:cx="-7.2871289"
         sodipodi:cy="17.425743"
         sodipodi:rx="8.8712873"
         sodipodi:ry="8.8712873"
         d="m 1.5841584,17.425743 a 8.8712873,8.8712873 0 1 1 -17.7425744,0 8.8712873,8.8712873 0 1 1 17.7425744,0 z"
         transform="translate(0,-0.7604)" />
    </clipPath>
    <linearGradient
       gradientTransform="matrix(0.85136988,0,0,0.68928578,21.50674,1021.9469)"
       gradientUnits="userSpaceOnUse"
       y2="24.240818"
       x2="-7.4545116"
       y1="8.5089407"
       x1="-7.4545116"
       id="linearGradient3618"
       xlink:href="#linearGradient3612"
       inkscape:collect="always" />
    <linearGradient
       y2="26.297031"
       x2="-7.2871294"
       y1="8.6178017"
       x1="-7.2871294"
       gradientUnits="userSpaceOnUse"
       id="linearGradient2825"
       xlink:href="#linearGradient2827"
       inkscape:collect="always" />
    <linearGradient
       gradientUnits="userSpaceOnUse"
       y2="26.297031"
       x2="-7.2871294"
       y1="8.6178017"
       x1="-7.2871294"
       id="linearGradient2829"
       xlink:href="#linearGradient2823"
       inkscape:collect="always" />
    <linearGradient
       id="linearGradient2823">
      <stop
         id="stop2825"
         offset="0"
         style="stop-color:#3c3c3c;stop-opacity:1;" />
      <stop
         id="stop2827"
         offset="1"
         style="stop-color:#a1a1a1;stop-opacity:1;" />
    </linearGradient>
    <linearGradient
       id="linearGradient2827">
      <stop
         style="stop-color:#191919;stop-opacity:1"
         offset="0"
         id="stop2829" />
      <stop
         style="stop-color:#ffffff;stop-opacity:0"
         offset="1"
         id="stop2831" />
    </linearGradient>
    <linearGradient
       id="linearGradient3612">
      <stop
         id="stop3614"
         offset="0"
         style="stop-color:#ffffff;stop-opacity:1;" />
      <stop
         id="stop3616"
         offset="1"
         style="stop-color:#ffffff;stop-opacity:0;" />
    </linearGradient>
    <linearGradient
       id="linearGradient4291">
      <stop
         id="stop4293"
         offset="0"
         style="stop-color:#191919;stop-opacity:1" />
      <stop
         style="stop-color:#191919;stop-opacity:0.49803922;"
         offset="0.81407565"
         id="stop4297" />
      <stop
         id="stop4295"
         offset="1"
         style="stop-color:#191919;stop-opacity:0;" />
    </linearGradient>
    <inkscape:perspective
       id="perspective46"
       inkscape:persp3d-origin="16 : 10.666667 : 1"
       inkscape:vp_z="32 : 16 : 1"
       inkscape:vp_y="0 : 1000 : 0"
       inkscape:vp_x="0 : 16 : 1"
       sodipodi:type="inkscape:persp3d" />
    <linearGradient
       inkscape:collect="always"
       xlink:href="#linearGradient3612"
       id="linearGradient3213"
       gradientUnits="userSpaceOnUse"
       gradientTransform="matrix(0.85136988,0,0,0.68928578,21.436713,1022.911)"
       x1="-7.4545116"
       y1="8.5089407"
       x2="-7.4545116"
       y2="24.240818" />
    <linearGradient
       y2="24.240818"
       x2="-7.4545116"
       y1="8.5089407"
       x1="-7.4545116"
       gradientTransform="matrix(0.85136988,0,0,0.68928578,21.436713,1022.911)"
       gradientUnits="userSpaceOnUse"
       id="linearGradient3808-1"
       xlink:href="#linearGradient3612-8"
       inkscape:collect="always" />
    <linearGradient
       y2="24.240818"
       x2="-7.4545116"
       y1="8.5089407"
       x1="-7.4545116"
       gradientTransform="matrix(0.85136988,0,0,0.68928578,21.436713,1022.911)"
       gradientUnits="userSpaceOnUse"
       id="linearGradient3803-3"
       xlink:href="#linearGradient3612-8"
       inkscape:collect="always" />
    <filter
       height="1.24"
       y="-0.12"
       width="1.24"
       x="-0.12"
       id="filter3780-7"
       inkscape:collect="always">
      <feGaussianBlur
         id="feGaussianBlur3782-6"
         stdDeviation="0.88712873"
         inkscape:collect="always" />
    </filter>
    <filter
       id="filter3768-4"
       inkscape:collect="always">
      <feGaussianBlur
         id="feGaussianBlur3770-4"
         stdDeviation="0.44356437"
         inkscape:collect="always" />
    </filter>
    <filter
       height="2.2719394"
       y="-0.6359697"
       width="2.2830916"
       x="-0.64154579"
       id="filter3733-4"
       inkscape:collect="always">
      <feGaussianBlur
         id="feGaussianBlur3735-4"
         stdDeviation="1.9309895"
         inkscape:collect="always" />
    </filter>
    <radialGradient
       inkscape:collect="always"
       xlink:href="#linearGradient4291-3"
       id="radialGradient3758-0"
       gradientUnits="userSpaceOnUse"
       gradientTransform="matrix(0.93524186,0.00253302,-0.02416112,0.09311612,1.6900159,22.625282)"
       cx="16.771688"
       cy="24.995224"
       fx="16.771688"
       fy="24.995224"
       r="7.1373591" />
    <linearGradient
       y2="24.240818"
       x2="-7.4545116"
       y1="8.5089407"
       x1="-7.4545116"
       gradientTransform="matrix(0.85136988,0,0,0.68928578,21.436713,1022.911)"
       gradientUnits="userSpaceOnUse"
       id="linearGradient3737-3"
       xlink:href="#linearGradient3612-8"
       inkscape:collect="always" />
    <filter
       height="1.2175484"
       y="-0.10877419"
       width="1.2175484"
       x="-0.10877419"
       id="filter3659-1"
       inkscape:collect="always">
      <feGaussianBlur
         id="feGaussianBlur3661-0"
         stdDeviation="0.80413927"
         inkscape:collect="always" />
    </filter>
    <clipPath
       id="clipPath3763-4"
       clipPathUnits="userSpaceOnUse">
      <path
         sodipodi:type="arc"
         style="fill:#bdbdbd;fill-opacity:1;stroke-width:0.1;stroke-miterlimit:4;stroke-dasharray:none"
         id="path3765-8"
         sodipodi:cx="-7.2871289"
         sodipodi:cy="17.425743"
         sodipodi:rx="8.8712873"
         sodipodi:ry="8.8712873"
         d="m 1.5841584,17.425743 a 8.8712873,8.8712873 0 1 1 -17.7425744,0 8.8712873,8.8712873 0 1 1 17.7425744,0 z" />
    </clipPath>
    <clipPath
       id="clipPath3722-9"
       clipPathUnits="userSpaceOnUse">
      <path
         sodipodi:type="arc"
         style="fill:#bdbdbd;fill-opacity:1;stroke-width:0.1;stroke-miterlimit:4;stroke-dasharray:none"
         id="path3724-8"
         sodipodi:cx="-7.2871289"
         sodipodi:cy="17.425743"
         sodipodi:rx="8.8712873"
         sodipodi:ry="8.8712873"
         d="m 1.5841584,17.425743 a 8.8712873,8.8712873 0 1 1 -17.7425744,0 8.8712873,8.8712873 0 1 1 17.7425744,0 z"
         transform="translate(0,-0.7604)" />
    </clipPath>
    <linearGradient
       gradientTransform="matrix(0.85136988,0,0,0.68928578,21.50674,1021.9469)"
       gradientUnits="userSpaceOnUse"
       y2="24.240818"
       x2="-7.4545116"
       y1="8.5089407"
       x1="-7.4545116"
       id="linearGradient3618-5"
       xlink:href="#linearGradient3612-8"
       inkscape:collect="always" />
    <linearGradient
       y2="26.297031"
       x2="-7.2871294"
       y1="8.6178017"
       x1="-7.2871294"
       gradientUnits="userSpaceOnUse"
       id="linearGradient2825-1"
       xlink:href="#linearGradient2827-9"
       inkscape:collect="always" />
    <linearGradient
       gradientUnits="userSpaceOnUse"
       y2="26.297031"
       x2="-7.2871294"
       y1="8.6178017"
       x1="-7.2871294"
       id="linearGradient2829-1"
       xlink:href="#linearGradient2823-8"
       inkscape:collect="always" />
    <linearGradient
       id="linearGradient2823-8">
      <stop
         id="stop2825-5"
         offset="0"
         style="stop-color:#3c3c3c;stop-opacity:1;" />
      <stop
         id="stop2827-6"
         offset="1"
         style="stop-color:#a1a1a1;stop-opacity:1;" />
    </linearGradient>
    <linearGradient
       id="linearGradient2827-9">
      <stop
         style="stop-color:#191919;stop-opacity:1"
         offset="0"
         id="stop2829-6" />
      <stop
         style="stop-color:#ffffff;stop-opacity:0"
         offset="1"
         id="stop2831-3" />
    </linearGradient>
    <linearGradient
       id="linearGradient3612-8">
      <stop
         id="stop3614-5"
         offset="0"
         style="stop-color:#ffffff;stop-opacity:1;" />
      <stop
         id="stop3616-0"
         offset="1"
         style="stop-color:#ffffff;stop-opacity:0;" />
    </linearGradient>
    <linearGradient
       id="linearGradient4291-3">
      <stop
         id="stop4293-9"
         offset="0"
         style="stop-color:#191919;stop-opacity:1" />
      <stop
         style="stop-color:#191919;stop-opacity:0.49803922;"
         offset="0.81407565"
         id="stop4297-0" />
      <stop
         id="stop4295-8"
         offset="1"
         style="stop-color:#191919;stop-opacity:0;" />
    </linearGradient>
    <inkscape:perspective
       id="perspective46-9"
       inkscape:persp3d-origin="16 : 10.666667 : 1"
       inkscape:vp_z="32 : 16 : 1"
       inkscape:vp_y="0 : 1000 : 0"
       inkscape:vp_x="0 : 16 : 1"
       sodipodi:type="inkscape:persp3d" />
  </defs>
  <sodipodi:namedview
     id="base"
     pagecolor="#ffffff"
     bordercolor="#666666"
     borderopacity="1.0"
     gridtolerance="10000"
     guidetolerance="10"
     objecttolerance="10"
     inkscape:pageopacity="0.0"
     inkscape:pageshadow="2"
     inkscape:zoom="1.8077919"
     inkscape:cx="65.638216"
     inkscape:cy="120.78612"
     inkscape:document-units="px"
     inkscape:current-layer="layer3"
     showgrid="false"
     inkscape:window-width="959"
     inkscape:window-height="622"
     inkscape:window-x="0"
     inkscape:window-y="25"
     showborder="true"
     inkscape:window-maximized="0" />
  <metadata
     id="metadata3266">
    <rdf:RDF>
      <cc:Work
         rdf:about="">
        <dc:format>image/svg+xml</dc:format>
        <dc:type
           rdf:resource="http://purl.org/dc/dcmitype/StillImage" />
        <dc:title></dc:title>
      </cc:Work>
    </rdf:RDF>
  </metadata>
  <g
     inkscape:groupmode="layer"
     id="layer2"
     inkscape:label="Background"
     sodipodi:insensitive="true"
     style="display:none">
    <rect
       style="fill:#0066ff;fill-opacity:1;stroke:none"
       id="rect2857"
       width="247.81613"
       height="247.81613"
       x="1.1063221"
       y="2.1838658"
       ry="16.539982" />
  </g>
  <g
     inkscape:groupmode="layer"
     id="layer7"
     inkscape:label="Glow"
     style="display:inline"
     sodipodi:insensitive="true">
    <path
       sodipodi:type="arc"
       style="opacity:0.14814818;fill:#ffffff;fill-opacity:1;stroke:none;display:inline;filter:url(#filter4079)"
       id="path4069"
       sodipodi:cx="106.20692"
       sodipodi:cy="118.34768"
       sodipodi:rx="58.635067"
       sodipodi:ry="61.954033"
       d="m 164.84198,118.34768 a 58.635067,61.954033 0 1 1 -117.27013,0 58.635067,61.954033 0 1 1 117.27013,0 z"
       transform="matrix(1.1956777,0,0,1.18646,-6.2005016,-22.481664)" />
    <path
       style="fill:#ffffff;fill-opacity:1;stroke:none;display:inline;filter:url(#filter3691);enable-background:new"
       d="m 119.21875,11.8125 c -21.567388,0.814849 -44.762159,7.221079 -59.5625,23.59375 -5.921744,11.089093 7.568089,26.191442 19.125,20.1875 20.359147,-6.125917 44.6239,-12.326243 63.875,0.09375 18.28627,12.134941 20.73221,38.476249 10.59378,56.83674 -5.348,11.56754 -15.64283,19.75151 -22.84378,29.94451 -5.32667,9.22101 1.13923,22.80592 12.28125,22.84375 10.96022,-0.21002 18.73238,-9.67134 26.53125,-16.1875 23.59298,-22.90486 36.47787,-58.884103 26.1875,-91.15625 -7.32544,-22.497481 -27.5932,-39.412111 -50.59375,-43.90625 -8.39139,-1.86417 -16.99948,-2.513316 -25.59375,-2.25 z M 108.125,51.90625 c -34.281604,-0.381663 -64.553246,34.909076 -56.5625,68.8125 3.217784,15.32587 11.497942,32.80873 28.09375,36.65625 12.5632,1.59703 22.45006,-15.73005 13.302392,-25.17209 -5.113464,-5.79584 -8.31232,-13.22172 -7.114892,-21.01541 0.847535,-12.856449 16.4401,-23.600229 28.40625,-17.46875 3.02803,1.506677 1.56531,4.697996 -1.4375,5.125 -8.55417,3.64606 -11.4845,15.01534 -6.15625,22.46875 5.82562,9.23376 18.75771,7.93858 27.3125,3.96875 16.83279,-7.35141 23.63441,-28.665975 16.90625,-45.1875 -6.3271,-17.501674 -24.21481,-28.844664 -42.75,-28.1875 z M 223.71875,92.0625 c -11.71989,0.461001 -17.1482,13.7623 -16.75,24.03125 -4.79871,47.95661 -55.43345,86.1405 -103,76.46875 -30.05997,-5.15843 -58.827457,-29.41691 -62.375,-60.84375 0.378666,-10.91926 -4.064332,-25.17566 -16.25,-27.34375 -10.69383,-0.87228 -16.2015104,11.31717 -16.3125,20.34375 -5.3950806,40.81452 17.950705,83.10331 54.65625,100.96875 33.840461,18.15649 76.71398,16.71558 109.96875,-1.9375 30.61164,-15.5523 54.00593,-44.88169 61.02072,-78.77477 3.47814,-14.02419 6.98485,-29.16504 3.66678,-43.47523 -2.51969,-5.548014 -8.37202,-9.78735 -14.625,-9.4375 z"
       id="path2859"
       inkscape:connector-curvature="0" />
  </g>
  <g
     inkscape:groupmode="layer"
     id="layer4"
     inkscape:label="Ice"
     style="display:inline"
     sodipodi:insensitive="true">
    <path
       transform="translate(-4.4310482,-5.204132)"
       id="path3871"
       d="m 124.15625,25 c -18.03874,0.174518 -36.045514,6.125231 -50.625,16.59375 -5.606097,3.845373 -1.679246,13.8076 5.1875,12.15625 11.795645,-2.502179 23.21713,-7.675954 35.5625,-7.65625 15.27521,-1.235432 31.80023,1.479082 42.78125,12.9375 15.65121,13.558555 17.70954,36.943287 10.59375,55.4375 -4.47406,14.44359 -15.74032,24.77408 -25.03125,35.96875 -4.59756,5.03446 0.83341,14.69402 7.59375,11.59375 12.10968,-5.7659 21.34641,-16.31659 29.0625,-26.96875 10.0407,-14.12275 16.6401,-30.88436 15.8125,-48.5 1.5077,-23.921661 -13.73728,-47.357171 -36.0625,-55.78125 C 148.07474,26.253361 136.02838,24.651615 124.15625,25 z m -12.625,40.1875 c -27.430643,0.75896 -51.925222,26.766732 -48.4375,54.5625 1.740615,12.2951 6.618374,25.58432 17.03125,33.0625 5.076549,4.04013 13.893005,0.16924 12.6875,-6.65625 -1.587348,-7.01009 -9.571088,-10.89628 -9.625,-18.65625 -1.908341,-10.9298 -0.599072,-23.712 9,-30.84375 9.50716,-8.374749 27.15868,-11.259257 35.53125,-0.0625 2.41573,5.60012 -0.51514,12.39111 -6.375,14.34375 -5.03973,1.91077 -6.92363,8.9386 -2.40625,12.46875 5.50315,4.63438 13.1245,0.69012 18.90625,-1.46875 9.051,-5.2454 12.54966,-17.01907 11.8125,-26.9375 -2.61484,-18.123554 -20.04615,-31.085957 -38.125,-29.8125 z m 116.125,40.1875 c -7.90345,1.34028 -7.61542,11.65559 -8.29787,17.80937 -2.34165,23.95738 -16.54064,45.75618 -34.44484,61.07387 -28.31554,24.64928 -72.44325,30.88474 -105.22604,11.42926 -22.678334,-12.49043 -41.884361,-35.54628 -41.5,-62.375 -1.115347,-5.79639 -2.787599,-13.71234 -8.9375,-16 -6.223184,-0.0361 -6.633542,8.30655 -7.90625,12.84375 -2.010119,16.50566 1.112912,33.63561 7.34375,48.90625 19.453946,43.16312 72.76772,66.03505 117.96875,53.4375 31.11597,-8.3996 60.95866,-27.95371 75.01882,-57.67107 9.1364,-18.45947 13.62615,-39.16909 14.79368,-59.70393 0.18631,-5.03612 -3.16895,-10.53264 -8.8125,-9.75 z"
       style="fill:#afc6e9;fill-opacity:1;stroke:none"
       inkscape:connector-curvature="0" />
    <path
       style="fill:#0055d4;fill-opacity:1;stroke:none;filter:url(#filter3876)"
       d="m 124.15625,25 c -18.03874,0.174518 -36.045514,6.125231 -50.625,16.59375 -5.606097,3.845373 -1.679246,13.8076 5.1875,12.15625 11.795645,-2.502179 23.21713,-7.675954 35.5625,-7.65625 15.27521,-1.235432 31.80023,1.479082 42.78125,12.9375 15.65121,13.558555 17.70954,36.943287 10.59375,55.4375 -4.47406,14.44359 -15.74032,24.77408 -25.03125,35.96875 -4.59756,5.03446 0.83341,14.69402 7.59375,11.59375 12.10968,-5.7659 21.34641,-16.31659 29.0625,-26.96875 10.0407,-14.12275 16.6401,-30.88436 15.8125,-48.5 1.5077,-23.921661 -13.73728,-47.357171 -36.0625,-55.78125 C 148.07474,26.253361 136.02838,24.651615 124.15625,25 z m -12.625,40.1875 c -27.430643,0.75896 -51.925222,26.766732 -48.4375,54.5625 1.740615,12.2951 6.618374,25.58432 17.03125,33.0625 5.076549,4.04013 13.893005,0.16924 12.6875,-6.65625 -1.587348,-7.01009 -9.571088,-10.89628 -9.625,-18.65625 -1.908341,-10.9298 -0.599072,-23.712 9,-30.84375 9.50716,-8.374749 27.15868,-11.259257 35.53125,-0.0625 2.41573,5.60012 -0.51514,12.39111 -6.375,14.34375 -5.03973,1.91077 -6.92363,8.9386 -2.40625,12.46875 5.50315,4.63438 13.1245,0.69012 18.90625,-1.46875 9.051,-5.2454 12.54966,-17.01907 11.8125,-26.9375 -2.61484,-18.123554 -20.04615,-31.085957 -38.125,-29.8125 z m 116.125,40.1875 c -7.90345,1.34028 -7.61542,11.65559 -8.29787,17.80937 -2.34165,23.95738 -16.54064,45.75618 -34.44484,61.07387 -28.31554,24.64928 -72.44325,30.88474 -105.22604,11.42926 -22.678334,-12.49043 -41.884361,-35.54628 -41.5,-62.375 -1.115347,-5.79639 -2.787599,-13.71234 -8.9375,-16 -6.223184,-0.0361 -6.633542,8.30655 -7.90625,12.84375 -2.010119,16.50566 1.112912,33.63561 7.34375,48.90625 19.453946,43.16312 72.76772,66.03505 117.96875,53.4375 31.11597,-8.3996 60.95866,-27.95371 75.01882,-57.67107 9.1364,-18.45947 13.62615,-39.16909 14.79368,-59.70393 0.18631,-5.03612 -3.16895,-10.53264 -8.8125,-9.75 z"
       id="path3874"
       transform="translate(-4.4310482,-5.204132)"
       inkscape:connector-curvature="0" />
  </g>
  <g
     inkscape:label="Logo"
     inkscape:groupmode="layer"
     id="layer1"
     transform="translate(-4.4310482,-5.204132)"
     style="opacity:0.40869565;display:inline"
     sodipodi:insensitive="true">
    <path
       style="fill:#0066ff;fill-opacity:1;stroke:none"
       d="m 124.15625,25 c -18.03874,0.174518 -36.045514,6.125231 -50.625,16.59375 -5.606097,3.845373 -1.679246,13.8076 5.1875,12.15625 11.795645,-2.502179 23.21713,-7.675954 35.5625,-7.65625 15.27521,-1.235432 31.80023,1.479082 42.78125,12.9375 15.65121,13.558555 17.70954,36.943287 10.59375,55.4375 -4.47406,14.44359 -15.74032,24.77408 -25.03125,35.96875 -4.59756,5.03446 0.83341,14.69402 7.59375,11.59375 12.10968,-5.7659 21.34641,-16.31659 29.0625,-26.96875 10.0407,-14.12275 16.6401,-30.88436 15.8125,-48.5 1.5077,-23.921661 -13.73728,-47.357171 -36.0625,-55.78125 C 148.07474,26.253361 136.02838,24.651615 124.15625,25 z m -12.625,40.1875 c -27.430643,0.75896 -51.925222,26.766732 -48.4375,54.5625 1.740615,12.2951 6.618374,25.58432 17.03125,33.0625 5.076549,4.04013 13.893005,0.16924 12.6875,-6.65625 -1.587348,-7.01009 -9.571088,-10.89628 -9.625,-18.65625 -1.908341,-10.9298 -0.599072,-23.712 9,-30.84375 9.50716,-8.374749 27.15868,-11.259257 35.53125,-0.0625 2.41573,5.60012 -0.51514,12.39111 -6.375,14.34375 -5.03973,1.91077 -6.92363,8.9386 -2.40625,12.46875 5.50315,4.63438 13.1245,0.69012 18.90625,-1.46875 9.051,-5.2454 12.54966,-17.01907 11.8125,-26.9375 -2.61484,-18.123554 -20.04615,-31.085957 -38.125,-29.8125 z m 116.125,40.1875 c -7.90345,1.34028 -7.61542,11.65559 -8.29787,17.80937 -2.34165,23.95738 -16.54064,45.75618 -34.44484,61.07387 -28.31554,24.64928 -72.44325,30.88474 -105.22604,11.42926 -22.678334,-12.49043 -41.884361,-35.54628 -41.5,-62.375 -1.115347,-5.79639 -2.787599,-13.71234 -8.9375,-16 -6.223184,-0.0361 -6.633542,8.30655 -7.90625,12.84375 -2.010119,16.50566 1.112912,33.63561 7.34375,48.90625 19.453946,43.16312 72.76772,66.03505 117.96875,53.4375 31.11597,-8.3996 60.95866,-27.95371 75.01882,-57.67107 9.1364,-18.45947 13.62615,-39.16909 14.79368,-59.70393 0.18631,-5.03612 -3.16895,-10.53264 -8.8125,-9.75 z"
       id="path3340"
       inkscape:connector-curvature="0" />
  </g>
  <g
     inkscape:groupmode="layer"
     id="layer3"
     inkscape:label="Status">
    <g
       style="display:inline"
       transform="matrix(6.08983,0,0,6.08983,77.562717,-6141.6521)"
       id="layer1-5"
       inkscape:label="Layer 1">
      <g
         transform="translate(0.62178193,-0.21923911)"
         id="g3725">
        <path
           transform="matrix(1.119561,0,0,1.119561,23.536604,1017.9561)"
           d="m 1.5841584,17.425743 c 0,4.899477 -3.9718106,8.871287 -8.8712873,8.871287 -4.8994771,0 -8.8712871,-3.97181 -8.8712871,-8.871287 0,-4.899477 3.97181,-8.8712872 8.8712871,-8.8712872 4.8994767,0 8.8712873,3.9718102 8.8712873,8.8712872 z"
           sodipodi:ry="8.8712873"
           sodipodi:rx="8.8712873"
           sodipodi:cy="17.425743"
           sodipodi:cx="-7.2871289"
           id="path3778"
           style="fill:#a8a8a8;fill-opacity:1;stroke:none;filter:url(#filter3780-7)"
           sodipodi:type="arc" />
        <path
           sodipodi:type="arc"
           style="fill:#ffc542;fill-opacity:1;stroke:none"
           id="path2823"
           sodipodi:cx="-7.2871289"
           sodipodi:cy="17.425743"
           sodipodi:rx="8.8712873"
           sodipodi:ry="8.8712873"
           d="m 1.5841584,17.425743 c 0,4.899477 -3.9718106,8.871287 -8.8712873,8.871287 -4.8994771,0 -8.8712871,-3.97181 -8.8712871,-8.871287 0,-4.899477 3.97181,-8.8712872 8.8712871,-8.8712872 4.8994767,0 8.8712873,3.9718102 8.8712873,8.8712872 z"
           transform="translate(22.665347,1019.1557)" />
        <path
           transform="matrix(1,0,0,0.48494163,0.14653457,538.53113)"
           style="fill:#ffffff;fill-opacity:1;stroke-width:0.1;stroke-miterlimit:4;filter:url(#filter3733-4)"
           d="m 18.843565,1040.6208 c 0,2.0123 -1.617094,2.8107 -3.611882,2.8107 -1.994786,0 -3.611881,-0.7984 -3.611881,-2.8107 0,-2.0123 1.617095,-4.4764 3.611881,-4.4764 1.994788,0 3.611882,2.4641 3.611882,4.4764 z"
           id="path2819"
           sodipodi:nodetypes="csssc"
           inkscape:connector-curvature="0" />
        <path
           style="opacity:0.8;fill:url(#linearGradient3808-1);fill-opacity:1;stroke-width:0.1;stroke-miterlimit:4"
           d="m 22.785418,1036.1088 c 0,3.3771 -3.381479,4.9284 -7.552746,4.9284 -4.171268,0 -7.0848777,-1.5513 -7.0848777,-4.9284 0,-3.3772 2.9136097,-7.3013 7.0848777,-7.3013 4.171267,0 7.552746,3.9241 7.552746,7.3013 z"
           id="path3609"
           sodipodi:nodetypes="csssc"
           inkscape:connector-curvature="0" />
        <path
           transform="translate(22.665347,1019.0354)"
           d="m 1.5841584,17.425743 c 0,4.899477 -3.9718106,8.871287 -8.8712873,8.871287 -4.8994771,0 -8.8712871,-3.97181 -8.8712871,-8.871287 0,-4.899477 3.97181,-8.8712872 8.8712871,-8.8712872 4.8994767,0 8.8712873,3.9718102 8.8712873,8.8712872 z"
           sodipodi:ry="8.8712873"
           sodipodi:rx="8.8712873"
           sodipodi:cy="17.425743"
           sodipodi:cx="-7.2871289"
           id="path3739"
           style="fill:none;stroke:none;filter:url(#filter3659-1)"
           sodipodi:type="arc"
           clip-path="url(#clipPath3763-4)" />
        <path
           transform="matrix(0.97883778,0,0,0.97883778,22.511135,1019.5245)"
           d="m 1.5841584,17.425743 c 0,4.899477 -3.9718106,8.871287 -8.8712873,8.871287 -4.8994771,0 -8.8712871,-3.97181 -8.8712871,-8.871287 0,-4.899477 3.97181,-8.8712872 8.8712871,-8.8712872 4.8994767,0 8.8712873,3.9718102 8.8712873,8.8712872 z"
           sodipodi:ry="8.8712873"
           sodipodi:rx="8.8712873"
           sodipodi:cy="17.425743"
           sodipodi:cx="-7.2871289"
           id="path3746"
           style="opacity:0.70081967;fill:none;stroke:#323232;stroke-width:0.5108099;stroke-miterlimit:4;stroke-opacity:1;stroke-dasharray:none;filter:url(#filter3768-4)"
           sodipodi:type="arc" />
      </g>
    </g>
  </g>
</svg>
