/* XPM */
static const char *wiLink_xpm[] = {
/* width height ncolors chars_per_pixel */
"32 32 257 2",
/* colors */
"   c #478AEE",
" . c #659DF1",
" X c #A8C6F4",
" o c #3C83ED",
" O c #5B98F1",
" + c #5A96F0",
" @ c #BDD4F8",
" # c #F9FCFE",
" $ c #75A7F0",
" % c #4F8FEF",
" & c #4E8FEE",
" * c #B0CBF5",
" = c #EEF3FD",
" - c #699EEE",
" ; c #4488EE",
" : c #689EED",
" > c #5F99EE",
" , c #E1ECFA",
" < c #5E97ED",
" 1 c #5794F0",
" 2 c #F6FAFE",
" 3 c #71A3EF",
" 4 c #4C8DEF",
" 5 c #4B8DEE",
" 6 c #669CEE",
" 7 c #4186EE",
" 8 c #659CED",
" 9 c #4086ED",
" 0 c #5F99F1",
" q c #3F84EC",
" w c #5E99F0",
" e c #C1D7F8",
" r c #C0D7F7",
" t c #5C97EE",
" y c #DFEAFB",
" u c #78A8EF",
" i c #5292EE",
" p c #96BBF2",
" a c #5190ED",
" s c #F2F6FD",
" d c #6EA1EF",
" f c #488BEE",
" g c #669EF1",
" h c #C8DCF8",
" j c #E6EFFB",
" k c #3C82EC",
" l c #5B97F0",
" z c #9EC0F3",
" x c #FBFDFF",
" c c #BBD3F5",
" v c #F9FBFD",
" b c #5190F0",
" n c #5090EF",
" m c #93B9F2",
" M c #4E8EED",
" N c #D0E1F9",
" B c #6B9FEF",
" V c #4589EE",
" C c #4487ED",
" Z c #639CF1",
" A c #A6C5F4",
" S c #C5D8F8",
" D c #5895F0",
" F c #5693EE",
" G c #5593ED",
" H c #D8E6FA",
" J c #4D8EEF",
" K c #CFE1FB",
" L c #4B8CED",
" P c #8EB5F0",
" I c #EBF2FC",
" U c #669DED",
" Y c #609AF1",
" T c #4085EC",
" R c #C2D8F8",
" E c #5593F0",
" W c #4A8CEF",
" Q c #498CEE",
" ! c #669DF0",
" ~ c #E8F0FC",
" ^ c #E7F0FB",
" / c #649BEE",
" ( c #3E85ED",
" ) c #82AEF1",
" _ c #5D98F1",
" ` c #81AEF0",
" ' c #5C98F0",
" ] c #5994ED",
" [ c #77A7F0",
" { c #5291F0",
" } c #B2CDF5",
" | c #468AEE",
".  c #659DF2",
".. c #89B3F1",
".X c #A8C6F5",
".o c #C6D9F8",
".O c #E5EEFC",
".+ c #C5D9F7",
".@ c #E4EEFB",
".# c #6199EE",
".$ c #5A96F1",
".% c #5996F0",
".& c #5794EE",
".* c #F8FAFE",
".= c #73A5EF",
".- c #4D8DEE",
".; c #4C8DED",
".: c #AFCBF5",
".> c #CEE0F9",
"., c #CEDEF9",
".< c #ECF3FC",
".1 c #619BF1",
".2 c #5E97EE",
".3 c #377FEC",
".4 c #5694F0",
".5 c #4B8DEF",
".6 c #4A8BEE",
".7 c #8DB6F1",
".8 c #ACC9F5",
".9 c #CBDEF9",
".0 c #5E99F1",
".q c #C0D5F8",
".w c #DEEAFB",
".e c #FDFDFF",
".r c #5A95ED",
".t c #5392F0",
".y c #5292EF",
".u c #95BBF2",
".i c #F1F6FD",
".p c #669EF2",
".a c #6B9FED",
".s c #8AB4F1",
".d c #A9C7F5",
".f c #629AEE",
".g c #E5EDFB",
".h c #3C82ED",
".j c #5B97F1",
".k c #3B82EC",
".l c #DBE8FB",
".z c #93B9F3",
".x c #4E8EEE",
".c c #B1CCF6",
".v c #4D8EED",
".b c #B0CCF5",
".n c #AFCAF4",
".m c #CEDFF8",
".M c #639CF2",
".N c #87B2F1",
".B c #C3D8F7",
".V c #E2EDFB",
".C c #5895F1",
".Z c #5795F0",
".A c #7BA9EF",
".S c #99BEF2",
".D c #5491ED",
".F c #F5F9FD",
".G c #71A2EF",
".H c #4B8CEE",
".J c #CBDDF8",
".K c #4187EE",
".L c #5F9AF1",
".P c #83B0F0",
".I c #A0C1F2",
".U c #357EEC",
".Y c #5493F0",
".T c #5393EF",
".R c #8CB5F2",
".E c #488AEE",
".W c #679FF2",
".Q c #E7EEFC",
".! c #5C98F1",
".~ c #BDD4F7",
".^ c #9DBFF2",
"./ c #FBFCFF",
".( c #BCD2F6",
".) c #5191F0",
"._ c #4F8FEE",
".` c #93B8F2",
".' c #4E8FED",
".] c #4F8DEE",
".[ c #B1CBF5",
".{ c #EFF5FD",
".} c #699EED",
".| c #4488ED",
"X  c #C6DBF9",
"X. c #E3EEFB",
"XX c #5F97ED",
"Xo c #5996F1",
"XO c #7DACF0",
"X+ c #5692EE",
"X@ c #5592ED",
"X# c #D8E5FA",
"X$ c #F7FAFE",
"X% c #F6FAFD",
"X& c #D7E3F9",
"X* c #91B8F3",
"X= c #4C8DEE",
"X- c #69A0F0",
"X; c #4186ED",
"X: c #84AFF0",
"X> c #4084EC",
"X, c #FFFFFF",
"X< c #5C97ED",
"X1 c #B7D0F7",
"X2 c #97BBF2",
"X3 c #F4F8FE",
"X4 c #8DB6F2",
"X5 c #498BEE",
"X6 c #ABC9F5",
"X7 c #CADCF9",
"X8 c #E7EFFB",
"X9 c #649AEE",
"X0 c #3E84ED",
"Xq c #5D99F1",
"Xw c #BED5F7",
"Xe c #FCFDFF",
"Xr c #5292F0",
"Xt c #5190EF",
"Xy c #5090EE",
"Xu c #6B9FEE",
"Xi c #4689EE",
"Xp c #4589ED",
"Xa c #89B2F1",
"Xs c #619AEE",
"Xd c #3A82EC",
"Xf c #5895EF",
"Xg c #9CBEF3",
"Xh c #9BBEF2",
"Xj c #BAD1F6",
"Xk c #5693ED",
"Xl c #D9E6FA",
"Xz c #92B9F3",
"Xx c #4E8EEF",
"Xc c #4D8EEE",
"Xv c #4C8CED",
"Xb c #689FEE",
"Xn c #689DEE",
"Xm c #619CF1",
"XM c #5E98EE",
"XN c #5D98ED",
"XB c #3780EC",
"XV c #F5F9FE",
"XC c #F4F7FD",
"XZ c #4B8CEF",
"XA c #6FA2EE",
"XS c #4A8CEE",
"XD c #ACC8F5",
"XF c #EAF2FD",
"XG c #ABC8F4",
"XH c #E8F0FB",
"XJ c #3F85ED",
"XK c #FDFEFF",
"XL c #BED4F6",
"XP c #5A96ED",
"XI c #5393F0",
"XU c #508FED",
"XY c None",
/* pixels */
"XYXYXYXYXYXYXYXYXYXYXYXYXYXYXYXYXYXYXYXYXYXYXYXYXYXYXYXYXYXYXYXY",
"XYXYXYXYXYXYXYXYXYXYXYXYXYXYXYXYXYXYXYXYXYXYXYXYXYXYXYXYXYXYXYXY",
"XYXYXYXYXYXYXYXYXYXYXYX, xX&.d.7 pXDXFX,X,XYXYXYXYXYXYXYXYXYXYXY",
"XYXYXYXYXYXYXYXYXYX, N.2 ; f n EXr 4.KX@.:X,XYXYXYXYXYXYXYXYXYXY",
"XYXYXYXYXYXYXYXY.i.# 7 5X= fX5 QXS D Y.%Xi tXVXYXYXYXYXYXYXYXYXY",
"XYXYXYXYXYXYXYXY K.U T 8.NXG c.X p.f {.Y O.5XX./XYXYXYXYXYXYXYXY",
"XYXYXYXYXYXYXYXYX, ^XeX,X,X,X,XYXYX,.cXf.% O nXzX,XYXYXYXYXYXYXY",
"XYXYXYXYXYXYXYXYXYXYX,X,.F R.o.<X,XYXYX8Xy.1.0 aXeXYXYXYXYXYXYXY",
"XYXYXYXYXYXYXYXYXYX,.>Xk   f | C [ vXYX,.b J.1.Z.,XYXYXYXYXYXYXY",
"XYXYXYXYXYXYXYXYX,X2.H.0 l.$ +.j Q UX,XYXK LXo D.bXYXYXYXYXYXYXY",
"XYXYXYXYXYXYXYXYXLXZ g.0X=X- ! b E.H SXYX, 6 E E.IXYXYXYXYXYXYXY",
"XYXYXYXYXYXYXY xXU. .).G.JX,X,.P l DXOX,X,Xb DXr.qXYXYXYXYXYXYXY",
"XYXYXYXYXYXYXY r.H.0 /X,XYXYX,.( %.yX4X,X,XM.$.tXHXYXYX,X3X,XYXY",
"XYXYXYXYXYXYXY z i f.mXYXYXY ~Xv 5.6 hX,./ W D MX,XYXY.@X>X*X,XY",
"XYXY.VX X,XYXY.R & 5.OXYXYX, mXBX0XzX,X,Xg.) 5X:X,XYXY p.k.}X,XY",
"XYX,.2.3 IXYXY rX;.5 yXYXYXYXCX1XlX,XYXV.; DXt sXYXYX, 3 (X:X,XY",
"XYX,.' o.8XYXYXe.| f..X,XYXYXYXYXYXYX, u n ; mX,XYXYX, GXJ AXYXY",
"XYX,.DXp )X,XYX,.zXJ q.<XYXYXYXYXYX,.^Xi V :X,XYXYXY.< | 9.9XYXY",
"XYX,.& 4XnX,XYXYX, d.h.gXYXYXYXYXY.lXd (.r.*XYXYXYX, `._.E #XYXY",
"XYX,X9 nXxX8XYXYXYX,X,X,XYXYXYXYX,X7 k.sXeXYXYXYXY.QXcXtXAX,XYXY",
"XYXY.S J.H.=X,XYXYXYXYXYXYXYXYXYXYX,XKX,XYXYXYXYX$.D.  VXwXYXYXY",
"XYXYX. 9 DXt *X,XYXYXYXYXYXYXYXYXYXYXYXYXYXYXYXKXs.  Z.]X,XYXYXY",
"XYXYX,X< &XI.-.+X,XYXYXYXYXYXYXYXYXYXYXYXYXYX, $.L gX= *XYXYXYXY",
"XYXYXY jX=.T.$XS.uX,XYXYXYXYXYXYXYXYXYXYX, , <.1 g.x -X,XYXYXYXY",
"XYXYXYX,.nXi + 0Xx >.[.eX,XYXYXYXYXYX,X% PXc.p g.YX+ =XYXYXYXYXY",
"XYXYXYXYX,.=X= _.1.4XS.v.A X }.~ @XaXN 4 Z.W.W.5XP.{XYXYXYXYXYXY",
"XYXYXYXYXYX,.` &.!Xm.L.%.T % n b E.0 g.W.W.L.C.a 2XYXYXYXYXYXYXY",
"XYXYXYXYXYXYX,.wXP E.0Xq w Y Z .. .p.M E.4 ].BX,XYXYXYXYXYXYXYXY",
"XYXYXYXYXYXYXYXYX, X B F.j '.% D.%.! 1XuXjX,XYXYXYXYXYXYXYXYXYXY",
"XYXYXYXYXYXYXYXYXYXYX,X, HXh pX6 eX#X$X,XYXYXYXYXYXYXYXYXYXYXYXY",
"XYXYXYXYXYXYXYXYXYXYXYXYXYXYXYXYXYXYXYXYXYXYXYXYXYXYXYXYXYXYXYXY",
"XYXYXYXYXYXYXYXYXYXYXYXYXYXYXYXYXYXYXYXYXYXYXYXYXYXYXYXYXYXYXYXY"
};
