<?xml version="1.0" encoding="UTF-8" standalone="no"?>
<!-- Created with Inkscape (http://www.inkscape.org/) -->

<svg
   xmlns:dc="http://purl.org/dc/elements/1.1/"
   xmlns:cc="http://creativecommons.org/ns#"
   xmlns:rdf="http://www.w3.org/1999/02/22-rdf-syntax-ns#"
   xmlns:svg="http://www.w3.org/2000/svg"
   xmlns="http://www.w3.org/2000/svg"
   xmlns:sodipodi="http://sodipodi.sourceforge.net/DTD/sodipodi-0.dtd"
   xmlns:inkscape="http://www.inkscape.org/namespaces/inkscape"
   width="22"
   height="22"
   id="svg3261"
   sodipodi:version="0.32"
   inkscape:version="0.48.1 r9760"
   version="1.0"
   sodipodi:docname="wiLink-white.svg"
   inkscape:output_extension="org.inkscape.output.svg.inkscape"
   style="display:inline;enable-background:new">
  <defs
     id="defs3263" />
  <sodipodi:namedview
     id="base"
     pagecolor="#ffffff"
     bordercolor="#666666"
     borderopacity="1.0"
     gridtolerance="10000"
     guidetolerance="10"
     objecttolerance="10"
     inkscape:pageopacity="0.0"
     inkscape:pageshadow="2"
     inkscape:zoom="14.462335"
     inkscape:cx="4.905338"
     inkscape:cy="9.4218388"
     inkscape:document-units="px"
     inkscape:current-layer="layer1"
     showgrid="false"
     inkscape:window-width="1366"
     inkscape:window-height="692"
     inkscape:window-x="0"
     inkscape:window-y="25"
     showborder="true"
     inkscape:window-maximized="1" />
  <metadata
     id="metadata3266">
    <rdf:RDF>
      <cc:Work
         rdf:about="">
        <dc:format>image/svg+xml</dc:format>
        <dc:type
           rdf:resource="http://purl.org/dc/dcmitype/StillImage" />
        <dc:title></dc:title>
      </cc:Work>
    </rdf:RDF>
  </metadata>
  <g
     inkscape:label="Logo"
     inkscape:groupmode="layer"
     id="layer1"
     transform="translate(-4.4310482,-233.20413)"
     style="opacity:1;display:inline">
    <path
       style="fill:#ffffff;fill-opacity:1;stroke:#597fbe;stroke-width:1;stroke-miterlimit:4;stroke-opacity:1"
       d="m 15.03125,234.1875 c -1.815101,0.0403 -3.693448,0.61825 -5.0722489,1.81914 -0.6767053,1.25683 1.0836029,1.78236 1.9512119,1.12612 1.742471,-0.5684 3.856716,-0.79254 5.462668,0.27488 1.266856,0.86272 1.937496,2.43508 1.716765,3.95036 -0.170337,1.60937 -1.179211,2.95541 -2.257848,4.12594 -0.910647,0.53054 -0.596397,2.17528 0.562938,1.94905 1.670388,-0.71607 2.805661,-2.28757 3.664184,-3.83113 0.898719,-1.75951 1.075002,-3.91572 0.393379,-5.77431 -0.621484,-1.61438 -2.087172,-2.91131 -3.71056,-3.29465 -0.874645,-0.27198 -1.796744,-0.37263 -2.710489,-0.3454 z m -1.21875,3.71875 c -2.833981,0.0592 -5.335628,2.96206 -4.6409881,5.78656 0.26602,1.17268 0.8706751,2.54511 2.0455251,2.98809 1.070704,0.27186 1.594628,-1.17937 0.809302,-1.83043 -0.684934,-0.71069 -0.664617,-1.83526 -0.405095,-2.72913 0.486429,-1.14005 2.080584,-1.8326 3.201291,-1.18626 1.070745,0.88246 -0.824198,1.19297 -0.809489,2.05991 -0.0771,1.01444 1.226562,1.26965 1.947276,0.85451 1.752179,-0.51487 2.183496,-2.97237 1.154208,-4.33479 -0.717684,-1.06661 -2.020464,-1.6982 -3.30203,-1.60846 z m 10.6875,3.6875 c -1.195119,0.3027 -0.825003,1.79865 -1.095163,2.69278 -0.896152,3.71707 -4.431775,6.68221 -8.292404,6.70615 -3.137123,0.0836 -6.3652071,-1.83859 -7.4648936,-4.83379 -0.3908425,-0.9734 -0.075633,-2.132 -0.7563485,-3.00718 -0.3882667,-0.79015 -1.4686174,-0.37146 -1.4970026,0.41392 -0.4898872,1.80896 -0.033139,3.74877 0.6640617,5.43882 2.0381116,4.27177 7.532089,6.3246 11.919974,4.6514 2.932436,-0.96717 5.598853,-3.09034 6.675442,-6.05244 0.626401,-1.60314 0.969388,-3.32622 0.994788,-5.04654 -0.03505,-0.58831 -0.556161,-1.06363 -1.148454,-0.96312 z"
       id="path7276"
       inkscape:connector-curvature="0" />
  </g>
</svg>
